<?xml version="1.0" encoding="UTF-8" standalone="no"?>
<svg width="19px" height="17px" viewBox="0 0 19 17" version="1.1" xmlns="http://www.w3.org/2000/svg" xmlns:xlink="http://www.w3.org/1999/xlink" xmlns:sketch="http://www.bohemiancoding.com/sketch/ns">
    <!-- Generator: Sketch 3.2.2 (9983) - http://www.bohemiancoding.com/sketch -->
    <title>Rectangle 88 + Rectangle 91</title>
    <desc>Created with Sketch.</desc>
    <defs></defs>
    <g id="Page-1" stroke="none" stroke-width="1" fill="none" fill-rule="evenodd" sketch:type="MSPage">
        <g id="icons@2x" sketch:type="MSArtboardGroup" transform="translate(-1459.000000, -163.000000)" fill="#000000">
            <g id="Rectangle-88-+-Rectangle-91" sketch:type="MSLayerGroup" transform="translate(1459.000000, 163.000000)">
                <path d="M0,7.27799182 C0,6.17224609 0.890925393,5.27586207 1.99742191,5.27586207 L17.0025781,5.27586207 C18.1057238,5.27586207 19,6.17636815 19,7.27799182 L19,14.9978702 C19,16.103616 18.1090746,17 17.0025781,17 L1.99742191,17 C0.894276248,17 0,16.0994939 0,14.9978702 L0,7.27799182 Z M13.0625,5.27586207 L14.84375,5.27586207 L14.84375,17 L13.0625,17 L13.0625,5.27586207 Z M4.15625,5.27586207 L5.9375,5.27586207 L5.9375,17 L4.15625,17 L4.15625,5.27586207 Z M8.9656105,9.96551724 L10.1531105,9.96551724 L10.1531105,11.1287492 C10.1531105,11.4575733 9.87768936,11.7241379 9.5593605,11.7241379 C9.23144143,11.7241379 8.9656105,11.4493534 8.9656105,11.1287492 L8.9656105,9.96551724 Z" id="Rectangle-88" sketch:type="MSShapeGroup"></path>
                <path d="M9.20309134,2.05172414 L9.79690866,2.05172414 C10.6169534,2.05172414 11.28125,2.70693062 11.28125,3.51501538 L11.28125,5.86206897 L7.71875,5.86206897 L7.71875,3.51501538 C7.71875,2.70912715 8.3862504,2.05172414 9.20309134,2.05172414 Z M5.9375,8.20912255 C5.9375,9.98885773 13.0625,8.89690877 13.0625,8.20912255 L13.0625,3.51501538 C13.0625,1.7352802 11.600315,0.293103448 9.79690866,0.293103448 L9.20309134,0.293103448 C7.40347165,0.293103448 5.9375,1.7368991 5.9375,3.51501538 L5.9375,8.20912255 Z" id="Rectangle-91" sketch:type="MSShapeGroup"></path>
            </g>
        </g>
    </g>
</svg>