<?xml version="1.0" encoding="utf-8"?>
<!-- Generated by IcoMoon.io -->
<!DOCTYPE svg PUBLIC "-//W3C//DTD SVG 1.1//EN" "http://www.w3.org/Graphics/SVG/1.1/DTD/svg11.dtd">
<svg version="1.1" xmlns="http://www.w3.org/2000/svg" xmlns:xlink="http://www.w3.org/1999/xlink" width="32" height="32" viewBox="0 0 32 32">
<path fill="#565656" d="M26.592 20.738c0.346 1.483 0.533 3.059 0.533 4.693 0 8.758-23.934 8.758-23.934 0 0-1.634 0.186-3.21 0.533-4.693-2.319-0.383-3.724-1.772-3.724-5.58 0-8.371 6.786-15.158 15.158-15.158s15.158 6.786 15.158 15.158c0 3.808-1.405 5.197-3.724 5.58zM15.158 16.842c0 0-3.368 2.87-3.368 4.542s1.508-1.298 3.368-1.298c1.86 0 3.368 2.97 3.368 1.298s-3.368-4.542-3.368-4.542zM10.342 16.231c2.185-0.795 4.032-1.233 3.237-3.418s-3.211-3.312-5.397-2.517c-2.185 0.795-3.312 3.212-2.517 5.397s2.491 1.334 4.677 0.538zM19.475 15.998c2.014 1.163 3.536 2.296 4.699 0.282s0.473-4.589-1.541-5.752c-2.014-1.163-4.589-0.473-5.752 1.541s0.58 2.766 2.594 3.928zM26.105 21.053h-1.684c0 3.167-4.092 5.895-9.263 5.895s-9.263-2.728-9.263-5.895h-1.684c0 4.275 4.956 7.579 10.947 7.579s10.947-3.304 10.947-7.579z"></path>
</svg>
