<?xml version="1.0" encoding="utf-8"?>
<!-- Generated by IcoMoon.io -->
<!DOCTYPE svg PUBLIC "-//W3C//DTD SVG 1.1//EN" "http://www.w3.org/Graphics/SVG/1.1/DTD/svg11.dtd">
<svg version="1.1" xmlns="http://www.w3.org/2000/svg" xmlns:xlink="http://www.w3.org/1999/xlink" width="32" height="32" viewBox="0 0 32 32">
<path fill="#565656" d="M3.368 5.562c0-2.784 2.264-5.040 5.052-5.040h15.16c2.79 0 5.052 2.279 5.052 5.040v20.236c0 2.784-2.264 5.040-5.052 5.040h-15.16c-2.79 0-5.052-2.279-5.052-5.040v-20.236zM11.789 25.785c0 0.937 0.754 1.684 1.684 1.684h5.053c0.937 0 1.684-0.754 1.684-1.684 0-0.937-0.754-1.684-1.684-1.684h-5.053c-0.937 0-1.684 0.754-1.684 1.684zM8.421 20.732c0 0.937 0.752 1.684 1.68 1.684h11.798c0.928 0 1.68-0.754 1.68-1.684 0-0.937-0.752-1.684-1.68-1.684h-11.798c-0.928 0-1.68 0.754-1.68 1.684zM16 15.68c3.256 0 5.895-2.639 5.895-5.895s-2.639-5.895-5.895-5.895c-3.256 0-5.895 2.639-5.895 5.895s2.639 5.895 5.895 5.895z"></path>
</svg>
