<?xml version="1.0" encoding="utf-8"?>
<!-- Generated by IcoMoon.io -->
<!DOCTYPE svg PUBLIC "-//W3C//DTD SVG 1.1//EN" "http://www.w3.org/Graphics/SVG/1.1/DTD/svg11.dtd">
<svg version="1.1" xmlns="http://www.w3.org/2000/svg" xmlns:xlink="http://www.w3.org/1999/xlink" width="25" height="32" viewBox="0 0 25 32">
<path fill="#565656" d="M13.37 22.129h4.408v1.851h-4.408v4.408h-1.851v-4.408l-4.408-0.002v-1.849h4.408v-0.012h0.002v-4.396h1.849v4.408zM19.281 11.603c-1.607 1.978-4.097 3.25-6.895 3.25-2.827 0-5.343-1.299-6.949-3.319-3.211 1.749-5.437 5.432-5.437 9.694v2.502c0 4.568 3.332 8.27 7.445 8.27h9.697c4.13 0 7.445-3.702 7.445-8.27v-2.502c0-4.199-2.159-7.848-5.306-9.625zM12.456 13.44c3.603 0 6.524-3.009 6.524-6.72s-2.921-6.72-6.524-6.72c-3.603 0-6.524 3.009-6.524 6.72s2.921 6.72 6.524 6.72z"></path>
</svg>
