<?xml version="1.0" encoding="UTF-8" standalone="no"?>
<svg width="12px" height="6px" viewBox="0 0 12 6" version="1.1" xmlns="http://www.w3.org/2000/svg" xmlns:xlink="http://www.w3.org/1999/xlink" xmlns:sketch="http://www.bohemiancoding.com/sketch/ns">
    <!-- Generator: Sketch 3.3 (11970) - http://www.bohemiancoding.com/sketch -->
    <title>ADS</title>
    <desc>Created with Sketch.</desc>
    <defs></defs>
    <g id="Page-1" stroke="none" stroke-width="1" fill="none" fill-rule="evenodd" sketch:type="MSPage">
        <g id="files-2@2x" sketch:type="MSArtboardGroup" transform="translate(-74.000000, -390.000000)" fill="#FFFFFF">
            <g id="Group" sketch:type="MSLayerGroup" transform="translate(28.000000, 304.000000)">
                <g id="Rectangle-4-+-PDF-7" transform="translate(43.000000, 79.000000)" sketch:type="MSShapeGroup">
                    <path d="M2.99121094,12 L4.640625,7.70507812 L5.25292969,7.70507812 L7.01074219,12 L6.36328125,12 L5.86230469,10.6992188 L4.06640625,10.6992188 L3.59472656,12 L2.99121094,12 Z M4.23046875,10.2363281 L5.68652344,10.2363281 L5.23828125,9.046875 C5.10156182,8.68554507 5.00000033,8.38867304 4.93359375,8.15625 C4.87890598,8.431642 4.80175831,8.70507677 4.70214844,8.9765625 L4.23046875,10.2363281 Z M7.46484375,12 L7.46484375,7.70507812 L8.94433594,7.70507812 C9.27832198,7.70507812 9.53320225,7.72558573 9.70898438,7.76660156 C9.95507936,7.82324247 10.1650382,7.92578051 10.3388672,8.07421875 C10.5654308,8.26562596 10.7348627,8.51025242 10.847168,8.80810547 C10.9594732,9.10595852 11.015625,9.44628715 11.015625,9.82910156 C11.015625,10.1552751 10.9775394,10.4443347 10.9013672,10.6962891 C10.8251949,10.9482434 10.7275397,11.1567375 10.6083984,11.3217773 C10.4892572,11.4868172 10.3588874,11.6166987 10.2172852,11.7114258 C10.0756829,11.8061528 9.90478616,11.8779294 9.70458984,11.9267578 C9.50439353,11.9755862 9.27441536,12 9.01464844,12 L7.46484375,12 Z M8.03320312,11.4931641 L8.95019531,11.4931641 C9.23339985,11.4931641 9.4555656,11.4667971 9.61669922,11.4140625 C9.77783284,11.3613279 9.90624952,11.2871099 10.0019531,11.1914062 C10.1367194,11.05664 10.2416988,10.8754894 10.3168945,10.6479492 C10.3920902,10.420409 10.4296875,10.1445329 10.4296875,9.8203125 C10.4296875,9.3710915 10.3559578,9.02588011 10.2084961,8.78466797 C10.0610344,8.54345583 9.88183699,8.38183635 9.67089844,8.29980469 C9.51855393,8.24121064 9.27343919,8.21191406 8.93554688,8.21191406 L8.03320312,8.21191406 L8.03320312,11.4931641 Z M11.6044922,10.6201172 L12.140625,10.5732422 C12.1660158,10.788087 12.2250972,10.9643548 12.3178711,11.1020508 C12.410645,11.2397468 12.5546865,11.3510738 12.75,11.4360352 C12.9453135,11.5209965 13.1650378,11.5634766 13.4091797,11.5634766 C13.6259776,11.5634766 13.817382,11.5312503 13.9833984,11.4667969 C14.1494149,11.4023434 14.2729488,11.3139654 14.3540039,11.2016602 C14.435059,11.0893549 14.4755859,10.9667975 14.4755859,10.8339844 C14.4755859,10.6992181 14.4365238,10.5815435 14.3583984,10.480957 C14.280273,10.3803706 14.1513681,10.2958988 13.9716797,10.2275391 C13.8564447,10.182617 13.6015645,10.1127934 13.2070312,10.0180664 C12.812498,9.92333937 12.5361336,9.83398479 12.3779297,9.75 C12.1728505,9.64257759 12.02002,9.50927814 11.9194336,9.35009766 C11.8188472,9.19091717 11.7685547,9.0126963 11.7685547,8.81542969 C11.7685547,8.59863173 11.8300775,8.39599704 11.953125,8.20751953 C12.0761725,8.01904203 12.2558582,7.87597705 12.4921875,7.77832031 C12.7285168,7.68066357 12.9912095,7.63183594 13.2802734,7.63183594 C13.5986344,7.63183594 13.8793933,7.68310496 14.1225586,7.78564453 C14.3657239,7.88818411 14.5527337,8.0390615 14.6835938,8.23828125 C14.8144538,8.437501 14.8847656,8.66308468 14.8945312,8.91503906 L14.3496094,8.95605469 C14.3203124,8.68456896 14.2211923,8.47949288 14.0522461,8.34082031 C13.8832999,8.20214774 13.6337907,8.1328125 13.3037109,8.1328125 C12.9599592,8.1328125 12.7094734,8.19580015 12.5522461,8.32177734 C12.3950187,8.44775454 12.3164062,8.59960849 12.3164062,8.77734375 C12.3164062,8.9316414 12.3720698,9.05859325 12.4833984,9.15820312 C12.592774,9.257813 12.8784157,9.35986276 13.340332,9.46435547 C13.8022484,9.56884818 14.1191398,9.66015586 14.2910156,9.73828125 C14.5410169,9.8535162 14.7255853,9.99951083 14.8447266,10.1762695 C14.9638678,10.3530282 15.0234375,10.5566395 15.0234375,10.7871094 C15.0234375,11.0156261 14.9580085,11.230956 14.8271484,11.4331055 C14.6962884,11.6352549 14.508302,11.7924799 14.2631836,11.9047852 C14.0180652,12.0170904 13.742189,12.0732422 13.4355469,12.0732422 C13.0468731,12.0732422 12.7211927,12.0166021 12.4584961,11.9033203 C12.1957995,11.7900385 11.9897468,11.61963 11.840332,11.3920898 C11.6909172,11.1645496 11.6123047,10.907228 11.6044922,10.6201172 L11.6044922,10.6201172 Z" id="ADS"></path>
                </g>
            </g>
        </g>
    </g>
</svg>