<?xml version="1.0" encoding="utf-8"?>
<!-- Generated by IcoMoon.io -->
<!DOCTYPE svg PUBLIC "-//W3C//DTD SVG 1.1//EN" "http://www.w3.org/Graphics/SVG/1.1/DTD/svg11.dtd">
<svg version="1.1" xmlns="http://www.w3.org/2000/svg" xmlns:xlink="http://www.w3.org/1999/xlink" width="96" height="96" viewBox="0 0 96 96">
<path fill="rgb(208, 1, 27)" d="M88 48c0 22.091-17.909 40-40 40s-40-17.909-40-40c0-22.091 17.909-40 40-40s40 17.909 40 40z"></path>
<path fill="rgb(255, 255, 255)" d="M40 23.998c0-4.417 3.551-7.998 8-7.998 4.418 0 8 3.55 8 7.998v24.003c0 4.417-3.551 7.998-8 7.998-4.418 0-8-3.55-8-7.998v-24.003zM40 68c0-4.418 3.551-8 8-8 4.418 0 8 3.551 8 8 0 4.418-3.551 8-8 8-4.418 0-8-3.551-8-8z"></path>
<path fill="rgb(255, 255, 255)" d="M96 48c0-26.51-21.49-48-48-48s-48 21.49-48 48c0 26.51 21.49 48 48 48s48-21.49 48-48zM8 48c0-22.091 17.909-40 40-40s40 17.909 40 40c0 22.091-17.909 40-40 40s-40-17.909-40-40z"></path>
</svg>
