<?xml version="1.0" encoding="UTF-8" standalone="no"?>
<svg width="60px" height="60px" viewBox="0 0 60 60" version="1.1" xmlns="http://www.w3.org/2000/svg" xmlns:xlink="http://www.w3.org/1999/xlink">
    <!-- Generator: Sketch 3.8.3 (29802) - http://www.bohemiancoding.com/sketch -->
    <title>up-arrow</title>
    <desc>Created with Sketch.</desc>
    <defs></defs>
    <g id="Page-1" stroke="none" stroke-width="1" fill="none" fill-rule="evenodd">
        <g id="100-Basic-Element-Icons-Dark" transform="translate(-1787.000000, -1410.000000)" fill="#000000">
            <path d="M1846.39939,1438.50258 L1818.5075,1410.61962 C1818.14594,1410.25818 1817.57777,1410 1817.00961,1410 C1816.44144,1410 1815.87327,1410.25818 1815.51171,1410.61962 L1787.61982,1438.50258 C1786.79339,1439.32874 1786.79339,1440.67126 1787.61982,1441.49742 C1788.03303,1441.9105 1788.54955,1442.11704 1789.11772,1442.11704 C1789.68589,1442.11704 1790.2024,1441.9105 1790.61562,1441.49742 L1814.89189,1417.22892 L1814.89189,1467.88296 C1814.89189,1469.07057 1815.82162,1470 1817.00961,1470 C1818.19759,1470 1819.12732,1469.07057 1819.12732,1467.88296 L1819.12732,1417.22892 L1843.4036,1441.49742 C1844.23002,1442.32358 1845.57297,1442.32358 1846.39939,1441.49742 C1847.22582,1440.67126 1847.17417,1439.32874 1846.39939,1438.50258 L1846.39939,1438.50258 Z" id="up-arrow" transform="translate(1817.000000, 1440.000000) scale(1, -1) translate(-1817.000000, -1440.000000) "></path>
        </g>
    </g>
</svg>