<?xml version="1.0" encoding="UTF-8" standalone="no"?>
<svg width="60px" height="60px" viewBox="0 0 60 60" version="1.1" xmlns="http://www.w3.org/2000/svg" xmlns:xlink="http://www.w3.org/1999/xlink">
    <!-- Generator: Sketch 3.8.3 (29802) - http://www.bohemiancoding.com/sketch -->
    <title>up-arrow</title>
    <desc>Created with Sketch.</desc>
    <defs></defs>
    <g id="Page-1" stroke="none" stroke-width="1" fill="none" fill-rule="evenodd">
        <g id="100-Basic-Element-Icons-Dark" transform="translate(-1707.000000, -1410.000000)" fill="#000000">
            <path d="M1766.39939,1438.50258 L1738.5075,1410.61962 C1738.14594,1410.25818 1737.57777,1410 1737.00961,1410 C1736.44144,1410 1735.87327,1410.25818 1735.51171,1410.61962 L1707.61982,1438.50258 C1706.79339,1439.32874 1706.79339,1440.67126 1707.61982,1441.49742 C1708.03303,1441.9105 1708.54955,1442.11704 1709.11772,1442.11704 C1709.68589,1442.11704 1710.2024,1441.9105 1710.61562,1441.49742 L1734.89189,1417.22892 L1734.89189,1467.88296 C1734.89189,1469.07057 1735.82162,1470 1737.00961,1470 C1738.19759,1470 1739.12732,1469.07057 1739.12732,1467.88296 L1739.12732,1417.22892 L1763.4036,1441.49742 C1764.23002,1442.32358 1765.57297,1442.32358 1766.39939,1441.49742 C1767.22582,1440.67126 1767.17417,1439.32874 1766.39939,1438.50258 L1766.39939,1438.50258 Z" id="up-arrow"></path>
        </g>
    </g>
</svg>