<?xml version="1.0" encoding="utf-8"?>
<!-- Generated by IcoMoon.io -->
<!DOCTYPE svg PUBLIC "-//W3C//DTD SVG 1.1//EN" "http://www.w3.org/Graphics/SVG/1.1/DTD/svg11.dtd">
<svg version="1.1" xmlns="http://www.w3.org/2000/svg" xmlns:xlink="http://www.w3.org/1999/xlink" width="32" height="32" viewBox="0 0 32 32">
<path fill="#444444" d="M17.65 12.459c-0.123-0.116-0.27-0.208-0.444-0.272-0.172-0.068-0.361-0.1-0.569-0.1h-0.743c-0.224 0-0.441 0.039-0.651 0.119-0.208 0.080-0.395 0.188-0.562 0.325s-0.306 0.297-0.418 0.482c-0.112 0.185-0.183 0.382-0.213 0.594l-0.619 4.060c0 0.034-0.002 0.068-0.009 0.103s-0.009 0.069-0.009 0.103c0 0.187 0.036 0.361 0.105 0.521 0.069 0.158 0.167 0.299 0.295 0.418 0.126 0.117 0.277 0.212 0.45 0.277 0.172 0.064 0.361 0.098 0.567 0.098h0.745c0.224 0 0.439-0.039 0.645-0.119s0.393-0.187 0.558-0.325c0.165-0.135 0.304-0.297 0.418-0.482 0.112-0.185 0.185-0.382 0.222-0.592l0.61-4.062c0.011-0.036 0.018-0.071 0.018-0.11v-0.112c0-0.183-0.036-0.352-0.105-0.512s-0.167-0.297-0.292-0.414z"></path>
<path fill="#444444" d="M16 0c-8.837 0-16 7.163-16 16s7.163 16 16 16 16-7.163 16-16-7.163-16-16-16zM23.849 15.735c-0.078 0.482-0.196 0.949-0.354 1.404s-0.354 0.882-0.59 1.282c-0.236 0.398-0.514 0.747-0.832 1.049s-0.677 0.539-1.076 0.711-0.841 0.26-1.326 0.26c-0.334 0-0.624-0.034-0.871-0.101-0.247-0.069-0.466-0.162-0.649-0.277-0.185-0.117-0.341-0.258-0.473-0.418s-0.24-0.336-0.331-0.526c-0.309 0.327-0.67 0.583-1.081 0.775-0.412 0.188-0.848 0.284-1.308 0.284h-0.274c-0.345 0-0.661-0.055-0.949-0.171-0.288-0.114-0.537-0.268-0.745-0.466-0.21-0.196-0.372-0.427-0.491-0.695s-0.178-0.558-0.178-0.871v-0.185c0-0.059 0.005-0.121 0.018-0.185l0.572-3.941c0.055-0.354 0.178-0.686 0.368-0.999s0.428-0.587 0.713-0.818c0.284-0.233 0.604-0.416 0.958-0.551s0.715-0.201 1.084-0.201h0.284c0.453 0 0.86 0.096 1.218 0.286s0.633 0.448 0.827 0.773l0.763-0.889h0.373l-0.964 6.572c-0.084 0.567-0.007 0.987 0.233 1.257s0.613 0.407 1.122 0.407c0.368 0 0.729-0.124 1.079-0.375 0.352-0.251 0.663-0.601 0.937-1.045 0.27-0.448 0.489-0.98 0.656-1.596s0.251-1.291 0.251-2.018c0-0.837-0.132-1.612-0.395-2.331-0.263-0.716-0.644-1.335-1.145-1.856-0.5-0.521-1.115-0.928-1.844-1.225s-1.564-0.444-2.503-0.444c-0.743 0-1.452 0.1-2.124 0.299s-1.296 0.478-1.876 0.836c-0.58 0.363-1.1 0.789-1.566 1.289-0.466 0.498-0.864 1.047-1.195 1.652s-0.585 1.244-0.763 1.927c-0.18 0.683-0.267 1.39-0.267 2.124 0 0.837 0.121 1.616 0.363 2.338s0.603 1.351 1.081 1.883 1.070 0.948 1.776 1.25c0.706 0.302 1.524 0.452 2.457 0.452 0.338 0 0.67-0.021 0.994-0.062 0.324-0.043 0.631-0.1 0.923-0.167 0.292-0.069 0.56-0.149 0.804-0.24 0.247-0.091 0.457-0.185 0.631-0.281l0.372 0.802c-0.29 0.165-0.597 0.309-0.926 0.43s-0.658 0.224-0.996 0.302c-0.336 0.080-0.668 0.139-0.999 0.178-0.331 0.036-0.645 0.055-0.949 0.055-1.072 0-2.023-0.174-2.852-0.521-0.83-0.347-1.527-0.827-2.094-1.435-0.565-0.61-0.997-1.326-1.294-2.156-0.297-0.827-0.444-1.724-0.444-2.692 0-0.83 0.107-1.637 0.318-2.42s0.514-1.518 0.903-2.206 0.862-1.316 1.413-1.883 1.163-1.058 1.835-1.468c0.672-0.409 1.399-0.729 2.18-0.956s1.598-0.341 2.453-0.341c1.072 0 2.032 0.171 2.882 0.512s1.573 0.812 2.167 1.412c0.594 0.599 1.049 1.31 1.364 2.13 0.315 0.818 0.473 1.708 0.473 2.67-0.004 0.462-0.043 0.933-0.121 1.413z"></path>
</svg>
