<?xml version="1.0" encoding="UTF-8" standalone="no"?>
<svg width="14px" height="14px" viewBox="0 0 14 14" version="1.1" xmlns="http://www.w3.org/2000/svg" xmlns:xlink="http://www.w3.org/1999/xlink" xmlns:sketch="http://www.bohemiancoding.com/sketch/ns">
    <!-- Generator: Sketch 3.3 (11970) - http://www.bohemiancoding.com/sketch -->
    <title>@</title>
    <desc>Created with Sketch.</desc>
    <defs></defs>
    <g id="Page-1" stroke="none" stroke-width="1" fill="none" fill-rule="evenodd" sketch:type="MSPage">
        <g id="TL-icons" sketch:type="MSArtboardGroup" transform="translate(-24.000000, -23.000000)" fill="#565656">
            <g id="Rectangle-179-+-Group" sketch:type="MSLayerGroup" transform="translate(23.000000, 22.000000)">
                <g id="Group" transform="translate(1.000000, 1.000000)" sketch:type="MSShapeGroup">
                    <path d="M12.2257526,10.445488 L13.6989195,10.445488 C13.2378321,11.3814955 12.5300736,12.1146135 11.5756226,12.644864 C10.4828454,13.2534994 9.15032279,13.5578125 7.5780147,13.5578125 C6.05642623,13.5578125 4.7423468,13.3007601 3.63573701,12.7866477 C2.52912721,12.2725352 1.70609852,11.5140578 1.16662624,10.5111926 C0.627153967,9.50832751 0.357421875,8.41671942 0.357421875,7.23633564 C0.357421875,5.94068 0.664040407,4.7338018 1.27728667,3.61566481 C1.89053293,2.49752783 2.72969944,1.65836132 3.79481137,1.09814011 C4.8599233,0.537918903 6.07717582,0.2578125 7.44660544,0.2578125 C8.60854573,0.2578125 9.64136605,0.483741945 10.5450974,0.935607612 C11.4488287,1.38747328 12.1392968,2.02952787 12.6165222,2.86179066 C13.0937477,3.69405344 13.3323569,4.60353473 13.3323569,5.5902618 C13.3323569,6.76603471 12.9704087,7.82882526 12.2465014,8.77866533 C11.3381592,9.97749261 10.173931,10.5768973 8.75378173,10.5768973 C8.37107917,10.5768973 8.08290386,10.5100406 7.88924715,10.3763252 C7.69559043,10.2426099 7.56648789,10.0466507 7.50193566,9.78844173 C6.95785251,10.3140814 6.33078303,10.5768973 5.62070841,10.5768973 C4.8553033,10.5768973 4.22016491,10.3129287 3.71527419,9.78498359 C3.21038347,9.2570385 2.9579419,8.55504344 2.9579419,7.67897735 C2.9579419,6.59542192 3.26225503,5.60640425 3.87089041,4.71189466 C4.60863028,3.62372836 5.5538453,3.07965337 6.70656384,3.07965337 C7.52729944,3.07965337 8.1336203,3.39318811 8.5255446,4.020267 L8.69845152,3.25256029 L10.5243486,3.25256029 L9.47999078,8.21153065 C9.41543854,8.52507009 9.3831629,8.72794551 9.3831629,8.82016299 C9.3831629,8.93543485 9.40967503,9.02188744 9.46270009,9.07952337 C9.51572514,9.1371593 9.57912371,9.16597683 9.65289769,9.16597683 C9.87421965,9.16597683 10.1600896,9.03226348 10.510516,8.76483278 C10.9808252,8.41440635 11.3612166,7.94410424 11.6517016,7.35391234 C11.9421867,6.76372045 12.0874271,6.15278879 12.0874271,5.52109903 C12.0874271,4.38682399 11.6770654,3.43815086 10.8563298,2.67505119 C10.0355942,1.91195152 8.88980919,1.5304074 7.41894034,1.5304074 C6.16939344,1.5304074 5.11006099,1.78515438 4.24091121,2.29465597 C3.37176144,2.80415757 2.71702713,3.52113774 2.27668865,4.44561801 C1.83635016,5.37009828 1.61618423,6.33260382 1.61618423,7.33316351 C1.61618423,8.30605796 1.86170959,9.19133252 2.35276769,9.98901375 C2.84382579,10.786695 3.53314113,11.3688091 4.42073441,11.7353736 C5.30832768,12.1019381 6.32385748,12.2852176 7.46735427,12.2852176 C8.5693532,12.2852176 9.51687362,12.1319083 10.309944,11.8252852 C11.1030143,11.5186621 11.7416108,11.0587343 12.2257526,10.445488 L12.2257526,10.445488 Z M4.74925755,7.6028983 C4.74925755,8.18847932 4.86798578,8.61958959 5.1054458,8.89624204 C5.34290581,9.17289449 5.63684463,9.31121864 5.98727107,9.31121864 C6.2500909,9.31121864 6.49676896,9.24666737 6.72731267,9.11756289 C6.90252589,9.02534541 7.07543108,8.88010505 7.24603342,8.68183746 C7.49040975,8.40057414 7.70135408,7.99021249 7.87887273,7.45074022 C8.05639139,6.91126794 8.14514938,6.4086902 8.14514938,5.94299191 C8.14514938,5.42196313 8.02411575,5.02197579 7.78204486,4.74301791 C7.53997397,4.46406002 7.23450814,4.32458317 6.8656382,4.32458317 C6.46910303,4.32458317 6.10254403,4.47789244 5.76595022,4.78451557 C5.4293564,5.0911387 5.17576213,5.52801247 5.00515978,6.09514999 C4.83455744,6.66228751 4.74925755,7.16486526 4.74925755,7.6028983 L4.74925755,7.6028983 Z" id="@"></path>
                </g>
            </g>
        </g>
    </g>
</svg>