<?xml version="1.0" encoding="iso-8859-1"?>
<!-- Generator: Adobe Illustrator 16.0.0, SVG Export Plug-In . SVG Version: 6.00 Build 0)  -->
<!DOCTYPE svg PUBLIC "-//W3C//DTD SVG 1.1//EN" "http://www.w3.org/Graphics/SVG/1.1/DTD/svg11.dtd">
<svg version="1.1" xmlns="http://www.w3.org/2000/svg" xmlns:xlink="http://www.w3.org/1999/xlink" x="0px" y="0px"
	 width="165.338px" height="195px" viewBox="0 0 165.338 195" style="enable-background:new 0 0 165.338 195;" xml:space="preserve"
	>
<g id="attach">
	<g id="attach_1_">
		<path d="M58.743,195c-8.373,0-16.806-2.748-23.836-8.404l-14.703-11.848c-7.966-6.406-12.968-15.535-14.092-25.725
			c-1.105-10.062,1.868-20.322,8.159-28.213l48.624-60.96c4.782-6.008,11.606-9.767,19.21-10.612
			c7.663-0.817,15.083,1.359,21.05,6.16l3.896,3.125c5.984,4.825,9.739,11.679,10.562,19.324c0.852,7.612-1.323,15.135-6.104,21.129
			L76.417,142.96c-3.663,4.567-10.308,5.299-14.851,1.647c-4.553-3.672-5.288-10.346-1.646-14.914l35.093-43.99
			c1.252-1.574,1.829-3.541,1.603-5.541c-0.22-2.022-1.203-3.818-2.775-5.075l-3.894-3.127c-3.241-2.624-7.987-2.096-10.576,1.171
			l-48.627,60.962c-2.812,3.521-4.145,8.105-3.65,12.595c0.5,4.562,2.729,8.646,6.293,11.508l14.7,11.847
			c7.336,5.896,18.109,4.724,23.998-2.676l68.391-85.751c5.889-7.385,4.709-18.199-2.652-24.105L97.428,25.005
			c-3.57-2.874-8.039-4.212-12.546-3.673c-4.535,0.497-8.6,2.741-11.448,6.322L18.811,96.168c-3.662,4.58-10.306,5.312-14.849,1.654
			c-4.553-3.668-5.289-10.348-1.647-14.92L56.955,14.4C63.333,6.394,72.426,1.368,82.567,0.239
			c10.187-1.134,20.11,1.796,28.079,8.207l40.391,32.504c16.438,13.215,19.096,37.411,5.936,53.925L88.59,180.633
			C81.053,190.08,69.946,195,58.743,195z"/>
	</g>
</g>
<g id="Capa_1">
</g>
</svg>
