<?xml version="1.0" encoding="utf-8"?>
<!-- Generated by IcoMoon.io -->
<!DOCTYPE svg PUBLIC "-//W3C//DTD SVG 1.1//EN" "http://www.w3.org/Graphics/SVG/1.1/DTD/svg11.dtd">
<svg version="1.1" xmlns="http://www.w3.org/2000/svg" xmlns:xlink="http://www.w3.org/1999/xlink" width="34" height="32" viewBox="0 0 34 32">
<path fill="#444444" d="M4.537 14.059l2.286 8.532c0.249 0.929 1.254 1.656 2.235 1.586l16.069-1.156c0.982-0.071 1.568-0.903 1.312-1.86l-4.199-15.671c-0.257-0.958-1.181-1.384-2.066-0.955l-14.495 7.033c-0.886 0.43-1.396 1.544-1.143 2.491zM5.928 14.815c-0.264-0.667-0.041-1.409 0.502-1.659l13.126-6.033 0.957 2.416-14.106 6.484-0.478-1.208z"></path>
<path fill="#444444" d="M1.036 17.578c-0.256-0.955 0.258-2.080 1.136-2.506l2.333-1.132 1.8 2.88c0.522 0.835 1.594 1.964 2.404 2.53l0.619 0.432c0.806 0.563 0.664 1.114-0.305 1.229l-5.086 0.606c-0.974 0.116-1.973-0.572-2.227-1.519l-0.675-2.52z"></path>
<path fill="#444444" d="M11.699 21.249c0.582 0.25 0.925 0.999 0.772 1.656l-1.692 7.249c-0.155 0.665-0.748 1.003-1.334 0.751l-3.16-1.358c-0.582-0.25-0.925-0.999-0.772-1.656l1.692-7.249c0.155-0.665 0.748-1.003 1.334-0.751l3.16 1.358z"></path>
<path fill="#444444" d="M25.208 13.312c2.824 10.56 2.016 10.776 2.016 10.776-0.573 0.153-3.253 0.301-3.428-0.355l-5.131-19.15c-0.176-0.656 2.215-1.867 2.792-2.021 0 0 0.929 0.191 3.752 10.75z"></path>
<path fill="#444444" d="M27.224 0.829c0.548 0.235 0.808 0.865 0.574 1.42l-1.336 3.171c-0.232 0.55-0.86 0.807-1.412 0.57-0.548-0.235-0.808-0.865-0.574-1.42l1.336-3.171c0.232-0.55 0.86-0.807 1.412-0.57v0zM33.435 10.124c0.165 0.575-0.159 1.173-0.736 1.339l-3.296 0.945c-0.571 0.164-1.167-0.166-1.333-0.745-0.165-0.575 0.159-1.173 0.736-1.339l3.296-0.945c0.571-0.164 1.167 0.166 1.333 0.745v0zM32.987 21.378c-0.349 0.484-1.018 0.594-1.504 0.239l-2.778-2.030c-0.481-0.352-0.591-1.026-0.239-1.513 0.349-0.484 1.018-0.594 1.504-0.239l2.778 2.030c0.481 0.352 0.591 1.026 0.239 1.513v0z"></path>
</svg>
