<?xml version="1.0" encoding="utf-8"?>
<!-- Generated by IcoMoon.io -->
<!DOCTYPE svg PUBLIC "-//W3C//DTD SVG 1.1//EN" "http://www.w3.org/Graphics/SVG/1.1/DTD/svg11.dtd">
<svg version="1.1" xmlns="http://www.w3.org/2000/svg" xmlns:xlink="http://www.w3.org/1999/xlink" width="135" height="32" viewBox="0 0 135 32">
<path fill="#fff" d="M60.529 29.622c-0.057-0.446-0.251-0.836-0.583-1.17-0.4-0.403-0.886-0.604-1.459-0.604-0.563 0-1.044 0.201-1.445 0.604-0.399 0.403-0.6 0.887-0.6 1.453 0 0.576 0.201 1.065 0.6 1.467 0.401 0.403 0.882 0.604 1.445 0.604 0.572 0 1.058-0.201 1.459-0.604 0.33-0.331 0.524-0.721 0.582-1.169h42.053c0.059 0.448 0.253 0.838 0.583 1.169 0.401 0.403 0.882 0.604 1.444 0.604 0.573 0 1.058-0.201 1.459-0.604s0.602-0.892 0.602-1.467c0-0.566-0.201-1.050-0.602-1.453s-0.886-0.604-1.459-0.604c-0.561 0-1.043 0.201-1.444 0.604-0.332 0.334-0.527 0.724-0.584 1.17h-42.050zM20.038 7.539h3.949v7.539c0 1.467 0.1 2.487 0.301 3.058s0.523 1.014 0.968 1.33c0.445 0.317 0.991 0.475 1.642 0.475 0.65 0 1.201-0.156 1.655-0.468s0.791-0.77 1.012-1.374c0.163-0.451 0.243-1.415 0.243-2.892v-7.669h3.905v6.633c0 2.734-0.215 4.604-0.643 5.611-0.525 1.228-1.297 2.17-2.318 2.827s-2.317 0.986-3.89 0.986c-1.707 0-3.088-0.384-4.141-1.151s-1.795-1.837-2.224-3.208c-0.305-0.95-0.458-2.676-0.458-5.18v-6.518zM12.201 7.539h3.905v15.654h-3.905v-1.654c-0.763 0.729-1.527 1.254-2.293 1.575s-1.598 0.482-2.493 0.482c-2.010 0-3.749-0.784-5.215-2.352s-2.2-3.518-2.2-5.849c0-2.417 0.71-4.397 2.13-5.942 1.419-1.544 3.142-2.316 5.172-2.316 0.933 0 1.809 0.177 2.628 0.532s1.576 0.887 2.272 1.597v-1.726h-0zM8.097 10.762c-1.206 0-2.21 0.429-3.008 1.288s-1.197 1.959-1.197 3.302c0 1.353 0.406 2.465 1.219 3.338s1.812 1.309 3.001 1.309c1.227 0 2.243-0.429 3.050-1.288 0.808-0.858 1.213-1.983 1.213-3.374 0-1.361-0.404-2.465-1.213-3.309-0.807-0.844-1.828-1.266-3.064-1.266zM49.117 1.496h3.905v21.696h-3.905v-1.654c-0.763 0.729-1.526 1.254-2.293 1.575s-1.598 0.482-2.493 0.482c-2.010 0-3.748-0.784-5.215-2.352s-2.201-3.518-2.201-5.849c0-2.417 0.71-4.397 2.13-5.942 1.419-1.544 3.142-2.316 5.171-2.316 0.934 0 1.81 0.177 2.629 0.532s1.576 0.887 2.272 1.597v-7.769h-0zM45.012 10.762c-1.206 0-2.21 0.429-3.008 1.288s-1.197 1.959-1.197 3.302c0 1.353 0.407 2.465 1.219 3.338s1.812 1.309 3 1.309c1.227 0 2.243-0.429 3.050-1.288 0.809-0.858 1.213-1.983 1.213-3.374 0-1.361-0.404-2.465-1.213-3.309-0.807-0.844-1.828-1.266-3.064-1.266zM56.541 7.539h3.905v15.654h-3.905v-15.654zM79.584 16.502h-12.544c0.181 1.113 0.664 1.998 1.452 2.655 0.786 0.656 1.789 0.985 3.010 0.985 1.459 0 2.712-0.513 3.762-1.539l3.29 1.553c-0.82 1.171-1.801 2.036-2.946 2.597-1.144 0.561-2.503 0.842-4.076 0.842-2.441 0-4.429-0.774-5.964-2.324-1.536-1.549-2.304-3.489-2.304-5.82 0-2.388 0.765-4.371 2.296-5.949 1.532-1.577 3.45-2.366 5.758-2.366 2.451 0 4.443 0.789 5.978 2.366s2.303 3.662 2.303 6.251l-0.014 0.749zM75.679 13.409c-0.258-0.873-0.766-1.583-1.525-2.129s-1.64-0.82-2.644-0.82c-1.089 0-2.044 0.307-2.866 0.92-0.515 0.384-0.993 1.060-1.432 2.029h8.467zM82.745 7.539h3.904v1.605c0.885-0.751 1.688-1.273 2.407-1.567s1.455-0.44 2.208-0.44c1.542 0 2.851 0.542 3.928 1.626 0.904 0.92 1.356 2.283 1.356 4.086v10.344h-3.862v-6.855c0-1.868-0.083-3.109-0.249-3.721-0.167-0.614-0.457-1.080-0.871-1.401-0.414-0.321-0.924-0.482-1.534-0.482-0.789 0-1.467 0.266-2.033 0.798-0.567 0.532-0.959 1.267-1.178 2.206-0.114 0.489-0.172 1.547-0.172 3.176v6.28h-3.904v-15.654h0zM109.849 9.726l-2.417 2.431c-0.983-0.978-1.873-1.468-2.675-1.468-0.438 0-0.782 0.094-1.029 0.281-0.249 0.187-0.372 0.419-0.372 0.698 0 0.211 0.079 0.405 0.237 0.582 0.156 0.178 0.545 0.42 1.165 0.727l1.431 0.72c1.507 0.748 2.541 1.51 3.104 2.287 0.562 0.778 0.843 1.688 0.843 2.733 0 1.391-0.507 2.552-1.523 3.482-1.015 0.931-2.376 1.396-4.082 1.396-2.269 0-4.082-0.892-5.435-2.676l2.403-2.633c0.458 0.537 0.995 0.971 1.609 1.303 0.616 0.331 1.161 0.496 1.638 0.496 0.515 0 0.93-0.124 1.244-0.374 0.315-0.25 0.472-0.537 0.472-0.864 0-0.604-0.567-1.194-1.702-1.769l-1.316-0.662c-2.517-1.275-3.777-2.872-3.777-4.791 0-1.237 0.474-2.295 1.424-3.172 0.948-0.878 2.162-1.317 3.64-1.317 1.010 0 1.961 0.222 2.854 0.669s1.647 1.086 2.267 1.921zM128.801 16.502h-12.544c0.181 1.113 0.665 1.998 1.452 2.655 0.786 0.656 1.79 0.985 3.010 0.985 1.459 0 2.712-0.513 3.762-1.539l3.29 1.553c-0.82 1.171-1.801 2.036-2.946 2.597s-2.504 0.842-4.077 0.842c-2.44 0-4.428-0.774-5.964-2.324s-2.304-3.489-2.304-5.82c0-2.388 0.765-4.371 2.296-5.949 1.532-1.577 3.449-2.366 5.758-2.366 2.45 0 4.443 0.789 5.978 2.366s2.303 3.662 2.303 6.251l-0.014 0.749zM124.896 13.409c-0.258-0.873-0.766-1.583-1.525-2.129s-1.64-0.82-2.644-0.82c-1.089 0-2.044 0.307-2.866 0.92-0.515 0.384-0.993 1.060-1.432 2.029h8.467zM132.5 19.466c0.573 0 1.059 0.201 1.46 0.604s0.601 0.887 0.601 1.453c0 0.576-0.201 1.065-0.601 1.467s-0.887 0.605-1.46 0.605c-0.562 0-1.043-0.201-1.444-0.605s-0.601-0.892-0.601-1.467c0-0.566 0.201-1.050 0.601-1.453s0.882-0.604 1.444-0.604zM132.5 13.335c0.573 0 1.059 0.201 1.46 0.604s0.601 0.887 0.601 1.453c0 0.576-0.201 1.065-0.601 1.468s-0.887 0.605-1.46 0.605c-0.562 0-1.043-0.202-1.444-0.605s-0.601-0.892-0.601-1.468c0-0.566 0.201-1.049 0.601-1.453s0.882-0.604 1.444-0.604zM8.046 0.099c0.573 0 1.058 0.201 1.459 0.604s0.6 0.887 0.6 1.453c0 0.576-0.199 1.065-0.6 1.468s-0.886 0.604-1.459 0.604c-0.563 0-1.044-0.202-1.445-0.604s-0.601-0.892-0.601-1.468c0-0.566 0.201-1.050 0.601-1.453s0.882-0.604 1.445-0.604z"></path>
</svg>
