<?xml version="1.0" encoding="iso-8859-1"?>
<!-- Generator: Adobe Illustrator 16.0.0, SVG Export Plug-In . SVG Version: 6.00 Build 0)  -->
<!DOCTYPE svg PUBLIC "-//W3C//DTD SVG 1.1//EN" "http://www.w3.org/Graphics/SVG/1.1/DTD/svg11.dtd">
<svg version="1.1" xmlns="http://www.w3.org/2000/svg" xmlns:xlink="http://www.w3.org/1999/xlink" x="0px" y="0px" width="190px"
	 height="170.653px" viewBox="0 0 190 170.653" style="enable-background:new 0 0 190 170.653;" xml:space="preserve">
<g id="audience">
	<g id="audience_1_">
		<g>
			<g>
				<path d="M47.861,167.558c0,2.31,2.455,3.815,4.518,2.744l20.073-10.336c1.382-0.703,2.227-2.125,2.227-3.674v-30.531
					c-5.527-1.115-25.477-5.076-26.817-5.468L47.861,167.558L47.861,167.558z M164.626,0c-0.847,0-1.733,0.268-2.517,0.867
					C136.65,20.403,87.78,28.944,54.153,35.443c-0.372,0.062-0.743,0.165-1.093,0.226c-11.636,2.456-20.053,8.747-25.231,17
					l-5.962-0.021C9.778,52.667,0,62.364,0,74.535h0.02c0,12.173,9.821,21.89,21.89,21.911l5.94-0.041
					c4.374,7.014,11.058,12.522,20.012,15.575c1.649,0.558,3.384,1.031,5.199,1.425c0.371,0.081,14.42,2.764,21.618,4.208
					c30.801,6.168,66.799,14.791,87.43,30.613c0.783,0.6,1.649,0.867,2.518,0.867c2.146,0,4.146-1.672,4.146-4.125V4.125
					C168.771,1.67,166.771,0,164.626,0z M176.797,51.864v45.366C184.678,92.772,190,84.314,190,74.619c0-0.021,0-0.062,0-0.062
					v-0.062C190,64.778,184.678,56.32,176.797,51.864z"/>
			</g>
		</g>
	</g>
</g>
<g id="Capa_1">
</g>
</svg>
