<?xml version="1.0" encoding="utf-8"?>
<!-- Generator: Adobe Illustrator 16.0.0, SVG Export Plug-In . SVG Version: 6.00 Build 0)  -->
<!DOCTYPE svg PUBLIC "-//W3C//DTD SVG 1.1//EN" "http://www.w3.org/Graphics/SVG/1.1/DTD/svg11.dtd">
<svg version="1.1" id="Capa_1" xmlns:sketch="http://www.bohemiancoding.com/sketch/ns"
	 xmlns="http://www.w3.org/2000/svg" xmlns:xlink="http://www.w3.org/1999/xlink" x="0px" y="0px" width="18px" height="18px"
	 viewBox="0 0 18 18" enable-background="new 0 0 18 18" xml:space="preserve">
<title>add to audience copy</title>
<desc>Created with Sketch.</desc>
<g>
	<path fill="none" d="M5.682,6.278L5.189,5.355L3.31,5.717C3.253,5.728,3.203,5.759,3.149,5.779l0.455,0.854L5.682,6.278z"/>
	<polygon fill="none" points="5.682,6.278 7.759,5.923 7.246,4.96 5.189,5.355 	"/>
	
		<rect x="5.29" y="6.932" transform="matrix(-0.4707 -0.8823 0.8823 -0.4707 2.7523 15.515)" fill="none" width="1.481" height="0"/>
	<polygon fill="#565656" points="3.604,6.633 4.301,7.94 6.379,7.585 5.682,6.278 	"/>
	<polygon fill="#565656" points="5.189,5.355 4.238,3.572 5.189,5.355 	"/>
	<rect x="10.357" y="13.925" fill="#565656" width="0.001" height="2.24"/>
</g>
<rect x="4.229" y="7.938" fill="#565656" width="1.979" height="4.75"/>
<polygon fill="#565656" points="8.047,13.531 7.766,13.828 5.297,12.469 8.047,12.469 "/>
<g>
	<path fill="#565656" d="M15.105,12.41c-0.205-0.254-0.57-0.291-0.82-0.086c-0.252,0.205-0.289,0.573-0.087,0.824l1.169,1.452
		c0.205,0.255,0.57,0.29,0.82,0.086c0.252-0.205,0.289-0.573,0.087-0.825L15.105,12.41z"/>
	<path fill="#565656" d="M15.011,5.421l1.144-1.472c0.2-0.258,0.152-0.624-0.102-0.824c-0.256-0.201-0.62-0.154-0.818,0.101
		l-1.144,1.472c-0.2,0.258-0.153,0.624,0.101,0.824C14.447,5.723,14.812,5.676,15.011,5.421z"/>
	<path fill="#565656" d="M17.406,8.283L15.55,8.316c-0.325,0.006-0.579,0.273-0.573,0.597c0.006,0.327,0.271,0.583,0.594,0.577
		l1.857-0.033C17.752,9.452,18.006,9.185,18,8.86C17.994,8.534,17.729,8.277,17.406,8.283z"/>
	<path fill="#565656" d="M12.791,3.223c-0.323,0-1.744,0.298-1.744,0.667v0.34L7.246,4.96l0.514,0.963l3.288-0.561v1.426L8.457,7.23
		l4.301,8.063c0.009,0.001,0.025,0.003,0.033,0.003c0,0,0.453,0,0.457-5.922C13.25,3.453,12.791,3.223,12.791,3.223z"/>
	<path fill="#565656" d="M9.855,14.104l0.002-0.001L5.183,5.357l0.007-0.001L4.238,3.572L2.882,1.03
		C2.623,0.542,2.017,0.358,1.53,0.618c-0.487,0.26-0.672,0.866-0.412,1.353l2.031,3.809c0.003-0.001,0.006-0.002,0.009-0.003
		L3.152,5.785L3.149,5.779C2.712,5.938,2.371,6.354,2.33,6.815L2.326,6.801l-1.353,0.26C0.448,7.162,0,7.698,0,8.254v1.342
		c0,0.567,0.441,1.069,0.986,1.148l1.339,0.193v0.634l-1.429,2.671c-0.172,0.322-0.097,0.764,0.172,0.976l1.463,1.153
		c0.271,0.214,0.629,0.12,0.803-0.205l1.628-3.045l2.341,0.45l-0.238-0.446h0.026l0.241,0.452l-0.029-0.006l1.813,3.399
		c0.26,0.487,0.866,0.672,1.353,0.412c0.486-0.259,0.67-0.861,0.413-1.35L9.855,14.104z M4.301,7.94L3.029,8.157L2.948,7.458
		C2.903,7.072,3.124,6.715,3.443,6.66l0.161-0.027L3.603,6.631l0.025,0.011"/>
</g>
</svg>
