<?xml version="1.0" encoding="UTF-8" standalone="no"?>
<svg viewBox="0 0 100 109" version="1.1" xmlns="http://www.w3.org/2000/svg" xmlns:xlink="http://www.w3.org/1999/xlink">
    <g stroke="none" stroke-width="1" fill-rule="evenodd">
        <path d="M8.411,93.54 C10.552,93.54 12.37,94.288 13.868,95.786 C15.368,97.287 16.115,99.087 16.115,101.19 C16.115,103.332 15.368,105.15 13.868,106.648 C12.37,108.146 10.552,108.895 8.411,108.895 C6.305,108.895 4.505,108.146 3.005,106.648 C1.511,105.15 0.76,103.332 0.76,101.19 C0.76,99.086 1.511,97.287 3.005,95.786 C4.505,94.288 6.305,93.54 8.411,93.54 L8.411,93.54 Z"></path>
        <path d="M14.505,101.22 L89.038,101.22"></path>
        <rect x="14.505" y="100.14" width="74.533" height="2.16"></rect>
        <path d="M91.422,93.54 C93.564,93.54 95.38,94.288 96.881,95.786 C98.38,97.287 99.13,99.087 99.13,101.19 C99.13,103.332 98.38,105.15 96.881,106.648 C95.38,108.146 93.564,108.895 91.422,108.895 C89.321,108.895 87.522,108.146 86.02,106.648 C84.523,105.15 83.77,103.332 83.77,101.19 C83.77,99.086 84.523,97.287 86.02,95.786 C87.521,94.288 89.321,93.54 91.422,93.54 L91.422,93.54 Z"></path>
        <path d="M65.461,28.051 L80.068,28.051 L80.068,86.262 L65.461,86.262 L65.461,80.11 C62.607,82.822 59.75,84.774 56.882,85.968 C54.017,87.162 50.905,87.761 47.558,87.761 C40.039,87.761 33.537,84.844 28.052,79.013 C22.565,73.181 19.82,65.93 19.82,57.264 C19.82,48.277 22.476,40.911 27.787,35.166 C33.096,29.426 39.541,26.554 47.131,26.554 C50.623,26.554 53.9,27.214 56.964,28.533 C60.026,29.853 62.858,31.832 65.462,34.471 L65.462,28.051 L65.461,28.051 Z M50.105,40.037 C45.593,40.037 41.838,41.635 38.854,44.827 C35.869,48.018 34.375,52.112 34.375,57.105 C34.375,62.134 35.896,66.273 38.935,69.517 C41.974,72.763 45.714,74.386 50.159,74.386 C54.747,74.386 58.549,72.79 61.567,69.598 C64.592,66.406 66.104,62.223 66.104,57.051 C66.104,51.988 64.592,47.885 61.567,44.745 C58.548,41.608 54.729,40.037 50.105,40.037 L50.105,40.037 Z"></path>
        <path d="M49.919,0.385 C52.061,0.385 53.877,1.132 55.377,2.631 C56.875,4.13 57.622,5.929 57.622,8.034 C57.622,10.174 56.875,11.995 55.377,13.492 C53.877,14.99 52.061,15.739 49.919,15.739 C47.814,15.739 46.012,14.989 44.515,13.492 C43.021,11.995 42.268,10.175 42.268,8.034 C42.268,5.929 43.021,4.13 44.515,2.631 C46.012,1.131 47.813,0.385 49.919,0.385 L49.919,0.385 Z"></path>
    </g>
</svg>
