<?xml version="1.0" encoding="utf-8"?>
<!-- Generated by IcoMoon.io -->
<!DOCTYPE svg PUBLIC "-//W3C//DTD SVG 1.1//EN" "http://www.w3.org/Graphics/SVG/1.1/DTD/svg11.dtd">
<svg version="1.1" xmlns="http://www.w3.org/2000/svg" xmlns:xlink="http://www.w3.org/1999/xlink" width="32" height="32" viewBox="0 0 32 32">
<path fill="#444444" d="M28.204 31.111c-1.604 0-2.907-1.298-2.907-2.9v-24.425c0-1.6 1.289-2.898 2.907-2.898 1.604 0 2.907 1.298 2.907 2.898v24.425c0 1.602-1.292 2.9-2.907 2.9zM19.737 31.111c-1.604 0-2.907-1.312-2.907-2.91v-17.344c0-1.607 1.292-2.91 2.907-2.91 1.607 0 2.907 1.312 2.907 2.91v17.344c-0.002 1.607-1.289 2.91-2.907 2.91zM11.812 31.111c-1.605 0-2.907-1.298-2.907-2.907v-21.1c0-1.605 1.291-2.907 2.907-2.907 1.604 0 2.907 1.298 2.907 2.907v21.1c-0.002 1.605-1.291 2.907-2.907 2.907zM3.796 31.111c-1.605 0-2.907-1.298-2.907-2.916v-6.085c0-1.607 1.291-2.914 2.907-2.914 1.604 0 2.907 1.298 2.907 2.914v6.085c0 1.611-1.291 2.916-2.907 2.916z"></path>
</svg>
