<?xml version="1.0" encoding="UTF-8" standalone="no"?>
<svg width="18px" height="18px" viewBox="0 0 18 18" version="1.1" xmlns="http://www.w3.org/2000/svg" xmlns:xlink="http://www.w3.org/1999/xlink" xmlns:sketch="http://www.bohemiancoding.com/sketch/ns">
    <!-- Generator: Sketch 3.4.4 (17249) - http://www.bohemiancoding.com/sketch -->
    <title>Oval 1087</title>
    <desc>Created with Sketch.</desc>
    <defs></defs>
    <g id="Page-1" stroke="none" stroke-width="1" fill="none" fill-rule="evenodd" sketch:type="MSPage">
        <g id="C-4-A@2x" sketch:type="MSArtboardGroup" transform="translate(-331.000000, -725.000000)" fill="#000000">
            <path d="M340,743 C344.970563,743 349,738.970563 349,734 C349,729.029437 344.970563,725 340,725 C335.029437,725 331,729.029437 331,734 C331,738.970563 335.029437,743 340,743 Z M341.896542,738 C341.698505,738 341.520884,737.868306 341.444065,737.664184 C341.42565,737.615199 341.413718,737.563011 341.408825,737.509047 C341.393447,737.346374 341.443487,737.18545 341.546603,737.068209 C341.68855,736.906962 341.766791,736.694012 341.766791,736.468385 C341.766791,736.2943 341.719765,736.126325 341.630725,735.982734 C341.527175,735.815862 341.373706,735.695095 341.198254,735.642423 C341.064502,735.602266 338.935498,735.602266 338.801722,735.642423 C338.62639,735.695095 338.472801,735.815862 338.369395,735.982734 C338.28038,736.126459 338.233329,736.2943 338.233329,736.468385 C338.233329,736.694012 338.311426,736.906989 338.453373,737.068047 C338.556634,737.185288 338.606698,737.346212 338.591295,737.509693 C338.586258,737.562849 338.574471,737.614553 338.556345,737.663538 C338.479261,737.868144 338.301639,738 338.103578,738 L336.908249,738 C336.637852,738 336.417808,737.754295 336.417808,737.452364 L336.417808,735.803347 C336.206393,735.900832 335.978564,735.951728 335.747721,735.951728 C334.783977,735.951728 334,735.076162 334,734 C334,732.923838 334.784122,732.048433 335.747745,732.048433 C335.978732,732.048433 336.206538,732.099195 336.417832,732.196653 L336.417832,730.547636 C336.417832,730.245705 336.637876,730 336.908273,730 L343.091727,730 C343.362124,730 343.582168,730.245705 343.582168,730.547636 L343.582168,732.196815 C343.793438,732.099329 344.021412,732.048595 344.252255,732.048595 C345.216023,732.048595 346,732.923999 346,734.000161 C346,735.076324 345.216023,735.951567 344.252255,735.951567 C344.021412,735.951567 343.793607,735.900805 343.582168,735.803185 L343.582168,737.452041 C343.582168,737.754268 343.3621,738 343.091727,738 L341.896542,738 Z" id="Oval-1087" sketch:type="MSShapeGroup"></path>
        </g>
    </g>
</svg>