<?xml version="1.0" encoding="UTF-8" standalone="no"?>
<svg width="490px" height="490px" viewBox="0 0 490 490" version="1.1" xmlns="http://www.w3.org/2000/svg" xmlns:xlink="http://www.w3.org/1999/xlink" xmlns:sketch="http://www.bohemiancoding.com/sketch/ns">
    <!-- Generator: Sketch 3.5.1 (25234) - http://www.bohemiancoding.com/sketch -->
    <title>behaviour</title>
    <desc>Created with Sketch.</desc>
    <defs></defs>
    <g id="Page-1" stroke="none" stroke-width="1" fill="none" fill-rule="evenodd" sketch:type="MSPage">
        <g id="Artboard-32" sketch:type="MSArtboardGroup" transform="translate(-5.000000, -5.000000)" fill="#8544C1">
            <path d="M250,495 C385.309764,495 495,385.309764 495,250 C495,114.690236 385.309764,5 250,5 C114.690236,5 5,114.690236 5,250 C5,385.309764 114.690236,495 250,495 Z M368.111336,229.411055 C354.709969,237.390914 347.458198,234.315864 345.248051,219.296014 C342.825,202.833736 345.989594,186.990634 351.861111,171.505709 C353.697589,166.663372 355.589104,161.71275 356.352372,156.658006 C357.283646,150.487082 353.793178,146.905308 347.275708,146.999711 C342.491885,147.069125 337.671854,147.961792 332.960447,148.909991 C317.405419,152.039184 301.714248,153.477446 285.844932,152.570897 C279.075453,152.182177 272.58695,150.605086 267.275936,146.1834 C262.689085,142.367006 262.544252,139.452997 265.385869,134.359381 C268.992203,127.895528 272.899788,121.415016 275.208421,114.490253 C279.285461,102.260855 275.182351,91.6960104 264.792055,83.8994048 C253.005573,75.0518678 239.395647,72.8236712 225.207839,77.1148585 C202.793535,83.8994048 190.232198,108.490088 207.432526,128.681297 C210.122068,131.838256 212.359733,135.370052 214.619123,138.840763 C217.285492,142.938979 216.446911,145.186612 211.419769,146.105656 C207.268865,146.865047 202.906505,147.22739 198.703461,146.930297 C188.205989,146.182012 177.75776,144.818716 167.266082,143.962145 C157.03655,143.126397 146.760672,142.571084 136.79184,145.800233 C126.725969,149.059925 121.989941,156.113799 123.03853,166.248275 C123.404956,169.775906 123.881456,173.306314 124.573756,176.786743 C126.30161,185.491287 127.878837,194.240255 130.104916,202.829572 C131.586554,208.553468 135.221854,209.890386 140.868879,207.578893 C143.480213,206.51269 145.922091,205.067486 148.491423,203.894386 C162.561917,197.477735 176.493371,199.589316 185.877079,210.084746 C195.971916,221.374276 199.053956,234.449139 194.430897,248.733198 C188.898289,265.825757 173.011594,275.792251 156.400735,272.901843 C148.071408,271.453862 141.006471,267.456991 134.389066,262.525804 C132.110848,260.829321 129.322819,259.760342 126.766523,258.403988 C126.421821,258.784378 126.077119,259.163379 125.732417,259.543769 C126.114776,260.779342 126.384164,262.063506 126.89832,263.250489 C133.521518,278.541054 135.375376,294.499384 132.390375,310.642356 C130.364166,321.598697 126.69121,332.284323 123.551237,343.036586 C118.247465,361.192571 123.950976,370.818935 143.047163,375.586304 C166.097282,381.264388 187.809147,377.470206 209.070583,369.612516 C211.608051,368.675424 213.793576,366.863713 216.409254,365.297728 C215.428737,364.112133 214.958031,363.461028 214.403322,362.886278 C207.365902,355.61722 202.73705,347.105648 200.34007,337.497331 C197.201546,324.915309 200.707945,314.840528 210.308902,308.391947 C226.097111,297.789618 250.478243,298.326885 265.695811,309.616414 C278.651093,319.226119 282.2806,334.176555 274.37853,347.937231 C271.464496,353.014187 267.294764,357.451144 263.50739,362.036648 C260.89316,365.200548 260.998888,366.516642 264.96151,367.961846 C267.47146,368.878114 270.129139,369.576421 272.783922,369.94154 C288.41716,372.094769 304.019984,374.690861 319.734328,375.968083 C328.679194,376.695544 338.045522,376.215197 346.820934,374.450688 C359.008603,372.003142 364.058918,363.473522 361.896566,351.706423 C360.934877,346.476755 358.665349,341.392858 358.277198,336.15486 C357.101157,320.254838 356.539206,304.313167 355.799111,288.385379 C355.749868,287.326118 356.097466,286.212714 356.445065,285.182607 C357.639934,281.639705 360.035466,280.719272 363.291305,282.714237 C366.408104,284.624517 369.396002,286.731933 372.389693,288.819912 C391.194767,301.926706 416.245025,294.037086 422.834911,272.597808 C427.373967,257.832014 424.727874,243.827001 415.349959,231.342158 C406.153085,219.094713 391.682853,216.251506 377.887541,223.549717 C374.527423,225.326722 371.375864,227.466068 368.111336,229.411055 Z" id="behaviour" sketch:type="MSShapeGroup"></path>
        </g>
    </g>
</svg>