<?xml version="1.0" encoding="UTF-8" standalone="no"?>
<svg width="20px" height="20px" viewBox="0 0 20 20" version="1.1" xmlns="http://www.w3.org/2000/svg" xmlns:xlink="http://www.w3.org/1999/xlink" xmlns:sketch="http://www.bohemiancoding.com/sketch/ns">
    <!-- Generator: Sketch 3.5.1 (25234) - http://www.bohemiancoding.com/sketch -->
    <title>behaviour</title>
    <desc>Created with Sketch.</desc>
    <defs></defs>
    <g id="Page-1" stroke="none" stroke-width="1" fill="none" fill-rule="evenodd" sketch:type="MSPage">
        <g id="Artboard-19" sketch:type="MSArtboardGroup" transform="translate(-65.000000, -29.000000)" fill="#67B80A">
            <path d="M78.2254944,40.8615318 C79.9858156,40.2044098 80.9500558,39.7254094 80.9500558,37.5768488 C80.9500558,34.4968403 78.3440603,32 75.1294019,32 C72.5728361,32 70.4012352,33.5791924 69.6192539,35.7750036 C69.5470662,35.9777073 69.874518,36.3769996 70.145616,36.6618425 L68.3039701,38.7329191 C67.7657193,39.3382248 67.9823469,39.9175092 68.7904513,40.0238295 L69.6248864,40.133614 C69.6488332,40.5874211 69.6524663,41.0677383 69.6191864,41.5400528 C69.4881138,43.4002594 69.605563,41.7097303 69.605563,41.7097303 C69.3920236,42.8504573 69.8173521,43.469525 70.9610848,43.264178 L73.024059,42.8937894 L73.024059,45.2895121 L78.2254944,45.2895121 L78.2254944,40.8615318 Z M70.4773744,36.9878555 C70.4775626,36.987191 70.4776583,36.9868535 70.4776583,36.9868535 C70.4776583,36.9868535 70.4774897,36.9867026 70.4771573,36.9864039 L70.4773744,36.9878556 Z M75,49 C80.5228475,49 85,44.5228475 85,39 C85,33.4771525 80.5228475,29 75,29 C69.4771525,29 65,33.4771525 65,39 C65,44.5228475 69.4771525,49 75,49 Z M79.158804,36.0281242 C79.1336235,35.9955072 79.1007215,35.9761103 79.0599078,35.9698204 L78.1988643,35.8394277 C78.1518506,35.6903914 78.087492,35.538229 78.0060167,35.3828651 C78.0623875,35.3052773 78.147134,35.1957881 78.2601039,35.0543976 C78.3730357,34.91312 78.4529514,34.8098078 78.5000793,34.7445738 C78.5251076,34.7104502 78.5377359,34.6747071 78.5377359,34.6373821 C78.5377359,34.5939555 78.5266671,34.5597943 78.5047578,34.5348984 C78.391826,34.3764838 78.1330983,34.1125347 77.7284607,33.7429004 C77.6908421,33.7118653 77.651588,33.6963101 77.6108123,33.6963101 C77.5637986,33.6963101 77.5261039,33.7102835 77.4978805,33.7382301 L76.8297225,34.2367881 C76.7010434,34.1715541 76.5598881,34.1141165 76.4062566,34.0644001 L76.2745345,33.2071305 C76.2713394,33.16683 76.2533099,33.1333844 76.2203698,33.106982 C76.1875059,33.0806172 76.1490505,33.0673595 76.1051177,33.0673595 L75.0606218,33.0673595 C74.9695992,33.0673595 74.9131523,33.110899 74.891243,33.1978275 C74.8504293,33.3531537 74.804899,33.6419987 74.7548043,34.0644001 C74.6073349,34.1109904 74.4646581,34.1700099 74.3266218,34.2414208 L73.6773302,33.7429381 C73.6365165,33.711903 73.5957028,33.6963478 73.5549652,33.6963478 C73.4859661,33.6963478 73.3377359,33.8074188 73.1103507,34.0294479 C72.8829275,34.25159 72.7284213,34.4184791 72.646908,34.5303034 C72.6186845,34.5707169 72.6045728,34.60646 72.6045728,34.6374574 C72.6045728,34.6747448 72.620244,34.7119944 72.6516246,34.7493194 C72.8617029,35.0009147 73.0295982,35.2151851 73.1550442,35.3922434 C73.0766119,35.5351405 73.0154484,35.6780376 72.9715918,35.8208594 L72.0963985,35.9512521 C72.0618609,35.9575043 72.0320779,35.9776545 72.0070115,36.0117781 C71.9818691,36.0460146 71.9693549,36.0816824 71.9693549,36.1189321 L71.9693549,37.1532224 C71.9693549,37.1935981 71.9818691,37.2300945 72.0070115,37.2626739 C72.0320779,37.2952909 72.065018,37.3147631 72.1058317,37.32094 L72.9668372,37.4467377 C73.0107319,37.5989378 73.0750524,37.7526821 73.1597608,37.9079707 C73.1033139,37.9856338 73.0186055,38.0951606 72.9056737,38.2364758 C72.7927418,38.3778664 72.71275,38.481028 72.6656982,38.5462997 C72.6405558,38.5804985 72.6280416,38.6161663 72.6280416,38.6534913 C72.6280416,38.6938671 72.6389963,38.7296102 72.6609817,38.760683 C72.7833086,38.9284006 73.0421124,39.189299 73.4373548,39.5433026 C73.4718544,39.5775769 73.5110325,39.5945256 73.5549652,39.5945256 C73.602017,39.5945256 73.6412331,39.58059 73.6726137,39.5526433 L74.3360169,39.0541983 C74.464582,39.119357 74.6057373,39.1769452 74.7594828,39.2265486 L74.891205,40.0838183 C74.894286,40.1240811 74.9123916,40.1575643 74.9453316,40.1839668 C74.9782336,40.2102939 75.016651,40.2235893 75.0605837,40.2235893 L76.1051177,40.2235893 C76.1960642,40.2235893 76.2525111,40.1800497 76.2744965,40.0931213 C76.3151961,39.9377951 76.3607644,39.6489501 76.4108972,39.2265486 C76.5583666,39.179996 76.7010053,39.1209765 76.8391177,39.049528 L77.4884092,39.5526433 C77.5322659,39.58059 77.5731176,39.5945256 77.6106982,39.5945256 C77.6796212,39.5945256 77.8271287,39.4843209 78.0529544,39.263836 C78.2788181,39.0433511 78.4341231,38.8755581 78.5188315,38.760683 C78.547055,38.7296479 78.5610906,38.6939801 78.5610906,38.6534913 C78.5610906,38.6131909 78.5454194,38.5742463 78.5140769,38.536959 C78.2882132,38.2637069 78.1203559,38.0493989 78.0106953,37.8941103 C78.0733802,37.7791976 78.1345818,37.637807 78.1941097,37.4700894 L79.0646624,37.339659 C79.102243,37.3334821 79.1335855,37.3132566 79.158766,37.2790954 C79.1838324,37.2450095 79.1963846,37.2092664 79.1963846,37.1719414 L79.1963846,36.1376134 C79.1963846,36.0972376 79.1838324,36.0607412 79.158804,36.0281242 Z M75.5828507,37.8381793 C75.2503295,37.8381793 74.966496,37.7217187 74.7311979,37.488835 C74.4959378,37.2558006 74.3783648,36.9748185 74.3783648,36.6454744 C74.3783648,36.3162809 74.4959758,36.0351105 74.7311979,35.8021514 C74.966496,35.5691924 75.2502915,35.4527694 75.5828507,35.4527694 C75.9152958,35.4527694 76.1992055,35.5692301 76.4345416,35.8021514 C76.6698017,36.0351105 76.7873747,36.3162432 76.7873747,36.6454744 C76.7873747,36.9747432 76.6697256,37.2558006 76.4345416,37.488835 C76.1992055,37.7217187 75.9152958,37.8381793 75.5828507,37.8381793 Z" id="behaviour" sketch:type="MSShapeGroup"></path>
        </g>
    </g>
</svg>