<?xml version="1.0" encoding="utf-8"?>
<!-- Generated by IcoMoon.io -->
<!DOCTYPE svg PUBLIC "-//W3C//DTD SVG 1.1//EN" "http://www.w3.org/Graphics/SVG/1.1/DTD/svg11.dtd">
<svg version="1.1" xmlns="http://www.w3.org/2000/svg" xmlns:xlink="http://www.w3.org/1999/xlink" width="64" height="64" viewBox="0 0 64 64">
<path fill="#96a4aa" d="M50.496 35.623c-2.195-4.988-3.292-10.245-3.292-15.771 0-3.48-1.086-6.243-3.258-8.289s-5.158-3.279-8.959-3.701c0.181-0.38 0.272-0.77 0.272-1.171 0-0.843-0.318-1.561-0.951-2.151s-1.403-0.886-2.307-0.886c-0.905 0-1.675 0.295-2.308 0.886s-0.95 1.308-0.95 2.151c0 0.401 0.090 0.791 0.272 1.171-3.801 0.422-6.787 1.656-8.959 3.701s-3.258 4.809-3.258 8.289c0 5.526-1.098 10.783-3.292 15.771s-5.441 9.18-9.74 12.575c0 1.097 0.429 2.046 1.289 2.847s1.878 1.202 3.055 1.202h15.204c0 2.235 0.848 4.145 2.545 5.726s3.744 2.373 6.143 2.373 4.446-0.791 6.143-2.373c1.697-1.582 2.545-3.491 2.545-5.726h15.203c1.176 0 2.194-0.4 3.054-1.202s1.29-1.751 1.29-2.847c-4.298-3.395-7.545-7.587-9.739-12.575v0 0zM52.235 34.945l0 0c2.079 4.726 5.144 8.684 9.21 11.896l0.672 0.531v0.826c0 1.575-0.634 2.975-1.847 4.106-1.209 1.128-2.702 1.716-4.379 1.716h-15.203l1.882-1.772c0 2.709-1.050 5.071-3.103 6.985-2.050 1.911-4.573 2.885-7.467 2.885s-5.417-0.975-7.467-2.885c-2.053-1.914-3.103-4.276-3.103-6.985l1.882 1.772h-15.204c-1.678 0-3.171-0.587-4.379-1.715-1.213-1.131-1.847-2.531-1.847-4.106v-0.826l0.672-0.531c4.065-3.211 7.131-7.169 9.211-11.896 2.099-4.772 3.149-9.799 3.149-15.093 0-3.928 1.264-7.144 3.809-9.541 2.491-2.346 5.871-3.742 10.070-4.208l0.221 1.759-1.717 0.726c-0.289-0.606-0.437-1.243-0.437-1.897 0-1.315 0.517-2.486 1.508-3.409 0.987-0.921 2.233-1.399 3.633-1.399s2.645 0.478 3.632 1.399c0.99 0.924 1.508 2.095 1.508 3.409 0 0.653-0.148 1.29-0.437 1.896l-1.718-0.725 0.221-1.759c4.2 0.466 7.58 1.863 10.070 4.208 2.544 2.397 3.809 5.613 3.809 9.541 0 5.295 1.049 10.321 3.149 15.093v0z"></path>
</svg>
