<?xml version="1.0" encoding="utf-8"?>
<!-- Generated by IcoMoon.io -->
<!DOCTYPE svg PUBLIC "-//W3C//DTD SVG 1.1//EN" "http://www.w3.org/Graphics/SVG/1.1/DTD/svg11.dtd">
<svg version="1.1" xmlns="http://www.w3.org/2000/svg" xmlns:xlink="http://www.w3.org/1999/xlink" width="32" height="32" viewBox="0 0 32 32">
<path d="M16.002 2.615c0.402 0 0.743 0.14 1.026 0.418 0.281 0.279 0.421 0.617 0.421 1.015 0 0.188-0.039 0.373-0.121 0.553 1.689 0.199 3.017 0.78 3.984 1.748 0.964 0.965 1.447 2.27 1.447 3.915 0 2.61 0.485 5.092 1.461 7.447s2.418 4.334 4.329 5.94c0 0.517-0.19 0.965-0.572 1.344-0.38 0.38-0.836 0.569-1.358 0.569h-6.757c0 1.056-0.377 1.956-1.131 2.702-0.754 0.75-1.666 1.122-2.731 1.122s-1.973-0.373-2.727-1.124c-0.756-0.747-1.132-1.646-1.132-2.702h-6.757c-0.523 0-0.976-0.188-1.358-0.569-0.38-0.379-0.572-0.827-0.572-1.344 1.909-1.604 3.353-3.584 4.329-5.94 0.976-2.354 1.463-4.836 1.463-7.445 0-1.643 0.482-2.948 1.447-3.915s2.293-1.548 3.982-1.748c-0.080-0.178-0.119-0.363-0.119-0.553 0-0.398 0.14-0.738 0.423-1.015 0.281-0.279 0.622-0.418 1.024-0.418zM16.002 0.94c-0.846 0-1.607 0.313-2.203 0.903-0.398 0.393-0.672 0.86-0.811 1.378-1.392 0.372-2.558 1.022-3.479 1.945-1.285 1.287-1.938 3.003-1.938 5.097 0 2.375-0.45 4.667-1.335 6.807-0.868 2.096-2.167 3.879-3.858 5.298l-0.597 0.501v0.779c0 0.962 0.368 1.836 1.067 2.532 0.697 0.692 1.573 1.056 2.537 1.056h5.337c0.261 0.827 0.725 1.577 1.374 2.219 1.072 1.063 2.388 1.604 3.906 1.604 1.5 0 2.852-0.555 3.909-1.607 0.647-0.64 1.108-1.39 1.371-2.215h5.337c0.967 0 1.844-0.366 2.539-1.056 0.697-0.693 1.067-1.568 1.067-2.532v-0.779l-0.597-0.501c-1.694-1.422-2.992-3.204-3.86-5.298-0.885-2.139-1.335-4.428-1.335-6.807 0-2.092-0.651-3.808-1.936-5.095-0.926-0.924-2.092-1.575-3.481-1.947-0.139-0.517-0.412-0.983-0.809-1.376-0.599-0.592-1.36-0.905-2.204-0.905v0z"></path>
</svg>
