<?xml version="1.0" encoding="UTF-8" standalone="no"?>
<svg width="18px" height="21px" viewBox="0 0 18 21" version="1.1" xmlns="http://www.w3.org/2000/svg" xmlns:xlink="http://www.w3.org/1999/xlink" xmlns:sketch="http://www.bohemiancoding.com/sketch/ns">
    <!-- Generator: Sketch 3.3 (11970) - http://www.bohemiancoding.com/sketch -->
    <title>Path + Shape 2</title>
    <desc>Created with Sketch.</desc>
    <defs></defs>
    <g id="Page-1" stroke="none" stroke-width="1" fill="none" fill-rule="evenodd" sketch:type="MSPage">
        <g id="settings-team@2x" sketch:type="MSArtboardGroup" transform="translate(-352.000000, -16.000000)" stroke="#50E2ED" fill="#D60F36">
            <g id="bell" sketch:type="MSLayerGroup" transform="translate(352.000000, 15.000000)">
                <g id="Path-+-Shape-2" transform="translate(0.000000, 0.000000)" sketch:type="MSShapeGroup">
                    <path d="M9,20.0476198 C10.1647059,20.0476198 11.1176471,19.2761912 11.1176471,18.3333341 L6.88235294,18.3333341 C6.88235294,19.2761912 7.83529412,20.0476198 9,20.0476198 L9,20.0476198 Z" id="Path"></path>
                    <path d="M15.8823529,15.422969 L15.8823529,9.7380951 C15.8823529,6.53389347 13.6588235,3.9498599 10.5882353,3.2263305 L10.5882353,2.5028011 C10.5882353,1.67591035 9.84705882,0.952380952 9,0.952380952 C8.15294118,0.952380952 7.41176471,1.67591035 7.41176471,2.5028011 L7.41176471,3.2263305 C4.34117647,3.9498599 2.11764706,6.53389347 2.11764706,9.7380951 L2.11764706,15.422969 L0,17.4901958 L0,18.5238093 L18,18.5238093 L18,17.4901958 L15.8823529,15.422969 L15.8823529,15.422969 Z" id="Shape-2" stroke-linecap="round" stroke-linejoin="bevel"></path>
                </g>
            </g>
        </g>
    </g>
</svg>