<?xml version="1.0" encoding="utf-8"?>
<!-- Generated by IcoMoon.io -->
<!DOCTYPE svg PUBLIC "-//W3C//DTD SVG 1.1//EN" "http://www.w3.org/Graphics/SVG/1.1/DTD/svg11.dtd">
<svg version="1.1" xmlns="http://www.w3.org/2000/svg" xmlns:xlink="http://www.w3.org/1999/xlink" width="32" height="32" viewBox="0 0 32 32">
<path fill="#f4c52d" d="M32 16c0 8.837-7.163 16-16 16s-16-7.163-16-16c0-8.837 7.163-16 16-16s16 7.163 16 16z" stroke-width="0"></path>
<path fill="#0b2f3d" d="M3.52 19.184v-3.504c0.416-0.672 1.36-1.248 2.32-1.248 1.552 0 2.48 1.28 2.48 2.992s-0.928 2.976-2.48 2.976c-0.96 0-1.904-0.544-2.32-1.216v0zM3.52 21.28v-1.152c0.576 0.784 1.52 1.344 2.608 1.344 2.016 0 3.44-1.536 3.44-4.048 0-2.48-1.408-4.064-3.44-4.064-1.040 0-1.984 0.512-2.608 1.36v-4.112h-1.2v10.672h1.2zM14.544 21.472c1.248 0 2.288-0.432 3.072-1.2l-0.576-0.784c-0.624 0.64-1.504 0.992-2.4 0.992-1.664 0-2.672-1.216-2.768-2.672h6.24v-0.304c0-2.32-1.376-4.144-3.712-4.144-2.208 0-3.808 1.808-3.808 4.048 0 2.416 1.648 4.064 3.952 4.064v0zM16.928 16.912h-5.072c0.064-1.168 0.88-2.56 2.528-2.56 1.76 0 2.528 1.424 2.544 2.56v0zM21.536 21.472c0.688 0 1.12-0.208 1.424-0.496l-0.352-0.912c-0.16 0.176-0.464 0.336-0.816 0.336-0.512 0-0.768-0.416-0.768-0.992v-4.8h1.568v-1.056h-1.568v-2.112h-1.216v2.112h-1.28v1.056h1.28v5.056c0 1.152 0.576 1.808 1.728 1.808v0zM29.824 21.28v-5.312c0-1.872-1.344-2.608-2.992-2.608-1.264 0-2.256 0.416-3.088 1.28l0.56 0.832c0.688-0.752 1.44-1.072 2.368-1.072 1.12 0 1.952 0.592 1.952 1.616v1.392c-0.624-0.704-1.504-1.040-2.56-1.040-1.312 0-2.688 0.8-2.688 2.544 0 1.68 1.392 2.56 2.688 2.56 1.040 0 1.936-0.368 2.56-1.072v0.88h1.2zM26.512 20.608c-1.136 0-1.92-0.704-1.92-1.696 0-0.976 0.784-1.68 1.92-1.68 0.832 0 1.648 0.32 2.112 0.944v1.472c-0.464 0.64-1.28 0.96-2.112 0.96v0z"></path>
</svg>
