<?xml version="1.0" encoding="utf-8"?>
<!-- Generated by IcoMoon.io -->
<!DOCTYPE svg PUBLIC "-//W3C//DTD SVG 1.1//EN" "http://www.w3.org/Graphics/SVG/1.1/DTD/svg11.dtd">
<svg version="1.1" xmlns="http://www.w3.org/2000/svg" xmlns:xlink="http://www.w3.org/1999/xlink" width="32" height="32" viewBox="0 0 32 32">
<path fill="#444444" d="M0.006 26.261c-0.009-0.12-0.008-0.247 0.009-0.373l1.412-11.305c0.034-0.264 0.119-0.512 0.245-0.74 0.235-0.774 0.706-1.472 1.352-2.044l0.024-0.567c-0.73-0.634-1.165-1.429-1.165-2.291 0-0.126 0.009-0.252 0.028-0.376h-0.028l0.060-0.173c0.043-0.201 0.113-0.397 0.203-0.587v0l1.619-4.698h0.019c0.19-0.951 1.794-1.694 3.746-1.694s3.558 0.744 3.746 1.694h0.019l1.619 4.696c0.090 0.19 0.158 0.388 0.203 0.587l0.060 0.175h-0.028c0.019 0.122 0.028 0.248 0.028 0.376 0 0.471-0.128 0.92-0.365 1.333 2.057-0.738 4.32-0.738 6.376 0v0c-0.235-0.414-0.363-0.864-0.363-1.333 0-0.126 0.009-0.252 0.028-0.376h-0.028l0.058-0.173c0.043-0.201 0.115-0.397 0.203-0.587l1.621-4.698h0.019c0.19-0.951 1.794-1.694 3.746-1.694s3.558 0.744 3.746 1.694v0h0.019l1.619 4.696c0.090 0.19 0.16 0.388 0.203 0.587l0.060 0.175h-0.028c0.019 0.122 0.028 0.248 0.028 0.376 0 0.862-0.433 1.656-1.165 2.291l0.040 0.954c0.523 0.576 0.888 1.254 1.043 1.986v0c0.045 0.132 0.079 0.269 0.098 0.41l1.38 11.048c0.072 0.265 0.111 0.538 0.111 0.819 0 2.6-3.287 4.706-7.339 4.706-4.055 0-7.341-2.106-7.341-4.706 0-0.062 0.002-0.124 0.006-0.186v0c-0.009-0.12-0.008-0.247 0.009-0.373l1.227-9.824c-1.442-1.028-3.445-0.919-4.766 0.329v0l1.154 9.235c0.073 0.265 0.111 0.538 0.111 0.819 0 2.6-3.287 4.706-7.341 4.706s-7.341-2.106-7.341-4.706c-0.002-0.064 0-0.128 0.004-0.188v0zM24.282 29.271c3.328 0 6.022-1.728 6.022-3.859 0-2.133-2.696-3.861-6.022-3.861s-6.024 1.728-6.024 3.861c0 2.131 2.697 3.859 6.024 3.859zM7.341 29.271c3.328 0 6.024-1.728 6.024-3.859 0-2.133-2.697-3.861-6.024-3.861s-6.024 1.728-6.024 3.861c0 2.131 2.697 3.859 6.024 3.859z"></path>
</svg>
