<?xml version="1.0" encoding="utf-8"?>
<!-- Generated by IcoMoon.io -->
<!DOCTYPE svg PUBLIC "-//W3C//DTD SVG 1.1//EN" "http://www.w3.org/Graphics/SVG/1.1/DTD/svg11.dtd">
<svg version="1.1" xmlns="http://www.w3.org/2000/svg" xmlns:xlink="http://www.w3.org/1999/xlink" width="32" height="32" viewBox="0 0 32 32">
<path fill="#444444" d="M21.344 2.667h-10.688c-5.865 0-10.656 4.777-10.656 10.667 0 5.879 4.772 10.667 10.656 10.667h2.073c-0.004 1.808-0.651 4.27-3.84 5.333 0 0 9.253-1.323 11.803-5.333h0.652c5.865 0 10.656-4.777 10.656-10.667 0-5.879-4.772-10.667-10.656-10.667zM23.111 13.886c0 0.080-0.025 0.156-0.073 0.229-0.050 0.075-0.11 0.117-0.187 0.13l-1.712 0.281c-0.117 0.361-0.238 0.665-0.361 0.912 0.215 0.334 0.546 0.795 0.99 1.381 0.062 0.080 0.094 0.164 0.094 0.251s-0.028 0.164-0.084 0.231c-0.167 0.247-0.473 0.608-0.917 1.081s-0.736 0.709-0.871 0.709c-0.073 0-0.153-0.030-0.24-0.089l-1.278-1.083c-0.27 0.155-0.553 0.281-0.844 0.382-0.098 0.907-0.187 1.527-0.267 1.861-0.044 0.187-0.155 0.281-0.334 0.281h-2.055c-0.087 0-0.162-0.028-0.226-0.085-0.066-0.057-0.101-0.128-0.108-0.215l-0.26-1.842c-0.302-0.108-0.58-0.231-0.834-0.372l-1.305 1.072c-0.062 0.059-0.139 0.089-0.231 0.089-0.087 0-0.164-0.037-0.231-0.11-0.777-0.759-1.287-1.321-1.527-1.682-0.044-0.068-0.066-0.144-0.066-0.229 0-0.080 0.025-0.156 0.075-0.229 0.092-0.14 0.251-0.363 0.473-0.667s0.388-0.54 0.5-0.708c-0.167-0.332-0.293-0.663-0.38-0.99l-1.694-0.272c-0.080-0.012-0.146-0.055-0.194-0.124-0.050-0.069-0.075-0.149-0.075-0.235v-2.222c0-0.080 0.025-0.156 0.075-0.229s0.108-0.117 0.176-0.13l1.723-0.281c0.087-0.308 0.206-0.615 0.361-0.921-0.247-0.384-0.578-0.843-0.992-1.385-0.062-0.080-0.092-0.16-0.092-0.24 0-0.068 0.028-0.144 0.084-0.231 0.16-0.24 0.464-0.599 0.912-1.076 0.446-0.478 0.74-0.716 0.875-0.716 0.080 0 0.16 0.034 0.24 0.101l1.278 1.072c0.272-0.155 0.553-0.283 0.843-0.382 0.098-0.908 0.188-1.529 0.268-1.863 0.044-0.187 0.155-0.279 0.334-0.279h2.055c0.087 0 0.164 0.028 0.226 0.085 0.066 0.057 0.101 0.128 0.108 0.215l0.26 1.844c0.302 0.107 0.58 0.229 0.834 0.37l1.312-1.072c0.055-0.060 0.132-0.091 0.222-0.091 0.082 0 0.16 0.034 0.233 0.101 0.796 0.795 1.305 1.362 1.527 1.703 0.043 0.053 0.066 0.126 0.066 0.22 0 0.080-0.027 0.156-0.076 0.229-0.091 0.14-0.251 0.363-0.473 0.667s-0.389 0.539-0.5 0.706c0.162 0.334 0.288 0.661 0.382 0.981l1.694 0.281c0.080 0.012 0.144 0.055 0.194 0.124s0.075 0.148 0.075 0.235v2.224z"></path>
<path fill="#444444" d="M16 10.188c-0.654 0-1.212 0.251-1.676 0.752-0.462 0.5-0.695 1.106-0.695 1.813s0.231 1.312 0.695 1.813c0.464 0.5 1.022 0.75 1.676 0.75s1.212-0.251 1.676-0.75c0.462-0.501 0.695-1.106 0.695-1.813s-0.233-1.312-0.695-1.813c-0.464-0.5-1.022-0.752-1.676-0.752z"></path>
</svg>
