<?xml version="1.0" encoding="UTF-8" standalone="no"?>
<svg width="22px" height="20px" viewBox="0 0 22 20" version="1.1" xmlns="http://www.w3.org/2000/svg" xmlns:xlink="http://www.w3.org/1999/xlink" xmlns:sketch="http://www.bohemiancoding.com/sketch/ns">
    <!-- Generator: Sketch 3.4.2 (15855) - http://www.bohemiancoding.com/sketch -->
    <title>helper</title>
    <desc>Created with Sketch.</desc>
    <defs></defs>
    <g id="Page-1" stroke="none" stroke-width="1" fill="none" fill-rule="evenodd" sketch:type="MSPage">
        <g id="source-cards@2x" sketch:type="MSArtboardGroup" transform="translate(-707.000000, -572.000000)" fill="#000000">
            <g id="source-reduced-6" sketch:type="MSLayerGroup" transform="translate(623.500000, 544.000000)">
                <path d="M97.7245931,43.7 L97.8980421,43.7 C102.098684,43.7 105.5,40.2973641 105.5,36.1 C105.5,31.9111767 102.096488,28.5 97.8980421,28.5 L91.1019579,28.5 C86.9013161,28.5 83.5,31.9026359 83.5,36.1 C83.5,40.2888233 86.9035125,43.7 91.1019579,43.7 L92.251098,43.7 C92.2483273,44.9878702 91.8041952,46.7423891 89.6111111,47.5 C89.6111111,47.5 95.9725046,46.5581833 97.7245931,43.7 Z M98.4745843,33.7391535 C98.4809527,33.804 98.4843211,33.901357 98.4843211,34.0311664 C98.4843211,34.6369435 98.4044795,35.2445816 98.2450592,35.8539063 C98.0854811,36.4634637 97.8412719,37.0475477 97.512642,37.606391 C97.1838017,38.1652342 96.7915406,38.6593473 96.3359114,39.0882649 C95.8801769,39.5174152 95.3332325,39.860084 94.6952884,40.1159225 C94.0571865,40.3719354 93.3736112,40.5 92.6445098,40.5 C91.5117263,40.5 90.463416,40.1610533 89.5,39.4832181 C89.6562623,39.5047948 89.8188931,39.5156704 89.9882606,39.5156704 C90.9321504,39.5156704 91.7817775,39.1912052 92.5370893,38.5421002 C92.0942495,38.535063 91.6987779,38.3835606 91.3505692,38.0877674 C91.0022553,37.7922068 90.7597828,37.4171438 90.6230467,36.9627528 C90.792309,36.9915994 90.9192557,37.0059645 91.0039395,37.0059645 C91.147044,37.0059645 91.3130957,36.9772924 91.5019895,36.919483 C91.0266235,36.8186365 90.6262572,36.5571567 90.3007853,36.1352181 C89.9751554,35.7133376 89.8125247,35.2320194 89.8125247,34.691147 L89.8125247,34.6695121 C90.1575229,34.8498611 90.4829948,34.9436704 90.7890985,34.9507076 C90.1966279,34.5109144 89.9004189,33.8798384 89.9004189,33.0576543 C89.9004189,32.6538611 89.9946816,32.2717027 90.183628,31.9110048 C90.6978358,32.6105913 91.3228325,33.169609 92.0586181,33.5877674 C92.7942458,34.006042 93.5820838,34.2404782 94.4219215,34.2908433 C94.3892901,34.1539386 94.373027,33.9808595 94.373027,33.7716058 C94.373027,33.144252 94.5732891,32.6087884 94.9736554,32.1652149 C95.3740217,31.7217577 95.8574402,31.5 96.4239109,31.5 C97.0228025,31.5 97.5208525,31.7379838 97.918061,32.2138934 C98.3672691,32.1203166 98.8034247,31.93642 99.226633,31.6622617 C99.0637918,32.2176737 98.7610565,32.6396123 98.3184273,32.9279031 C98.7414777,32.8630565 99.1353177,32.7404588 99.5,32.5601099 C99.2264225,33.0216543 98.8847401,33.41463 98.4745843,33.7391535 Z" id="helper" sketch:type="MSShapeGroup"></path>
            </g>
        </g>
    </g>
</svg>