<?xml version="1.0" encoding="UTF-8" standalone="no"?>
<svg width="18px" height="16px" viewBox="0 0 18 16" version="1.1" xmlns="http://www.w3.org/2000/svg" xmlns:xlink="http://www.w3.org/1999/xlink" xmlns:sketch="http://www.bohemiancoding.com/sketch/ns">
    <!-- Generator: Sketch 3.2.2 (9983) - http://www.bohemiancoding.com/sketch -->
    <title>discover</title>
    <desc>Created with Sketch.</desc>
    <defs></defs>
    <g id="Page-1" stroke="none" stroke-width="1" fill="none" fill-rule="evenodd" sketch:type="MSPage">
        <g id="icons@2x" sketch:type="MSArtboardGroup" transform="translate(-233.000000, -304.000000)" fill="#000000">
            <g id="discover" sketch:type="MSLayerGroup" transform="translate(233.000000, 304.749699)">
                <path d="M0,6 C0,2.6862915 2.69478187,0 5.99373937,0 L12.0062606,0 C15.3165115,0 18,2.69303423 18,6 C18,9.3137085 15.3052181,12 12.0062606,12 L5.99373937,12 C2.68348852,12 0,9.30696577 0,6 Z M10.6302632,8.72396163 L9.797,7.72396163 C9.76563158,7.68569471 9.72226316,7.66661396 9.66668421,7.66661396 L6.66668421,7.66661396 L6.66668421,5.66666667 L7.66668421,5.66666667 C7.75694737,5.66666667 7.83505263,5.63372338 7.90105263,5.56773139 C7.96694737,5.50179211 8,5.423677 8,5.33333333 C8,5.24994729 7.97394737,5.17889521 7.92189474,5.11975543 L6.25521053,3.11975543 C6.18921053,3.04343243 6.10415789,3.00516551 5.99994737,3.00516551 C5.89578947,3.00516551 5.81068421,3.04343243 5.74478947,3.11975543 L4.07810526,5.11975543 C4.02610526,5.1788425 4,5.24994729 4,5.33333333 C4,5.423677 4.03294737,5.50173941 4.09894737,5.56773139 C4.16489474,5.63372338 4.243,5.66666667 4.33336842,5.66666667 L5.33336842,5.66666667 L5.33336842,7.83333333 L5.33336842,8.66666667 L5.33336842,8.72396163 L5.33336842,8.79164031 C5.33336842,8.80207674 5.33510526,8.82205355 5.33857895,8.85162345 C5.342,8.88119334 5.34726316,8.90106473 5.35421053,8.91144845 C5.36115789,8.92193759 5.37063158,8.93585284 5.38284211,8.95314147 C5.39494737,8.97053553 5.41057895,8.98276407 5.42973684,8.98961628 C5.44873684,8.99667932 5.47226316,8.99994729 5.50005263,8.99994729 L10.5000526,8.99994729 C10.5451053,8.99994729 10.5843158,8.983502 10.6173158,8.95050601 C10.6502105,8.91756272 10.6666842,8.87855787 10.6666842,8.83328062 C10.6666316,8.79870335 10.6545263,8.76212313 10.6302632,8.72396163 Z M13.9010526,6.4322159 C13.8350526,6.36632933 13.7568947,6.33328062 13.6666842,6.33328062 L12.6666842,6.33328062 L12.6666842,4.16666667 L12.6666842,3.33328062 L12.6666842,3.27603837 L12.6666842,3.20830698 C12.6666842,3.19787055 12.6648947,3.17794645 12.6613684,3.14842926 C12.658,3.11896479 12.6527368,3.09893527 12.6457368,3.08855155 C12.6387368,3.07811512 12.6293158,3.06425258 12.6170526,3.04691124 C12.6049474,3.02951718 12.5893684,3.01744676 12.5702105,3.01043643 C12.5512105,3.00353152 12.5276316,3 12.4998947,3 L7.5,3 C7.45484211,3 7.41573684,3.016498 7.38278947,3.04949399 C7.34973684,3.08254269 7.33331579,3.12160025 7.33331579,3.16666667 C7.33331579,3.20493359 7.34542105,3.23956357 7.36978947,3.27087287 L8.20310526,4.27087287 C8.23442105,4.31251318 8.27773684,4.33338604 8.33336842,4.33338604 L11.3333158,4.33338604 L11.3333158,6.33338604 L10.3333684,6.33338604 C10.243,6.33338604 10.1648947,6.36643475 10.0989474,6.43232132 C10.0329474,6.49841872 10,6.57642842 10,6.66671938 C10,6.75 10.0260526,6.82126291 10.0781053,6.88029728 L11.7447368,8.88029728 C11.8141053,8.96020451 11.8992632,9 12,9 C12.1006316,9 12.1856316,8.9601518 12.2552632,8.88029728 L13.9218947,6.88029728 C13.974,6.82126291 14,6.75 14,6.66671938 C14,6.57637571 13.9669474,6.4983133 13.9010526,6.4322159 Z" id="Rectangle-12" sketch:type="MSShapeGroup"></path>
                <path d="M7,9 C7,9 8,14 5,15 C5,15 12,14 12,9 L7,9 Z" id="Path-24" sketch:type="MSShapeGroup"></path>
            </g>
        </g>
    </g>
</svg>