<?xml version="1.0" encoding="UTF-8"?>
<svg width="14px" height="18px" viewBox="0 0 14 18" version="1.1" xmlns="http://www.w3.org/2000/svg" xmlns:xlink="http://www.w3.org/1999/xlink">
    <!-- Generator: Sketch 42 (36781) - http://www.bohemiancoding.com/sketch -->
    <title>Combined Shape</title>
    <desc>Created with Sketch.</desc>
    <defs></defs>
    <g id="Page-1" stroke="none" stroke-width="1" fill="none" fill-rule="evenodd">
        <g id="Messages@2x" transform="translate(-319.000000, -452.000000)" fill-rule="nonzero" fill="#99C5DD">
            <g id="67-information-booth-hotel-service-travel-flat" transform="translate(319.000000, 452.000000)">
                <g id="67--Information-Booth--(hotel,-service,-travel,-flat)">
                    <g id="Page-1">
                        <g id="Hotel-Services---Flat">
                            <g id="67--Information-Booth--(hotel,-service,-travel,-flat)">
                                <path d="M4.04768,0 L9.64768,0 C11.8814578,0 13.6921244,1.77559322 13.6921244,3.96610169 L13.6921244,9.45762712 C13.6921244,11.6481356 11.8814578,13.4237288 9.64768,13.4237288 L8.62568,13.4237288 C8.15932444,13.4237288 7.78101333,13.7947119 7.78101333,14.2520339 L7.78101333,17.2696271 C7.78101333,17.6848475 7.23688,17.8541695 6.99265778,17.5152203 L5.07901333,14.8564068 C4.52150222,14.0821017 3.71448,13.5231864 2.79545778,13.23 C1.17456889,12.7128814 0.00323555556,11.2194915 0.00323555556,9.45762712 L0.00323555556,3.96610169 C0.00323555556,1.77559322 1.81390222,0 4.04768,0 Z M7.78101333,2.74576271 C7.78101333,2.24023729 7.36319111,1.83050847 6.84768,1.83050847 C6.33216889,1.83050847 5.91434667,2.24023729 5.91434667,2.74576271 C5.91434667,3.25128814 6.33216889,3.66101695 6.84768,3.66101695 C7.36319111,3.66101695 7.78101333,3.25128814 7.78101333,2.74576271 Z M7.78101333,10.3728814 L7.78101333,6.10169492 L7.78101333,5.49305085 C7.78101333,5.15532203 7.50163556,4.88135593 7.15723556,4.88135593 L5.91434667,4.88135593 C5.57056889,4.88135593 5.29212444,5.15440678 5.29212444,5.49152542 C5.29212444,5.82864407 5.57056889,6.10169492 5.91434667,6.10169492 L6.53656889,6.10169492 L6.53656889,10.3728814 L5.91434667,10.3728814 C5.57056889,10.3728814 5.29212444,10.6459322 5.29212444,10.9830508 C5.29212444,11.3201695 5.57056889,11.5932203 5.91434667,11.5932203 L8.40323556,11.5932203 C8.74701333,11.5932203 9.02545778,11.3201695 9.02545778,10.9830508 C9.02545778,10.6459322 8.74701333,10.3728814 8.40323556,10.3728814 L7.78101333,10.3728814 Z" id="Combined-Shape"></path>
                            </g>
                        </g>
                    </g>
                </g>
            </g>
        </g>
    </g>
</svg>