<?xml version="1.0" encoding="UTF-8" standalone="no"?>
<svg width="18px" height="15px" viewBox="0 0 18 15" version="1.1" xmlns="http://www.w3.org/2000/svg" xmlns:xlink="http://www.w3.org/1999/xlink" xmlns:sketch="http://www.bohemiancoding.com/sketch/ns">
    <!-- Generator: Sketch 3.2.2 (9983) - http://www.bohemiancoding.com/sketch -->
    <title>discover 2</title>
    <desc>Created with Sketch.</desc>
    <defs></defs>
    <g id="Page-1" stroke="none" stroke-width="1" fill="none" fill-rule="evenodd" sketch:type="MSPage">
        <g id="discover-2" sketch:type="MSLayerGroup" fill="#000000">
            <path d="M10.9444102,12 L12.0062606,12 C15.3052181,12 18,9.3137085 18,6 C18,2.69303423 15.3165115,0 12.0062606,0 L5.99373937,0 C2.69478187,0 0,2.6862915 0,6 C0,9.30696577 2.68348852,12 5.99373937,12 L7.08146361,12 C6.90146567,13.2629375 6.36444806,14.545184 5,15 C5,15 8.98888204,14.4301597 10.9444102,12 L10.9444102,12 Z M7.89035335,7.04741849 L5.9686805,5.75045706 L5,7.20347778 L7.61947038,8.94979137 L8.34598075,9.43413162 L8.83032099,8.70762125 L12.3229482,3.4686805 L10.8699274,2.5 L7.89035335,7.04741849 Z" id="Rectangle-12" sketch:type="MSShapeGroup"></path>
        </g>
    </g>
</svg>