<?xml version="1.0" encoding="UTF-8" standalone="no"?>
<svg width="17px" height="19px" viewBox="0 0 17 19" version="1.1" xmlns="http://www.w3.org/2000/svg" xmlns:xlink="http://www.w3.org/1999/xlink" xmlns:sketch="http://www.bohemiancoding.com/sketch/ns">
    <!-- Generator: Sketch 3.2.2 (9983) - http://www.bohemiancoding.com/sketch -->
    <title>calendar 2</title>
    <desc>Created with Sketch.</desc>
    <defs></defs>
    <g id="Page-1" stroke="none" stroke-width="1" fill="none" fill-rule="evenodd" sketch:type="MSPage">
        <g id="icons@2x" sketch:type="MSArtboardGroup" transform="translate(-523.000000, -803.000000)" fill="#000000">
            <path d="M534.935556,805.436364 L528.535605,805.436364 L528.535605,805.436364 L528.535605,804.201732 C528.535605,803.986448 528.358171,803.8 528.139294,803.8 L526.531916,803.8 C526.323929,803.8 526.135605,803.979861 526.135605,804.201732 L526.135605,805.436364 L526.131677,805.436364 C524.808006,805.436364 523.735605,806.533369 523.735605,807.886891 L523.735605,819.349472 C523.735605,820.703226 524.808232,821.8 526.131677,821.8 L537.339534,821.8 C538.663204,821.8 539.735605,820.702995 539.735605,819.349472 L539.735605,807.886891 C539.735605,806.533137 538.662978,805.436364 537.339534,805.436364 L537.335556,805.436364 L537.335556,804.201732 C537.335556,803.986448 537.158122,803.8 536.939245,803.8 L535.331867,803.8 C535.12388,803.8 534.935556,803.979861 534.935556,804.201732 L534.935556,805.436364 L534.935556,805.436364 Z M526.131677,807.072727 L537.339534,807.072727 C537.779398,807.072727 538.135605,807.436953 538.135605,807.886891 L538.135605,819.349472 C538.135605,819.799334 537.779473,820.163636 537.339534,820.163636 L526.131677,820.163636 C525.691812,820.163636 525.335605,819.79941 525.335605,819.349472 L525.335605,807.886891 C525.335605,807.43703 525.691737,807.072727 526.131677,807.072727 Z M526.135605,812.561906 C526.135605,812.341948 526.31775,812.163636 526.535409,812.163636 L528.793983,812.163636 C529.014789,812.163636 529.193787,812.345082 529.193787,812.561906 L529.193787,814.811814 C529.193787,815.031772 529.011642,815.210084 528.793983,815.210084 L526.535409,815.210084 C526.314603,815.210084 526.135605,815.028638 526.135605,814.811814 L526.135605,812.561906 Z M526.135605,808.561906 C526.135605,808.341948 526.30996,808.163636 526.53066,808.163636 L536.84055,808.163636 C537.058732,808.163636 537.235605,808.345082 537.235605,808.561906 L537.235605,810.811814 C537.235605,811.031772 537.06125,811.210084 536.84055,811.210084 L526.53066,811.210084 C526.312477,811.210084 526.135605,811.028638 526.135605,810.811814 L526.135605,808.561906 Z M526.135605,816.623836 C526.135605,816.403878 526.31775,816.225566 526.535409,816.225566 L528.793983,816.225566 C529.014789,816.225566 529.193787,816.407012 529.193787,816.623836 L529.193787,818.873744 C529.193787,819.093702 529.011642,819.272013 528.793983,819.272013 L526.535409,819.272013 C526.314603,819.272013 526.135605,819.090568 526.135605,818.873744 L526.135605,816.623836 Z M530.213181,812.561906 C530.213181,812.341948 530.395326,812.163636 530.612985,812.163636 L532.871559,812.163636 C533.092364,812.163636 533.271363,812.345082 533.271363,812.561906 L533.271363,814.811814 C533.271363,815.031772 533.089218,815.210084 532.871559,815.210084 L530.612985,815.210084 C530.392179,815.210084 530.213181,815.028638 530.213181,814.811814 L530.213181,812.561906 Z M530.213181,816.623836 C530.213181,816.403878 530.395326,816.225566 530.612985,816.225566 L532.871559,816.225566 C533.092364,816.225566 533.271363,816.407012 533.271363,816.623836 L533.271363,818.873744 C533.271363,819.093702 533.089218,819.272013 532.871559,819.272013 L530.612985,819.272013 C530.392179,819.272013 530.213181,819.090568 530.213181,818.873744 L530.213181,816.623836 Z M534.290756,812.561906 C534.290756,812.341948 534.472901,812.163636 534.69056,812.163636 L536.949134,812.163636 C537.16994,812.163636 537.348938,812.345082 537.348938,812.561906 L537.348938,814.811814 C537.348938,815.031772 537.166793,815.210084 536.949134,815.210084 L534.69056,815.210084 C534.469755,815.210084 534.290756,815.028638 534.290756,814.811814 L534.290756,812.561906 Z M534.290756,816.623836 C534.290756,816.403878 534.472901,816.225566 534.69056,816.225566 L536.949134,816.225566 C537.16994,816.225566 537.348938,816.407012 537.348938,816.623836 L537.348938,818.873744 C537.348938,819.093702 537.166793,819.272013 536.949134,819.272013 L534.69056,819.272013 C534.469755,819.272013 534.290756,819.090568 534.290756,818.873744 L534.290756,816.623836 Z" id="calendar-2" sketch:type="MSShapeGroup"></path>
        </g>
    </g>
</svg>