<?xml version="1.0" encoding="UTF-8" standalone="no"?>
<svg width="19px" height="14px" viewBox="0 0 19 14" version="1.1" xmlns="http://www.w3.org/2000/svg" xmlns:xlink="http://www.w3.org/1999/xlink" xmlns:sketch="http://www.bohemiancoding.com/sketch/ns">
    <!-- Generator: Sketch 3.2.2 (9983) - http://www.bohemiancoding.com/sketch -->
    <title>camera</title>
    <desc>Created with Sketch.</desc>
    <defs></defs>
    <g id="Page-1" stroke="none" stroke-width="1" fill="none" fill-rule="evenodd" sketch:type="MSPage">
        <g id="icons@2x" sketch:type="MSArtboardGroup" transform="translate(-755.000000, -373.000000)" fill="#000000">
            <g id="camera" sketch:type="MSLayerGroup" transform="translate(755.868272, 373.000000)">
                <path d="M4,2 L5,2 L5,2 L5,1.59416482 C5,0.71376038 5.82997895,0 6.14898045,0 L11.8510556,0 C12.169985,0 13,0.713860347 13,1.59416482 L13,2 L16.4840211,2 C17.3212105,2 18,2.71386035 18,3.59416482 L18,12.4058352 C18,13.2862396 17.3212105,14 16.4840211,14 L1.51607368,14 C0.678694737,14 0,13.2861397 0,12.4059352 L0,3.59416482 C0,2.90262051 0.418745406,2.31389332 1.00422174,2.09313409 C1.00142786,2.0624877 1,2.03142306 1,2 C1,1.44771525 1.44266033,1 1.99895656,1 L3.00104344,1 C3.55275191,1 4,1.44386482 4,2 L4,2 Z M9,13 C11.7614237,13 14,10.7614237 14,8 C14,5.23857625 11.7614237,3 9,3 C6.23857625,3 4,5.23857625 4,8 C4,10.7614237 6.23857625,13 9,13 Z M9,12 C11.209139,12 13,10.209139 13,8 C13,5.790861 11.209139,4 9,4 C6.790861,4 5,5.790861 5,8 C5,10.209139 6.790861,12 9,12 Z" sketch:type="MSShapeGroup"></path>
            </g>
        </g>
    </g>
</svg>