<?xml version="1.0" encoding="UTF-8"?>
<svg width="16px" height="16px" viewBox="0 0 16 16" version="1.1" xmlns="http://www.w3.org/2000/svg" xmlns:xlink="http://www.w3.org/1999/xlink">
    <!-- Generator: Sketch 44.1 (41455) - http://www.bohemiancoding.com/sketch -->
    <title>r:6 t:6</title>
    <desc>Created with Sketch.</desc>
    <defs></defs>
    <g id="Page-1" stroke="none" stroke-width="1" fill="none" fill-rule="evenodd">
        <g id="add-member" transform="translate(-1222.000000, -359.000000)" fill="#9EACB2">
            <g id="Group-25" transform="translate(1146.000000, 357.000000)">
                <path d="M81.6,14.8 L83.2,14.8 L83.2,8.4 L81.6,8.4 L81.6,14.8 Z M84.8,14.8 L86.4,14.8 L86.4,8.4 L84.8,8.4 L84.8,14.8 Z M80,16.4 L88,16.4 L88,6.8 L80,6.8 L80,16.4 Z M81.6,5.2 L86.4,5.2 L86.4,3.6 L81.6,3.6 L81.6,5.2 Z M88,5.2 L88,2 L80,2 L80,5.2 L76,5.2 L76,6.8 L78.4,6.8 L78.4,18 L89.6,18 L89.6,6.8 L92,6.8 L92,5.2 L88,5.2 Z" id="r:6-t:6"></path>
            </g>
        </g>
    </g>
</svg>