<?xml version="1.0" encoding="UTF-8"?>
<svg width="36px" height="30px" viewBox="0 0 36 30" version="1.1" xmlns="http://www.w3.org/2000/svg" xmlns:xlink="http://www.w3.org/1999/xlink">
    <!-- Generator: Sketch 46.2 (44496) - http://www.bohemiancoding.com/sketch -->
    <title>23-shopping-cart-business-finance-marketing-outline</title>
    <desc>Created with Sketch.</desc>
    <defs></defs>
    <g id="Page-1" stroke="none" stroke-width="1" fill="none" fill-rule="evenodd">
        <g id="23-shopping-cart-business-finance-marketing-outline" transform="translate(1.000000, 1.000000)" fill-rule="nonzero" fill="#000000">
            <path d="M15.4336158,25.0833333 C15.4336158,23.797131 14.3687368,22.75 13.0508475,22.75 C11.7329581,22.75 10.6680791,23.797131 10.6680791,25.0833333 C10.6680791,26.3695357 11.7329581,27.4166667 13.0508475,27.4166667 C14.3687368,27.4166667 15.4336158,26.3695357 15.4336158,25.0833333 Z M16.6002825,25.0833333 C16.6002825,27.0182977 15.0087208,28.5833333 13.0508475,28.5833333 C11.0929741,28.5833333 9.50141243,27.0182977 9.50141243,25.0833333 C9.50141243,23.148369 11.0929741,21.5833333 13.0508475,21.5833333 C15.0087208,21.5833333 16.6002825,23.148369 16.6002825,25.0833333 Z" id="Stroke-256"></path>
            <path d="M29.0776836,25.0833333 C29.0776836,23.797131 28.0128046,22.75 26.6949153,22.75 C25.3770259,22.75 24.3121469,23.797131 24.3121469,25.0833333 C24.3121469,26.3695357 25.3770259,27.4166667 26.6949153,27.4166667 C28.0128046,27.4166667 29.0776836,26.3695357 29.0776836,25.0833333 Z M30.2443503,25.0833333 C30.2443503,27.0182977 28.6527886,28.5833333 26.6949153,28.5833333 C24.7370419,28.5833333 23.1454802,27.0182977 23.1454802,25.0833333 C23.1454802,23.148369 24.7370419,21.5833333 26.6949153,21.5833333 C28.6527886,21.5833333 30.2443503,23.148369 30.2443503,25.0833333 Z" id="Stroke-258"></path>
            <path d="M15.4336158,25.0833333 C15.4336158,23.797131 14.3687368,22.75 13.0508475,22.75 C11.7329581,22.75 10.6680791,23.797131 10.6680791,25.0833333 C10.6680791,26.3695357 11.7329581,27.4166667 13.0508475,27.4166667 C14.3687368,27.4166667 15.4336158,26.3695357 15.4336158,25.0833333 Z M16.6002825,25.0833333 C16.6002825,27.0182977 15.0087208,28.5833333 13.0508475,28.5833333 C11.0929741,28.5833333 9.50141243,27.0182977 9.50141243,25.0833333 C9.50141243,23.148369 11.0929741,21.5833333 13.0508475,21.5833333 C15.0087208,21.5833333 16.6002825,23.148369 16.6002825,25.0833333 Z" id="Stroke-260"></path>
            <path d="M29.0776836,25.0833333 C29.0776836,23.797131 28.0128046,22.75 26.6949153,22.75 C25.3770259,22.75 24.3121469,23.797131 24.3121469,25.0833333 C24.3121469,26.3695357 25.3770259,27.4166667 26.6949153,27.4166667 C28.0128046,27.4166667 29.0776836,26.3695357 29.0776836,25.0833333 Z M30.2443503,25.0833333 C30.2443503,27.0182977 28.6527886,28.5833333 26.6949153,28.5833333 C24.7370419,28.5833333 23.1454802,27.0182977 23.1454802,25.0833333 C23.1454802,23.148369 24.7370419,21.5833333 26.6949153,21.5833333 C28.6527886,21.5833333 30.2443503,23.148369 30.2443503,25.0833333 Z" id="Stroke-262"></path>
            <polygon id="Stroke-264" points="29.6011017 25.0833333 32.6271186 25.0833333 32.6271186 23.9166667 29.6011017 23.9166667"></polygon>
            <polygon id="Stroke-266" points="15.9570339 25.0833333 23.7887288 25.0833333 23.7887288 23.9166667 15.9570339 23.9166667"></polygon>
            <path d="M5.12015573,4.08352249 L34.9972316,4.0755952 L34.9972316,17.5 C34.9972316,19.1089462 33.6749233,20.4096667 32.0489016,20.4096666 L8.41720339,20.4166667 C7.4452807,20.4166667 6.61556643,21.105982 6.52493095,21.9866208 C6.41882862,23.0178386 7.25113642,23.9166667 8.30508475,23.9166667 L10.144661,23.9166667 L10.144661,25.0833333 L8.30508475,25.0833333 C6.5664627,25.0833333 5.1867844,23.5933874 5.36439285,21.8671954 C5.51079461,20.4447164 6.73537349,19.3625449 8.18695403,19.2582486 L5.12015573,4.08352249 Z M32.0487288,19.243 C33.0348505,19.243 33.830565,18.4602763 33.830565,17.5 L33.830565,5.24257146 L6.54611546,5.24981085 L9.37548354,19.2497161 L32.0487288,19.243 Z" id="Stroke-268"></path>
            <polygon id="Stroke-270" points="4.84616734 2.33333333 5.25799834 4.76410856 6.40827284 4.56922477 5.83179876 1.16666667 3.55932203 1.16666667 3.55932203 2.33333333"></polygon>
            <path d="M2.9759887,1.75 C2.9759887,1.10779768 2.44263513,0.583333333 1.77966102,0.583333333 C1.1166869,0.583333333 0.583333333,1.10779768 0.583333333,1.75 C0.583333333,2.39220232 1.1166869,2.91666667 1.77966102,2.91666667 C2.44263513,2.91666667 2.9759887,2.39220232 2.9759887,1.75 Z M4.14265537,1.75 C4.14265537,3.04096434 3.08261911,4.08333333 1.77966102,4.08333333 C0.476702927,4.08333333 -0.583333333,3.04096434 -0.583333333,1.75 C-0.583333333,0.459035656 0.476702927,-0.583333333 1.77966102,-0.583333333 C3.08261911,-0.583333333 4.14265537,0.459035656 4.14265537,1.75 Z" id="Stroke-272"></path>
            <polygon id="Stroke-274" points="12.4746328 7 12.4746328 10.5 13.6412994 10.5 13.6412994 7"></polygon>
            <polygon id="Stroke-276" points="11.2783051 9.33333333 14.8376271 9.33333333 14.8376271 8.16666667 11.2783051 8.16666667"></polygon>
            <polygon id="Stroke-278" points="12.4746328 14 12.4746328 17.5 13.6412994 17.5 13.6412994 14"></polygon>
            <polygon id="Stroke-280" points="11.2783051 16.3333333 14.8376271 16.3333333 14.8376271 15.1666667 11.2783051 15.1666667"></polygon>
            <polygon id="Stroke-282" points="20.1864972 7 20.1864972 10.5 21.3531638 10.5 21.3531638 7"></polygon>
            <polygon id="Stroke-284" points="18.9901695 9.33333333 22.5494915 9.33333333 22.5494915 8.16666667 18.9901695 8.16666667"></polygon>
            <polygon id="Stroke-286" points="20.1864972 14 20.1864972 17.5 21.3531638 17.5 21.3531638 14"></polygon>
            <polygon id="Stroke-288" points="18.9901695 16.3333333 22.5494915 16.3333333 22.5494915 15.1666667 18.9901695 15.1666667"></polygon>
            <polygon id="Stroke-290" points="27.8983616 7 27.8983616 10.5 29.0650282 10.5 29.0650282 7"></polygon>
            <polygon id="Stroke-292" points="26.7020339 9.33333333 30.2613559 9.33333333 30.2613559 8.16666667 26.7020339 8.16666667"></polygon>
            <polygon id="Stroke-294" points="27.8983616 14 27.8983616 17.5 29.0650282 17.5 29.0650282 14"></polygon>
            <polygon id="Stroke-296" points="26.7020339 16.3333333 30.2613559 16.3333333 30.2613559 15.1666667 26.7020339 15.1666667"></polygon>
        </g>
    </g>
</svg>
