<?xml version="1.0" encoding="UTF-8" standalone="no"?>
<svg width="19px" height="19px" viewBox="0 0 19 19" version="1.1" xmlns="http://www.w3.org/2000/svg" xmlns:xlink="http://www.w3.org/1999/xlink" xmlns:sketch="http://www.bohemiancoding.com/sketch/ns">
    <!-- Generator: Sketch 3.3 (11970) - http://www.bohemiancoding.com/sketch -->
    <title>chronometer</title>
    <desc>Created with Sketch.</desc>
    <defs></defs>
    <g id="Page-1" stroke="none" stroke-width="1" fill="none" fill-rule="evenodd" sketch:type="MSPage">
        <g id="chronometer" sketch:type="MSLayerGroup" fill="#000000">
            <path d="M8.71428571,4.28571429 C5.40057722,4.28571429 2.71428571,6.97200579 2.71428571,10.2857143 C2.71428571,13.5994228 5.40057722,16.2857143 8.71428571,16.2857143 C12.0279942,16.2857143 14.7142857,13.5994228 14.7142857,10.2857143 L8.71428571,10.2857143 L8.71428571,4.28571429" id="Oval-14" sketch:type="MSShapeGroup"></path>
            <path d="M14.1203825,5.25196953 C13.7856474,4.90049767 13.7830035,4.33342519 14.1260609,3.97321499 L15.3268871,2.71234745 C15.6647583,2.35758268 16.2076798,2.35246286 16.5447486,2.70638512 L16.5447486,2.70638512 C16.8794837,3.05785698 16.8821275,3.62492945 16.5390702,3.98513965 L15.3382439,5.2460072 C15.0003727,5.60077197 14.4574513,5.60589179 14.1203825,5.25196953 L14.1203825,5.25196953" id="Rectangle-33" sketch:type="MSShapeGroup"></path>
            <path d="M8.71428571,19 C13.5270528,19 17.4285714,15.0984814 17.4285714,10.2857143 C17.4285714,5.4729472 13.5270528,1.57142859 8.71428571,1.57142859 C3.90151861,1.57142859 0,5.4729472 0,10.2857143 C0,15.0984814 3.90151861,19 8.71428571,19 L8.71428571,19 M8.71428571,17 C5.00608811,17 2,13.9939119 2,10.2857143 C2,6.5775167 5.00608811,3.57142859 8.71428571,3.57142859 C12.4224833,3.57142859 15.4285714,6.5775167 15.4285714,10.2857143 C15.4285714,13.9939119 12.4224833,17 8.71428571,17 L8.71428571,17" id="Shape" sketch:type="MSShapeGroup"></path>
            <path d="M14.4086827,1.0590271 C14.7434178,0.707555237 15.2881064,0.709629843 15.6152763,1.05315824 L18.0508212,3.61048038 C18.3824694,3.95871095 18.3823007,4.52348146 18.0452318,4.87740372 L18.0452318,4.87740372 C17.7104967,5.22887558 17.1658081,5.22680097 16.8386382,4.88327258 L14.4030933,2.32595044 C14.0714451,1.97771986 14.0716139,1.41294936 14.4086827,1.0590271 L14.4086827,1.0590271" id="Rectangle-34" sketch:type="MSShapeGroup"></path>
        </g>
    </g>
</svg>