<?xml version="1.0" encoding="utf-8"?>
<!-- Generated by IcoMoon.io -->
<!DOCTYPE svg PUBLIC "-//W3C//DTD SVG 1.1//EN" "http://www.w3.org/Graphics/SVG/1.1/DTD/svg11.dtd">
<svg version="1.1" xmlns="http://www.w3.org/2000/svg" xmlns:xlink="http://www.w3.org/1999/xlink" width="32" height="32" viewBox="0 0 32 32">
<path fill="#565656" d="M28.801 17.951c0-7.601-6.259-13.762-13.979-13.762s-13.979 6.162-13.979 13.762c0 7.601 6.259 13.762 13.979 13.762s13.979-6.162 13.979-13.762zM27.269 7.885l-1.749 1.806c-0.64 0.661-1.669 0.671-2.308 0.011-0.634-0.655-0.639-1.711 0.011-2.383l1.749-1.806-1.224-1.264c-0.628-0.649-0.628-1.701 0.011-2.361 0.634-0.655 1.666-0.651 2.286-0.011l4.615 4.765c0.628 0.649 0.628 1.701-0.011 2.361-0.634 0.655-1.666 0.651-2.286 0.011l-1.094-1.13zM4.229 18.052c0-5.912 4.868-10.704 10.873-10.704s10.873 4.792 10.873 10.704c0 5.912-4.868 10.704-10.873 10.704s-10.873-4.792-10.873-10.704zM15.288 8.631c-5.147 0-9.32 4.108-9.32 9.175s4.173 9.175 9.32 9.175c5.147 0 9.32-4.108 9.32-9.175h-9.32v-9.175z"></path>
</svg>
