<?xml version="1.0" encoding="utf-8"?>
<!-- Generated by IcoMoon.io -->
<!DOCTYPE svg PUBLIC "-//W3C//DTD SVG 1.1//EN" "http://www.w3.org/Graphics/SVG/1.1/DTD/svg11.dtd">
<svg version="1.1" xmlns="http://www.w3.org/2000/svg" xmlns:xlink="http://www.w3.org/1999/xlink" width="34" height="32" viewBox="0 0 34 32">
<path fill="#444444" d="M14.215 20.565l-1.012-0.802-0.224 1.234z"></path>
<path fill="#444444" d="M19.842 24.19l-0.247-1.803-1.118 1.474z"></path>
<path fill="#444444" d="M32.434 5.067l-4.62-4.603c-0.62-0.619-1.653-0.622-2.288 0.011-0.638 0.636-0.638 1.655-0.011 2.281l1.223 1.221-1.749 1.744c-0.050 0.050-0.069 0.114-0.11 0.167-2.484-1.687-5.516-2.688-8.804-2.688-8.379 0-15.172 6.448-15.172 14.4s6.793 14.4 15.172 14.4 15.172-6.448 15.172-14.4c0-3.708-1.49-7.079-3.916-9.632l1.708-1.703 1.097 1.092c0.62 0.619 1.653 0.622 2.288-0.011 0.64-0.636 0.64-1.652 0.011-2.279zM16.075 29.12c-5.040 0-9.362-2.917-11.196-7.068h3.387c0.313 0 0.622-0.091 0.868-0.263l1.422-1.26 2.484 2.055 0.156 0.101c0.892 0.423 2.075 0.169 2.247-0.757l0.917-5.833 1.102 9.093c0.162 1.090 1.751 1.339 2.428 0.54l2.971-3.755 2.937 0.080c0.334 0 0.642-0.091 0.889-0.263l0.942-0.667c-1.568 4.636-6.146 7.996-11.554 7.996zM28.212 17.6c0 0.18-0.020 0.352-0.028 0.528-0.318-0.004-0.635 0.080-0.892 0.26l-2.121 1.508-2.83-0.11c-0.455-0.002-0.866 0.164-1.125 0.469l-1.62 2.133-1.804-13.211c-0.196-1.312-2.42-1.333-2.661-0.046l-1.927 10.633-1.698-1.349c-0.53-0.377-1.269-0.377-1.767-0.027l-1.749 1.394h-3.234c-0.203 0-0.395 0.046-0.572 0.117-0.16-0.741-0.244-1.509-0.244-2.299 0-6.363 5.435-11.52 12.137-11.52s12.137 5.157 12.137 11.52z"></path>
</svg>
