<?xml version="1.0" encoding="utf-8"?>
<!-- Generated by IcoMoon.io -->
<!DOCTYPE svg PUBLIC "-//W3C//DTD SVG 1.1//EN" "http://www.w3.org/Graphics/SVG/1.1/DTD/svg11.dtd">
<svg version="1.1" xmlns="http://www.w3.org/2000/svg" xmlns:xlink="http://www.w3.org/1999/xlink" width="32" height="32" viewBox="0 0 32 32">
<path fill="#565656" d="M32 16c0-8.837-7.163-16-16-16s-16 7.163-16 16c0 8.837 7.163 16 16 16s16-7.163 16-16v0zM4.571 16c0-6.312 5.117-11.429 11.429-11.429s11.429 5.117 11.429 11.429c0 6.312-5.117 11.429-11.429 11.429s-11.429-5.117-11.429-11.429zM13.511 19.307l-2.862-1.932c-0.85-0.574-1.999-0.349-2.571 0.508l-0.156 0.234c-0.57 0.854-0.343 2.006 0.514 2.577l4.633 3.089c0.821 0.547 1.937 0.314 2.477-0.495l7.089-10.634c0.569-0.853 0.34-2.004-0.518-2.576l-0.234-0.156c-0.854-0.57-1.995-0.348-2.554 0.505l-5.818 8.879z"></path>
</svg>
