<?xml version="1.0" encoding="UTF-8" standalone="no"?>
<svg width="16px" height="16px" viewBox="0 0 16 16" version="1.1" xmlns="http://www.w3.org/2000/svg" xmlns:xlink="http://www.w3.org/1999/xlink" xmlns:sketch="http://www.bohemiancoding.com/sketch/ns">
    <!-- Generator: Sketch 3.2.2 (9983) - http://www.bohemiancoding.com/sketch -->
    <title>block</title>
    <desc>Created with Sketch.</desc>
    <defs></defs>
    <g id="Page-1" stroke="none" stroke-width="1" fill="none" fill-rule="evenodd" sketch:type="MSPage">
        <g id="block" sketch:type="MSLayerGroup" fill="#000000">
            <g id="Page-1" sketch:type="MSShapeGroup">
                <g id="block-2">
                    <g id="Group">
                        <path d="M3.19977679,12.9377761 L10.6283482,0.928890534 L12.6078349,1.9955572 L5.17926342,14.0044428 L3.19977679,12.9377761 L3.19977679,12.9377761 Z" id="Rectangle-419"></path>
                        <path d="M16,8 C16,3.581722 12.418278,0 8,0 C3.581722,0 0,3.581722 0,8 C0,12.418278 3.581722,16 8,16 C12.418278,16 16,12.418278 16,8 L16,8 Z M2.28571429,8 C2.28571429,4.84408714 4.84408714,2.28571429 8,2.28571429 C11.1559129,2.28571429 13.7142857,4.84408714 13.7142857,8 C13.7142857,11.1559129 11.1559129,13.7142857 8,13.7142857 C4.84408714,13.7142857 2.28571429,11.1559129 2.28571429,8 L2.28571429,8 Z" id="block"></path>
                    </g>
                </g>
            </g>
        </g>
    </g>
</svg>