<?xml version="1.0" encoding="utf-8"?>
<!-- Generated by IcoMoon.io -->
<!DOCTYPE svg PUBLIC "-//W3C//DTD SVG 1.1//EN" "http://www.w3.org/Graphics/SVG/1.1/DTD/svg11.dtd">
<svg version="1.1" xmlns="http://www.w3.org/2000/svg" xmlns:xlink="http://www.w3.org/1999/xlink" width="32" height="32" viewBox="0 0 32 32">
<path fill="#565656" d="M32 16c0-8.837-7.163-16-16-16s-16 7.163-16 16c0 8.837 7.163 16 16 16s16-7.163 16-16zM4.571 16c0-6.312 5.117-11.429 11.429-11.429s11.429 5.117 11.429 11.429c0 6.312-5.117 11.429-11.429 11.429s-11.429-5.117-11.429-11.429zM8.254 23.413c-0.694-0.694-0.684-1.83 0.003-2.517l12.565-12.565c0.696-0.696 1.818-0.702 2.517-0.003 0.694 0.694 0.684 1.83-0.003 2.517l-12.565 12.565c-0.696 0.696-1.818 0.702-2.517 0.003z"></path>
</svg>
