<?xml version="1.0" encoding="UTF-8" standalone="no"?>
<svg width="20px" height="21px" viewBox="0 0 20 21" version="1.1" xmlns="http://www.w3.org/2000/svg" xmlns:xlink="http://www.w3.org/1999/xlink" xmlns:sketch="http://www.bohemiancoding.com/sketch/ns">
    <!-- Generator: Sketch 3.4.2 (15855) - http://www.bohemiancoding.com/sketch -->
    <title>clock</title>
    <desc>Created with Sketch.</desc>
    <defs></defs>
    <g id="Page-1" stroke="none" stroke-width="1" fill="none" fill-rule="evenodd" sketch:type="MSPage">
        <g id="clock" sketch:type="MSLayerGroup" transform="translate(0.000000, 0.700000)" fill="#565656">
            <path d="M10,20 C15.5228474,20 20,15.5228474 20,10 C20,4.47715252 15.5228475,-1.35447209e-14 10,-1.35447209e-14 C4.4771525,-1.35447209e-14 0,4.4771525 0,10 C0,15.5228475 4.47715252,20 10,20 L10,20 L10,20 L10,20 L10,20 Z M10,18 C5.58172202,18 2,14.418278 2,10 C2,5.581722 5.581722,2 10,2 C14.418278,2 18,5.58172202 18,10 C18,14.418278 14.418278,18 10,18 L10,18 L10,18 L10,18 L10,18 Z" id="Shape" sketch:type="MSShapeGroup"></path>
            <path d="M12,12 L12,6 L10,6 L10,10 L5,10 L5,12 L12,12 Z" id="Shape" sketch:type="MSShapeGroup"></path>
        </g>
    </g>
</svg>