<?xml version="1.0" encoding="UTF-8" standalone="no"?>
<svg width="16px" height="16px" viewBox="0 0 16 16" version="1.1" xmlns="http://www.w3.org/2000/svg" xmlns:xlink="http://www.w3.org/1999/xlink" xmlns:sketch="http://www.bohemiancoding.com/sketch/ns">
    <!-- Generator: Sketch 3.2.2 (9983) - http://www.bohemiancoding.com/sketch -->
    <title>stamp11</title>
    <desc>Created with Sketch.</desc>
    <defs></defs>
    <g id="Page-1" stroke="none" stroke-width="1" fill="none" fill-rule="evenodd" sketch:type="MSPage">
        <g id="more@2x" sketch:type="MSArtboardGroup" transform="translate(-62.000000, -73.000000)" fill="#565656">
            <g id="monitoring-kebab" sketch:type="MSLayerGroup" transform="translate(37.000000, 9.000000)">
                <g id="Group" transform="translate(0.000000, 14.000000)" sketch:type="MSShapeGroup">
                    <g id="stamp11" transform="translate(25.000000, 50.000000)">
                        <g id="Group">
                            <path d="M9.63107008,9.75730475 C9.81088638,8.87275386 10.0887843,7.49959303 10.0906006,7.49779487 C10.6155189,6.88206026 10.938825,4.33920347 10.938825,3.40561177 C10.938825,1.52389775 9.62380477,0 8.00000908,0 C6.37621339,0 5.06119317,1.52571407 5.06119317,3.40561177 C5.06119317,4.33920347 5.38449924,6.8820421 5.90941754,7.49779487 C5.90941754,7.49779487 6.18911362,8.87275386 6.36894809,9.75730475 L9.63107008,9.75730475 L9.63107008,9.75730475 Z" id="Shape"></path>
                            <path d="M1.34317328,14.4052837 C1.330459,14.4052837 1.31774471,14.4052837 1.30503043,14.4034674 L1.30503043,15.0918369 C1.30503043,15.5931611 1.71188751,16 2.21319357,16 L13.7868246,16 C14.2881488,16 14.6949877,15.5931611 14.6949877,15.0918369 L14.6949877,14.4034674 C14.6822916,14.4034674 14.6695773,14.4052837 14.6568449,14.4052837 L1.34317328,14.4052837 L1.34317328,14.4052837 Z" id="Shape"></path>
                            <path d="M14.9710693,13.727794 C15.0728018,13.6896511 15.1654162,13.6351614 15.2471509,13.566141 C15.4414978,13.3990571 15.565008,13.1520186 15.565008,12.875937 L15.565008,11.2884678 C15.565008,10.7871436 15.1581509,10.3803047 14.6568449,10.3803047 L9.50574356,10.3803047 L6.49425644,10.3803047 L1.34317328,10.3803047 C0.841867229,10.3803047 0.435010143,10.7871436 0.435010143,11.2884678 L0.435010143,12.8759188 C0.435010143,13.1520004 0.55852033,13.3990389 0.752867241,13.5661228 C0.834601924,13.6351614 0.927234564,13.6896511 1.02894884,13.7277758 C1.1161325,13.7604697 1.20876514,13.778633 1.30503043,13.7822656 C1.31774471,13.7822656 1.330459,13.7840819 1.34317328,13.7840819 L14.6550286,13.7840819 C14.6677247,13.7840819 14.680439,13.7840819 14.6931714,13.7822656 C14.791253,13.7786511 14.8838857,13.7586715 14.9710693,13.727794 L14.9710693,13.727794 Z" id="Shape"></path>
                        </g>
                    </g>
                </g>
            </g>
        </g>
    </g>
</svg>