<?xml version="1.0" encoding="UTF-8" standalone="no"?>
<svg width="18px" height="19px" viewBox="0 0 18 19" version="1.1" xmlns="http://www.w3.org/2000/svg" xmlns:xlink="http://www.w3.org/1999/xlink" xmlns:sketch="http://www.bohemiancoding.com/sketch/ns">
    <!-- Generator: Sketch 3.2.2 (9983) - http://www.bohemiancoding.com/sketch -->
    <title>comparison</title>
    <desc>Created with Sketch.</desc>
    <defs></defs>
    <g id="Page-1" stroke="none" stroke-width="1" fill="none" fill-rule="evenodd" sketch:type="MSPage">
        <g id="Artboard-1" sketch:type="MSArtboardGroup" transform="translate(-234.000000, -719.000000)" fill="#000000">
            <path d="M251.351169,735.331414 C249.369785,735.331414 248.012031,734.849985 247.315292,733.900842 C246.470954,732.750271 246.874431,731.224271 246.878031,731.211128 C246.926492,731.038557 246.893538,730.852557 246.788862,730.708557 C246.684462,730.564842 246.520246,730.480271 246.346062,730.480271 L244.798062,730.480271 L246.087138,727.699128 C246.120923,727.626557 246.1392,727.547128 246.141138,727.466557 C246.184615,725.631985 246.704677,724.236842 247.6872,723.319699 C249.174,721.931985 251.269477,722.073414 251.307138,722.075699 C251.608985,722.100557 251.878154,721.866557 251.9028,721.552271 C251.927446,721.237699 251.700369,720.961985 251.395477,720.936557 C251.309631,720.929414 249.638954,720.805128 248.019785,721.695985 C246.496154,720.452842 244.606431,719.772271 242.653846,719.772271 C240.574985,719.772271 238.561754,720.550842 236.984954,721.964557 C235.088031,723.665128 234,726.120557 234,728.700557 C234,731.352842 235.134,733.850842 237.110954,735.554557 C238.663108,736.892271 240.631754,737.629128 242.653846,737.629128 C244.551323,737.629128 246.400338,736.981985 247.902369,735.799985 C248.800154,736.247128 249.951323,736.474271 251.351169,736.474271 C251.656892,736.474271 251.905015,736.218271 251.905015,735.902842 C251.905015,735.587414 251.656892,735.331414 251.351169,735.331414 L251.351169,735.331414 Z M235.107692,728.700557 C235.107692,726.601985 235.934031,724.597985 237.388431,723.133985 C238.517723,724.044271 239.119477,725.495128 239.166,727.466557 C239.167938,727.547128 239.186492,727.626557 239.22,727.699128 L240.509077,730.480271 L238.961077,730.480271 C238.787169,730.480271 238.622954,730.564557 238.518277,730.708271 C238.413877,730.851699 238.380646,731.037699 238.428831,731.210271 C238.434646,731.231699 238.966338,733.210842 237.509169,734.393985 C235.978338,732.921699 235.107692,730.869985 235.107692,728.700557 L235.107692,728.700557 Z M242.653846,736.486271 C241.130215,736.486271 239.6412,736.006271 238.391169,735.123128 C239.507169,734.087414 239.714308,732.651985 239.622092,731.623414 L241.388031,731.623414 C241.578277,731.623414 241.755231,731.522557 241.856585,731.356557 C241.957938,731.190557 241.969846,730.982271 241.8876,730.805414 L240.269815,727.315128 C240.195323,725.141985 239.520185,723.486271 238.259631,722.379699 C239.538462,721.430842 241.074554,720.915128 242.653846,720.915128 C244.240062,720.915128 245.778092,721.430557 247.055262,722.377414 C247.021754,722.406842 246.987415,722.432557 246.954462,722.463128 C245.754831,723.576842 245.110154,725.208557 245.037877,727.314842 L243.420092,730.805128 C243.338123,730.982271 243.349754,731.190271 243.451108,731.356271 C243.552462,731.522271 243.729415,731.623128 243.919662,731.623128 L245.691415,731.623128 C245.623846,732.366271 245.674523,733.549128 246.424154,734.579128 C246.568154,734.777128 246.732646,734.957699 246.9132,735.124842 C245.664277,736.005699 244.177754,736.486271 242.653846,736.486271 L242.653846,736.486271 Z M248.895692,725.887985 C249.591877,725.887985 250.155969,726.470271 250.155969,727.188271 C250.155969,727.906557 249.5916,728.488557 248.895692,728.488557 C248.199785,728.488557 247.635415,727.906271 247.635415,727.188271 C247.635138,726.469985 248.199508,725.887985 248.895692,725.887985 L248.895692,725.887985 Z M237.217292,728.488557 C236.521108,728.488557 235.957015,727.906271 235.957015,727.188271 C235.957015,726.469985 236.521385,725.887985 237.217292,725.887985 C237.9132,725.887985 238.477569,726.470271 238.477569,727.188271 C238.477569,727.906557 237.9132,728.488557 237.217292,728.488557 L237.217292,728.488557 Z" id="comparison" sketch:type="MSShapeGroup"></path>
        </g>
    </g>
</svg>