<?xml version="1.0" encoding="UTF-8" standalone="no"?>
<svg width="12px" height="16px" viewBox="0 0 12 16" version="1.1" xmlns="http://www.w3.org/2000/svg" xmlns:xlink="http://www.w3.org/1999/xlink">
    <!-- Generator: Sketch 3.8.2 (29753) - http://www.bohemiancoding.com/sketch -->
    <title>Combined Shape Copy 2</title>
    <desc>Created with Sketch.</desc>
    <defs></defs>
    <g id="Page-1" stroke="none" stroke-width="1" fill="none" fill-rule="evenodd">
        <g id="Artboard-1" transform="translate(-92.000000, -518.000000)" fill="#50A722">
            <path d="M99.0685785,531.947345 C99.0573345,531.948254 99.0459632,531.948718 99.0344828,531.948718 L93.2389215,531.948718 C92.5583567,531.948718 92,531.395549 92,530.717234 L92,518.410256 C92,518.183678 92.1852615,518 92.4137931,518 C92.6423247,518 92.8275862,518.183678 92.8275862,518.410256 L92.8275862,530.717234 C92.8275862,530.942255 93.0152808,531.128205 93.2389215,531.128205 L99.0344828,531.128205 C99.0459632,531.128205 99.0573345,531.128669 99.0685785,531.129578 C99.2650055,529.964712 100.286553,529.076923 101.517241,529.076923 C102.888431,529.076923 104,530.178991 104,531.538462 C104,532.897932 102.888431,534 101.517241,534 C100.286553,534 99.2650055,533.112211 99.0685785,531.947345 L99.0685785,531.947345 Z" id="Combined-Shape-Copy-2"></path>
        </g>
    </g>
</svg>