<?xml version="1.0" encoding="utf-8"?>
<!-- Generator: Adobe Illustrator 16.0.0, SVG Export Plug-In . SVG Version: 6.00 Build 0)  -->
<!DOCTYPE svg PUBLIC "-//W3C//DTD SVG 1.1//EN" "http://www.w3.org/Graphics/SVG/1.1/DTD/svg11.dtd">
<svg version="1.1" id="Capa_1" xmlns:sketch="http://www.bohemiancoding.com/sketch/ns"
	 xmlns="http://www.w3.org/2000/svg" xmlns:xlink="http://www.w3.org/1999/xlink" x="0px" y="0px" width="18px" height="18px"
	 viewBox="0 0 18 18" enable-background="new 0 0 18 18" xml:space="preserve">
<title>Oval 1092</title>
<desc>Created with Sketch.</desc>
<g>
	<path d="M9,0C4.029,0,0,4.029,0,9s4.029,9,9,9s9-4.029,9-9S13.971,0,9,0z M6.518,14c-0.514,0-0.93-0.397-0.93-0.889
		c0-0.49,0.417-0.888,0.93-0.888s0.93,0.397,0.93,0.888C7.447,13.603,7.031,14,6.518,14z M10.237,14c-0.514,0-0.93-0.397-0.93-0.889
		c0-0.49,0.416-0.888,0.93-0.888s0.931,0.397,0.931,0.888C11.168,13.603,10.751,14,10.237,14z M14.756,5.585l-1.652,0.34
		C13.075,5.997,13.041,6.086,13,6.206c-0.125,0.368-0.252,0.827-0.371,1.381c-0.062,0.285-0.114,0.605-0.167,0.927l-0.298,2.561
		c-0.055,0.474-0.499,0.854-0.994,0.854H6.205c-0.463,0-0.963-0.312-1.152-0.716L3.076,6.964c-0.23-0.495,0.087-0.957,0.657-0.957
		h8.051c0.226,0,0.416,0.087,0.567,0.212c0.02-0.063,0.039-0.138,0.06-0.197c0.082-0.239,0.146-0.396,0.188-0.479
		c0.04-0.084,0.12-0.145,0.215-0.165l1.812-0.373c0.167-0.035,0.332,0.067,0.368,0.227C15.029,5.394,14.922,5.551,14.756,5.585z"/>
</g>
</svg>
