<?xml version="1.0" encoding="UTF-8" standalone="no"?>
<svg width="18px" height="18px" viewBox="0 0 18 18" version="1.1" xmlns="http://www.w3.org/2000/svg" xmlns:xlink="http://www.w3.org/1999/xlink" xmlns:sketch="http://www.bohemiancoding.com/sketch/ns">
    <!-- Generator: Sketch 3.4.4 (17249) - http://www.bohemiancoding.com/sketch -->
    <title>Oval 1086</title>
    <desc>Created with Sketch.</desc>
    <defs></defs>
    <g id="Page-1" stroke="none" stroke-width="1" fill="none" fill-rule="evenodd" sketch:type="MSPage">
        <g id="C-4-A@2x" sketch:type="MSArtboardGroup" transform="translate(-377.000000, -725.000000)" fill="#000000">
            <path d="M386,743 C390.970563,743 395,738.970563 395,734 C395,729.029437 390.970563,725 386,725 C381.029437,725 377,729.029437 377,734 C377,738.970563 381.029437,743 386,743 Z M383.25388,729.264505 L388.74612,729.264505 C389.366256,729.264505 389.871221,729.831415 389.871221,730.526831 L389.871221,737.473169 C389.871221,738.170502 389.3674,738.735495 388.74612,738.735495 L383.25388,738.735495 C382.633744,738.735495 382.128779,738.168585 382.128779,737.473169 L382.128779,730.526831 C382.128779,729.829498 382.6326,729.264505 383.25388,729.264505 Z M381,737.473169 C381,738.866338 382.009787,740 383.25388,740 L388.74612,740 C389.991072,740 391,738.868572 391,737.473169 L391,730.526831 C391,729.133662 389.990213,728 388.74612,728 L383.25388,728 C382.008928,728 381,729.131428 381,730.526831 L381,737.473169 Z M383.483237,732.089131 C383.483237,731.697254 383.800983,731.379574 384.18952,731.379574 L387.85646,731.379574 C388.24653,731.379574 388.562744,731.694521 388.562744,732.089131 C388.562744,732.481008 388.244998,732.798687 387.85646,732.798687 L384.18952,732.798687 C383.799451,732.798687 383.483237,732.48374 383.483237,732.089131 Z M383.483237,734.046072 C383.483237,733.654195 383.81045,733.336516 384.187157,733.336516 L386.617166,733.336516 C387.005931,733.336516 387.321087,733.651463 387.321087,734.046072 C387.321087,734.437949 386.993874,734.755628 386.617166,734.755628 L384.187157,734.755628 C383.798393,734.755628 383.483237,734.440681 383.483237,734.046072 Z M383.483237,735.981226 C383.483237,735.589348 383.800983,735.271669 384.18952,735.271669 L387.85646,735.271669 C388.24653,735.271669 388.562744,735.586616 388.562744,735.981226 C388.562744,736.373103 388.244998,736.690782 387.85646,736.690782 L384.18952,736.690782 C383.799451,736.690782 383.483237,736.375835 383.483237,735.981226 Z" id="Oval-1086" sketch:type="MSShapeGroup"></path>
        </g>
    </g>
</svg>