<?xml version="1.0" encoding="UTF-8" standalone="no"?>
<svg width="490px" height="490px" viewBox="0 0 490 490" version="1.1" xmlns="http://www.w3.org/2000/svg" xmlns:xlink="http://www.w3.org/1999/xlink" xmlns:sketch="http://www.bohemiancoding.com/sketch/ns">
    <!-- Generator: Sketch 3.5.1 (25234) - http://www.bohemiancoding.com/sketch -->
    <title>content</title>
    <desc>Created with Sketch.</desc>
    <defs></defs>
    <g id="Page-1" stroke="none" stroke-width="1" fill="none" fill-rule="evenodd" sketch:type="MSPage">
        <g id="Artboard-32" sketch:type="MSArtboardGroup" transform="translate(-5.000000, -5.000000)" fill="#33ABA0">
            <path d="M289.465297,166.271694 L139.54586,195.09722 C139.013818,195.199518 138.571641,195.733716 138.571641,196.287808 L138.571641,210.758053 L99.3080559,218.307398 C98.7715145,218.410561 98.3333333,218.945725 98.3333333,219.501956 L98.3333333,275.513353 C98.3333333,276.070259 98.7758943,276.584317 99.321821,276.663043 L138.571641,282.323067 L138.571641,293.298362 L113.855477,339.516311 C110.875023,345.089606 112.16941,352.709227 116.827957,356.383022 L142.141219,376.345407 C146.832775,380.045232 153.021941,378.424116 156.038833,372.782683 L184.206656,320.110311 L289.465297,340.348753 L289.465297,346.227942 C289.465297,352.592796 314.088277,357.756459 319.644028,357.756459 C319.644028,357.756459 327.487406,357.756459 327.538485,255.298979 C327.589563,152.841499 319.644028,148.863988 319.644028,148.863988 C314.049543,148.863988 289.465297,154.02548 289.465297,160.392504 L289.465297,166.271694 Z M289.465297,185.876362 L157.905936,208.3292 C152.383248,209.27174 148.559641,215.447313 149.332852,222.128329 L150.732875,234.225378 L289.465297,210.548336 L289.465297,185.876362 Z M250,495 C385.309764,495 495,385.309764 495,250 C495,114.690236 385.309764,5 250,5 C114.690236,5 5,114.690236 5,250 C5,385.309764 114.690236,495 250,495 Z M376.079815,147.167328 C380.476449,150.622066 381.294834,156.957303 377.831153,161.416052 L358.044969,186.886529 C354.615572,191.301144 348.301972,192.103364 343.874685,188.62454 C339.47805,185.169803 338.659665,178.834566 342.123347,174.375817 L361.909531,148.90534 C365.338928,144.490725 371.652528,143.688505 376.079815,147.167328 Z M409.761233,246.390846 C409.858608,252.001415 405.47832,256.627963 399.853225,256.726713 L367.72003,257.290818 C362.150614,257.38859 357.557451,252.958701 357.459398,247.309016 C357.362024,241.698446 361.742312,237.071898 367.367407,236.973149 L399.500602,236.409043 C405.070018,236.311271 409.66318,240.74116 409.761233,246.390846 Z M378.406354,347.20053 C374.070339,350.731913 367.748595,350.108781 364.208069,345.711507 L343.982914,320.592208 C340.477433,316.23846 341.120484,309.870918 345.486729,306.314914 C349.822745,302.78353 356.144488,303.406663 359.685015,307.803936 L379.91017,332.923236 C383.415651,337.276984 382.7726,343.644526 378.406354,347.20053 Z" id="content" sketch:type="MSShapeGroup"></path>
        </g>
    </g>
</svg>