<?xml version="1.0" encoding="utf-8"?>
<!-- Generated by IcoMoon.io -->
<!DOCTYPE svg PUBLIC "-//W3C//DTD SVG 1.1//EN" "http://www.w3.org/Graphics/SVG/1.1/DTD/svg11.dtd">
<svg version="1.1" xmlns="http://www.w3.org/2000/svg" xmlns:xlink="http://www.w3.org/1999/xlink" width="32" height="32" viewBox="0 0 32 32">
<path fill="#444444" d="M14.007 10.425h1.822c0.11 0 0.208-0.037 0.311-0.062h-1.591c-0.187 0.002-0.366 0.025-0.542 0.062z"></path>
<path fill="#444444" d="M24.9 14.425h-8.469c-0.772 0-1.374 0.61-1.374 1.364 0 0.757 0.615 1.362 1.374 1.362h8.469c0.772 0 1.374-0.61 1.374-1.362 0-0.759-0.615-1.364-1.374-1.364z"></path>
<path fill="#444444" d="M16.418 20.907h3.152c0.757 0 1.365-0.61 1.365-1.362 0-0.571-0.347-1.054-0.839-1.257-0.162-0.068-0.34-0.107-0.526-0.107h-3.152c-0.756 0-1.364 0.61-1.364 1.364 0.002 0.757 0.612 1.362 1.364 1.362z"></path>
<path fill="#444444" d="M21.842 21.927c-0.050-0.005-0.092-0.030-0.144-0.030h-5.285c-0.756 0-1.356 0.61-1.356 1.364 0 0.396 0.172 0.743 0.437 0.992 0.242 0.226 0.562 0.37 0.919 0.37h5.285c0.757 0 1.358-0.61 1.358-1.362 0-0.704-0.535-1.259-1.214-1.333z"></path>
<path fill="#444444" d="M26.679 7.936h-4.091v-1.872c0-2.674-2.231-4.852-4.978-4.852h-12.13c-2.75 0-4.978 2.172-4.978 4.852v13.335c0 2.677 2.231 4.852 4.978 4.852h4.091v1.874c0 2.674 2.229 4.852 4.978 4.852h12.13c2.748 0 4.978-2.172 4.978-4.852v-13.337c0-2.676-2.229-4.852-4.978-4.852zM7.364 10.425h2.862c-0.187 0.324-0.334 0.668-0.441 1.033h-2.434c-0.756 0-1.364 0.61-1.364 1.362 0 0.757 0.612 1.364 1.364 1.364h2.22v0.99h-2.217c-0.768 0-1.367 0.61-1.367 1.364 0 0.757 0.612 1.364 1.367 1.364h2.217v3.925h-4.091c-1.371 0-2.485-1.088-2.485-2.425v-13.337c0-1.339 1.113-2.423 2.485-2.423h12.13c1.369 0 2.484 1.088 2.484 2.423v1.872h-3.536c-0.215-0.137-0.455-0.235-0.729-0.235h-8.466c-0.773 0-1.376 0.61-1.376 1.364 0 0.756 0.615 1.36 1.376 1.36zM29.163 26.124c0 1.339-1.111 2.423-2.484 2.423h-12.13c-1.371 0-2.484-1.088-2.484-2.423v-13.337c0-1.156 0.832-2.121 1.943-2.363 0.176-0.037 0.356-0.062 0.542-0.062h12.128c1.371 0 2.484 1.088 2.484 2.423v13.339z"></path>
</svg>
