<?xml version="1.0" encoding="utf-8"?>
<!-- Generated by IcoMoon.io -->
<!DOCTYPE svg PUBLIC "-//W3C//DTD SVG 1.1//EN" "http://www.w3.org/Graphics/SVG/1.1/DTD/svg11.dtd">
<svg version="1.1" xmlns="http://www.w3.org/2000/svg" xmlns:xlink="http://www.w3.org/1999/xlink" width="32" height="32" viewBox="0 0 32 32">
<path fill="rgb(85, 172, 238)" d="M32 0l-27.2 32h22.4c2.666 0 4.8-2.145 4.8-4.791v-27.209zM25.376 23.154c-0.060 0.397-0.005 0.691 0.165 0.879s0.437 0.283 0.799 0.283c0.263 0 0.52-0.087 0.77-0.262s0.472-0.418 0.667-0.73c0.194-0.312 0.351-0.684 0.469-1.115s0.178-0.901 0.178-1.41c0-0.584-0.094-1.127-0.282-1.628s-0.459-0.933-0.815-1.297c-0.356-0.364-0.794-0.649-1.314-0.855s-1.114-0.31-1.783-0.31c-0.531 0-1.035 0.070-1.514 0.209s-0.924 0.334-1.336 0.584c-0.412 0.25-0.784 0.549-1.116 0.897s-0.616 0.732-0.851 1.154c-0.235 0.421-0.416 0.87-0.544 1.347s-0.191 0.972-0.191 1.484c0 0.584 0.086 1.129 0.259 1.633s0.429 0.943 0.77 1.315c0.341 0.372 0.763 0.663 1.265 0.873s1.086 0.316 1.751 0.316c0.242 0 0.478-0.015 0.709-0.045s0.45-0.069 0.657-0.116c0.207-0.048 0.398-0.103 0.573-0.167s0.325-0.129 0.45-0.197l0.265 0.56c-0.207 0.115-0.427 0.216-0.66 0.301s-0.469 0.156-0.709 0.212c-0.239 0.056-0.477 0.096-0.712 0.122s-0.461 0.039-0.676 0.039c-0.764 0-1.441-0.121-2.032-0.364s-1.088-0.576-1.492-1.002c-0.403-0.425-0.711-0.927-0.922-1.505s-0.317-1.205-0.317-1.881c0-0.58 0.076-1.144 0.227-1.69s0.366-1.060 0.644-1.541c0.278-0.481 0.614-0.92 1.006-1.317s0.828-0.739 1.307-1.025c0.479-0.286 0.997-0.509 1.553-0.668s1.139-0.238 1.747-0.238c0.764 0 1.449 0.119 2.055 0.358s1.121 0.567 1.543 0.987c0.423 0.419 0.746 0.915 0.971 1.487s0.337 1.194 0.337 1.866c0 0.322-0.028 0.651-0.084 0.987s-0.14 0.663-0.252 0.981c-0.112 0.318-0.252 0.616-0.421 0.894s-0.366 0.523-0.592 0.733c-0.227 0.211-0.482 0.377-0.767 0.498s-0.6 0.182-0.945 0.182c-0.237 0-0.444-0.024-0.621-0.072s-0.331-0.112-0.463-0.194c-0.132-0.081-0.244-0.179-0.337-0.292s-0.172-0.235-0.236-0.367c-0.22 0.227-0.477 0.406-0.77 0.54s-0.604 0.2-0.932 0.2h-0.194c-0.246 0-0.471-0.040-0.676-0.119s-0.382-0.188-0.531-0.325c-0.149-0.137-0.265-0.299-0.349-0.486s-0.126-0.39-0.126-0.608v-0.128c0-0.042 0.004-0.084 0.013-0.128l0.408-2.754c0.039-0.246 0.126-0.479 0.262-0.698s0.305-0.409 0.508-0.572c0.203-0.163 0.43-0.291 0.683-0.385s0.51-0.14 0.773-0.14h0.201c0.324 0 0.613 0.067 0.867 0.2s0.451 0.313 0.589 0.54l0.544-0.62h0.265l-0.686 4.59zM21.739 23.035c0 0.024-0.002 0.048-0.006 0.072s-0.006 0.048-0.006 0.072c0 0.131 0.025 0.252 0.074 0.364s0.12 0.209 0.21 0.292c0.091 0.083 0.197 0.148 0.32 0.194s0.258 0.069 0.404 0.069h0.531c0.16 0 0.313-0.028 0.459-0.083s0.279-0.131 0.398-0.227c0.119-0.095 0.218-0.208 0.298-0.337s0.133-0.267 0.159-0.414l0.434-2.838c0.009-0.024 0.013-0.050 0.013-0.078v-0.078c0-0.127-0.025-0.246-0.074-0.358s-0.119-0.208-0.207-0.289c-0.088-0.081-0.194-0.145-0.317-0.191s-0.258-0.069-0.404-0.069h-0.531c-0.16 0-0.314 0.028-0.463 0.083s-0.283 0.131-0.401 0.227c-0.119 0.095-0.218 0.208-0.298 0.337s-0.131 0.267-0.152 0.414l-0.44 2.838z"></path>
</svg>
