<?xml version="1.0" encoding="utf-8"?>
<!-- Generated by IcoMoon.io -->
<!DOCTYPE svg PUBLIC "-//W3C//DTD SVG 1.1//EN" "http://www.w3.org/Graphics/SVG/1.1/DTD/svg11.dtd">
<svg version="1.1" xmlns="http://www.w3.org/2000/svg" xmlns:xlink="http://www.w3.org/1999/xlink" width="32" height="32" viewBox="0 0 32 32">
<path fill="rgb(246, 166, 35)" d="M0 32l27.2-32h-22.4c-2.666 0-4.8 2.145-4.8 4.791v27.209zM4.416 5.922c0-0.512 0.403-0.926 0.918-0.926h5.652c0.507 0 0.918 0.43 0.918 0.926 0 0.512-0.403 0.926-0.918 0.926h-5.652c-0.507 0-0.918-0.43-0.918-0.926zM4.416 9.544c0-0.512 0.41-0.926 0.934-0.926h3.355c0.516 0 0.934 0.43 0.934 0.926 0 0.512-0.41 0.926-0.934 0.926h-3.355c-0.516 0-0.934-0.43-0.934-0.926zM4.416 13.137c0-0.512 0.403-0.926 0.918-0.926h5.652c0.507 0 0.918 0.43 0.918 0.926 0 0.512-0.403 0.926-0.918 0.926h-5.652c-0.507 0-0.918-0.43-0.918-0.926z"></path>
</svg>
