<?xml version="1.0" encoding="UTF-8" standalone="no"?>
<svg width="18px" height="13px" viewBox="0 0 18 13" version="1.1" xmlns="http://www.w3.org/2000/svg" xmlns:xlink="http://www.w3.org/1999/xlink" xmlns:sketch="http://www.bohemiancoding.com/sketch/ns">
    <!-- Generator: Sketch 3.3 (11970) - http://www.bohemiancoding.com/sketch -->
    <title>Fill 1</title>
    <desc>Created with Sketch.</desc>
    <defs></defs>
    <g id="Page-1" stroke="none" stroke-width="1" fill="none" fill-rule="evenodd" sketch:type="MSPage">
        <g id="settings-general@2x" sketch:type="MSArtboardGroup" transform="translate(-393.000000, -97.000000)" fill="#565656">
            <g id="credit-card3" sketch:type="MSLayerGroup" transform="translate(393.000000, 97.000000)">
                <g id="Group-3" sketch:type="MSShapeGroup">
                    <path d="M15.8369185,0.000263157895 L2.15007065,0.000263157895 C0.964516304,0.000263157895 0,1.03810526 0,2.31378947 L0,10.6336842 C0,11.9093684 0.964516304,12.9474211 2.15007065,12.9474211 L15.8369185,12.9474211 C17.0225217,12.9474211 17.9869891,11.9093684 17.9869891,10.6336842 L17.9869891,2.31378947 C17.9869891,1.03810526 17.0225217,0.000263157895 15.8369185,0.000263157895 L15.8369185,0.000263157895 Z M16.7974239,10.6336842 C16.7974239,11.2035789 16.3665489,11.6672105 15.8369185,11.6672105 L2.15007065,11.6672105 C1.62063587,11.6672105 1.18976087,11.2035789 1.18976087,10.6336842 L1.18976087,5.05821053 L16.7974239,5.05821053 L16.7974239,10.6336842 Z M16.7974239,3.23194737 L1.18976087,3.23321053 L1.18976087,2.31378947 C1.18976087,1.74389474 1.62063587,1.28026316 2.1502663,1.28026316 L15.8369185,1.28026316 C16.3665489,1.28026316 16.7974239,1.74389474 16.7974239,2.31378947 L16.7974239,3.23194737 Z" id="Fill-1"></path>
                </g>
            </g>
        </g>
    </g>
</svg>