<?xml version="1.0" encoding="UTF-8" standalone="no"?>
<svg width="18px" height="18px" viewBox="0 0 18 18" version="1.1" xmlns="http://www.w3.org/2000/svg" xmlns:xlink="http://www.w3.org/1999/xlink" xmlns:sketch="http://www.bohemiancoding.com/sketch/ns">
    <!-- Generator: Sketch 3.4.4 (17249) - http://www.bohemiancoding.com/sketch -->
    <title>csv</title>
    <desc>Created with Sketch.</desc>
    <defs></defs>
    <g id="Page-1" stroke="none" stroke-width="1" fill="none" fill-rule="evenodd" sketch:type="MSPage">
        <g id="icons@2x" sketch:type="MSArtboardGroup" transform="translate(-232.000000, -338.000000)" fill="#565656">
            <path d="M233.030494,352 C233.283314,354.261109 235.076865,356 237.235294,356 L244.764706,356 C246.923135,356 248.716686,354.261109 248.969506,352 L249.006602,352 C249.555054,352 250,351.554345 250,351.004602 L250,342.995398 C250,342.455664 249.555241,342 249.006602,342 L248.969506,342 C248.716686,339.738891 246.923135,338 244.764706,338 L237.235294,338 C235.076865,338 233.283314,339.738891 233.030494,342 L232.993398,342 C232.444946,342 232,342.445655 232,342.995398 L232,351.004602 C232,351.544336 232.444759,352 232.993398,352 L233.030494,352 Z M246.942335,342 C246.70549,340.861354 245.76618,340 244.630252,340 L237.369748,340 C236.23382,340 235.29451,340.861354 235.057665,342 L246.942335,342 Z M246.942335,352 C246.70549,353.138646 245.76618,354 244.630252,354 L237.369748,354 C236.23382,354 235.29451,353.138646 235.057665,352 L246.942335,352 Z M239.28447,347.898559 C239.28447,348.038702 239.242565,348.18846 239.158754,348.347838 C239.074943,348.507217 238.947167,348.659036 238.775424,348.803301 C238.60368,348.947565 238.387286,349.063663 238.126235,349.151595 C237.865185,349.239528 237.571164,349.283494 237.244164,349.283494 C236.548945,349.283494 236.006243,349.080839 235.616041,348.675524 C235.225839,348.270209 235.030741,347.726819 235.030741,347.04534 C235.030741,346.583693 235.120046,346.175636 235.29866,345.821157 C235.477273,345.466677 235.735572,345.192578 236.073564,344.998851 C236.411556,344.805124 236.815491,344.708262 237.285382,344.708262 C237.57666,344.708262 237.843889,344.750854 238.087078,344.836039 C238.330267,344.921224 238.536357,345.031138 238.705353,345.165786 C238.874348,345.300433 239.003498,345.444008 239.092805,345.596517 C239.182111,345.749025 239.226764,345.891227 239.226764,346.023126 C239.226764,346.157773 239.176616,346.27181 239.076317,346.365238 C238.976019,346.458667 238.854426,346.50538 238.711535,346.50538 C238.618107,346.50538 238.54048,346.481337 238.478652,346.433248 C238.416824,346.38516 238.347441,346.307533 238.2705,346.200365 C238.133104,345.991524 237.989529,345.834897 237.839768,345.730476 C237.690008,345.626056 237.499718,345.573847 237.268895,345.573847 C236.936399,345.573847 236.668483,345.703683 236.465138,345.96336 C236.261793,346.223036 236.160122,346.578197 236.160122,347.028853 C236.160122,347.240441 236.186227,347.434852 236.238437,347.612092 C236.290647,347.789331 236.366213,347.940464 236.465138,348.065493 C236.564062,348.190523 236.683594,348.285324 236.823737,348.349899 C236.96388,348.414475 237.11776,348.446762 237.285382,348.446762 C237.51071,348.446762 237.703747,348.394553 237.864499,348.290133 C238.025251,348.185713 238.167453,348.026337 238.291109,347.812001 C238.359806,347.685597 238.433998,347.586674 238.513687,347.515229 C238.593377,347.443783 238.690926,347.408061 238.806337,347.408061 C238.943732,347.408061 239.057769,347.460271 239.148449,347.564691 C239.23913,347.669111 239.28447,347.780399 239.28447,347.898559 Z M243.607171,347.820244 C243.607171,348.130757 243.531605,348.396612 243.380471,348.617818 C243.229336,348.839024 243.006072,349.006644 242.710673,349.120682 C242.415274,349.23472 242.055991,349.291738 241.632815,349.291738 C241.228873,349.291738 240.882643,349.229911 240.594113,349.106255 C240.305584,348.9826 240.092625,348.828033 239.95523,348.642549 C239.817835,348.457066 239.749138,348.270899 239.749138,348.084041 C239.749138,347.960386 239.793104,347.854593 239.881037,347.76666 C239.96897,347.678728 240.080258,347.634762 240.214905,347.634762 C240.333065,347.634762 240.423744,347.663614 240.486946,347.72132 C240.550147,347.779026 240.6106,347.860088 240.668306,347.964508 C240.783718,348.165105 240.921798,348.314863 241.08255,348.413788 C241.243302,348.512712 241.462444,348.562174 241.739982,348.562174 C241.96531,348.562174 242.150103,348.512025 242.294368,348.411727 C242.438633,348.311428 242.510764,348.196705 242.510764,348.067554 C242.510764,347.869705 242.435885,347.725443 242.286125,347.634762 C242.136364,347.544081 241.889744,347.457524 241.546256,347.375087 C241.158802,347.27891 240.843485,347.177926 240.600296,347.072132 C240.357107,346.966338 240.162696,346.826884 240.017057,346.653766 C239.871418,346.480649 239.7986,346.267689 239.7986,346.014883 C239.7986,345.789555 239.865923,345.576596 240.00057,345.375999 C240.135217,345.175402 240.33375,345.015339 240.596174,344.895806 C240.858599,344.776272 241.17529,344.716506 241.546256,344.716506 C241.837534,344.716506 242.099267,344.746733 242.331465,344.807186 C242.563662,344.86764 242.757386,344.948702 242.912643,345.050374 C243.067899,345.152047 243.186057,345.264709 243.26712,345.388364 C243.348183,345.51202 243.388714,345.632926 243.388714,345.751085 C243.388714,345.880237 243.345435,345.986029 243.258877,346.068466 C243.172318,346.150903 243.049351,346.192121 242.889973,346.192121 C242.774561,346.192121 242.676325,346.159147 242.595262,346.093197 C242.514199,346.027248 242.421459,345.928325 242.317038,345.796426 C242.231853,345.68651 242.131557,345.598578 242.016145,345.532628 C241.900733,345.466679 241.744105,345.433705 241.546256,345.433705 C241.342911,345.433705 241.173918,345.476983 241.039271,345.563542 C240.904624,345.650101 240.837301,345.757955 240.837301,345.887106 C240.837301,346.005266 240.886763,346.102128 240.985687,346.177695 C241.084612,346.253262 241.217883,346.315776 241.385505,346.365238 C241.553127,346.4147 241.783947,346.475153 242.077972,346.546599 C242.426956,346.631784 242.712046,346.733454 242.933252,346.851614 C243.154458,346.969774 243.322077,347.109228 243.436115,347.26998 C243.550153,347.430732 243.607171,347.614152 243.607171,347.820244 Z M244.997419,345.417217 L245.908344,347.972752 L246.88934,345.305928 C246.966281,345.091592 247.041847,344.939772 247.11604,344.850466 C247.190233,344.761159 247.302896,344.716506 247.45403,344.716506 C247.596921,344.716506 247.718514,344.764594 247.818812,344.86077 C247.919111,344.956947 247.969259,345.068235 247.969259,345.194638 C247.969259,345.244101 247.960328,345.301806 247.942467,345.367755 C247.924606,345.433705 247.903997,345.495532 247.88064,345.553238 C247.857283,345.610944 247.830491,345.676892 247.800264,345.751085 L246.720344,348.430275 C246.690118,348.507216 246.650961,348.604765 246.602872,348.722925 C246.554784,348.841085 246.501201,348.942069 246.442121,349.02588 C246.383041,349.109691 246.310223,349.174952 246.223664,349.221666 C246.137105,349.268381 246.031999,349.291738 245.908344,349.291738 C245.748966,349.291738 245.621877,349.255328 245.527075,349.182509 C245.432272,349.10969 245.362202,349.030002 245.316861,348.943443 C245.271521,348.856884 245.195268,348.68583 245.0881,348.430275 L244.016424,345.779938 C243.991693,345.713989 243.966275,345.64804 243.94017,345.58209 C243.914065,345.516141 243.892082,345.448818 243.874221,345.380121 C243.856359,345.311423 243.847429,345.252344 243.847429,345.202882 C243.847429,345.125941 243.870786,345.049688 243.9175,344.97412 C243.964214,344.898553 244.028789,344.836726 244.111226,344.788638 C244.193663,344.74055 244.282968,344.716506 244.379145,344.716506 C244.566002,344.716506 244.694465,344.770089 244.764536,344.877257 C244.834608,344.984426 244.912235,345.16441 244.997419,345.417217 Z" id="csv" sketch:type="MSShapeGroup"></path>
        </g>
    </g>
</svg>