<?xml version="1.0" encoding="UTF-8" standalone="no"?>
<svg width="19px" height="19px" viewBox="0 0 19 19" version="1.1" xmlns="http://www.w3.org/2000/svg" xmlns:xlink="http://www.w3.org/1999/xlink" xmlns:sketch="http://www.bohemiancoding.com/sketch/ns">
    <!-- Generator: Sketch 3.2.2 (9983) - http://www.bohemiancoding.com/sketch -->
    <title>txt 3</title>
    <desc>Created with Sketch.</desc>
    <defs></defs>
    <g id="Page-1" stroke="none" stroke-width="1" fill="none" fill-rule="evenodd" sketch:type="MSPage">
        <g id="icons@2x" sketch:type="MSArtboardGroup" transform="translate(-748.000000, -820.000000)" fill="#000000">
            <path d="M749.218286,834.675001 C749.471107,836.93611 751.264657,838.675001 753.423086,838.675001 L760.952498,838.675001 C763.110927,838.675001 764.904478,836.93611 765.157299,834.675001 L765.194395,834.675001 C765.742846,834.675001 766.187792,834.229346 766.187792,833.679604 L766.187792,825.670399 C766.187792,825.130666 765.743033,824.675001 765.194395,824.675001 L765.157299,824.675001 C764.904478,822.413893 763.110927,820.675001 760.952498,820.675001 L753.423086,820.675001 C751.264657,820.675001 749.471107,822.413893 749.218286,824.675001 L749.18119,824.675001 C748.632739,824.675001 748.187792,825.120656 748.187792,825.670399 L748.187792,833.679604 C748.187792,834.219337 748.632552,834.675001 749.18119,834.675001 L749.218286,834.675001 L749.218286,834.675001 Z M763.130127,824.675001 C762.893282,823.536355 761.953973,822.675001 760.818044,822.675001 L753.55754,822.675001 C752.421612,822.675001 751.482303,823.536355 751.245458,824.675001 L763.130127,824.675001 L763.130127,824.675001 Z M763.130127,834.675001 C762.893282,835.813648 761.953973,836.675001 760.818044,836.675001 L753.55754,836.675001 C752.421612,836.675001 751.482303,835.813648 751.245458,834.675001 L763.130127,834.675001 L763.130127,834.675001 Z M754.937692,831.191114 C754.937692,831.366434 754.884277,831.553784 754.777446,831.753168 C754.670616,831.952552 754.507745,832.14248 754.28883,832.322957 C754.069915,832.503434 753.794086,832.648673 753.461334,832.758678 C753.128583,832.868683 752.753806,832.923685 752.336991,832.923685 C751.450822,832.923685 750.75906,832.670161 750.261685,832.163107 C749.764309,831.656052 749.515625,830.976265 749.515625,830.123726 C749.515625,829.546199 749.629459,829.035715 749.857131,828.592257 C750.084803,828.148799 750.414047,827.805898 750.844872,827.563543 C751.275697,827.321188 751.790578,827.200012 752.38953,827.200012 C752.760811,827.200012 753.101438,827.253295 753.411422,827.359863 C753.721406,827.46643 753.9841,827.603934 754.199513,827.772379 C754.414926,827.940825 754.579547,828.12044 754.693383,828.31123 C754.807219,828.50202 754.864136,828.679916 754.864136,828.844924 C754.864136,829.013369 754.800214,829.15603 754.672368,829.27291 C754.544521,829.38979 754.389531,829.44823 754.207394,829.44823 C754.088304,829.44823 753.989356,829.418151 753.910546,829.357992 C753.831737,829.297832 753.743296,829.20072 753.645222,829.066651 C753.47009,828.805389 753.28708,828.609446 753.096185,828.478815 C752.905291,828.348184 752.662737,828.282869 752.368515,828.282869 C751.944695,828.282869 751.603192,828.445296 751.343996,828.770155 C751.084801,829.095014 750.955205,829.539324 750.955205,830.1031 C750.955205,830.3678 750.988479,830.611011 751.05503,830.83274 C751.12158,831.054469 751.217901,831.243537 751.343996,831.39995 C751.470091,831.556364 751.622454,831.674961 751.801089,831.755746 C751.979724,831.836531 752.175869,831.876923 752.38953,831.876923 C752.676747,831.876923 752.922804,831.811609 753.127709,831.680978 C753.332614,831.550347 753.513873,831.350965 753.671492,831.082828 C753.759058,830.924696 753.853628,830.800942 753.955205,830.711563 C754.056781,830.622184 754.181123,830.577495 754.328234,830.577495 C754.503367,830.577495 754.648724,830.642809 754.764312,830.77344 C754.879899,830.904071 754.937692,831.043294 754.937692,831.191114 Z M760.158029,831.082828 C760.158029,831.471283 760.061707,831.803872 759.869062,832.080603 C759.676417,832.357335 759.391831,832.567029 759.015297,832.709692 C758.638762,832.852355 758.180798,832.923685 757.641391,832.923685 C757.126502,832.923685 756.685176,832.846339 756.317398,832.691644 C755.949621,832.53695 755.67817,832.343584 755.503037,832.111542 C755.327905,831.8795 755.24034,831.646602 755.24034,831.412842 C755.24034,831.258147 755.296382,831.125799 755.408467,831.015794 C755.520551,830.905789 755.662406,830.850787 755.834036,830.850787 C755.984649,830.850787 756.100235,830.886882 756.180796,830.959073 C756.261357,831.031264 756.338414,831.132673 756.411969,831.263304 C756.55908,831.514253 756.735085,831.701603 756.93999,831.825359 C757.144895,831.949114 757.424227,832.010991 757.777994,832.010991 C758.06521,832.010991 758.30076,831.948255 758.484649,831.82278 C758.668537,831.697306 758.760481,831.553786 758.760481,831.392216 C758.760481,831.144704 758.665035,830.96423 758.474141,830.850787 C758.283247,830.737345 757.968889,830.62906 757.531058,830.52593 C757.037186,830.405612 756.635263,830.27928 756.325279,830.14693 C756.015295,830.01458 755.767487,829.840122 755.581847,829.623549 C755.396206,829.406977 755.303388,829.140562 755.303388,828.824298 C755.303388,828.54241 755.389201,828.275995 755.560831,828.025046 C755.73246,827.774097 755.985523,827.573856 756.320025,827.424318 C756.654528,827.27478 757.058201,827.200012 757.531058,827.200012 C757.902339,827.200012 758.235961,827.237826 758.531934,827.313454 C758.827908,827.389083 759.07484,827.490492 759.27274,827.617686 C759.470639,827.744879 759.621251,827.885821 759.724579,828.040515 C759.827907,828.19521 759.87957,828.346465 759.87957,828.494284 C759.87957,828.655854 759.824404,828.788202 759.714071,828.891332 C759.603737,828.994461 759.446996,829.046026 759.243843,829.046026 C759.096732,829.046026 758.971514,829.004774 758.868186,828.92227 C758.764858,828.839767 758.646646,828.716013 758.513545,828.551005 C758.404963,828.413499 758.277119,828.303495 758.130008,828.220992 C757.982897,828.138488 757.783249,828.097237 757.531058,828.097237 C757.271863,828.097237 757.056453,828.151379 756.884824,828.259665 C756.713194,828.367951 756.627381,828.502877 756.627381,828.664447 C756.627381,828.812267 756.690427,828.933442 756.816523,829.027978 C756.942618,829.122514 757.112493,829.200719 757.326155,829.262597 C757.539816,829.324475 757.834034,829.400102 758.208817,829.489481 C758.653653,829.596049 759.017047,829.72324 759.299009,829.871059 C759.580972,830.018879 759.79463,830.193337 759.93999,830.39444 C760.08535,830.595543 760.158029,830.825004 760.158029,831.082828 Z M762.888655,831.273617 L764.139093,827.937386 C764.237167,827.669249 764.333488,827.479321 764.428059,827.367597 C764.522631,827.255873 764.666237,827.200012 764.858882,827.200012 C765.04102,827.200012 765.19601,827.26017 765.323856,827.380488 C765.451703,827.500806 765.515625,827.640029 765.515625,827.798162 C765.515625,827.86004 765.504242,827.932229 765.481474,828.014733 C765.458707,828.097237 765.432438,828.174583 765.402665,828.246774 C765.372893,828.318965 765.338743,828.401467 765.300213,828.494284 L763.923681,831.845984 C763.885152,831.942239 763.83524,832.064274 763.773944,832.212093 C763.712647,832.359912 763.644347,832.486245 763.56904,832.591093 C763.493733,832.695942 763.400915,832.777585 763.290581,832.836025 C763.180248,832.894465 763.046274,832.923685 762.888655,832.923685 C762.685501,832.923685 762.523507,832.878137 762.402665,832.787039 C762.281824,832.695941 762.192508,832.59625 762.134714,832.487964 C762.076921,832.379678 761.979724,832.165687 761.843121,831.845984 L760.477096,828.530379 C760.445572,828.447876 760.413173,828.365373 760.379898,828.282869 C760.346623,828.200365 760.318602,828.116144 760.295835,828.030203 C760.273068,827.944261 760.261685,827.870353 760.261685,827.808475 C760.261685,827.71222 760.291457,827.616827 760.351002,827.522291 C760.410546,827.427755 760.492857,827.350409 760.597937,827.29025 C760.703016,827.230091 760.81685,827.200012 760.939443,827.200012 C761.177623,827.200012 761.341369,827.267046 761.430686,827.401114 C761.520004,827.535183 761.618952,827.760346 761.727534,828.076611 L762.888655,831.273617 Z" id="txt-3" sketch:type="MSShapeGroup"></path>
        </g>
    </g>
</svg>