<?xml version="1.0" encoding="UTF-8" standalone="no"?>
<svg width="18px" height="18px" viewBox="0 0 18 18" version="1.1" xmlns="http://www.w3.org/2000/svg" xmlns:xlink="http://www.w3.org/1999/xlink" xmlns:sketch="http://www.bohemiancoding.com/sketch/ns">
    <!-- Generator: Sketch 3.4.4 (17249) - http://www.bohemiancoding.com/sketch -->
    <title>Oval 1089</title>
    <desc>Created with Sketch.</desc>
    <defs></defs>
    <g id="Page-1" stroke="none" stroke-width="1" fill="none" fill-rule="evenodd" sketch:type="MSPage">
        <g id="C-4-A@2x" sketch:type="MSArtboardGroup" transform="translate(-354.000000, -725.000000)" fill="#000000">
            <path d="M359.73543,731.688038 C359.272265,732.340859 359,733.138634 359,734 C359,736.209139 360.790861,738 363,738 C365.209139,738 367,736.209139 367,734 C367,732.824849 366.493239,731.768059 365.686327,731.036238 C365.640764,731.046861 365.58961,731.052469 365.535706,731.052469 C365.492256,731.052469 365.408119,731.057218 365.297624,731.071768 C365.112874,731.096098 364.928676,731.139759 364.759854,731.206454 C364.165202,731.441379 363.930446,732.473488 363.975242,732.475487 C364.054632,732.479432 364.142587,732.486492 364.237095,732.497449 C364.507926,732.52885 364.7793,732.585484 365.035699,732.674667 C366.72841,733.263436 366.872632,734.818519 364.633644,737.377362 C364.464744,737.570391 364.146817,737.450935 364.146817,737.194444 C364.146817,737.130276 364.139005,737.008764 364.115168,736.849848 C364.075285,736.583965 364.003639,736.318609 363.893505,736.073867 C363.588617,735.396338 363.057728,735.003086 362.202372,735.003086 C361.890417,735.003086 361.815385,734.56809 362.109314,734.463582 C362.166836,734.44313 362.269472,734.404954 362.401993,734.352763 C362.622893,734.265767 362.843648,734.172069 363.048646,734.075644 C363.294006,733.960234 363.499115,733.849008 363.648401,733.747533 C363.780852,733.657501 363.296208,733.507817 362.773576,733.435542 C362.32245,733.373155 362.307862,733.371084 362.135755,733.343219 C360.815926,733.129533 359.720059,732.667291 359.720059,731.85988 C359.720059,731.803845 359.725199,731.746423 359.73543,731.688038 Z M363,743 C367.970563,743 372,738.970563 372,734 C372,729.029437 367.970563,725 363,725 C358.029437,725 354,729.029437 354,734 C354,738.970563 358.029437,743 363,743 Z M368,734 C368,731.238576 365.761424,729 363,729 C360.238576,729 358,731.238576 358,734 C358,736.761424 360.238576,739 363,739 C365.761424,739 368,736.761424 368,734 Z" id="Oval-1089" sketch:type="MSShapeGroup"></path>
        </g>
    </g>
</svg>