<?xml version="1.0" encoding="UTF-8" standalone="no"?>
<svg width="20px" height="20px" viewBox="0 0 20 20" version="1.1" xmlns="http://www.w3.org/2000/svg" xmlns:xlink="http://www.w3.org/1999/xlink" xmlns:sketch="http://www.bohemiancoding.com/sketch/ns">
    <!-- Generator: Sketch 3.5.1 (25234) - http://www.bohemiancoding.com/sketch -->
    <title>demographics</title>
    <desc>Created with Sketch.</desc>
    <defs></defs>
    <g id="Page-1" stroke="none" stroke-width="1" fill="none" fill-rule="evenodd" sketch:type="MSPage">
        <g id="Artboard-19" sketch:type="MSArtboardGroup" transform="translate(-36.000000, -29.000000)" fill="#F35C88">
            <path d="M46,49 C51.5228475,49 56,44.5228475 56,39 C56,33.4771525 51.5228475,29 46,29 C40.4771525,29 36,33.4771525 36,39 C36,44.5228475 40.4771525,49 46,49 Z M50.2927264,34.8893857 L49.6879653,32.6307501 C49.6787463,32.5231961 49.6400269,32.4174858 49.5736506,32.3265257 C49.510962,32.2324928 49.4230749,32.1587414 49.3216668,32.1114176 C49.1790808,32.0112387 48.995317,31.9725192 48.81647,32.0204576 L46.4312279,32.6596361 C46.1061073,32.7469085 45.9137391,33.0806335 46.0022408,33.4106708 C46.0901278,33.7388644 46.4287695,33.9330763 46.7495879,33.8464185 L47.8515563,33.551413 L46.9702274,35.0780663 C46.5707409,34.9299489 46.1392954,34.8445203 45.6875683,34.8445203 C43.6508014,34.8445203 42,36.4959363 42,38.5320886 C42,40.3592786 43.3287538,41.8760984 45.0729736,42.1686455 L45.0729736,42.5269542 L43.8437841,42.5269542 C43.5045279,42.5269542 43.2291894,42.801678 43.2291894,43.1415489 C43.2291894,43.4808052 43.5045279,43.7561436 43.8437841,43.7561436 L45.0729736,43.7561436 L45.0729736,45.3307353 C45.0729736,45.6490953 45.348312,45.9072251 45.6875683,45.9072251 C46.0268246,45.9072251 46.302163,45.6490953 46.302163,45.3307353 L46.302163,43.7561436 L47.5313524,43.7561436 C47.8706087,43.7561436 48.1459471,43.4808052 48.1459471,43.1415489 C48.1459471,42.801678 47.8706087,42.5269542 47.5313524,42.5269542 L46.302163,42.5269542 L46.302163,42.1680309 C48.0457682,41.8754838 49.3751365,40.3592786 49.3751365,38.531474 C49.3751365,37.3877132 48.8539602,36.3656422 48.0365493,35.6889734 L48.8545748,34.2711034 L49.1053295,35.2065166 C49.1913727,35.5267204 49.5287852,35.7233907 49.8569788,35.6355037 C50.1870162,35.5482312 50.3806135,35.2138917 50.2927264,34.8893857 Z M48.1459471,38.5320886 C48.1459471,39.8897283 47.045208,40.9904674 45.6875683,40.9904674 C44.3299286,40.9904674 43.2291894,39.8897283 43.2291894,38.5320886 C43.2291894,37.1744488 44.3299286,36.0737097 45.6875683,36.0737097 C47.045208,36.0737097 48.1459471,37.1744488 48.1459471,38.5320886 Z" id="demographics" sketch:type="MSShapeGroup"></path>
        </g>
    </g>
</svg>