<?xml version="1.0" encoding="UTF-8" standalone="no"?>
<svg width="18px" height="18px" viewBox="0 0 18 18" version="1.1" xmlns="http://www.w3.org/2000/svg" xmlns:xlink="http://www.w3.org/1999/xlink" xmlns:sketch="http://www.bohemiancoding.com/sketch/ns">
    <!-- Generator: Sketch 3.4.4 (17249) - http://www.bohemiancoding.com/sketch -->
    <title>world copy 3</title>
    <desc>Created with Sketch.</desc>
    <defs></defs>
    <g id="Page-1" stroke="none" stroke-width="1" fill="none" fill-rule="evenodd" sketch:type="MSPage">
        <g id="filter-concept" sketch:type="MSArtboardGroup" transform="translate(-1017.000000, -249.000000)" fill="#565656">
            <g id="Group" sketch:type="MSLayerGroup" transform="translate(941.000000, 240.000000)">
                <path d="M79.123774,13.838469 C78.2900764,15.0135456 77.8,16.4495411 77.8,18 C77.8,21.9764502 81.0235498,25.2 85,25.2 C88.9764502,25.2 92.2,21.9764502 92.2,18 C92.2,15.8847288 91.2878308,13.9825062 89.8353894,12.665229 C89.7533746,12.6843494 89.6612971,12.6944444 89.56427,12.6944444 C89.4860609,12.6944444 89.3346134,12.7029917 89.1357229,12.7291831 C88.8031735,12.7729756 88.4716163,12.8515669 88.1677371,12.971618 C87.0973632,13.3944818 86.6748026,15.2522786 86.7554357,15.2558762 C86.8983373,15.2629769 87.0566566,15.2756849 87.2267702,15.2954082 C87.7142663,15.3519295 88.2027394,15.4538717 88.6642581,15.6143999 C91.7111384,16.6741844 91.970737,19.4733339 87.9405584,24.0792523 C87.6365383,24.4267038 87.06427,24.2116825 87.06427,23.75 C87.06427,23.6344976 87.0502093,23.4157756 87.0073019,23.1297258 C86.9355136,22.6511376 86.8065504,22.1734958 86.6083093,21.7329601 C86.059511,20.5134084 85.1039097,19.8055556 83.56427,19.8055556 C83.0027509,19.8055556 82.8676937,19.0225625 83.3967652,18.8344482 C83.5003054,18.7976339 83.6850497,18.7289168 83.9235877,18.6349741 C84.3212067,18.4783809 84.7185671,18.3097235 85.0875633,18.1361586 C85.5292115,17.9284204 85.8984073,17.7282149 86.1671216,17.5455595 C86.4055343,17.3835011 85.5331737,17.1140713 84.5924373,16.9839752 C83.7804108,16.8716785 83.7541507,16.8679519 83.4443582,16.817795 C81.0686669,16.4331593 79.0961054,15.6011234 79.0961054,14.1477839 C79.0961054,14.0469212 79.105358,13.9435613 79.123774,13.838469 Z M94,18 C94,13.0294373 89.9705627,9 85,9 C80.0294373,9 76,13.0294373 76,18 C76,22.9705627 80.0294373,27 85,27 C89.9705627,27 94,22.9705627 94,18 Z" id="world-copy-3" sketch:type="MSShapeGroup"></path>
            </g>
        </g>
    </g>
</svg>