<?xml version="1.0" encoding="UTF-8" standalone="no"?>
<svg width="490px" height="490px" viewBox="0 0 490 490" version="1.1" xmlns="http://www.w3.org/2000/svg" xmlns:xlink="http://www.w3.org/1999/xlink" xmlns:sketch="http://www.bohemiancoding.com/sketch/ns">
    <!-- Generator: Sketch 3.5.1 (25234) - http://www.bohemiancoding.com/sketch -->
    <title>demographic</title>
    <desc>Created with Sketch.</desc>
    <defs></defs>
    <g id="Page-1" stroke="none" stroke-width="1" fill="none" fill-rule="evenodd" sketch:type="MSPage">
        <g id="Artboard-32" sketch:type="MSArtboardGroup" transform="translate(-5.000000, -5.000000)" fill="#D74092">
            <path d="M250,495 C385.309764,495 495,385.309764 495,250 C495,114.690236 385.309764,5 250,5 C114.690236,5 5,114.690236 5,250 C5,385.309764 114.690236,495 250,495 Z M373.63435,129.0141 L359.81635,77.2946 L359.91435,77.9316 C359.62035,74.7711 358.49335,71.7086 356.60685,69.1116 C354.86735,66.5391 352.36835,64.4076 349.40385,63.0111 C345.72885,60.3651 340.38785,59.3606 335.34085,60.7326 L280.70585,75.3591 C271.27335,77.8826 265.73635,87.5601 268.25985,97.0661 C270.80785,106.4986 280.55885,112.1581 289.89335,109.6346 L304.83835,105.6411 L268.03935,154.5921 C258.99885,151.5541 249.66435,149.7656 240.10935,149.7656 C191.45235,149.7656 152.00735,189.2351 152.00735,237.8921 C152.00735,280.0321 181.82385,315.6796 222.37135,324.0096 L222.37135,361.2251 L197.89585,361.2251 C188.09585,361.2251 180.15785,369.1631 180.15785,378.9876 C180.15785,388.7876 188.09585,396.7256 197.89585,396.7256 L222.37135,396.7256 L222.37135,429.1391 C222.37135,438.5226 230.35835,445.9951 240.10935,445.9951 C249.86035,445.9951 257.87185,438.5226 257.87185,429.1391 L257.87185,396.7256 L282.34735,396.7256 C292.14735,396.7256 300.08535,388.7876 300.08535,378.9876 C300.08535,369.1631 292.14735,361.2251 282.34735,361.2251 L257.87185,361.2251 L257.87185,323.9851 C298.41935,315.6551 328.26035,280.0321 328.26035,237.8921 C328.26035,212.4856 317.18635,189.0636 298.71335,172.5016 L335.53685,124.0161 L339.35885,138.1771 C341.85785,147.5361 351.63335,153.1466 361.04135,150.6231 C370.57185,148.0996 376.18235,138.4221 373.63435,129.0141 Z M300.23235,237.9411 C300.23235,271.0896 273.33135,297.9661 240.20735,297.9661 C207.05885,297.9661 180.18235,271.0896 180.18235,237.9411 C180.18235,204.7926 207.05885,177.9161 240.20735,177.9161 C273.33135,177.9161 300.23235,204.7926 300.23235,237.9411 Z" id="demographic" sketch:type="MSShapeGroup"></path>
        </g>
    </g>
</svg>