<?xml version="1.0" encoding="iso-8859-1"?>
<!-- Generator: Adobe Illustrator 16.0.0, SVG Export Plug-In . SVG Version: 6.00 Build 0)  -->
<!DOCTYPE svg PUBLIC "-//W3C//DTD SVG 1.1//EN" "http://www.w3.org/Graphics/SVG/1.1/DTD/svg11.dtd">
<svg version="1.1" xmlns="http://www.w3.org/2000/svg" xmlns:xlink="http://www.w3.org/1999/xlink" x="0px" y="0px"
	 width="159.334px" height="194.999px" viewBox="0 0 159.334 194.999" style="enable-background:new 0 0 159.334 194.999;"
	 xml:space="preserve">
<g id="document">
	<g id="document_1_">
		<g>
			<g>
				<path d="M148.603,22.073h-5.692v140.079c0,9.307-7.562,16.882-16.853,16.882H22.523v5.192c0,5.946,4.817,10.772,10.755,10.772
					h115.303c5.938,0,10.753-4.826,10.753-10.772V32.846C159.334,26.899,154.538,22.073,148.603,22.073z M136.79,162.152V10.771
					C136.79,4.824,131.972,0,126.036,0H49.215v3.563c0.042,0.366,0.062,0.752,0.062,1.14V34.21c0,8.37-6.79,15.17-15.145,15.17
					H4.675c-0.305,0-0.63-0.021-0.935-0.041H0v112.813c0,5.945,4.817,10.771,10.754,10.771h115.282
					C131.972,172.925,136.79,168.1,136.79,162.152z M70.561,136.312H32.973c-2.805,0-5.083-2.281-5.083-5.092
					s2.278-5.091,5.083-5.091H70.58c2.804,0,5.082,2.28,5.082,5.091S73.365,136.312,70.561,136.312z M108.168,110.328H32.973
					c-2.805,0-5.083-2.281-5.083-5.092s2.278-5.09,5.083-5.09h75.195c2.806,0,5.082,2.279,5.082,5.09
					S110.974,110.328,108.168,110.328z M108.168,82.736H32.973c-2.805,0-5.083-2.281-5.083-5.091s2.278-5.091,5.083-5.091h75.195
					c2.806,0,5.082,2.282,5.082,5.091C113.25,80.455,110.974,82.736,108.168,82.736z M4.675,43.271h29.537
					c4.92-0.041,8.904-4.031,8.945-8.959V4.703c0-2.729-2.236-4.541-4.555-4.541c-1.117,0-2.234,0.408-3.17,1.344L1.462,35.534
					C-1.384,38.384,0.629,43.271,4.675,43.271z"/>
			</g>
		</g>
	</g>
</g>
<g id="Capa_1">
</g>
</svg>
