<?xml version="1.0" encoding="utf-8"?>
<!-- Generated by IcoMoon.io -->
<!DOCTYPE svg PUBLIC "-//W3C//DTD SVG 1.1//EN" "http://www.w3.org/Graphics/SVG/1.1/DTD/svg11.dtd">
<svg version="1.1" xmlns="http://www.w3.org/2000/svg" xmlns:xlink="http://www.w3.org/1999/xlink" width="36" height="32" viewBox="0 0 36 32">
<path fill="#444444" d="M18.818 27.277c2.157 0 4.167-0.962 5.555-2.604l-1.234-1.106-1.17 1.178c1.528 1.608 3.619 2.532 5.849 2.532 4.519 0 8.182-3.77 8.182-8.421s-3.663-8.421-8.182-8.421l1.636 1.684c0-6.511-5.128-11.789-11.455-11.789-4.926 0-9.253 3.23-10.832 7.948l1.329-1.121c-4.843 0.672-8.496 4.94-8.496 10.014 0 5.581 4.396 10.105 9.818 10.105 2.178 0 4.252-0.734 5.948-2.065l-0.992-1.339-1.155 1.193c1.37 1.406 3.225 2.212 5.199 2.212zM19.636 16.482l3.133-1.612 1.098 2.26-5.458 2.809-5.458-2.809 1.098-2.26 3.133 1.612v-6.888h2.455v6.888zM14.918 21.641l-1.136 0.891c-1.131 0.888-2.51 1.375-3.964 1.375-3.615 0-6.545-3.016-6.545-6.737 0-3.382 2.436-6.229 5.661-6.676l1-0.139 0.329-0.982c1.128-3.369 4.219-5.677 7.738-5.677 4.519 0 8.182 3.77 8.182 8.421v1.684h1.636c2.711 0 4.909 2.262 4.909 5.053s-2.198 5.053-4.909 5.053c-1.34 0-2.59-0.553-3.509-1.519l-1.24-1.304-1.164 1.376c-0.774 0.914-1.886 1.448-3.087 1.448-1.099 0-2.125-0.446-2.888-1.229l-1.012-1.038zM24.545 32h-13.5v-2.526h14.727v2.526h-1.227z"></path>
</svg>
