<?xml version="1.0" encoding="UTF-8" standalone="no"?>
<svg width="17px" height="19px" viewBox="0 0 17 19" version="1.1" xmlns="http://www.w3.org/2000/svg" xmlns:xlink="http://www.w3.org/1999/xlink" xmlns:sketch="http://www.bohemiancoding.com/sketch/ns">
    <!-- Generator: Sketch 3.2.2 (9983) - http://www.bohemiancoding.com/sketch -->
    <title>reports 2</title>
    <desc>Created with Sketch.</desc>
    <defs/>
    <g id="Page-1" stroke="none" stroke-width="1" fill="none" fill-rule="evenodd" sketch:type="MSPage">
        <g id="icons@2x" sketch:type="MSArtboardGroup" transform="translate(-1012.000000, -694.000000)" fill="#565656">
            <path d="M1023.11472,694.603517 C1023.09072,694.577938 1023.06583,694.556149 1023.04183,694.533412 L1022.91827,694.41878 C1022.77694,694.36857 1022.64538,694.318359 1022.49427,694.318359 L1016.24183,694.318359 C1013.92272,694.318359 1012.03561,696.229201 1012.03561,698.577728 L1012.03561,708.060886 C1012.03561,710.409412 1013.92716,712.318359 1016.25249,712.318359 L1023.81872,712.318359 C1026.14494,712.318359 1028.03561,710.40657 1028.03561,708.056149 L1028.03561,699.646359 C1028.03561,699.439833 1027.95383,699.256991 1027.83205,699.109201 L1023.11472,694.603517 Z M1023.33783,696.466044 L1025.79738,698.793728 L1023.33694,698.793728 L1023.33694,696.466044 L1023.33783,696.466044 Z M1023.81783,710.611201 L1016.25249,710.611201 C1014.85605,710.611201 1013.72005,709.46678 1013.72005,708.059938 L1013.72005,698.57678 C1013.72005,697.168991 1014.85161,696.022675 1016.24183,696.022675 L1021.65338,696.022675 L1021.65338,699.646359 C1021.65338,700.117201 1022.03027,700.498991 1022.49516,700.498991 L1026.35116,700.498991 L1026.35116,708.055201 C1026.35116,709.463938 1025.21605,710.611201 1023.81783,710.611201 Z M1016.5,707 C1016.77614,707 1017,706.776142 1017,706.5 C1017,706.223858 1016.77614,706 1016.5,706 L1015.5,706 C1015.22386,706 1015,706.223858 1015,706.5 C1015,706.776142 1015.22386,707 1015.5,707 L1016.5,707 Z M1020.5,707 C1020.77614,707 1021,706.776142 1021,706.5 C1021,706.223858 1020.77614,706 1020.5,706 L1019.5,706 C1019.22386,706 1019,706.223858 1019,706.5 C1019,706.776142 1019.22386,707 1019.5,707 L1020.5,707 Z M1024.5,707 C1024.77614,707 1025,706.776142 1025,706.5 C1025,706.223858 1024.77614,706 1024.5,706 L1023.5,706 C1023.22386,706 1023,706.223858 1023,706.5 C1023,706.776142 1023.22386,707 1023.5,707 L1024.5,707 Z M1016.5,705 C1016.77614,705 1017,704.776142 1017,704.5 C1017,704.223858 1016.77614,704 1016.5,704 L1015.5,704 C1015.22386,704 1015,704.223858 1015,704.5 C1015,704.776142 1015.22386,705 1015.5,705 L1016.5,705 Z M1020.5,705 C1020.77614,705 1021,704.776142 1021,704.5 C1021,704.223858 1020.77614,704 1020.5,704 L1019.5,704 C1019.22386,704 1019,704.223858 1019,704.5 C1019,704.776142 1019.22386,705 1019.5,705 L1020.5,705 Z M1024.5,705 C1024.77614,705 1025,704.776142 1025,704.5 C1025,704.223858 1024.77614,704 1024.5,704 L1023.5,704 C1023.22386,704 1023,704.223858 1023,704.5 C1023,704.776142 1023.22386,705 1023.5,705 L1024.5,705 Z M1016.5,701 C1016.77614,701 1017,700.776142 1017,700.5 C1017,700.223858 1016.77614,700 1016.5,700 L1015.5,700 C1015.22386,700 1015,700.223858 1015,700.5 C1015,700.776142 1015.22386,701 1015.5,701 L1016.5,701 Z M1020.5,701 C1020.77614,701 1021,700.776142 1021,700.5 C1021,700.223858 1020.77614,700 1020.5,700 L1019.5,700 C1019.22386,700 1019,700.223858 1019,700.5 C1019,700.776142 1019.22386,701 1019.5,701 L1020.5,701 Z M1016.5,703 C1016.77614,703 1017,702.776142 1017,702.5 C1017,702.223858 1016.77614,702 1016.5,702 L1015.5,702 C1015.22386,702 1015,702.223858 1015,702.5 C1015,702.776142 1015.22386,703 1015.5,703 L1016.5,703 Z M1020.5,703 C1020.77614,703 1021,702.776142 1021,702.5 C1021,702.223858 1020.77614,702 1020.5,702 L1019.5,702 C1019.22386,702 1019,702.223858 1019,702.5 C1019,702.776142 1019.22386,703 1019.5,703 L1020.5,703 Z M1024.5,703 C1024.77614,703 1025,702.776142 1025,702.5 C1025,702.223858 1024.77614,702 1024.5,702 L1023.5,702 C1023.22386,702 1023,702.223858 1023,702.5 C1023,702.776142 1023.22386,703 1023.5,703 L1024.5,703 Z" id="reports-2" sketch:type="MSShapeGroup"/>
        </g>
    </g>
</svg>