<?xml version="1.0" encoding="UTF-8" standalone="no"?>
<svg width="15px" height="16px" viewBox="0 0 15 16" version="1.1" xmlns="http://www.w3.org/2000/svg" xmlns:xlink="http://www.w3.org/1999/xlink" xmlns:sketch="http://www.bohemiancoding.com/sketch/ns">
    <!-- Generator: Sketch 3.5.1 (25234) - http://www.bohemiancoding.com/sketch -->
    <title>kebab</title>
    <desc>Created with Sketch.</desc>
    <defs></defs>
    <g id="Page-1" stroke="none" stroke-width="1" fill="none" fill-rule="evenodd" sketch:type="MSPage">
        <g id="Icons" sketch:type="MSArtboardGroup" transform="translate(-547.000000, -888.000000)" fill="#546D77">
            <path d="M549.142857,892.053333 C550.326324,892.053333 551.285714,891.145964 551.285714,890.026667 C551.285714,888.90737 550.326324,888 549.142857,888 C547.95939,888 547,888.90737 547,890.026667 C547,891.145964 547.95939,892.053333 549.142857,892.053333 Z M549.142857,898.026667 C550.326324,898.026667 551.285714,897.119297 551.285714,896 C551.285714,894.880703 550.326324,893.973333 549.142857,893.973333 C547.95939,893.973333 547,894.880703 547,896 C547,897.119297 547.95939,898.026667 549.142857,898.026667 Z M549.142857,904 C550.326324,904 551.285714,903.09263 551.285714,901.973333 C551.285714,900.854036 550.326324,899.946667 549.142857,899.946667 C547.95939,899.946667 547,900.854036 547,901.973333 C547,903.09263 547.95939,904 549.142857,904 Z M554.5,892.053333 C555.683467,892.053333 556.642857,891.145964 556.642857,890.026667 C556.642857,888.90737 555.683467,888 554.5,888 C553.316533,888 552.357143,888.90737 552.357143,890.026667 C552.357143,891.145964 553.316533,892.053333 554.5,892.053333 Z M554.5,898.026667 C555.683467,898.026667 556.642857,897.119297 556.642857,896 C556.642857,894.880703 555.683467,893.973333 554.5,893.973333 C553.316533,893.973333 552.357143,894.880703 552.357143,896 C552.357143,897.119297 553.316533,898.026667 554.5,898.026667 Z M554.5,904 C555.683467,904 556.642857,903.09263 556.642857,901.973333 C556.642857,900.854036 555.683467,899.946667 554.5,899.946667 C553.316533,899.946667 552.357143,900.854036 552.357143,901.973333 C552.357143,903.09263 553.316533,904 554.5,904 Z M559.857143,892.053333 C561.04061,892.053333 562,891.145964 562,890.026667 C562,888.90737 561.04061,888 559.857143,888 C558.673676,888 557.714286,888.90737 557.714286,890.026667 C557.714286,891.145964 558.673676,892.053333 559.857143,892.053333 Z M559.857143,898.026667 C561.04061,898.026667 562,897.119297 562,896 C562,894.880703 561.04061,893.973333 559.857143,893.973333 C558.673676,893.973333 557.714286,894.880703 557.714286,896 C557.714286,897.119297 558.673676,898.026667 559.857143,898.026667 Z M559.857143,904 C561.04061,904 562,903.09263 562,901.973333 C562,900.854036 561.04061,899.946667 559.857143,899.946667 C558.673676,899.946667 557.714286,900.854036 557.714286,901.973333 C557.714286,903.09263 558.673676,904 559.857143,904 Z" id="kebab" sketch:type="MSShapeGroup"></path>
        </g>
    </g>
</svg>