<?xml version="1.0" encoding="utf-8"?>
<!-- Generated by IcoMoon.io -->
<!DOCTYPE svg PUBLIC "-//W3C//DTD SVG 1.1//EN" "http://www.w3.org/Graphics/SVG/1.1/DTD/svg11.dtd">
<svg version="1.1" xmlns="http://www.w3.org/2000/svg" xmlns:xlink="http://www.w3.org/1999/xlink" width="38" height="32" viewBox="0 0 38 32">
<path fill="#444444" d="M1.756 2.438c1.922-1.922 2.989-1.587 2.989-1.587 2.665-0.605 6.395 0.473 8.322 2.401l9.686 9.686c1.931 1.931 1.925 5.068 0.001 6.992l-3.506 3.506c-1.931 1.931-5.065 1.926-6.992-0.001l-9.686-9.686c-1.931-1.931-3.037-5.665-2.302-8.311 0 0-0.089-1.423 1.488-3v0zM5.352 9.584c1.063 1.063 2.806 1.043 3.893-0.044s1.107-2.83 0.044-3.893c-1.063-1.063-2.806-1.043-3.893 0.044s-1.107 2.83-0.044 3.893v0z"></path>
<path fill="#444444" d="M19.859 28.476c0.303-1.053 1.182-1.273 1.953-0.501l1.481 1.481c0.776 0.776 0.542 1.653-0.501 1.954l-2.146 0.617c-1.089 0.313-1.717-0.321-1.405-1.405l0.617-2.146zM21.008 25.821l10.91-10.91c1.116-1.116 2.913-1.128 4.032-0.009 1.111 1.111 1.123 2.9-0.009 4.032l-10.91 10.91-4.023-4.023z"></path>
</svg>
