<?xml version="1.0" encoding="UTF-8" standalone="no"?>
<svg width="19px" height="16px" viewBox="0 0 19 16" version="1.1" xmlns="http://www.w3.org/2000/svg" xmlns:xlink="http://www.w3.org/1999/xlink" xmlns:sketch="http://www.bohemiancoding.com/sketch/ns">
    <!-- Generator: Sketch 3.2.2 (9983) - http://www.bohemiancoding.com/sketch -->
    <title>tag + Triangle 2 + Path 2</title>
    <desc>Created with Sketch.</desc>
    <defs></defs>
    <g id="Page-1" stroke="none" stroke-width="1" fill="none" fill-rule="evenodd" sketch:type="MSPage">
        <g id="better-sidebar-detail-twitter@2x" sketch:type="MSArtboardGroup" transform="translate(-652.000000, -197.000000)" fill="#565656">
            <g id="Group" sketch:type="MSLayerGroup" transform="translate(641.000000, 118.000000)">
                <g id="tag-+-Triangle-2-+-Path-2" transform="translate(11.000000, 79.000000)" sketch:type="MSShapeGroup">
                    <path d="M0.878172007,1.21876592 C1.83924768,0.257690246 2.37272308,0.425401423 2.37272308,0.425401423 C3.70530618,0.122758269 5.57015582,0.661995109 6.53385009,1.62568939 L11.3769943,6.46883355 C12.3425381,7.43437744 12.3394745,9.00289702 11.3775068,9.9648647 L9.62427079,11.7181007 C8.65900999,12.6833615 7.09193391,12.6812824 6.12823963,11.7175882 L1.28509547,6.87444401 C0.319551581,5.90890012 -0.233486046,4.04202169 0.134092051,2.71886894 C0.134092051,2.71886894 0.089662809,2.00727512 0.878172007,1.21876592 L0.878172007,1.21876592 Z M2.67611485,4.79215736 C3.20756282,5.32360533 4.07900168,5.31381389 4.62252802,4.77028755 C5.16605436,4.22676121 5.17584581,3.35532235 4.64439783,2.82387438 C4.11294986,2.2924264 3.241511,2.30221785 2.69798466,2.84574419 C2.15445832,3.38927052 2.14466687,4.26070939 2.67611485,4.79215736 L2.67611485,4.79215736 Z" id="tag"></path>
                    <g id="Triangle-2-+-Path-2" transform="translate(9.000000, 6.000000)">
                        <path d="M0.929724573,8.23780717 C1.0811922,7.71143624 1.52054423,7.60129155 1.90646983,7.98721715 L2.64690634,8.72765366 C3.03488022,9.11562755 2.9178204,9.55433177 2.39631633,9.70439892 L1.32350221,10.0131101 C0.778779955,10.1698585 0.465092523,9.85246771 0.621013357,9.31062128 L0.929724573,8.23780717 Z" id="Triangle-2"></path>
                        <rect id="Path-2" x="1.17047865" y="3.26138092" width="9.1428566" height="2.84444427"></rect>
                    </g>
                </g>
            </g>
        </g>
    </g>
</svg>