<?xml version="1.0" encoding="utf-8"?>
<!-- Generated by IcoMoon.io -->
<!DOCTYPE svg PUBLIC "-//W3C//DTD SVG 1.1//EN" "http://www.w3.org/Graphics/SVG/1.1/DTD/svg11.dtd">
<svg version="1.1" xmlns="http://www.w3.org/2000/svg" xmlns:xlink="http://www.w3.org/1999/xlink" width="36" height="32" viewBox="0 0 36 32">
<path fill="#444444" d="M6.568 3.372h16.006c1.807 0 3.279 1.512 3.279 3.366v18.524c0 1.86-1.468 3.366-3.279 3.366h-16.006c-1.807 0-3.279-1.512-3.279-3.366v-18.524c0-1.86 1.468-3.366 3.279-3.366zM0 25.262c0 3.715 2.943 6.738 6.568 6.738h16.006c3.628 0 6.568-3.017 6.568-6.738v-18.524c0-3.715-2.943-6.738-6.568-6.738h-16.006c-3.628 0-6.568 3.017-6.568 6.738v18.524zM7.237 10.904c0-1.045 0.838-1.892 1.875-1.892h11.053c1.035 0 1.875 0.84 1.875 1.892 0 1.045-0.838 1.892-1.875 1.892h-11.053c-1.035 0-1.875-0.84-1.875-1.892zM7.237 16.123c0-1.045 0.841-1.892 1.897-1.892h7.39c1.048 0 1.897 0.84 1.897 1.892 0 1.045-0.841 1.892-1.897 1.892h-7.39c-1.048 0-1.897-0.84-1.897-1.892zM7.237 21.283c0-1.045 0.85-1.892 1.883-1.892h4.18c1.040 0 1.883 0.84 1.883 1.892 0 1.045-0.85 1.892-1.883 1.892h-4.18c-1.040 0-1.883-0.84-1.883-1.892z"></path>
<path fill="#444444" d="M19.008 19.821l10.91-10.91c1.116-1.116 2.913-1.128 4.032-0.009 1.111 1.111 1.123 2.9-0.009 4.032l-10.91 10.91-4.023-4.023zM17.859 22.476c0.303-1.053 1.182-1.273 1.953-0.501l1.481 1.481c0.776 0.776 0.542 1.653-0.501 1.954l-2.146 0.617c-1.089 0.314-1.717-0.321-1.405-1.405l0.617-2.146z"></path>
</svg>
