<?xml version="1.0" encoding="UTF-8" standalone="no"?>
<svg width="18px" height="16px" viewBox="0 0 18 16" version="1.1" xmlns="http://www.w3.org/2000/svg" xmlns:xlink="http://www.w3.org/1999/xlink" xmlns:sketch="http://www.bohemiancoding.com/sketch/ns">
    <!-- Generator: Sketch 3.2.2 (9983) - http://www.bohemiancoding.com/sketch -->
    <title>white list + Triangle 1 + Path</title>
    <desc>Created with Sketch.</desc>
    <defs></defs>
    <g id="Page-1" stroke="none" stroke-width="1" fill="none" fill-rule="evenodd" sketch:type="MSPage">
        <g id="better-sidebar-detail-twitter@2x" sketch:type="MSArtboardGroup" transform="translate(-652.000000, -229.000000)" fill="#565656">
            <g id="Group" sketch:type="MSLayerGroup" transform="translate(641.000000, 118.000000)">
                <g id="white-list-+-Triangle-1-+-Path" transform="translate(11.000000, 111.000000)" sketch:type="MSShapeGroup">
                    <path d="M3.28422447,1.68600683 L11.2872041,1.68600683 C12.1908307,1.68600683 12.9266357,2.44188707 12.9266357,3.36910849 L12.9266357,12.6308915 C12.9266357,13.5606691 12.1924966,14.3139932 11.2872041,14.3139932 L3.28422447,14.3139932 C2.38059783,14.3139932 1.64479284,13.5581129 1.64479284,12.6308915 L1.64479284,3.36910849 C1.64479284,2.43933092 2.37893197,1.68600683 3.28422447,1.68600683 Z M0,12.6308915 C0,14.488451 1.47140412,16 3.28422447,16 L11.2872041,16 C13.1012769,16 14.5714286,14.4914294 14.5714286,12.6308915 L14.5714286,3.36910849 C14.5714286,1.51154899 13.1000244,0 11.2872041,0 L3.28422447,0 C1.47015169,0 0,1.50857055 0,3.36910849 L0,12.6308915 Z M3.61843047,5.45217415 C3.61843047,4.92967135 4.03757784,4.50609914 4.55584414,4.50609914 L10.0825846,4.50609914 C10.6003038,4.50609914 11.0199982,4.92602856 11.0199982,5.45217415 C11.0199982,5.97467695 10.6008509,6.39824916 10.0825846,6.39824916 L4.55584414,6.39824916 C4.03812487,6.39824916 3.61843047,5.97831974 3.61843047,5.45217415 Z M3.61843047,8.06142926 C3.61843047,7.53892646 4.03876158,7.11535425 4.56708724,7.11535425 L8.26206958,7.11535425 C8.78599824,7.11535425 9.21072635,7.53528367 9.21072635,8.06142926 C9.21072635,8.58393206 8.79039524,9.00750427 8.26206958,9.00750427 L4.56708724,9.00750427 C4.04315857,9.00750427 3.61843047,8.58757485 3.61843047,8.06142926 Z M3.61843047,10.641634 C3.61843047,10.1191312 4.04361067,9.69555904 4.55997514,9.69555904 L6.64988211,9.69555904 C7.16988287,9.69555904 7.59142677,10.1154885 7.59142677,10.641634 C7.59142677,11.1641368 7.16624657,11.5877091 6.64988211,11.5877091 L4.55997514,11.5877091 C4.03997438,11.5877091 3.61843047,11.1677796 3.61843047,10.641634 Z" id="white-list"></path>
                    <path d="M8.92972457,11.2378072 C9.0811922,10.7114362 9.52054423,10.6012916 9.90646983,10.9872172 L10.6469063,11.7276537 C11.0348802,12.1156275 10.9178204,12.5543318 10.3963163,12.7043989 L9.32350221,13.0131101 C8.77877995,13.1698585 8.46509252,12.8524677 8.62101336,12.3106213 L8.92972457,11.2378072 Z" id="Triangle-1"></path>
                    <rect id="Path" x="9.17047865" y="6.26138092" width="9.1428566" height="2.84444427"></rect>
                </g>
            </g>
        </g>
    </g>
</svg>