<?xml version="1.0" encoding="UTF-8" standalone="no"?>
<svg width="17px" height="16px" viewBox="0 0 17 16" version="1.1" xmlns="http://www.w3.org/2000/svg" xmlns:xlink="http://www.w3.org/1999/xlink" xmlns:sketch="http://www.bohemiancoding.com/sketch/ns">
    <!-- Generator: Sketch 3.2.2 (9983) - http://www.bohemiancoding.com/sketch -->
    <title>email user 2</title>
    <desc>Created with Sketch.</desc>
    <defs></defs>
    <g id="Page-1" stroke="none" stroke-width="1" fill="none" fill-rule="evenodd" sketch:type="MSPage">
        <g id="better-sidebar-detail-twitter@2x" sketch:type="MSArtboardGroup" transform="translate(-233.000000, -326.000000)" fill="#565656">
            <path d="M248.568,341.733875 L234.432,341.733875 C233.641,341.733875 233,341.107875 233,340.335875 L233,331.878875 L240.132,337.377875 C240.895,337.964875 242.131,337.964875 242.893,337.377875 L250,331.898875 L250,340.335875 C250,341.107875 249.359,341.733875 248.568,341.733875 L248.568,341.733875 L248.568,341.733875 Z M238.169,337.190875 C237.969,336.960875 237.616,336.930875 237.38,337.126875 L234.557,339.458875 C234.321,339.653875 234.291,339.999875 234.491,340.230875 C234.691,340.461875 235.044,340.490875 235.28,340.294875 L238.103,337.962875 C238.339,337.767875 238.369,337.421875 238.169,337.190875 L238.169,337.190875 L238.169,337.190875 Z M248.326,339.458875 L245.503,337.126875 C245.267,336.931875 244.914,336.960875 244.714,337.190875 C244.514,337.420875 244.544,337.766875 244.779,337.961875 L247.603,340.293875 C247.839,340.488875 248.192,340.459875 248.392,340.229875 C248.592,339.998875 248.562,339.653875 248.326,339.458875 L248.326,339.458875 L248.326,339.458875 Z M249.086,330.619875 L242.289,326.226875 C241.82,325.923875 241.066,325.924875 240.6,326.226875 L233.804,330.619875 C233.335,330.922875 233.317,331.438875 233.758,331.775875 L237.982,335.003875 C238.33,333.842875 239.279,332.635875 241.532,332.635875 C243.719,332.635875 244.67,333.773875 245.043,334.901875 L249.132,331.776875 C249.576,331.435875 249.552,330.920875 249.086,330.619875 Z M241.545,332.388875 C240.296,332.388875 239.285,331.376875 239.285,330.128875 C239.285,328.880875 240.297,327.868875 241.545,327.868875 C242.792,327.868875 243.804,328.880875 243.804,330.128875 C243.804,331.376875 242.792,332.388875 241.545,332.388875 Z" id="email-user-2" sketch:type="MSShapeGroup"></path>
        </g>
    </g>
</svg>