<?xml version="1.0" encoding="UTF-8"?>
<svg width="20px" height="20px" viewBox="0 0 20 20" version="1.1" xmlns="http://www.w3.org/2000/svg" xmlns:xlink="http://www.w3.org/1999/xlink">
    <!-- Generator: Sketch 41.2 (35397) - http://www.bohemiancoding.com/sketch -->
    <title>Combined Shape Copy</title>
    <desc>Created with Sketch.</desc>
    <defs></defs>
    <g id="Page-1" stroke="none" stroke-width="1" fill="none" fill-rule="evenodd">
        <g id="Emoji" transform="translate(-286.000000, -159.000000)" fill="#439B2C">
            <g id="icons" transform="translate(20.000000, 18.000000)">
                <path d="M280,147 C278.895,147 278,147.895 278,149 C278,150.105 278.895,151 280,151 C281.105,151 282,150.105 282,149 C282,147.895 281.105,147 280,147 M272,147 C270.895,147 270,147.895 270,149 C270,150.105 270.895,151 272,151 C273.105,151 274,150.105 274,149 C274,147.895 273.105,147 272,147 M284,151 C284,146.589 280.411,143 276,143 C271.589,143 268,146.589 268,151 C268,155.411 271.589,159 276,159 C280.411,159 284,155.411 284,151 M286,151 C286,156.523 281.523,161 276,161 C270.477,161 266,156.523 266,151 C266,145.477 270.477,141 276,141 C281.523,141 286,145.477 286,151 Z M271.217574,152.601722 C272.231574,156.599422 279.985574,156.599422 280.999574,152.601722 C281.118574,152.130578 280.616574,151.699997 280.000574,151.699997 C279.520574,151.699997 279.128574,151.97067 279.016574,152.334949 C278.321574,154.608762 273.895574,154.608762 273.200574,152.334949 C273.088574,151.97067 272.696574,151.699997 272.216574,151.699997 C271.600574,151.699997 271.098574,152.130578 271.217574,152.601722 Z" id="Combined-Shape-Copy"></path>
            </g>
        </g>
    </g>
</svg>