<?xml version="1.0" encoding="UTF-8"?>
<svg width="20px" height="20px" viewBox="0 0 20 20" version="1.1" xmlns="http://www.w3.org/2000/svg" xmlns:xlink="http://www.w3.org/1999/xlink">
    <!-- Generator: Sketch 41.2 (35397) - http://www.bohemiancoding.com/sketch -->
    <title>Combined Shape</title>
    <desc>Created with Sketch.</desc>
    <defs></defs>
    <g id="Page-1" stroke="none" stroke-width="1" fill="none" fill-rule="evenodd">
        <g id="Emoji" transform="translate(-220.000000, -159.000000)" fill="#E7573E">
            <g id="icons" transform="translate(20.000000, 18.000000)">
                <path d="M214,147 C212.895,147 212,147.895 212,149 C212,150.105 212.895,151 214,151 C215.105,151 216,150.105 216,149 C216,147.895 215.105,147 214,147 M206,147 C204.895,147 204,147.895 204,149 C204,150.105 204.895,151 206,151 C207.105,151 208,150.105 208,149 C208,147.895 207.105,147 206,147 M218,151 C218,146.589 214.411,143 210,143 C205.589,143 202,146.589 202,151 C202,155.411 205.589,159 210,159 C214.411,159 218,155.411 218,151 M220,151 C220,156.523 215.523,161 210,161 C204.477,161 200,156.523 200,151 C200,145.477 204.477,141 210,141 C215.523,141 220,145.477 220,151 Z M205.217574,154.698272 C206.231574,150.700572 213.985574,150.700572 214.999574,154.698272 C215.118574,155.169416 214.616574,155.599997 214.000574,155.599997 C213.520574,155.599997 213.128574,155.329324 213.016574,154.965045 C212.321574,152.691232 207.895574,152.691232 207.200574,154.965045 C207.088574,155.329324 206.696574,155.599997 206.216574,155.599997 C205.600574,155.599997 205.098574,155.169416 205.217574,154.698272 Z" id="Combined-Shape"></path>
            </g>
        </g>
    </g>
</svg>