<?xml version="1.0" encoding="UTF-8"?>
<svg width="20px" height="20px" viewBox="0 0 20 20" version="1.1" xmlns="http://www.w3.org/2000/svg" xmlns:xlink="http://www.w3.org/1999/xlink">
    <!-- Generator: Sketch 41.2 (35397) - http://www.bohemiancoding.com/sketch -->
    <title>emoji_happy_circle [#537]</title>
    <desc>Created with Sketch.</desc>
    <defs></defs>
    <g id="Page-1" stroke="none" stroke-width="1" fill="none" fill-rule="evenodd">
        <g id="Emoji" transform="translate(-310.000000, -159.000000)" fill="#009488">
            <g id="icons" transform="translate(20.000000, 18.000000)">
                <path d="M306,149 C306,150.105 305.105,151 304,151 C302.895,151 302,150.105 302,149 C302,147.895 302.895,147 304,147 C305.105,147 306,147.895 306,149 M304.891,153.156 C303.877,158.281 296.123,158.281 295.109,153.156 C294.99,152.552 295.492,152 296.108,152 C296.588,152 296.98,152.347 297.092,152.814 C297.787,155.729 302.213,155.729 302.908,152.814 C303.02,152.347 303.412,152 303.892,152 C304.508,152 305.01,152.552 304.891,153.156 M296,151 C294.895,151 294,150.105 294,149 C294,147.895 294.895,147 296,147 C297.105,147 298,147.895 298,149 C298,150.105 297.105,151 296,151 M300,159 C295.589,159 292,155.411 292,151 C292,146.589 295.589,143 300,143 C304.411,143 308,146.589 308,151 C308,155.411 304.411,159 300,159 M300,141 C294.477,141 290,145.477 290,151 C290,156.523 294.477,161 300,161 C305.523,161 310,156.523 310,151 C310,145.477 305.523,141 300,141" id="emoji_happy_circle-[#537]"></path>
            </g>
        </g>
    </g>
</svg>