<?xml version="1.0" encoding="UTF-8"?>
<svg width="20px" height="20px" viewBox="0 0 20 20" version="1.1" xmlns="http://www.w3.org/2000/svg" xmlns:xlink="http://www.w3.org/1999/xlink">
    <!-- Generator: Sketch 41.2 (35397) - http://www.bohemiancoding.com/sketch -->
    <title>emoji_sad_circle [#541] copy</title>
    <desc>Created with Sketch.</desc>
    <defs></defs>
    <g id="Page-1" stroke="none" stroke-width="1" fill="none" fill-rule="evenodd">
        <g id="Emoji" transform="translate(-190.000000, -159.000000)" fill="#CD0001">
            <g id="icons" transform="translate(20.000000, 18.000000)">
                <path d="M184,147 C182.895,147 182,147.895 182,149 C182,150.105 182.895,151 184,151 C185.105,151 186,150.105 186,149 C186,147.895 185.105,147 184,147 M176,147 C174.895,147 174,147.895 174,149 C174,150.105 174.895,151 176,151 C177.105,151 178,150.105 178,149 C178,147.895 177.105,147 176,147 M188,151 C188,146.589 184.411,143 180,143 C175.589,143 172,146.589 172,151 C172,155.411 175.589,159 180,159 C184.411,159 188,155.411 188,151 M190,151 C190,156.523 185.523,161 180,161 C174.477,161 170,156.523 170,151 C170,145.477 174.477,141 180,141 C185.523,141 190,145.477 190,151 M175.109,155.844 C176.123,150.719 183.877,150.719 184.891,155.844 C185.01,156.448 184.508,157 183.892,157 C183.412,157 183.02,156.653 182.908,156.186 C182.213,153.271 177.787,153.271 177.092,156.186 C176.98,156.653 176.588,157 176.108,157 C175.492,157 174.99,156.448 175.109,155.844" id="emoji_sad_circle-[#541]-copy"></path>
            </g>
        </g>
    </g>
</svg>