<?xml version="1.0" encoding="UTF-8"?>
<svg width="20px" height="20px" viewBox="0 0 20 20" version="1.1" xmlns="http://www.w3.org/2000/svg" xmlns:xlink="http://www.w3.org/1999/xlink">
    <!-- Generator: Sketch 41.2 (35397) - http://www.bohemiancoding.com/sketch -->
    <title>emoji_neutral_circle [#553]</title>
    <desc>Created with Sketch.</desc>
    <defs></defs>
    <g id="Page-1" stroke="none" stroke-width="1" fill="none" fill-rule="evenodd">
        <g id="Emoji" transform="translate(-260.000000, -159.000000)" fill="#F4C52D">
            <g id="icons" transform="translate(20.000000, 18.000000)">
                <path d="M252,149 C252,147.895 252.895,147 254,147 C255.105,147 256,147.895 256,149 C256,150.105 255.105,151 254,151 C252.895,151 252,150.105 252,149 M244,149 C244,147.895 244.895,147 246,147 C247.105,147 248,147.895 248,149 C248,150.105 247.105,151 246,151 C244.895,151 244,150.105 244,149 M256,154.415 C256,154.967 255.552,155.415 255,155.415 L245,155.415 C244.448,155.415 244,154.967 244,154.415 C244,153.863 244.448,153.415 245,153.415 L255,153.415 C255.552,153.415 256,153.863 256,154.415 M250,159 C245.589,159 242,155.411 242,151 C242,146.589 245.589,143 250,143 C254.411,143 258,146.589 258,151 C258,155.411 254.411,159 250,159 M250,141 C244.477,141 240,145.477 240,151 C240,156.523 244.477,161 250,161 C255.523,161 260,156.523 260,151 C260,145.477 255.523,141 250,141" id="emoji_neutral_circle-[#553]"></path>
            </g>
        </g>
    </g>
</svg>