<?xml version="1.0" encoding="UTF-8" standalone="no"?>
<svg width="18px" height="17px" viewBox="0 0 18 17" version="1.1" xmlns="http://www.w3.org/2000/svg" xmlns:xlink="http://www.w3.org/1999/xlink" xmlns:sketch="http://www.bohemiancoding.com/sketch/ns">
    <!-- Generator: Sketch 3.4.4 (17249) - http://www.bohemiancoding.com/sketch -->
    <title>ok chat copy + ok chat copy</title>
    <desc>Created with Sketch.</desc>
    <defs></defs>
    <g id="Page-1" stroke="none" stroke-width="1" fill="none" fill-rule="evenodd" sketch:type="MSPage">
        <g id="ok-chat-copy-+-ok-chat-copy" sketch:type="MSLayerGroup" transform="translate(0.000000, 0.200000)" fill="#565656">
            <path d="M14.8151536,13.8392245 C16.6681894,13.2107451 18,11.4567591 18,9.39130435 C18,6.80324418 15.8983208,4.69565217 13.3057682,4.69565217 L11.7377101,4.69565217 C11.1864276,4.69565217 10.6574954,4.79055574 10.1663021,4.9649085 C10.1713532,4.87579812 10.173913,4.78602328 10.173913,4.69565217 C10.173913,2.10759201 8.06973797,-1.77635684e-14 5.47410647,-1.77635684e-14 L4.69980658,-1.77635684e-14 C2.10804136,-1.77635684e-14 0,2.10231509 0,4.69565217 C0,6.37612289 0.88714587,7.85402238 2.21994,8.68390946 L1.81026613,10.2128332 C1.58323807,11.0601134 2.01484637,11.4016253 2.77824027,10.9608796 L5.43581851,9.42652611 C5.45586285,9.41495351 5.47537679,9.40319532 5.49436024,9.39126154 C6.04004256,9.38895445 6.56405187,9.29345787 7.05118349,9.11985454 C7.04606986,9.20968513 7.04347826,9.30019169 7.04347826,9.39130435 C7.04347826,11.8655564 8.96438186,13.9006677 11.3986778,14.0748683 C11.423543,14.0909531 11.4493534,14.106731 11.4761088,14.1221783 L14.1336871,15.6565318 C14.897081,16.0972775 15.3286893,15.7557656 15.1016612,14.9084853 L14.8151536,13.8392245 Z M1.72174868,3.59998089 C1.72174868,3.16775805 2.08071921,2.8173722 2.5024358,2.8173722 L7.98453983,2.8173722 C8.41570142,2.8173722 8.76522694,3.16474467 8.76522694,3.59998089 C8.76522694,4.03220374 8.40625642,4.38258959 7.98453983,4.38258959 L2.5024358,4.38258959 C2.07127421,4.38258959 1.72174868,4.03521712 1.72174868,3.59998089 Z M1.72174868,5.94780698 C1.72174868,5.51558413 2.06900519,5.16519828 2.51361142,5.16519828 L4.84292943,5.16519828 C5.28026314,5.16519828 5.63479216,5.51257075 5.63479216,5.94780698 C5.63479216,6.38002983 5.28753566,6.73041568 4.84292943,6.73041568 L2.51361142,6.73041568 C2.07627771,6.73041568 1.72174868,6.38304321 1.72174868,5.94780698 Z M9.39130435,8.22260809 C9.39130435,7.79038524 9.74424144,7.43999939 10.1666958,7.43999939 L13.3115651,7.43999939 C13.7398019,7.43999939 14.0869565,7.78737186 14.0869565,8.22260809 C14.0869565,8.65483093 13.7340194,9.00521678 13.3115651,9.00521678 L10.1666958,9.00521678 C9.73845893,9.00521678 9.39130435,8.65784431 9.39130435,8.22260809 Z M9.39130435,10.5726066 C9.39130435,10.1403837 9.7458545,9.78999786 10.1715888,9.78999786 L14.8718895,9.78999786 C15.3028287,9.78999786 15.6521739,10.1373703 15.6521739,10.5726066 C15.6521739,11.0048294 15.2976238,11.3552153 14.8718895,11.3552153 L10.1715888,11.3552153 C9.7406496,11.3552153 9.39130435,11.0078428 9.39130435,10.5726066 Z" id="ok-chat-copy" sketch:type="MSShapeGroup"></path>
        </g>
    </g>
</svg>
