<?xml version="1.0" encoding="utf-8"?>
<!-- Generated by IcoMoon.io -->
<!DOCTYPE svg PUBLIC "-//W3C//DTD SVG 1.1//EN" "http://www.w3.org/Graphics/SVG/1.1/DTD/svg11.dtd">
<svg version="1.1" xmlns="http://www.w3.org/2000/svg" xmlns:xlink="http://www.w3.org/1999/xlink" width="32" height="32" viewBox="0 0 32 32">
<path fill="#565656" d="M16 32c5.35 0 9.333-7.23 9.333-16s-3.983-16-9.333-16c-5.35 0-9.333 7.23-9.333 16s3.983 16 9.333 16v0zM16 30.118c-3.814 0-7.259-6.254-7.259-14.118s3.445-14.118 7.259-14.118c3.814 0 7.259 6.254 7.259 14.118s-3.445 14.118-7.259 14.118v0zM0.732 8c-2.675 4.205 2.233 10.951 10.601 15.336s17.259 4.869 19.934 0.664c2.675-4.205-2.233-10.951-10.601-15.336s-17.259-4.869-19.934-0.664v0zM2.528 8.941c1.907-2.998 9.597-2.579 17.101 1.353s11.749 9.767 9.842 12.764c-1.907 2.998-9.597 2.579-17.101-1.353s-11.749-9.767-9.842-12.764v0zM31.268 8c-2.675-4.205-11.566-3.721-19.934 0.664s-13.276 11.131-10.601 15.336c2.675 4.205 11.566 3.721 19.934-0.664s13.276-11.131 10.601-15.336v0zM29.472 8.941c1.907 2.998-2.338 8.833-9.842 12.764s-15.194 4.351-17.101 1.353c-1.907-2.998 2.338-8.833 9.842-12.764s15.194-4.351 17.101-1.353zM15.852 20.235c-2.209 0-4-1.791-4-4s1.791-4 4-4c2.209 0 4 1.791 4 4s-1.791 4-4 4z"></path>
</svg>
