<?xml version="1.0" encoding="iso-8859-1"?>
<!-- Generator: Adobe Illustrator 16.0.0, SVG Export Plug-In . SVG Version: 6.00 Build 0)  -->
<!DOCTYPE svg PUBLIC "-//W3C//DTD SVG 1.1//EN" "http://www.w3.org/Graphics/SVG/1.1/DTD/svg11.dtd">
<svg version="1.1" xmlns="http://www.w3.org/2000/svg" xmlns:xlink="http://www.w3.org/1999/xlink" x="0px" y="0px" width="190px"
	 height="140.047px" viewBox="0 0 190 140.047" style="enable-background:new 0 0 190 140.047;" xml:space="preserve">
<g id="email_closed">
	<path d="M173.998,140.047H16.003C7.164,140.047,0,132.906,0,124.101V15.947C0,7.14,7.164,0,16.003,0h157.995
		C182.835,0,190,7.141,190,15.947v108.153C190,132.907,182.835,140.047,173.998,140.047z M19.571,119.998
		c2.231,2.631,6.178,2.959,8.816,0.736l31.554-26.581c2.639-2.223,2.969-6.155,0.738-8.784c-2.231-2.63-6.177-2.96-8.815-0.738
		L20.31,111.213C17.672,113.436,17.341,117.369,19.571,119.998z M165.898,20.133c-2.389-2.598-6.438-2.778-9.045-0.399
		L94.272,76.793L31.691,19.734c-2.608-2.378-6.657-2.199-9.044,0.399c-2.386,2.601-2.206,6.635,0.402,9.013l66.763,60.872
		c1.225,1.116,2.767,1.661,4.306,1.665c0.052,0.002,0.104-0.001,0.155,0c0.053-0.001,0.103,0.002,0.155,0
		c1.539-0.004,3.081-0.549,4.306-1.665l66.763-60.872C168.104,26.769,168.284,22.734,165.898,20.133z M168.381,111.213
		l-31.554-26.582c-2.64-2.223-6.586-1.893-8.815,0.736c-2.23,2.629-1.9,6.562,0.737,8.785l31.554,26.581
		c2.639,2.224,6.586,1.894,8.815-0.735C171.35,117.369,171.02,113.436,168.381,111.213z"/>
</g>
<g id="Capa_1">
</g>
</svg>
