<?xml version="1.0" encoding="UTF-8"?>
<svg width="12px" height="12px" viewBox="0 0 12 12" version="1.1" xmlns="http://www.w3.org/2000/svg" xmlns:xlink="http://www.w3.org/1999/xlink">
    <!-- Generator: Sketch 59.1 (86144) - https://sketch.com -->
    <title>icon/essential/108-chat-1</title>
    <desc>Created with Sketch.</desc>
    <g id="Page-1" stroke="none" stroke-width="1" fill="none" fill-rule="evenodd">
        <g id="Artboard" transform="translate(-97.000000, -16.000000)" fill="#000000" fill-rule="nonzero">
            <path d="M107.28966,16 L98.7103633,16 C97.7672852,16 97.0000117,16.7672719 97.0000117,17.7103482 L97.0000117,27.5152197 C97.0000117,27.7112974 97.1181133,27.8880393 97.2992852,27.9630626 C97.3580531,27.9874421 97.4210516,28 97.4846758,28 C97.6108164,28 97.7348008,27.9507345 97.8275195,27.8580159 L100.13677,25.5487939 L107.289637,25.5487939 C108.232738,25.5487939 108.999988,24.7814985 108.999988,23.8384222 L108.999988,17.7103482 C108.999988,16.7672719 108.232762,16 107.28966,16 Z M108.03052,23.8383753 C108.03052,24.2469136 107.698152,24.5792801 107.289637,24.5792801 L99.9359805,24.5792801 C99.8074023,24.5792801 99.6841211,24.6303503 99.593207,24.7212642 L97.9694805,26.3449876 L97.9694805,17.7103482 C97.9694805,17.3018334 98.3018477,16.9694669 98.7103633,16.9694669 L107.28966,16.9694669 C107.698176,16.9694669 108.03052,17.3018334 108.03052,17.7103482 L108.03052,23.8383753 L108.03052,23.8383753 Z" id="icon/essential/108-chat-1"></path>
        </g>
    </g>
</svg>