<?xml version="1.0" encoding="utf-8"?>
<!-- Generated by IcoMoon.io -->
<!DOCTYPE svg PUBLIC "-//W3C//DTD SVG 1.1//EN" "http://www.w3.org/Graphics/SVG/1.1/DTD/svg11.dtd">
<svg version="1.1" xmlns="http://www.w3.org/2000/svg" xmlns:xlink="http://www.w3.org/1999/xlink" width="30" height="32" viewBox="0 0 30 32">
<path fill="#565656" d="M4.886 13.474h-2.346c-1.418 0-2.541 1.131-2.541 2.526 0 1.405 1.138 2.526 2.541 2.526h2.346c0.874 1.51 2.506 2.526 4.377 2.526s3.503-1.016 4.377-2.526h12.451c1.418 0 2.541-1.131 2.541-2.526 0-1.405-1.138-2.526-2.541-2.526h-12.451c-0.874-1.51-2.506-2.526-4.377-2.526s-3.503 1.016-4.377 2.526zM16.676 2.526h-14.135c-1.418 0-2.541 1.131-2.541 2.526 0 1.405 1.138 2.526 2.541 2.526h14.135c0.874 1.51 2.506 2.526 4.377 2.526s3.503-1.016 4.377-2.526h0.661c1.418 0 2.541-1.131 2.541-2.526 0-1.405-1.138-2.526-2.541-2.526h-0.661c-0.874-1.51-2.506-2.526-4.377-2.526s-3.503 1.016-4.377 2.526zM13.308 24.421h-10.767c-1.418 0-2.541 1.131-2.541 2.526 0 1.405 1.138 2.526 2.541 2.526h10.767c0.874 1.51 2.506 2.526 4.377 2.526s3.503-1.016 4.377-2.526h4.030c1.418 0 2.541-1.131 2.541-2.526 0-1.405-1.138-2.526-2.541-2.526h-4.030c-0.874-1.51-2.506-2.526-4.377-2.526s-3.503 1.016-4.377 2.526zM14.075 26.947c0-1.993 1.616-3.609 3.609-3.609s3.609 1.616 3.609 3.609c0 1.993-1.616 3.609-3.609 3.609s-3.609-1.616-3.609-3.609zM17.444 5.053c0-1.993 1.616-3.609 3.609-3.609s3.609 1.616 3.609 3.609c0 1.993-1.616 3.609-3.609 3.609s-3.609-1.616-3.609-3.609zM5.654 16c0-1.993 1.616-3.609 3.609-3.609s3.609 1.616 3.609 3.609c0 1.993-1.616 3.609-3.609 3.609s-3.609-1.616-3.609-3.609z"></path>
</svg>
