<?xml version="1.0" encoding="utf-8"?>
<!-- Generated by IcoMoon.io -->
<!DOCTYPE svg PUBLIC "-//W3C//DTD SVG 1.1//EN" "http://www.w3.org/Graphics/SVG/1.1/DTD/svg11.dtd">
<svg version="1.1" xmlns="http://www.w3.org/2000/svg" xmlns:xlink="http://www.w3.org/1999/xlink" width="25" height="32" viewBox="0 0 25 32">
<path fill="#444444" d="M23.749 24.802c0.838 1.472 0.791 3.277-0.124 4.709s-2.588 2.321-4.367 2.321h-14.169c-1.779 0-3.453-0.889-4.368-2.321s-0.962-3.236-0.124-4.708l6.424-11.284v-9.746l-1.607-0.001c-1.086-0.026-1.959-0.86-1.959-1.885s0.873-1.859 1.959-1.885l13.467-0.001c1.11 0 2.010 0.845 2.010 1.886s-0.9 1.886-2.010 1.886h-1.556v9.746l6.424 11.283zM16.548 17.789h-8.751l-4.758 8.357c-0.385 0.675-0.363 1.491 0.057 2.148s1.176 1.059 1.992 1.059h14.169c0.816 0 1.573-0.402 1.992-1.059s0.441-1.472 0.056-2.148l-4.758-8.357zM16.244 25.025c-1.379 0.37-2.817-0.379-3.211-1.672s0.403-2.643 1.782-3.013c1.379-0.37 2.817 0.379 3.211 1.672s-0.403 2.643-1.782 3.013zM14.601 8.522c0.721-0.194 1.138-0.898 0.932-1.575s-0.958-1.067-1.678-0.874c-0.72 0.193-1.137 0.898-0.932 1.575s0.958 1.067 1.678 0.874zM12.441 15.698c0.861-0.231 1.359-1.073 1.113-1.881s-1.144-1.276-2.005-1.044c-0.861 0.231-1.36 1.073-1.113 1.882s1.144 1.276 2.005 1.044z"></path>
</svg>
