<?xml version="1.0" encoding="iso-8859-1"?>
<!-- Generator: Adobe Illustrator 16.0.0, SVG Export Plug-In . SVG Version: 6.00 Build 0)  -->
<!DOCTYPE svg PUBLIC "-//W3C//DTD SVG 1.1//EN" "http://www.w3.org/Graphics/SVG/1.1/DTD/svg11.dtd">
<svg version="1.1" xmlns="http://www.w3.org/2000/svg" xmlns:xlink="http://www.w3.org/1999/xlink" x="0px" y="0px"
	 width="130.285px" height="195px" viewBox="0 0 130.285 195" style="enable-background:new 0 0 130.285 195;" xml:space="preserve"
	>
<g id="geo_tag">
	<g id="location">
		<path d="M65.142,195C65.142,195,0,100.896,0,65C0,29.103,29.165,0,65.142,0c35.979,0,65.143,29.102,65.143,65
			C130.285,100.898,65.142,195,65.142,195z M65.142,19.5c-25.184,0-45.599,20.371-45.599,45.5s20.415,45.5,45.599,45.5
			s45.6-20.371,45.6-45.5S90.326,19.5,65.142,19.5z M65.142,97.5c-17.988,0-32.57-14.551-32.57-32.5c0-17.95,14.582-32.5,32.57-32.5
			c17.989,0,32.571,14.551,32.571,32.5S83.131,97.5,65.142,97.5z"/>
	</g>
</g>
<g id="Capa_1">
</g>
</svg>
