<?xml version="1.0" encoding="UTF-8" standalone="no"?>
<svg width="18px" height="18px" viewBox="0 0 18 18" version="1.1" xmlns="http://www.w3.org/2000/svg" xmlns:xlink="http://www.w3.org/1999/xlink" xmlns:sketch="http://www.bohemiancoding.com/sketch/ns">
    <!-- Generator: Sketch 3.4.4 (17249) - http://www.bohemiancoding.com/sketch -->
    <title>Oval 1084</title>
    <desc>Created with Sketch.</desc>
    <defs></defs>
    <g id="Page-1" stroke="none" stroke-width="1" fill="none" fill-rule="evenodd" sketch:type="MSPage">
        <g id="C-4-A@2x" sketch:type="MSArtboardGroup" transform="translate(-331.000000, -702.000000)" fill="#000000">
            <path d="M340,720 C344.970563,720 349,715.970563 349,711 C349,706.029437 344.970563,702 340,702 C335.029437,702 331,706.029437 331,711 C331,715.970563 335.029437,720 340,720 Z M339.999969,717 C339.999969,717 336,711.691569 336,709.666667 C336,707.641708 337.790843,706 339.999969,706 C342.209218,706 344,707.641651 344,709.666667 C344,711.691682 339.999969,717 339.999969,717 Z M339.999985,710.936238 C339.587009,710.936238 339.233763,710.792623 338.940305,710.505279 C338.646758,710.218078 338.5,709.87233 338.5,709.468148 C338.5,709.063995 338.646758,708.718303 338.940305,708.430959 C339.233763,708.143701 339.587009,708 339.999985,708 C340.412903,708 340.766149,708.143701 341.059666,708.430959 C341.353212,708.718303 341.5,709.063995 341.5,709.468148 C341.5,709.87233 341.353212,710.218078 341.059666,710.505365 C340.766149,710.792623 340.412903,710.936238 339.999985,710.936238 Z" id="Oval-1084" sketch:type="MSShapeGroup"></path>
        </g>
    </g>
</svg>