<?xml version="1.0" encoding="iso-8859-1"?>
<!-- Generator: Adobe Illustrator 16.0.0, SVG Export Plug-In . SVG Version: 6.00 Build 0)  -->
<!DOCTYPE svg PUBLIC "-//W3C//DTD SVG 1.1//EN" "http://www.w3.org/Graphics/SVG/1.1/DTD/svg11.dtd">
<svg version="1.1" xmlns="http://www.w3.org/2000/svg" xmlns:xlink="http://www.w3.org/1999/xlink" x="0px" y="0px" width="190px"
	 height="195.805px" viewBox="0 0 190 195.805" style="enable-background:new 0 0 190 195.805;" xml:space="preserve">
<g id="gift">
	<g id="gift_1_">
		<path d="M91.345,195.805v-70.477H8.521v63.206c0,4.017,3.244,7.271,7.246,7.271H91.345z M0,93.208
			c0,4.015,3.245,7.268,7.246,7.268h1.275v14.552h82.824V69.569H7.246C3.245,69.569,0,72.822,0,76.838V93.208z M34.796,12.847
			C11.075,52.929,64.015,61.87,90.668,63.856c-0.061,0.189-0.122,0.372-0.184,0.561c0,0,2.735,0.03,7.165-0.154
			c4.431,0.184,7.164,0.154,7.164,0.154c-0.061-0.189-0.121-0.372-0.183-0.561c26.653-1.986,79.593-10.927,55.871-51.009
			c0,0-31.762-44.348-62.854,31.749C66.559-31.5,34.796,12.847,34.796,12.847z M101.616,69.569v45.458h81.5v-14.568
			c3.832-0.191,6.884-3.358,6.884-7.25v-16.37c0-4.015-3.245-7.269-7.246-7.269H101.616z M101.616,125.329v70.476h74.253
			c4.003,0,7.247-3.254,7.247-7.27v-63.206H101.616z M58.7,30.802c0,0,8.45-21.013,34.027,26.899
			c-0.022,0.064-0.044,0.13-0.066,0.194C89.677,57.298,51.622,49.28,58.7,30.802z M136.598,30.802
			c7.367,19.228-34.152,27.131-34.152,27.131C128.122,9.716,136.598,30.802,136.598,30.802z"/>
	</g>
</g>
<g id="Capa_1">
</g>
</svg>
