<?xml version="1.0" encoding="UTF-8" standalone="no"?>
<svg width="50px" height="50px" viewBox="0 0 50 50" version="1.1" xmlns="http://www.w3.org/2000/svg" xmlns:xlink="http://www.w3.org/1999/xlink">
    <!-- Generator: Sketch 3.7.1 (28215) - http://www.bohemiancoding.com/sketch -->
    <title>Oval 28</title>
    <desc>Created with Sketch.</desc>
    <defs></defs>
    <g id="Page-1" stroke="none" stroke-width="1" fill="none" fill-rule="evenodd">
        <g id="new-copy-cleared@2x" transform="translate(-891.000000, -482.000000)" fill="#1E90FF">
            <g id="Group-3-Copy" transform="translate(879.000000, 290.000000)">
                <g id="Group-8" transform="translate(12.000000, 191.000000)">
                    <path d="M24.5380261,19.6054491 C16.0452714,20.3462264 9.375,27.7367281 9.375,36.7445007 C9.375,37.8513196 9.48602822,38.7539125 9.69668627,39.4848442 C11.0926613,32.0368099 17.1182439,26.30607 24.5380261,25.6512782 L24.5380261,19.6054491 Z M25,51 C38.8071187,51 50,39.8071187 50,26 C50,12.1928813 38.8071187,1 25,1 C11.1928813,1 0,12.1928813 0,26 C0,39.8071187 11.1928813,51 25,51 Z M24.5380261,30.0120961 L24.5380261,13.5 L36.9647344,21.756048 L24.5380261,30.0120961 Z" id="Oval-28"></path>
                </g>
            </g>
        </g>
    </g>
</svg>