<?xml version="1.0" encoding="UTF-8" standalone="no"?>
<svg width="16px" height="16px" viewBox="0 0 16 16" version="1.1" xmlns="http://www.w3.org/2000/svg" xmlns:xlink="http://www.w3.org/1999/xlink">
    <!-- Generator: Sketch 3.7.1 (28215) - http://www.bohemiancoding.com/sketch -->
    <title>Oval 28</title>
    <desc>Created with Sketch.</desc>
    <defs></defs>
    <g id="Page-1" stroke="none" stroke-width="1" fill="none" fill-rule="evenodd">
        <g id="new-copy-cleared@2x" transform="translate(-677.000000, -490.000000)" fill="#1E90FF">
            <path d="M684.852168,495.953744 C682.134487,496.190792 680,498.555753 680,501.43824 C680,501.792422 680.035529,502.081252 680.10294,502.31515 C680.549652,499.931779 682.477838,498.097942 684.852168,497.888409 L684.852168,495.953744 Z M685,506 C689.418278,506 693,502.418278 693,498 C693,493.581722 689.418278,490 685,490 C680.581722,490 677,493.581722 677,498 C677,502.418278 680.581722,506 685,506 Z M684.852168,499.283871 L684.852168,494 L688.828715,496.641935 L684.852168,499.283871 Z" id="Oval-28"></path>
        </g>
    </g>
</svg>