<?xml version="1.0" encoding="UTF-8" standalone="no"?>
<svg width="18px" height="18px" viewBox="0 0 18 18" version="1.1" xmlns="http://www.w3.org/2000/svg" xmlns:xlink="http://www.w3.org/1999/xlink" xmlns:sketch="http://www.bohemiancoding.com/sketch/ns">
    <!-- Generator: Sketch 3.2.2 (9983) - http://www.bohemiancoding.com/sketch -->
    <title>Oval 122 + Shape 3 + Shape 2</title>
    <desc>Created with Sketch.</desc>
    <defs></defs>
    <g id="Page-1" stroke="none" stroke-width="1" fill="none" fill-rule="evenodd" sketch:type="MSPage">
        <g id="Artboard-11" sketch:type="MSArtboardGroup" transform="translate(-656.000000, -52.000000)">
            <g id="Oval-122-+-Shape-3-+-Shape-2" sketch:type="MSLayerGroup" transform="translate(656.000000, 52.000000)">
                <path d="M9,18 C13.9705627,18 18,13.9705627 18,9 C18,4.02943725 13.9705627,0 9,0 C4.02943725,0 0,4.02943725 0,9 C0,13.9705627 4.02943725,18 9,18 Z M4.84681818,5.04193805 C4.78993939,4.84521239 4.56172727,4.72619469 4.33718182,4.77597345 C4.11254545,4.82585841 3.97666667,5.02576991 4.03357576,5.22254867 L6.77415152,14.6961239 C6.82230303,14.8626106 6.99306061,14.9734513 7.18048485,14.9734513 C7.21463636,14.9734513 7.24930303,14.9697611 7.28390909,14.9620885 C7.50842424,14.9122566 7.64436364,14.712292 7.58745455,14.5155664 L4.84681818,5.04193805 Z M13.9690909,7.71023894 C13.5224545,6.26538053 13.0753939,4.82062832 12.6286667,3.37576991 C12.5802424,3.21937168 12.4953636,3.05161062 12.1762727,3.03483186 C9.66451515,2.87546018 8.01524242,5.06692035 5.50345455,4.90752212 C5.30524242,4.88612389 5.17784848,4.97654867 5.22624242,5.1329469 C5.673,6.57777876 6.11630303,8.02348673 6.56663636,9.46744248 C6.63890909,9.69918584 6.82081818,9.78695575 7.01909091,9.80838053 C9.53081818,9.96777876 11.1801515,7.77631858 13.6919697,7.93571681 C13.8901515,7.95706195 14.0174848,7.86666372 13.9690909,7.71023894 Z M11.998,3.58027434 C12.1212121,3.97890265 12.2446061,4.37750442 12.3678182,4.77613274 C11.8394545,4.79137168 11.3731212,4.88476991 10.8789697,5.04700885 C10.7557879,4.64838053 10.6323939,4.24975221 10.5092121,3.85115044 C11.003303,3.6889646 11.4696364,3.59548673 11.998,3.58027434 Z M6.82212121,8.04947788 C6.68190909,7.59658407 6.54193939,7.14358407 6.40187879,6.69066372 C6.95727273,6.67656637 7.45009091,6.57111504 7.96557576,6.39260177 C7.84224242,5.99397345 7.7189697,5.59534513 7.59575758,5.19671681 C8.09966667,4.99938053 8.5749697,4.76312389 9.0509697,4.51911504 C9.17418182,4.91771681 9.29757576,5.31634513 9.42081818,5.71497345 C8.94478788,5.95895575 8.46945455,6.19529204 7.96557576,6.39260177 C8.10566667,6.84552212 8.24569697,7.29849558 8.38575758,7.75141593 C7.87024242,7.92990265 7.37748485,8.03535398 6.82212121,8.04947788 Z M8.7610303,8.96479646 C8.63590909,8.56035398 8.51084848,8.15585841 8.38575758,7.75136283 C8.88615152,7.55551327 9.35809091,7.32124779 9.83069697,7.0789646 C9.95578788,7.48346018 10.0808788,7.8879292 10.2059394,8.29242478 C9.73339394,8.53473451 9.26139394,8.7689469 8.7610303,8.96479646 Z M9.84090909,7.07376106 C9.70093939,6.62081416 9.56084848,6.16786726 9.42081818,5.71492035 C9.89675758,5.47146903 10.3724242,5.23850442 10.8789697,5.0470354 C11.0190909,5.49995575 11.1591515,5.95290265 11.2991818,6.40582301 C10.7927273,6.59734513 10.3169091,6.83028319 9.84090909,7.07376106 Z M11.6831818,7.61617699 C11.5580606,7.21173451 11.433,6.80723894 11.3078788,6.40274336 C11.7991212,6.24225664 12.2630606,6.14997345 12.7879697,6.13497345 C12.9130909,6.53946903 13.0381818,6.94393805 13.163303,7.34838053 C12.6383636,7.36340708 12.1743636,7.45566372 11.6831818,7.61617699 Z" id="Oval-122" fill="#626975" sketch:type="MSShapeGroup"></path>
                <g id="Shape-3-+-Shape-2" transform="translate(5.000000, 3.000000)"></g>
            </g>
        </g>
    </g>
</svg>