<?xml version="1.0" encoding="utf-8"?>
<!-- Generated by IcoMoon.io -->
<!DOCTYPE svg PUBLIC "-//W3C//DTD SVG 1.1//EN" "http://www.w3.org/Graphics/SVG/1.1/DTD/svg11.dtd">
<svg version="1.1" xmlns="http://www.w3.org/2000/svg" xmlns:xlink="http://www.w3.org/1999/xlink" width="35" height="32" viewBox="0 0 35 32">
<path fill="#444444" d="M22.445 15.151c1.745 0.549 3.051 1.909 3.543 3.606v0c0.321 0.068 0.655 0.103 0.996 0.103h2.414c2.653 0 4.801-2.154 4.801-4.81v-1.629c0-2.222-1.218-4.171-3.026-5.208v0c-0.686 0.911-1.767 1.499-2.983 1.499s-2.297-0.588-2.983-1.5c-0.974 0.559-1.778 1.382-2.312 2.373 0.299 0.722 0.463 1.513 0.463 2.342 0 1.182-0.335 2.286-0.915 3.225v0zM12.338 15.899c-2.402 1.333-4.024 3.894-4.024 6.833v2.997c0 2.676 2.149 4.815 4.799 4.815h7.88c2.656 0 4.799-2.156 4.799-4.815v-2.997c0-2.897-1.585-5.432-3.937-6.781-1.144 1.321-2.842 2.158-4.736 2.158-1.92 0-3.637-0.859-4.782-2.21v0zM28.101 7.694c1.867 0 3.38-1.539 3.38-3.438s-1.513-3.438-3.38-3.438c-1.867 0-3.38 1.539-3.38 3.438s1.513 3.438 3.38 3.438zM17.163 17.085c2.715 0 4.916-2.181 4.916-4.871s-2.201-4.871-4.916-4.871c-2.715 0-4.916 2.181-4.916 4.871s2.201 4.871 4.916 4.871z"></path>
<path fill="#444444" d="M9.21 7.404c1.097 0.629 1.977 1.593 2.499 2.753v0c-0.354 0.673-0.555 1.438-0.555 2.25 0 0.886 0.239 1.717 0.656 2.432-1.772 0.884-3.271 2.415-3.997 4.199v0c-0.125 0.010-0.252 0.015-0.379 0.015h-2.414c-2.653 0-4.801-2.154-4.801-4.81v-1.629c0-2.222 1.218-4.171 3.026-5.208 0.686 0.911 1.767 1.499 2.983 1.499s2.297-0.588 2.983-1.5v0zM6.304 7.887c-1.867 0-3.38-1.539-3.38-3.438s1.513-3.438 3.38-3.438c1.867 0 3.38 1.539 3.38 3.438s-1.513 3.438-3.38 3.438z"></path>
</svg>
