<?xml version="1.0" encoding="utf-8"?>
<!-- Generated by IcoMoon.io -->
<!DOCTYPE svg PUBLIC "-//W3C//DTD SVG 1.1//EN" "http://www.w3.org/Graphics/SVG/1.1/DTD/svg11.dtd">
<svg version="1.1" xmlns="http://www.w3.org/2000/svg" xmlns:xlink="http://www.w3.org/1999/xlink" width="39" height="32" viewBox="0 0 39 32">
<path fill="#444444" d="M13.506 18.613c-2.465 0.749-4.268 3.042-4.268 5.756v0.668c0 2.969 2.387 5.345 5.332 5.345h8.756c2.951 0 5.332-2.393 5.332-5.345v-0.668c0-2.709-1.798-5.007-4.267-5.756-0.991 1.985-3.056 3.351-5.443 3.351s-4.451-1.365-5.443-3.35v0zM27.594 7.338c-1.386 0.449-2.463 1.587-2.82 3.009v0c0.675 0.9 1.074 2.016 1.074 3.223 0 0.243-0.016 0.482-0.047 0.716 0.777 0.824 1.882 1.335 3.108 1.335h4.829c2.348 0 4.261-1.901 4.261-4.245 0-1.9-1.236-3.491-2.945-4.040-0.686 1.389-2.099 2.342-3.731 2.342s-3.044-0.952-3.73-2.34v0zM31.223 8.549c2.074 0 3.755-1.71 3.755-3.82s-1.681-3.82-3.755-3.82c-2.074 0-3.755 1.71-3.755 3.82s1.681 3.82 3.755 3.82zM19.070 20.761c3.017 0 5.462-2.423 5.462-5.412s-2.445-5.412-5.462-5.412c-3.017 0-5.462 2.423-5.462 5.412s2.445 5.412 5.462 5.412z"></path>
<path fill="#444444" d="M10.648 7.553c1.386 0.449 2.463 1.587 2.82 3.009v0c-0.675 0.9-1.074 2.016-1.074 3.223 0 0.243 0.016 0.482 0.047 0.716-0.777 0.824-1.882 1.335-3.108 1.335h-4.829c-2.348 0-4.261-1.901-4.261-4.245 0-1.9 1.236-3.491 2.945-4.040 0.686 1.389 2.099 2.342 3.731 2.342s3.044-0.952 3.73-2.34v0zM7.004 8.763c-2.074 0-3.755-1.71-3.755-3.82s1.681-3.82 3.755-3.82c2.074 0 3.755 1.71 3.755 3.82s-1.681 3.82-3.755 3.82z"></path>
</svg>
