<?xml version="1.0" encoding="UTF-8" standalone="no"?>
<svg width="26px" height="20px" viewBox="0 0 26 20" version="1.1" xmlns="http://www.w3.org/2000/svg" xmlns:xlink="http://www.w3.org/1999/xlink" xmlns:sketch="http://www.bohemiancoding.com/sketch/ns">
    <!-- Generator: Sketch 3.2.2 (9983) - http://www.bohemiancoding.com/sketch -->
    <title>mycommunity</title>
    <desc>Created with Sketch.</desc>
    <defs></defs>
    <g id="Page-1" stroke="none" stroke-width="1" fill="none" fill-rule="evenodd" sketch:type="MSPage">
        <g id="current-color" sketch:type="MSArtboardGroup" transform="translate(-11.000000, -31.000000)" fill="#444444">
            <g id="mycommunity" sketch:type="MSLayerGroup" transform="translate(11.796875, 31.000000)">
                <path d="M16.4254464,9.61266667 C17.7296875,9.91533333 18.7008929,10.8786667 19.0265625,12.1042222 L19.0265625,12.1042222 C19.1569196,12.1202222 19.2895089,12.1282222 19.4243304,12.1282222 L21.7649554,12.1282222 C23.534375,12.1282222 24.9839286,10.6924444 24.9839286,8.92155556 L24.9839286,7.98133333 C24.9839286,6.40666667 24.1002232,5.03333333 22.7995536,4.33133333 L22.7995536,4.33133333 C22.2997768,4.95711111 21.4982143,5.36266667 20.5946429,5.36266667 C19.6908482,5.36266667 18.8890625,4.95688889 18.3892857,4.33088889 C17.6944196,4.70555556 17.1185268,5.27177778 16.7328125,5.95866667 C16.946875,6.43644444 17.0649554,6.95888889 17.0649554,7.50622222 C17.0649554,8.276 16.8316964,8.99644444 16.4254464,9.61288889 L16.4254464,9.61288889 L16.4254464,9.61266667 Z M8.93392857,10.0664444 C7.23660714,10.9273333 6.07388393,12.6835556 6.07388393,14.7102222 L6.07388393,16.7082222 C6.07388393,18.492 7.51651786,19.9184444 9.29598214,19.9184444 L15.6203125,19.9184444 C17.4024554,19.9184444 18.8424107,18.4811111 18.8424107,16.7082222 L18.8424107,14.7102222 C18.8424107,12.7137778 17.7098214,10.9751111 16.0482143,10.1013333 C15.2125,11.0326667 13.9363839,11.628 12.5066964,11.628 C11.0591518,11.628 9.76897321,11.0177778 8.93415179,10.0664444 L8.93415179,10.0664444 L8.93392857,10.0664444 Z M20.528125,4.68488889 C21.8917411,4.68488889 22.9970982,3.65866667 22.9970982,2.39266667 C22.9970982,1.12666667 21.8917411,0.100444444 20.528125,0.100444444 C19.1645089,0.100444444 18.0591518,1.12666667 18.0591518,2.39266667 C18.0591518,3.65866667 19.1645089,4.68488889 20.528125,4.68488889 L20.528125,4.68488889 Z M12.5379464,10.9453333 C14.5212054,10.9453333 16.1290179,9.49133333 16.1290179,7.698 C16.1290179,5.90466667 14.5212054,4.45066667 12.5379464,4.45066667 C10.5546875,4.45066667 8.946875,5.90466667 8.946875,7.698 C8.946875,9.49133333 10.5546875,10.9453333 12.5379464,10.9453333 L12.5379464,10.9453333 Z" id="Shape" sketch:type="MSShapeGroup"></path>
                <path d="M6.75401786,4.45955556 C7.53415179,4.88 8.1640625,5.542 8.54352679,6.34511111 L8.54352679,6.34511111 C8.29129464,6.78933333 8.14888393,7.29311111 8.14888393,7.82666667 C8.14888393,8.38933333 8.30714286,8.91844444 8.58549107,9.38 C7.31629464,9.95733333 6.22433036,11.014 5.69665179,12.2571111 L5.69665179,12.2571111 L3.37857143,12.2571111 C1.60915179,12.2571111 0.159598214,10.8213333 0.159598214,9.05044444 L0.159598214,8.11022222 C0.159598214,6.53555556 1.04330357,5.16222222 2.34397321,4.46022222 C2.84375,5.086 3.6453125,5.49155556 4.54888393,5.49155556 C5.45267857,5.49155556 6.25446429,5.08577778 6.75424107,4.45977778 L6.75424107,4.45977778 L6.75401786,4.45955556 Z M4.60513393,4.81355556 C3.24151786,4.81355556 2.13616071,3.78733333 2.13616071,2.52133333 C2.13616071,1.25533333 3.24151786,0.229111111 4.60513393,0.229111111 C5.96875,0.229111111 7.07410714,1.25533333 7.07410714,2.52133333 C7.07410714,3.78733333 5.96875,4.81355556 4.60513393,4.81355556 L4.60513393,4.81355556 Z" id="Shape" sketch:type="MSShapeGroup"></path>
            </g>
        </g>
    </g>
</svg>