<?xml version="1.0" encoding="UTF-8" standalone="no"?>
<svg width="20px" height="21px" viewBox="0 0 20 21" version="1.1" xmlns="http://www.w3.org/2000/svg" xmlns:xlink="http://www.w3.org/1999/xlink" xmlns:sketch="http://www.bohemiancoding.com/sketch/ns">
    <!-- Generator: Sketch 3.4.2 (15855) - http://www.bohemiancoding.com/sketch -->
    <title>#</title>
    <desc>Created with Sketch.</desc>
    <defs></defs>
    <g id="Page-1" stroke="none" stroke-width="1" fill="none" fill-rule="evenodd" sketch:type="MSPage">
        <g id="source-cards@2x" sketch:type="MSArtboardGroup" transform="translate(-311.000000, -571.000000)" fill="#000000">
            <g id="source-reduced-4" sketch:type="MSLayerGroup" transform="translate(227.000000, 544.000000)">
                <path d="M97.2188841,28.3590139 C97.3190277,27.906007 97.5143047,27.5662569 97.804721,27.3397535 C98.0951374,27.11325 98.4005706,27 98.72103,27 C99.1015756,27 99.4420586,27.151 99.7424893,27.4530046 C100.04292,27.7550092 100.173105,28.1864379 100.133047,28.7473035 L99.8626609,30.7858243 C99.8226035,31.1309724 99.7925609,31.4491511 99.7725322,31.7403698 C99.7525035,32.0315885 99.7124467,32.3605529 99.6523605,32.7272727 L102.806867,32.7272727 C103.207441,32.8567033 103.512874,33.056239 103.723176,33.325886 C103.933477,33.5955329 104.038627,33.8813544 104.038627,34.183359 C104.038627,34.4853636 103.92847,34.7657922 103.708155,35.0246533 C103.487839,35.2835144 103.147356,35.4668716 102.686695,35.5747304 L99.2918455,35.5747304 C99.2517881,35.8767349 99.2117312,36.1841279 99.1716738,36.4969183 C99.1316164,36.8097088 99.0915596,37.1171017 99.0515021,37.4191063 C99.0114447,37.7642544 98.976395,38.0770402 98.9463519,38.357473 C98.9163089,38.6379059 98.8712449,38.9506916 98.8111588,39.2958398 L101.995708,39.2958398 C102.416311,39.446842 102.726752,39.6571635 102.927039,39.9268105 C103.127326,40.1964574 103.227468,40.4714932 103.227468,40.751926 C103.227468,41.0539306 103.117312,41.3397521 102.896996,41.6093991 C102.67668,41.879046 102.336197,42.0677961 101.875536,42.1756549 L98.4506438,42.1756549 C98.3505002,42.9306663 98.2553653,43.7018451 98.1652361,44.4892142 C98.0751068,45.2765833 97.9799719,46.047762 97.8798283,46.8027735 C97.7195986,47.2126369 97.4992861,47.5146369 97.2188841,47.7087827 C96.9384821,47.9029286 96.6580844,48 96.3776824,48 C96.0171656,48 95.696711,47.8705714 95.416309,47.6117103 C95.135907,47.3528492 94.9756797,46.9753492 94.9356223,46.4791988 L95.2060086,44.2465331 C95.246066,43.8798133 95.2861228,43.5346703 95.3261803,43.211094 C95.3662377,42.8875176 95.4163087,42.5423747 95.4763948,42.1756549 L91.0600858,42.1756549 L90.4291845,46.8027735 C90.2689548,47.2126369 90.0486423,47.5146369 89.7682403,47.7087827 C89.4878384,47.9029286 89.2074406,48 88.9270386,48 C88.5665218,48 88.2510743,47.8705714 87.9806867,47.6117103 C87.7102991,47.3528492 87.5550789,46.9753492 87.5150215,46.4791988 L87.7854077,44.2465331 C87.8254652,43.8798133 87.8605149,43.5346703 87.8905579,43.211094 C87.920601,42.8875176 87.9656649,42.5423747 88.0257511,42.1756549 L85.472103,42.1756549 C84.9713852,42.0893678 84.6008596,41.9060106 84.360515,41.6255778 C84.1201705,41.345145 84,41.0323592 84,40.6872111 C84,40.342063 84.1301847,40.0346701 84.3905579,39.7650231 C84.6509312,39.4953762 85.0414852,39.3389833 85.5622318,39.2958398 L88.416309,39.2958398 C88.4763952,38.9722634 88.5214591,38.6486919 88.5515021,38.3251156 C88.5815452,38.0015392 88.6165949,37.6779677 88.6566524,37.3543914 L88.8669528,35.5747304 L86.3733906,35.5747304 C85.8927015,35.4884433 85.5271829,35.310479 85.276824,35.040832 C85.0264651,34.7711851 84.9012876,34.4637922 84.9012876,34.1186441 C84.9012876,33.7519242 85.0314722,33.4391384 85.2918455,33.1802773 C85.5522188,32.9214163 85.9427728,32.7704162 86.4635193,32.7272727 L89.2274678,32.7272727 L89.4978541,30.624037 C89.5379115,30.2573171 89.5779683,29.8906028 89.6180258,29.5238829 C89.6580832,29.157163 89.7081542,28.779663 89.7682403,28.3913713 C89.8683839,27.9383645 90.0636609,27.5986144 90.3540773,27.3721109 C90.6444936,27.1456075 90.9499269,27.0323575 91.2703863,27.0323575 C91.6509318,27.0323575 91.9964219,27.1833575 92.306867,27.4853621 C92.617312,27.7873667 92.7525038,28.2295811 92.7124464,28.8120185 L92.2017167,32.7272727 L96.6180258,32.7272727 L97.2188841,28.3590139 Z M95.8669528,39.2958398 C95.9670964,38.7996894 96.0371958,38.3035464 96.0772532,37.807396 C96.1173106,37.3112456 96.1673817,36.8043169 96.2274678,36.2865948 L96.2875536,35.5747304 L91.8412017,35.5747304 L91.360515,39.2958398 L95.8669528,39.2958398 Z" id="#" sketch:type="MSShapeGroup"></path>
            </g>
        </g>
    </g>
</svg>