<?xml version="1.0" encoding="UTF-8" standalone="no"?>
<svg width="18px" height="18px" viewBox="0 0 18 18" version="1.1" xmlns="http://www.w3.org/2000/svg" xmlns:xlink="http://www.w3.org/1999/xlink" xmlns:sketch="http://www.bohemiancoding.com/sketch/ns">
    <!-- Generator: Sketch 3.3 (11970) - http://www.bohemiancoding.com/sketch -->
    <title>Shape</title>
    <desc>Created with Sketch.</desc>
    <defs></defs>
    <g id="Page-1" stroke="none" stroke-width="1" fill="none" fill-rule="evenodd" sketch:type="MSPage">
        <g id="settings-general@2x" sketch:type="MSArtboardGroup" transform="translate(-394.000000, -193.000000)" fill="#565656">
            <g id="help" sketch:type="MSLayerGroup" transform="translate(394.000000, 193.000000)">
                <g id="support" sketch:type="MSShapeGroup">
                    <g>
                        <path d="M17.8634681,10.2280408 L16.7777234,13.0859082 C16.6472234,13.4289184 16.2623298,13.6116735 15.8995532,13.5159796 C15.7767128,13.6518061 15.6316596,13.7613673 15.4681277,13.8345612 C15.2020532,13.9538571 14.9116596,13.9692857 14.652766,13.8791939 L14.6272979,13.8705612 L14.6252872,13.8705612 L14.5735851,13.8525612 C13.9791064,13.644551 13.6991489,12.9401633 13.9490426,12.2819694 L14.5036915,10.8215816 C14.364766,10.3469694 14.2548511,9.61135714 14.4358085,8.64633673 C14.4827234,8.40104082 14.5461064,8.16428571 14.6137021,7.9127449 C14.8353511,7.08355102 15.0651383,6.22662245 14.6506596,5.06865306 C14.360266,4.25929592 13.9996915,3.25221429 12.3637979,2.36791837 C10.1596596,1.17633673 7.38287234,1.6487449 6.11444681,2.36461224 C4.45902128,3.29813265 3.97215957,4.43442857 3.82902128,5.0292551 C3.49803191,6.41277551 3.74409574,7.56165306 4.02548936,8.61952041 C4.25020213,9.46441837 4.13904255,10.2218878 3.99217021,10.7382857 C4.12037234,11.0755102 4.57879787,12.2823367 4.57841489,12.2819694 C4.7115,12.6304898 4.70087234,13.0072041 4.55141489,13.3154082 C4.42675532,13.5710816 4.21401064,13.7617347 3.95214894,13.8533878 L3.88187234,13.8776327 L3.87775532,13.8791939 C3.61742553,13.9694694 3.32645745,13.9537653 3.05923404,13.8348367 C2.89665957,13.7620102 2.75160638,13.6526327 2.62838298,13.5166224 C2.47212766,13.5581327 2.30917021,13.5494082 2.15779787,13.4902653 C2.35790426,14.0396327 2.89981915,15.030551 4.32162766,15.7271327 C5.46319149,16.2869694 6.84382979,16.2828367 7.68264894,16.2097347 C7.8668617,15.7065612 8.3691383,15.3499592 8.93891489,15.3499592 C9.675,15.3499592 10.2736915,15.9241224 10.2736915,16.6296122 C10.2736915,17.3347347 9.67490426,17.9084388 8.93891489,17.9084388 C8.48001064,17.9084388 8.06342553,17.6839898 7.8201383,17.3229796 C6.84478723,17.4149082 5.18514894,17.4197755 3.69181915,16.6705714 C2.01437234,15.8302653 1.32759574,14.4864184 1.07291489,13.7922245 C1.01632979,13.7662347 0.963574468,13.7319796 0.923265957,13.6829388 C0.923265957,13.6829388 0.538851064,13.2097959 0.536744681,13.206949 C0.513478723,13.1776531 0.494521277,13.1452347 0.473265957,13.0940816 C0.420031915,12.9502653 0.235723404,12.4499388 0.134904255,12.0627551 C0.031212766,11.667949 0.135095745,11.2731429 0.41562766,10.9622755 C0.447414894,10.7348878 0.548617021,10.5250408 0.716170213,10.3628571 L0.665042553,10.2280408 C0.534734043,9.88429592 0.708414894,9.5067551 1.05089362,9.35788776 C1.0602766,8.87473469 1.3311383,8.46220408 1.76179787,8.31186735 C1.76179787,8.31186735 1.83360638,8.28587755 1.80718085,8.29717347 L1.82307447,8.28964286 L1.8405,8.28321429 C2.13903191,8.18026531 2.46073404,8.22195918 2.73887234,8.37202041 C2.48141489,7.47973469 2.11557447,5.88765306 2.62838298,4.3497551 C2.63460638,4.329 2.64207447,4.31237755 2.64044681,4.32229592 C2.77946809,3.82702041 3.37969149,2.12344898 5.30119149,0.99 C5.34140426,0.966306122 9.41792553,-1.37488776 13.5443298,1.22776531 C14.930617,2.10296939 15.6532979,3.73784694 15.8625,4.57135714 C15.8625,4.57135714 15.8782979,4.64188776 15.8773404,4.653 L15.8769574,4.6540102 C16.3321277,6.22873469 15.9347872,7.5617449 15.6568404,8.45944898 C15.9625532,8.24390816 16.3411277,8.16382653 16.6907872,8.28486735 L16.7645106,8.31094898 C17.0254149,8.40195918 17.2371064,8.59261224 17.3615745,8.84782653 C17.4375957,9.00358163 17.4753191,9.17733673 17.4786702,9.35816327 C17.8195213,9.50657143 17.9932021,9.88356122 17.8634681,10.2280408 L17.8634681,10.2280408 Z" id="Shape"></path>
                    </g>
                </g>
            </g>
        </g>
    </g>
</svg>