<?xml version="1.0" encoding="utf-8"?>
<!-- Generated by IcoMoon.io -->
<!DOCTYPE svg PUBLIC "-//W3C//DTD SVG 1.1//EN" "http://www.w3.org/Graphics/SVG/1.1/DTD/svg11.dtd">
<svg version="1.1" xmlns="http://www.w3.org/2000/svg" xmlns:xlink="http://www.w3.org/1999/xlink" width="64" height="64" viewBox="0 0 64 64">
<path fill="#96a4aa" d="M59.84 16.523c-5.726-10.598-19.769-12.314-27.945-2.503-8.177-9.811-22.215-8.094-27.945 2.503-6.746 12.48 2.184 28.555 27.143 41.167l0.794 0.399 0.794-0.399c24.968-12.608 33.905-28.683 27.159-41.167zM31.891 56.113c-53.854-27.2-17.039-60.834-1.096-40.614 0.128 0.162 0.252 0.339 0.377 0.508 0.237 0.324 0.489 0.617 0.719 0.968 0.23-0.35 0.478-0.644 0.719-0.968 0.124-0.169 0.252-0.346 0.38-0.512 15.944-20.216 52.762 13.417-1.099 40.617z"></path>
</svg>
