<?xml version="1.0" encoding="utf-8"?>
<!-- Generated by IcoMoon.io -->
<!DOCTYPE svg PUBLIC "-//W3C//DTD SVG 1.1//EN" "http://www.w3.org/Graphics/SVG/1.1/DTD/svg11.dtd">
<svg version="1.1" xmlns="http://www.w3.org/2000/svg" xmlns:xlink="http://www.w3.org/1999/xlink" width="32" height="32" viewBox="0 0 32 32">
<path fill="#cd1076" d="M21.979 6.395c2.535 0 4.81 1.824 5.41 4.34 0.418 1.755 0.778 7.896-11.629 14.41-12.408-6.515-12.045-12.657-11.628-14.41 0.598-2.515 2.875-4.34 5.41-4.34 1.878 0 3.586 1.029 4.808 2.9l1.41 2.152 1.408-2.152c1.226-1.869 2.934-2.9 4.812-2.9zM21.979 4.711c-2.232 0-4.537 1.093-6.22 3.661-1.681-2.567-3.988-3.661-6.218-3.661-7.424 0-13.996 12.118 6.218 22.328 20.214-10.208 13.642-22.328 6.22-22.328v0z"></path>
</svg>
