<?xml version="1.0" encoding="utf-8"?>
<!-- Generated by IcoMoon.io -->
<!DOCTYPE svg PUBLIC "-//W3C//DTD SVG 1.1//EN" "http://www.w3.org/Graphics/SVG/1.1/DTD/svg11.dtd">
<svg version="1.1" xmlns="http://www.w3.org/2000/svg" xmlns:xlink="http://www.w3.org/1999/xlink" width="32" height="32" viewBox="0 0 32 32">
<path fill="#444444" d="M22.569 5.321l-5.095-4.085c-0.731-0.586-1.96-0.562-2.658-0.013l-14.092 11.087c-0.774 0.609-0.942 1.739-0.358 2.545l0.554 0.765c0.577 0.796 1.671 0.949 2.446 0.339l0.2-0.158v12.914c0 0.972 0 2.558 0 3.284v-1.524c0 0.842 0.799 1.524 1.462 1.524h-1.462c0.807 0 2.242 0 3.256 0h18.337c0.991 0 2.594 0 3.256 0h-1.462c0.807 0 1.462-0.798 1.462-1.524v1.524c0-0.842 0-2.313 0-3.284v-12.938l0.211 0.169c0.76 0.609 1.842 0.472 2.433-0.329l0.56-0.759c0.584-0.791 0.442-1.925-0.319-2.535l-4.346-3.485v-7.075c0-0.974-0.804-1.763-1.784-1.763h-0.818c-0.985 0-1.784 0.779-1.784 1.763v3.559zM25.539 13.471c-0.031 0.13-0.047 0.265-0.047 0.404v14.841c0 0.972 0.561 1.176 1.233 0.475l0.228-0.238h-21.926l1.462 1.524v-16.601c0-0.119-0.012-0.234-0.035-0.346l11.003-8.657-2.658-0.013 10.739 8.611z"></path>
</svg>
