<?xml version="1.0" encoding="UTF-8"?>
<svg width="17px" height="16px" viewBox="0 0 17 16" version="1.1" xmlns="http://www.w3.org/2000/svg" xmlns:xlink="http://www.w3.org/1999/xlink">
    <!-- Generator: Sketch 46.2 (44496) - http://www.bohemiancoding.com/sketch -->
    <title>37-megaphone-news-media-communication-outline</title>
    <desc>Created with Sketch.</desc>
    <defs></defs>
    <g id="Page-1" stroke="none" stroke-width="1" fill="none" fill-rule="evenodd">
        <g id="37-megaphone-news-media-communication-outline" transform="translate(1.000000, 0.000000)" fill-rule="nonzero" fill="#A0ACB2">
            <path d="M7.26473378,1.9 L13.2241069,0.105457415 L13.2241069,10.6922479 L7.20101791,8.9 L-0.500031034,8.9 L-0.500031034,1.9 L7.26473378,1.9 Z M12.2241069,1.45094259 L7.4825527,2.87876406 L7.33838276,2.9 L0.499968966,2.9 L0.499968966,7.9 L7.27383103,7.9 L7.41643312,7.92076661 L12.2241069,9.35135205 L12.2241069,1.45094259 Z" id="Stroke-516"></path>
            <path d="M13.3448276,3.4 C14.4741102,3.4 15.3965517,4.29169351 15.3965517,5.4 C15.3965517,6.50830649 14.4741102,7.4 13.3448276,7.4 L12.2241379,7.4 L12.2241379,3.4 L13.3448276,3.4 Z M13.3448276,6.4 C13.9292691,6.4 14.3965517,5.94829351 14.3965517,5.4 C14.3965517,4.85170649 13.9292691,4.4 13.3448276,4.4 L13.2241379,4.4 L13.2241379,6.4 L13.3448276,6.4 Z" id="Stroke-518"></path>
            <path d="M4.29336008,14.5 L6.13662027,8.9 L4.70663992,8.9 L2.86337973,14.5 L4.29336008,14.5 Z M1.48144785,15.5 L3.98301525,7.9 L7.51855215,7.9 L5.01698475,15.5 L1.48144785,15.5 Z" id="Stroke-519"></path>
            <path d="M5.77452264,10 L7.63783793,10 L7.63783793,13.4 L4.65560022,13.4 L5.77452264,10 Z M6.03745495,12.4 L6.63783793,12.4 L6.63783793,11 L6.49818771,11 L6.03745495,12.4 Z" id="Stroke-520"></path>
            <path d="M0.849998474,7.4 L0.849998474,3.4 L4.95344675,3.4 L4.95344675,7.4 L0.849998474,7.4 Z M3.95344675,6.4 L3.95344675,4.4 L1.84999847,4.4 L1.84999847,6.4 L3.95344675,6.4 Z" id="Stroke-521"></path>
        </g>
    </g>
</svg>