<?xml version="1.0" encoding="UTF-8" standalone="no"?>
<svg width="13px" height="14px" viewBox="0 0 13 14" version="1.1" xmlns="http://www.w3.org/2000/svg" xmlns:xlink="http://www.w3.org/1999/xlink" xmlns:sketch="http://www.bohemiancoding.com/sketch/ns">
    <!-- Generator: Sketch 3.3 (11970) - http://www.bohemiancoding.com/sketch -->
    <title>ads 2</title>
    <desc>Created with Sketch.</desc>
    <defs></defs>
    <g id="Page-1" stroke="none" stroke-width="1" fill="none" fill-rule="evenodd" sketch:type="MSPage">
        <g id="TL-icons" sketch:type="MSArtboardGroup" transform="translate(-24.000000, -221.000000)" fill="#565656">
            <g id="Rectangle-179-+-Group" sketch:type="MSLayerGroup" transform="translate(23.000000, 22.000000)">
                <g id="Group" transform="translate(1.000000, 1.000000)" sketch:type="MSShapeGroup">
                    <path d="M10.7288722,199.700477 L3.2987493,201.129092 C2.78420422,201.228026 2.372613,201.693927 2.3180399,202.202059 L2.3180399,202.202059 L2.31189249,202.181965 L1.05838079,202.422982 C0.500132129,202.530318 0.0673645689,203.064098 0.0673645689,203.619905 L0.0673645689,204.843874 C0.0673645689,205.400199 0.513408491,205.914573 1.06363155,205.993918 L2.31189248,206.173924 L2.31189248,206.786135 L0.933203294,209.364213 C0.766950957,209.675096 0.839152966,210.100125 1.09901083,210.305053 L2.51100664,211.418572 C2.77270571,211.624951 3.11794278,211.534524 3.28622767,211.21984 L4.85745339,208.281729 L4.85745339,208.281729 L10.7288722,209.410647 L10.7288722,209.738593 C10.7288722,210.09363 12.1023635,210.381664 12.4122681,210.381664 C12.4122681,210.381664 12.8497786,210.381664 12.8526278,204.666497 C12.855477,198.951329 12.4122681,198.72946 12.4122681,198.72946 C12.1002029,198.72946 10.7288722,199.017372 10.7288722,199.372531 L10.7288722,199.700477 Z M10.7288722,200.794042 L3.3903763,202.046481 C3.08231594,202.099057 2.86903182,202.443536 2.91216221,202.816209 L2.99025669,203.490993 L10.7288722,202.170267 L10.7288722,200.794042 Z" id="ads-2"></path>
                </g>
            </g>
        </g>
    </g>
</svg>