<?xml version="1.0" encoding="UTF-8" standalone="no"?>
<svg width="18px" height="18px" viewBox="0 0 18 18" version="1.1" xmlns="http://www.w3.org/2000/svg" xmlns:xlink="http://www.w3.org/1999/xlink" xmlns:sketch="http://www.bohemiancoding.com/sketch/ns">
    <!-- Generator: Sketch 3.2.2 (9983) - http://www.bohemiancoding.com/sketch -->
    <title>bttt</title>
    <desc>Created with Sketch.</desc>
    <defs></defs>
    <g id="Page-1" stroke="none" stroke-width="1" fill="none" fill-rule="evenodd" sketch:type="MSPage">
        <g id="better-sidebar-detail-twitter@2x" sketch:type="MSArtboardGroup" transform="translate(-651.000000, -263.000000)" fill="#565656">
            <g id="Group" sketch:type="MSLayerGroup" transform="translate(641.000000, 118.000000)">
                <path d="M26.6006598,154.828625 C26.6006598,150.315699 22.8844755,146.65725 18.3003299,146.65725 C13.7161843,146.65725 10,150.315699 10,154.828625 C10,159.341551 13.7161843,163 18.3003299,163 C22.8844755,163 26.6006598,159.341551 26.6006598,154.828625 Z M25.691139,148.851488 L26.3407887,149.522271 C26.7088548,149.90231 27.3216296,149.904606 27.6982066,149.515778 C28.077409,149.12424 28.0775988,148.499444 27.7044946,148.114203 L24.9645066,145.285081 C24.5964405,144.905041 23.9836658,144.902746 23.6070888,145.291574 C23.2278863,145.683112 23.2276965,146.307908 23.6008007,146.693149 L24.3274331,147.443419 L23.2891392,148.51549 C22.9031997,148.913984 22.906174,149.541327 23.282751,149.930154 C23.6619534,150.321692 24.2727401,150.316028 24.6528452,149.923558 L25.691139,148.851488 Z M12.0108267,154.888161 C12.0108267,151.378108 14.9011923,148.532647 18.4666389,148.532647 C22.0320854,148.532647 24.922451,151.378108 24.922451,154.888161 C24.922451,158.398215 22.0320854,161.243675 18.4666389,161.243675 C14.9011923,161.243675 12.0108267,158.398215 12.0108267,154.888161 Z M18.5769963,149.294363 C15.5208992,149.294363 13.043443,151.733329 13.043443,154.741946 C13.043443,157.750563 15.5208992,160.189529 18.5769963,160.189529 C21.6330934,160.189529 24.1105495,157.750563 24.1105495,154.741946 L18.5769963,154.741946 L18.5769963,149.294363 Z" id="bttt" sketch:type="MSShapeGroup"></path>
            </g>
        </g>
    </g>
</svg>