<?xml version="1.0" encoding="UTF-8" standalone="no"?>
<svg width="19px" height="19px" viewBox="0 0 19 19" version="1.1" xmlns="http://www.w3.org/2000/svg" xmlns:xlink="http://www.w3.org/1999/xlink" xmlns:sketch="http://www.bohemiancoding.com/sketch/ns">
    <!-- Generator: Sketch 3.2.2 (9983) - http://www.bohemiancoding.com/sketch -->
    <title>Oval 956 + i</title>
    <desc>Created with Sketch.</desc>
    <defs></defs>
    <g id="Page-1" stroke="none" stroke-width="1" fill="none" fill-rule="evenodd" sketch:type="MSPage">
        <g id="better-sidebar-detail-igram@2x" sketch:type="MSArtboardGroup" transform="translate(-233.000000, -220.000000)">
            <g id="Group" sketch:type="MSLayerGroup">
                <g id="Oval-956-+-i" transform="translate(233.000000, 220.000000)" sketch:type="MSShapeGroup">
                    <circle id="Oval-956" fill="#565656" cx="9.5" cy="9.5" r="9.5"></circle>
                    <path d="M10.6953125,6.47070312 C10.6953125,6.77539215 10.5908214,7.03222552 10.3818359,7.24121094 C10.1728505,7.45019636 9.91601715,7.5546875 9.61132812,7.5546875 C9.31054537,7.5546875 9.05566511,7.4492198 8.84667969,7.23828125 C8.63769427,7.0273427 8.53320312,6.77148588 8.53320312,6.47070312 C8.53320312,6.16992037 8.63769427,5.91504011 8.84667969,5.70605469 C9.05566511,5.49706927 9.31054537,5.39257812 9.61132812,5.39257812 C9.91211088,5.39257812 10.1679677,5.49706927 10.3789062,5.70605469 C10.5898448,5.91504011 10.6953125,6.16992037 10.6953125,6.47070312 L10.6953125,6.47070312 Z M10.5722656,14 L8.65039062,14 L8.65039062,8.5625 L10.5722656,8.5625 L10.5722656,14 Z" id="i" fill="#FFFFFF"></path>
                </g>
            </g>
        </g>
    </g>
</svg>