<?xml version="1.0" encoding="iso-8859-1"?>
<!-- Generator: Adobe Illustrator 16.0.0, SVG Export Plug-In . SVG Version: 6.00 Build 0)  -->
<!DOCTYPE svg PUBLIC "-//W3C//DTD SVG 1.1//EN" "http://www.w3.org/Graphics/SVG/1.1/DTD/svg11.dtd">
<svg version="1.1" xmlns="http://www.w3.org/2000/svg" xmlns:xlink="http://www.w3.org/1999/xlink" x="0px" y="0px" width="190px"
	 height="190px" viewBox="0 0 190 190" style="enable-background:new 0 0 190 190;" xml:space="preserve">
<g id="instagram_rounded">
	<g id="instagram_rounded_1_">
		<g>
			<g>
				<path d="M136.546,98.664c0,6.828-1.735,13.129-5.202,18.9c-3.47,5.771-8.185,10.338-14.146,13.696
					c-5.962,3.361-12.466,5.041-19.511,5.041c-10.678,0-19.81-3.671-27.396-11.016s-11.38-16.22-11.38-26.623
					c0-3.685,0.542-7.236,1.626-10.65H49.075v52.676c0,1.41,0.474,2.59,1.422,3.537c0.948,0.948,2.126,1.424,3.536,1.424h86.902
					c1.354,0,2.52-0.476,3.496-1.424c0.975-0.947,1.463-2.127,1.463-3.537V88.014H134.92
					C136.004,91.428,136.546,94.979,136.546,98.664z M140.285,49.075h-14.145c-1.574,0-2.9,0.556-3.983,1.667
					c-1.085,1.111-1.626,2.426-1.626,3.943v13.413c0,1.572,0.541,2.901,1.626,3.983c1.083,1.085,2.409,1.625,3.983,1.625h14.145
					c1.57,0,2.898-0.54,3.982-1.625c1.084-1.083,1.627-2.411,1.627-3.983V54.684c0-1.517-0.543-2.832-1.627-3.943
					C143.186,49.63,141.855,49.075,140.285,49.075z M97.688,121.669c6.938,0,12.857-2.369,17.764-7.112
					c4.904-4.74,7.355-10.474,7.355-17.193c0-6.718-2.451-12.45-7.355-17.193c-4.905-4.742-10.825-7.112-17.764-7.112
					c-6.882,0-12.776,2.371-17.681,7.112c-4.906,4.743-7.357,10.475-7.357,17.193c0,6.721,2.451,12.453,7.357,17.193
					C84.91,119.3,90.805,121.669,97.688,121.669z M95,0C42.533,0,0,42.533,0,95s42.533,95,95,95s95-42.533,95-95S147.467,0,95,0z
					 M160.04,144.025c0,4.39-1.573,8.156-4.716,11.3c-3.145,3.142-6.91,4.715-11.301,4.715H51.188c-4.39,0-8.157-1.573-11.3-4.715
					c-3.144-3.144-4.715-6.91-4.715-11.3V51.188c0-4.389,1.571-8.155,4.715-11.3c3.143-3.142,6.91-4.714,11.3-4.714h92.835
					c4.391,0,8.156,1.572,11.301,4.714c3.143,3.145,4.716,6.911,4.716,11.3V144.025L160.04,144.025z"/>
			</g>
		</g>
	</g>
</g>
<g id="Capa_1">
</g>
</svg>
