<?xml version="1.0" encoding="iso-8859-1"?>
<!-- Generator: Adobe Illustrator 16.0.0, SVG Export Plug-In . SVG Version: 6.00 Build 0)  -->
<!DOCTYPE svg PUBLIC "-//W3C//DTD SVG 1.1//EN" "http://www.w3.org/Graphics/SVG/1.1/DTD/svg11.dtd">
<svg version="1.1" xmlns="http://www.w3.org/2000/svg" xmlns:xlink="http://www.w3.org/1999/xlink" x="0px" y="0px" width="190px"
	 height="190px" viewBox="0 0 190 190" style="enable-background:new 0 0 190 190;" xml:space="preserve">
<g id="instagram">
	<g id="instagram_1_">
		<path d="M166.25,165.939c-1.484,1.444-3.259,2.166-5.318,2.166H28.697c-2.145,0-3.939-0.722-5.38-2.166
			c-1.444-1.44-2.166-3.234-2.166-5.381V80.404h17.442c-1.651,5.194-2.475,10.597-2.475,16.204c0,15.834,5.772,29.338,17.318,40.512
			c11.545,11.175,25.439,16.761,41.687,16.761c10.72,0,20.613-2.556,29.688-7.669c9.07-5.111,16.244-12.061,21.523-20.843
			c5.275-8.783,7.916-18.369,7.916-28.761c0-5.606-0.825-11.009-2.475-16.204h16.699v80.155
			C168.477,162.705,167.734,164.499,166.25,165.939z M95.124,131.614c-10.474,0-19.442-3.606-26.905-10.823
			c-7.464-7.215-11.194-15.936-11.194-26.162c0-10.224,3.73-18.945,11.194-26.162c7.463-7.216,16.432-10.824,26.905-10.824
			c10.554,0,19.562,3.608,27.026,10.824c7.463,7.217,11.195,15.938,11.195,26.162c0,10.227-3.731,18.947-11.195,26.162
			C114.688,128.008,105.678,131.614,95.124,131.614L95.124,131.614z M166.003,56.159c-1.651,1.651-3.671,2.474-6.062,2.474h-21.523
			c-2.395,0-4.414-0.823-6.062-2.474c-1.649-1.648-2.474-3.668-2.474-6.061v-20.41c0-2.308,0.823-4.308,2.474-6
			c1.647-1.688,3.668-2.536,6.062-2.536h21.523c2.391,0,4.41,0.847,6.062,2.536c1.647,1.691,2.474,3.691,2.474,6v20.41
			C168.477,52.49,167.65,54.51,166.003,56.159z M182.825,7.174C178.042,2.393,172.311,0,165.632,0H24.368
			C17.689,0,11.956,2.393,7.174,7.174C2.391,11.958,0,17.689,0,24.369v141.263c0,6.681,2.391,12.41,7.174,17.193
			c4.782,4.78,10.514,7.175,17.194,7.175h141.264c6.679,0,12.41-2.395,17.193-7.175c4.78-4.783,7.175-10.515,7.175-17.193V24.369
			C190,17.689,187.605,11.958,182.825,7.174z"/>
	</g>
</g>
<g id="Capa_1">
</g>
</svg>
