<?xml version="1.0" encoding="UTF-8" standalone="no"?>
<svg width="5px" height="18px" viewBox="0 0 5 18" version="1.1" xmlns="http://www.w3.org/2000/svg" xmlns:xlink="http://www.w3.org/1999/xlink" xmlns:sketch="http://www.bohemiancoding.com/sketch/ns">
    <!-- Generator: Sketch 3.4.4 (17249) - http://www.bohemiancoding.com/sketch -->
    <title>kebab copy</title>
    <desc>Created with Sketch.</desc>
    <defs></defs>
    <g id="Page-1" stroke="none" stroke-width="1" fill="none" fill-rule="evenodd" sketch:type="MSPage">
        <g id="filter-concept" sketch:type="MSArtboardGroup" transform="translate(-1191.000000, -262.000000)" fill="#565656">
            <path d="M1193.5,266.736842 C1194.88071,266.736842 1196,265.676464 1196,264.368421 C1196,263.060378 1194.88071,262 1193.5,262 C1192.11929,262 1191,263.060378 1191,264.368421 C1191,265.676464 1192.11929,266.736842 1193.5,266.736842 Z M1193.5,273.368421 C1194.88071,273.368421 1196,272.308043 1196,271 C1196,269.691957 1194.88071,268.631579 1193.5,268.631579 C1192.11929,268.631579 1191,269.691957 1191,271 C1191,272.308043 1192.11929,273.368421 1193.5,273.368421 Z M1193.5,280 C1194.88071,280 1196,278.939622 1196,277.631579 C1196,276.323536 1194.88071,275.263158 1193.5,275.263158 C1192.11929,275.263158 1191,276.323536 1191,277.631579 C1191,278.939622 1192.11929,280 1193.5,280 Z" id="kebab-copy" sketch:type="MSShapeGroup"></path>
        </g>
    </g>
</svg>