<?xml version="1.0" encoding="UTF-8" standalone="no"?>
<svg width="20px" height="18px" viewBox="0 0 20 18" version="1.1" xmlns="http://www.w3.org/2000/svg" xmlns:xlink="http://www.w3.org/1999/xlink" xmlns:sketch="http://www.bohemiancoding.com/sketch/ns">
    <!-- Generator: Sketch 3.2.2 (9983) - http://www.bohemiancoding.com/sketch -->
    <title>Rectangle 121</title>
    <desc>Created with Sketch.</desc>
    <defs></defs>
    <g id="Page-1" stroke="none" stroke-width="1" fill="none" fill-rule="evenodd" sketch:type="MSPage">
        <g id="better-sidebar-detail-twitter@2x" sketch:type="MSArtboardGroup" transform="translate(-231.000000, -290.000000)" fill="#565656">
            <g id="Rectangle-121" sketch:type="MSLayerGroup" transform="translate(231.000000, 290.000000)">
                <path d="M6.75555278e-18,3.00646074 C8.17716271e-18,1.34603832 1.34331197,0 2.99420208,0 L17.0057979,0 C18.6594501,0 20,1.33616905 20,3.00646074 L20,9.89124247 C20,10.4466302 19.6396085,11.1496655 19.1884599,11.4661335 L9.87394958,18 L0.808026736,11.4781407 C0.361765892,11.1571088 3.7728667e-19,10.4561949 8.60984078e-19,9.89124247 L6.75555278e-18,3.00646074 Z M4.86554622,3.48602781 L6.70570972,3.48602781 L6.70570972,7.01827406 L10.3738904,3.48602781 L12.6999057,3.48602781 L9.01957867,6.90914775 L13.0339287,11.9461883 L10.7564987,11.9461883 L7.72599839,8.05210223 L6.70570972,8.9710606 L6.70570972,11.9461883 L4.86554622,11.9461883 L4.86554622,3.48602781 Z M15.7371588,7.35386505 L15.7371588,8.57601561 L15.334459,8.57601561 C14.9831658,8.57601561 14.7196999,8.66105778 14.5440533,8.83114468 C14.3684068,9.00123158 14.2805848,9.2536148 14.2805848,9.58830192 L14.2805848,11.9461883 L13.0339287,11.9461883 L13.0339287,7.47319962 L14.1820518,7.47319962 L14.1820518,8.27150672 C14.3676946,7.94230627 14.5676145,7.70569699 14.7818176,7.5616718 C14.9960208,7.4176466 15.2587727,7.34563508 15.5700812,7.34563508 C15.5872175,7.34563508 15.6150635,7.34700673 15.65362,7.34975007 C15.6921766,7.35249341 15.7200226,7.35386505 15.7371588,7.35386505 Z" id="Rectangle-120" sketch:type="MSShapeGroup"></path>
            </g>
        </g>
    </g>
</svg>