<?xml version="1.0" encoding="utf-8"?>
<!-- Generated by IcoMoon.io -->
<!DOCTYPE svg PUBLIC "-//W3C//DTD SVG 1.1//EN" "http://www.w3.org/Graphics/SVG/1.1/DTD/svg11.dtd">
<svg version="1.1" xmlns="http://www.w3.org/2000/svg" xmlns:xlink="http://www.w3.org/1999/xlink" width="32" height="32" viewBox="0 0 32 32">
<path fill="#444444" d="M16 32c8.837 0 16-7.163 16-16s-7.163-16-16-16c-8.837 0-16 7.163-16 16s7.163 16 16 16zM9.693 22.364c0 0.039 0.001 0.069 0.001 0.088 0 0.012-0.002 0.022-0.002 0.034 0.027 0.653 0.577 1.176 1.249 1.176h11.118v-1.198c0-0.239 0.199-0.434 0.443-0.434s0.443 0.195 0.443 0.434v1.631c0 0.24-0.198 0.434-0.443 0.434h-11.629c-0.023 0-0.045-0.003-0.067-0.006-1.116-0.069-2.004-0.977-2.004-2.086 0-0.025 0.003-0.050 0.004-0.075-0.014-1.287 0-11.080 0.001-12.145-0.002-0.016-0.004-0.030-0.004-0.046 0-1.153 0.96-2.092 2.138-2.092h0.003v10.074c0 0.116 0.040 0.222 0.103 0.275 0.064 0.054 0.14 0.044 0.198-0.022l1.558-1.8 1.475 1.796c0.034 0.040 0.074 0.061 0.114 0.061 0.029 0 0.060-0.011 0.086-0.033 0.065-0.053 0.106-0.16 0.106-0.277v-10.073h7.918c0.245 0 0.443 0.195 0.443 0.434v12.253c0 0.239-0.198 0.434-0.443 0.434-0.003 0-0.005-0.001-0.007-0.001-0.034 0.007-0.067 0.013-0.102 0.013h-11.452c-0.665 0-1.21 0.511-1.248 1.154z"></path>
</svg>
