<?xml version="1.0" encoding="UTF-8" standalone="no"?>
<svg width="18px" height="18px" viewBox="0 0 18 18" version="1.1" xmlns="http://www.w3.org/2000/svg" xmlns:xlink="http://www.w3.org/1999/xlink" xmlns:sketch="http://www.bohemiancoding.com/sketch/ns">
    <!-- Generator: Sketch 3.4.4 (17249) - http://www.bohemiancoding.com/sketch -->
    <title>Oval 1090</title>
    <desc>Created with Sketch.</desc>
    <defs></defs>
    <g id="Page-1" stroke="none" stroke-width="1" fill="none" fill-rule="evenodd" sketch:type="MSPage">
        <g id="C-4-A@2x" sketch:type="MSArtboardGroup" transform="translate(-400.000000, -725.000000)" fill="#000000">
            <path d="M409,743 C413.970563,743 418,738.970563 418,734 C418,729.029437 413.970563,725 409,725 C404.029437,725 400,729.029437 400,734 C400,738.970563 404.029437,743 409,743 Z M411.636695,733.954286 L409.001086,739 L406.387577,733.954286 L411.636695,733.954286 Z M406.631452,733.417172 L408.999977,731.111177 L411.368548,733.417172 L406.631452,733.417172 Z M409.665906,731 L412.870912,731 L411.966331,733.239649 L409.665906,731 Z M406.068666,733.205531 L405.313647,731 L408.334047,731 L406.068666,733.205531 Z M405.769914,733.954286 L408.06456,738.384702 L403.152012,733.954286 L405.769914,733.954286 Z M412.255699,733.954286 L414.847988,733.954286 L409.946767,738.374484 L412.255699,733.954286 Z M412.487461,733.417172 L413.351727,731.277717 L415,733.417172 L412.487461,733.417172 Z M404.772129,731.116803 L405.560019,733.417172 L403,733.417172 L404.772129,731.116803 Z" id="Oval-1090" sketch:type="MSShapeGroup"></path>
        </g>
    </g>
</svg>