<?xml version="1.0" encoding="iso-8859-1"?>
<!-- Generator: Adobe Illustrator 16.0.0, SVG Export Plug-In . SVG Version: 6.00 Build 0)  -->
<!DOCTYPE svg PUBLIC "-//W3C//DTD SVG 1.1//EN" "http://www.w3.org/Graphics/SVG/1.1/DTD/svg11.dtd">
<svg version="1.1" xmlns="http://www.w3.org/2000/svg" xmlns:xlink="http://www.w3.org/1999/xlink" x="0px" y="0px" width="190px"
	 height="190px" viewBox="0 0 190 190" style="enable-background:new 0 0 190 190;" xml:space="preserve">
<g id="support">
	<g id="help">
		<path d="M95,0C42.533,0,0,42.533,0,95s42.533,95,95,95s95-42.533,95-95S147.467,0,95,0z M95,11.875
			c11.271,0,22.016,2.248,31.816,6.312l-13.635,32.92C107.581,48.784,101.439,47.5,95,47.5c-6.44,0-12.58,1.284-18.181,3.607
			L70.425,35.67l-7.242-17.483C72.984,14.123,83.729,11.875,95,11.875z M51.107,113.182l-32.92,13.637
			c-4.064-9.803-6.312-20.547-6.312-31.817c0-11.271,2.248-22.016,6.312-31.817l17.483,7.242l15.437,6.394
			C48.785,82.42,47.5,88.56,47.5,95C47.5,101.439,48.784,107.58,51.107,113.182z M95,178.125c-11.271,0-22.016-2.248-31.817-6.312
			l4.25-10.26l9.386-22.66C82.42,141.216,88.56,142.5,95,142.5c6.439,0,12.58-1.284,18.182-3.607l13.637,32.92
			C117.016,175.877,106.271,178.125,95,178.125z M95,130.625c-19.675,0-35.625-15.95-35.625-35.625S75.325,59.375,95,59.375
			S130.625,75.325,130.625,95S114.675,130.625,95,130.625z M138.893,113.182c2.323-5.602,3.607-11.74,3.607-18.182
			c0-6.441-1.284-12.58-3.607-18.181l22.66-9.386l10.26-4.25c4.065,9.801,6.312,20.545,6.312,31.817
			c0,11.271-2.248,22.016-6.312,31.816L138.893,113.182z"/>
	</g>
</g>
<g id="Capa_1">
</g>
</svg>
