<?xml version="1.0" encoding="utf-8"?>
<!-- Generated by IcoMoon.io -->
<!DOCTYPE svg PUBLIC "-//W3C//DTD SVG 1.1//EN" "http://www.w3.org/Graphics/SVG/1.1/DTD/svg11.dtd">
<svg version="1.1" xmlns="http://www.w3.org/2000/svg" xmlns:xlink="http://www.w3.org/1999/xlink" width="32" height="32" viewBox="0 0 32 32">
<path fill="#444444" d="M25.472 15.072c0-0.706-0.564-1.283-1.254-1.283h-8.564c-0.69 0-1.256 0.578-1.256 1.283v0.178c0 0.706 0.565 1.283 1.256 1.283h8.564c0.687 0 1.253-0.578 1.253-1.283l0.002-0.178z"></path>
<path fill="#444444" d="M25.472 19.645c0-0.706-0.564-1.283-1.254-1.283h-8.564c-0.69 0-1.256 0.578-1.256 1.283v0.178c0 0.706 0.565 1.283 1.256 1.283h8.564c0.687 0 1.253-0.578 1.253-1.283l0.002-0.178z"></path>
<path fill="#444444" d="M25.472 24.22c0-0.709-0.564-1.286-1.254-1.286h-8.564c-0.69 0-1.256 0.578-1.256 1.286v0.178c0 0.706 0.565 1.283 1.256 1.283h8.564c0.687 0 1.253-0.578 1.253-1.283l0.002-0.178z"></path>
<path fill="#444444" d="M25.457 7.010h-9.672c-0.315-3.918-3.558-7.010-7.557-7.010-4.207 0-7.619 3.412-7.619 7.619 0 3.998 3.092 7.241 7.010 7.558v10.423c0 3.528 2.935 6.4 6.543 6.4h11.294c3.608 0 6.543-2.872 6.543-6.4v-12.19c0-3.529-2.935-6.4-6.543-6.4zM7.426 8.094v0l-3.768-0.002v-1.585h9.143v1.586h-5.374zM28.952 25.6c0 1.848-1.568 3.352-3.496 3.352h-11.294c-1.928 0-3.496-1.504-3.496-3.352v-10.798c2.235-0.759 3.986-2.511 4.747-4.745h10.043c1.928 0 3.496 1.504 3.496 3.352v12.19z"></path>
</svg>
