<?xml version="1.0" encoding="utf-8"?>
<!-- Generated by IcoMoon.io -->
<!DOCTYPE svg PUBLIC "-//W3C//DTD SVG 1.1//EN" "http://www.w3.org/Graphics/SVG/1.1/DTD/svg11.dtd">
<svg version="1.1" xmlns="http://www.w3.org/2000/svg" xmlns:xlink="http://www.w3.org/1999/xlink" width="32" height="32" viewBox="0 0 32 32">
<path fill="#444444" d="M10.853 18.944h-1.806c-1.077 0-1.938 0.866-1.938 1.934 0 1.076 0.868 1.934 1.938 1.934h2.702c0.453 0 0.869-0.153 1.198-0.411 0.539 0.468 1.157 0.848 1.856 1.143 0.836 0.352 1.712 0.528 2.629 0.528 1.412 0 2.69-0.395 3.836-1.179l3.296 3.252c0.233 0.242 0.521 0.361 0.866 0.361 0.334 0 0.622-0.119 0.866-0.361s0.364-0.526 0.364-0.855c0-0.336-0.117-0.622-0.356-0.855l-3.296-3.262c0.793-1.136 1.191-2.4 1.191-3.796 0-0.905-0.178-1.772-0.535-2.599-0.354-0.827-0.836-1.541-1.442-2.14-0.178-0.176-0.364-0.34-0.558-0.492 0.83-0.217 1.442-0.972 1.442-1.872 0-1.076-0.864-1.934-1.931-1.934h-12.14c-1.070 0-1.929 0.866-1.929 1.934 0 1.076 0.864 1.934 1.929 1.934h4.084c-0.169 0.137-0.329 0.279-0.482 0.432-0.316 0.313-0.599 0.66-0.848 1.035h-2.754c-1.060 0-1.929 0.866-1.929 1.934 0 1.076 0.864 1.934 1.929 1.934h1.628c0.014 0.475 0.076 0.944 0.188 1.401v0zM0 8.087v15.826c0 4.482 3.81 8.087 8.471 8.087h15.060c4.661 0 8.471-3.604 8.471-8.087v-15.826c0-4.484-3.81-8.087-8.471-8.087h-15.060c-4.661 0-8.471 3.604-8.471 8.087zM23.529 3.516c2.731 0 4.916 2.066 4.916 4.571v15.826c0 2.505-2.185 4.569-4.916 4.569h-15.060c-2.732 0-4.916-2.064-4.916-4.569v-15.826c0-2.507 2.183-4.571 4.916-4.571h15.060zM17.436 21.636c-1.186 0-2.201-0.416-3.044-1.25s-1.264-1.836-1.264-3.010c0-1.172 0.421-2.176 1.264-3.008s1.858-1.252 3.044-1.252 2.199 0.418 3.044 1.252 1.264 1.836 1.264 3.008c0 1.173-0.42 2.178-1.264 3.010s-1.858 1.25-3.044 1.25z"></path>
</svg>
