<?xml version="1.0" encoding="utf-8"?>
<!-- Generated by IcoMoon.io -->
<!DOCTYPE svg PUBLIC "-//W3C//DTD SVG 1.1//EN" "http://www.w3.org/Graphics/SVG/1.1/DTD/svg11.dtd">
<svg version="1.1" xmlns="http://www.w3.org/2000/svg" xmlns:xlink="http://www.w3.org/1999/xlink" width="32" height="32" viewBox="0 0 32 32">
<path fill="#565656" d="M32 13.255v12.007c0 3.721-3.229 6.738-7.212 6.738h-17.575c-3.981 0-7.212-3.023-7.212-6.738v-18.524c0-3.721 3.229-6.738 7.212-6.738h17.575c3.981 0 7.212 3.023 7.212 6.738v6.517c0 0 0 0 0 0zM28.388 10.972v-4.233c0-1.854-1.616-3.366-3.6-3.366h-17.575c-1.988 0-3.6 1.507-3.6 3.366v18.524c0 1.854 1.616 3.366 3.6 3.366h17.575c1.988 0 3.6-1.507 3.6-3.366v-7.349l-6.837 6.837-3.576-3.576 9.697-9.697c0.214-0.214 0.457-0.383 0.715-0.505zM7.946 10.904c0-1.045 0.851-1.892 1.896-1.892h12.462c1.047 0 1.896 0.84 1.896 1.892 0 1.045-0.851 1.892-1.896 1.892h-12.462c-1.047 0-1.896-0.84-1.896-1.892zM7.946 16.123c0-1.045 0.844-1.892 1.892-1.892h8.497c1.045 0 1.892 0.84 1.892 1.892 0 1.045-0.844 1.892-1.892 1.892h-8.497c-1.045 0-1.892-0.84-1.892-1.892zM7.946 21.283c0-1.045 0.837-1.892 1.893-1.892h4.939c1.046 0 1.893 0.84 1.893 1.892 0 1.045-0.837 1.892-1.893 1.892h-4.939c-1.046 0-1.893-0.84-1.893-1.892zM16.955 23.534c0.269-0.936 1.050-1.132 1.736-0.445l1.316 1.316c0.69 0.69 0.482 1.47-0.445 1.736l-1.907 0.549c-0.968 0.279-1.526-0.286-1.249-1.249l0.549-1.907z"></path>
</svg>
