<?xml version="1.0" encoding="utf-8"?>
<!-- Generated by IcoMoon.io -->
<!DOCTYPE svg PUBLIC "-//W3C//DTD SVG 1.1//EN" "http://www.w3.org/Graphics/SVG/1.1/DTD/svg11.dtd">
<svg version="1.1" xmlns="http://www.w3.org/2000/svg" xmlns:xlink="http://www.w3.org/1999/xlink" width="32" height="32" viewBox="0 0 32 32">
<path fill="#444444" d="M23.529 3.516c2.731 0 4.916 2.066 4.916 4.571v15.826c0 2.505-2.185 4.569-4.916 4.569h-15.060c-2.732 0-4.916-2.064-4.916-4.569v-15.826c0-2.507 2.183-4.571 4.916-4.571h15.060zM0 8.087v15.826c0 4.482 3.81 8.087 8.471 8.087h15.060c4.661 0 8.471-3.604 8.471-8.087v-15.826c0-4.484-3.81-8.087-8.471-8.087h-15.060c-4.661 0-8.471 3.604-8.471 8.087zM23.548 22.121c0-0.917-0.752-1.668-1.671-1.668h-11.419c-0.921 0-1.673 0.75-1.673 1.668v0.231c0 0.916 0.754 1.666 1.673 1.666h11.417c0.921 0 1.673-0.75 1.673-1.666v-0.231zM23.548 16.185c0-0.917-0.752-1.666-1.671-1.666h-11.419c-0.921 0-1.673 0.748-1.673 1.666v0.231c0 0.916 0.754 1.666 1.673 1.666h11.417c0.921 0 1.673-0.75 1.673-1.666v-0.231zM23.548 10.245c0-0.916-0.752-1.666-1.671-1.666h-11.419c-0.921 0-1.673 0.75-1.673 1.666v0.231c0 0.916 0.754 1.666 1.673 1.666h11.417c0.921 0 1.673-0.75 1.673-1.666v-0.231z"></path>
</svg>
