<?xml version="1.0" encoding="UTF-8" standalone="no"?>
<svg width="490px" height="490px" viewBox="0 0 490 490" version="1.1" xmlns="http://www.w3.org/2000/svg" xmlns:xlink="http://www.w3.org/1999/xlink" xmlns:sketch="http://www.bohemiancoding.com/sketch/ns">
    <!-- Generator: Sketch 3.5.1 (25234) - http://www.bohemiancoding.com/sketch -->
    <title>location</title>
    <desc>Created with Sketch.</desc>
    <defs></defs>
    <g id="Page-1" stroke="none" stroke-width="1" fill="none" fill-rule="evenodd" sketch:type="MSPage">
        <g id="Artboard-32" sketch:type="MSArtboardGroup" transform="translate(-5.000000, -5.000000)" fill="#A36B33">
            <path d="M250,495 C385.309764,495 495,385.309764 495,250 C495,114.690236 385.309764,5 250,5 C114.690236,5 5,114.690236 5,250 C5,385.309764 114.690236,495 250,495 Z M254.523784,226.666482 C243.642092,226.666482 234.334242,222.672082 226.601782,214.680089 C218.867003,206.692088 215,197.075673 215,185.834039 C215,174.593204 218.867003,164.978386 226.601782,156.986393 C234.334242,148.996795 243.642092,145 254.523784,145 C265.403931,145 274.71178,148.996795 282.445787,156.986393 C290.180565,164.978386 294.048341,174.593204 294.048341,185.834039 C294.048341,197.075673 290.180565,206.692088 282.445787,214.682484 C274.71178,222.672082 265.403931,226.666482 254.523784,226.666482 Z M248.771133,401.666667 C248.771133,401.666667 145,255.282667 145,199.444444 C145,143.604667 191.459812,98.3333333 248.771133,98.3333333 C306.08564,98.3333333 352.54386,143.603111 352.54386,199.444444 C352.54386,255.285778 248.771133,401.666667 248.771133,401.666667 Z" id="location" sketch:type="MSShapeGroup"></path>
        </g>
    </g>
</svg>