<?xml version="1.0" encoding="UTF-8" standalone="no"?>
<svg width="14px" height="19px" viewBox="0 0 14 19" version="1.1" xmlns="http://www.w3.org/2000/svg" xmlns:xlink="http://www.w3.org/1999/xlink" xmlns:sketch="http://www.bohemiancoding.com/sketch/ns">
    <!-- Generator: Sketch 3.4.4 (17249) - http://www.bohemiancoding.com/sketch -->
    <title>lock</title>
    <desc>Created with Sketch.</desc>
    <defs></defs>
    <g id="Page-1" stroke="none" stroke-width="1" fill="none" fill-rule="evenodd" sketch:type="MSPage">
        <g id="icons@2x" sketch:type="MSArtboardGroup" transform="translate(-1019.000000, -96.000000)" fill="#565656">
            <path d="M1025.6322,98.3769715 C1027.37117,98.3769715 1028.49117,100.112527 1028.51453,102.264749 L1022.74987,102.264749 C1022.77323,100.112527 1023.89323,98.3769715 1025.6322,98.3769715 L1025.6322,98.3769715 Z M1025.6322,96.2280827 C1022.92272,96.2280827 1020.72711,98.9558604 1020.72711,102.320305 L1020.72828,102.404749 C1019.80682,102.72586 1019.15047,103.564749 1019.15047,104.549194 L1019.15047,109.908082 C1019.15047,112.293638 1022.05265,114.228083 1025.6322,114.228083 C1029.21175,114.228083 1032.11393,112.293638 1032.11393,109.908082 L1032.11393,104.549194 C1032.11393,103.564749 1031.45758,102.72586 1030.53612,102.404749 L1030.53729,102.320305 C1030.53729,98.9558604 1028.34168,96.2280827 1025.6322,96.2280827 L1025.6322,96.2280827 Z M1023.79279,107.332527 C1023.79279,106.369194 1024.61615,105.588083 1025.6322,105.588083 C1026.64826,105.588083 1027.47161,106.369194 1027.47161,107.332527 C1027.47161,107.949194 1027.13409,108.491415 1026.6249,108.801416 L1026.6249,110.406971 L1024.6395,110.406971 L1024.6395,108.801416 C1024.13031,108.491415 1023.79279,107.949194 1023.79279,107.332527 L1023.79279,107.332527 Z" id="lock" sketch:type="MSShapeGroup"></path>
        </g>
    </g>
</svg>