<?xml version="1.0" encoding="utf-8"?>
<!-- Generated by IcoMoon.io -->
<!DOCTYPE svg PUBLIC "-//W3C//DTD SVG 1.1//EN" "http://www.w3.org/Graphics/SVG/1.1/DTD/svg11.dtd">
<svg version="1.1" xmlns="http://www.w3.org/2000/svg" xmlns:xlink="http://www.w3.org/1999/xlink" width="38" height="32" viewBox="0 0 38 32">
<path fill="#444444" d="M3.2 32c1.773 0 3.2-1.43 3.2-3.2 0-1.773-1.43-3.2-3.2-3.2-1.773 0-3.2 1.43-3.2 3.2 0 1.773 1.43 3.2 3.2 3.2zM3.2 23.467c1.773 0 3.2-1.43 3.2-3.2 0-1.773-1.43-3.2-3.2-3.2-1.773 0-3.2 1.43-3.2 3.2 0 1.773 1.43 3.2 3.2 3.2zM3.2 6.4c1.773 0 3.2-1.43 3.2-3.2 0-1.773-1.43-3.2-3.2-3.2-1.773 0-3.2 1.43-3.2 3.2 0 1.773 1.43 3.2 3.2 3.2zM10.928 23.467h22.583c1.657 0 2.99-1.428 2.99-3.2 0-1.775-1.338-3.2-2.99-3.2h-22.583c-1.657 0-2.99 1.428-2.99 3.2 0 1.775 1.338 3.2 2.99 3.2zM10.926 14.933h14.993c1.651 0 2.988-1.43 2.988-3.2 0-1.775-1.337-3.2-2.988-3.2h-14.993c-1.652 0-2.988 1.43-2.988 3.2 0 1.775 1.337 3.2 2.988 3.2zM10.933 6.4h24.472c1.661 0 2.995-1.427 2.995-3.2 0-1.775-1.341-3.2-2.995-3.2h-24.472c-1.662 0-2.995 1.427-2.995 3.2 0 1.775 1.341 3.2 2.995 3.2zM10.926 32h14.993c1.651 0 2.988-1.43 2.988-3.2 0-1.775-1.337-3.2-2.988-3.2h-14.993c-1.652 0-2.988 1.43-2.988 3.2 0 1.775 1.337 3.2 2.988 3.2zM3.2 14.933c1.773 0 3.2-1.43 3.2-3.2 0-1.773-1.43-3.2-3.2-3.2-1.773 0-3.2 1.43-3.2 3.2 0 1.773 1.43 3.2 3.2 3.2z"></path>
</svg>
