<?xml version="1.0" encoding="utf-8"?>
<!-- Generated by IcoMoon.io -->
<!DOCTYPE svg PUBLIC "-//W3C//DTD SVG 1.1//EN" "http://www.w3.org/Graphics/SVG/1.1/DTD/svg11.dtd">
<svg version="1.1" xmlns="http://www.w3.org/2000/svg" xmlns:xlink="http://www.w3.org/1999/xlink" width="30" height="32" viewBox="0 0 30 32">
<path fill="#444444" d="M17.984 3.968l2.267-2.974-5.883 3.5 2.104 1.459-3.021 3.965 6.639-4.492-2.105-1.457zM27.609 13.122l2.269-2.974-5.883 3.5 2.105 1.457-3.023 3.965 6.637-4.49-2.105-1.457zM24.273 21.128l-2.669-2.531c-0.032-0.029-0.315-0.286-0.704-0.286-0.232 0-0.455 0.094-0.64 0.269l-5.981 5.672c-0.746 0.707-1.738 1.098-2.794 1.098-1.054 0-2.048-0.391-2.794-1.098s-1.157-1.649-1.157-2.651c0-1 0.411-1.94 1.157-2.649l5.881-5.578c0.384-0.364 0.394-0.709 0.337-0.936-0.061-0.243-0.216-0.396-0.234-0.413l-2.691-2.553c-0.226-0.212-0.429-0.313-0.642-0.313-0.3 0-0.507 0.197-0.707 0.387l-6.56 6.221c-3.737 3.545-3.737 9.315 0 12.861 1.811 1.718 4.219 2.664 6.779 2.664s4.968-0.947 6.779-2.664l6.558-6.22c0.173-0.165 0.333-0.318 0.389-0.527 0.101-0.365-0.205-0.655-0.307-0.753z"></path>
</svg>
