<?xml version="1.0" encoding="utf-8"?>
<!-- Generated by IcoMoon.io -->
<!DOCTYPE svg PUBLIC "-//W3C//DTD SVG 1.1//EN" "http://www.w3.org/Graphics/SVG/1.1/DTD/svg11.dtd">
<svg version="1.1" xmlns="http://www.w3.org/2000/svg" xmlns:xlink="http://www.w3.org/1999/xlink" width="32" height="32" viewBox="0 0 32 32">
<path fill="#444444" d="M31.548 17.303l-3.661-3.66c-0.042-0.042-0.43-0.414-0.965-0.414-0.319 0-0.623 0.135-0.878 0.389l-8.203 8.201c-1.024 1.023-2.385 1.587-3.832 1.587s-2.809-0.564-3.832-1.587c-1.024-1.023-1.587-2.384-1.587-3.832s0.564-2.808 1.587-3.832l8.066-8.065c0.525-0.525 0.542-1.026 0.463-1.354-0.084-0.35-0.297-0.571-0.321-0.595l-3.691-3.69c-0.308-0.308-0.588-0.452-0.881-0.452-0.41 0-0.695 0.285-0.971 0.561l-8.996 8.994c-5.127 5.126-5.127 13.467 0 18.593 2.484 2.483 5.786 3.851 9.299 3.851s6.815-1.368 9.299-3.851l8.996-8.994c0.236-0.236 0.459-0.459 0.535-0.762 0.134-0.53-0.288-0.951-0.426-1.090v0zM11.604 3.377l1.309-1.309c0.413-0.413 1.012-0.704 1.606-0.109l2.511 2.511c0 0 0.627 0.627-0.142 1.396-0.189 0.189-1.404 1.403-1.624 1.623-0.632 0.632-1.289-0.024-1.289-0.024l-2.482-2.481c-0.595-0.595-0.303-1.193 0.109-1.606v0zM29.932 19.083l-1.309 1.309c-0.413 0.413-1.012 0.704-1.606 0.109l-2.511-2.511c0 0-0.627-0.627 0.142-1.396 0.189-0.189 1.404-1.403 1.624-1.623 0.632-0.632 1.289 0.024 1.289 0.024l2.482 2.481c0.595 0.594 0.303 1.193-0.109 1.606v0z"></path>
</svg>
