<?xml version="1.0" encoding="utf-8"?>
<!-- Generated by IcoMoon.io -->
<!DOCTYPE svg PUBLIC "-//W3C//DTD SVG 1.1//EN" "http://www.w3.org/Graphics/SVG/1.1/DTD/svg11.dtd">
<svg version="1.1" xmlns="http://www.w3.org/2000/svg" xmlns:xlink="http://www.w3.org/1999/xlink" width="9" height="32" viewBox="0 0 9 32">
<path fill="#444444" d="M4.178 8.421c2.307 0 4.178-1.885 4.178-4.211s-1.87-4.211-4.178-4.211c-2.307 0-4.178 1.885-4.178 4.211s1.87 4.211 4.178 4.211zM4.178 20.211c2.307 0 4.178-1.885 4.178-4.211s-1.87-4.211-4.178-4.211c-2.307 0-4.178 1.885-4.178 4.211s1.87 4.211 4.178 4.211zM4.178 32c2.307 0 4.178-1.885 4.178-4.211s-1.87-4.211-4.178-4.211c-2.307 0-4.178 1.885-4.178 4.211s1.87 4.211 4.178 4.211z"></path>
</svg>
