<?xml version="1.0" encoding="utf-8"?>
<!-- Generated by IcoMoon.io -->
<!DOCTYPE svg PUBLIC "-//W3C//DTD SVG 1.1//EN" "http://www.w3.org/Graphics/SVG/1.1/DTD/svg11.dtd">
<svg version="1.1" xmlns="http://www.w3.org/2000/svg" xmlns:xlink="http://www.w3.org/1999/xlink" width="27" height="32" viewBox="0 0 27 32">
<path fill="#444444" d="M11.594 0.796v0c-0.616-0.253-1.34-0.046-1.727 0.527l-6.91 10.245c-0.435 0.645-0.27 1.545 0.384 1.986 0.020 0.014 0.040 0.026 0.061 0.039-0.004 0.419 0.074 0.834 0.227 1.222l-0.382 0.506c-0.478 0.635-0.343 1.531 0.294 2.011l1.339 1.009c0.647 0.487 1.539 0.359 2.014-0.272l0.433-0.574c1.391 0.199 2.85-0.384 3.685-1.585l2.723-3.917c5.506 0.002 9.888 3.57 9.888 7.86 0 4.292-4.385 7.86-9.894 7.86-0.503 0-0.997-0.030-1.481-0.088v0c-0.692-0.326-1.347-0.876-1.676-1.459l0.133 0.234c-0.483-0.854-0.299-2.071 0.438-2.742l0.513-0.467c0.725-0.66 0.517-1.195-0.478-1.195h-10.117c-0.989 0-1.204 0.551-0.482 1.229l0.427 0.401c0.723 0.679 1.309 2.015 1.309 3.022v0.701c0 0.99-0.587 2.344-1.309 3.022l-0.427 0.401c-0.723 0.679-0.518 1.229 0.468 1.229h23.845c0.981 0 1.107-0.43 0.28-0.961l-1.82-1.169c-0.645-0.414-1.671-0.822-2.558-1.035 3.528-1.904 5.875-5.199 5.875-8.983 0-5.423-4.819-9.84-11.026-10.602l2.887-4.153c0.559-0.804 0.334-1.868-0.503-2.375l-3.954-2.394c-0.796-0.482-1.9-0.279-2.476 0.468zM5.269 13.020c-0.317-0.214-0.406-0.637-0.189-0.959l6.038-8.952c0.213-0.316 0.652-0.392 0.96-0.184 0.317 0.214 0.406 0.637 0.189 0.959l-6.038 8.952c-0.213 0.316-0.652 0.392-0.96 0.184z"></path>
</svg>
