<?xml version="1.0" encoding="utf-8"?>
<!-- Generated by IcoMoon.io -->
<!DOCTYPE svg PUBLIC "-//W3C//DTD SVG 1.1//EN" "http://www.w3.org/Graphics/SVG/1.1/DTD/svg11.dtd">
<svg version="1.1" xmlns="http://www.w3.org/2000/svg" xmlns:xlink="http://www.w3.org/1999/xlink" width="32" height="32" viewBox="0 0 32 32">
<path fill="#444444" d="M32 16c0-8.837-7.163-16-16-16s-16 7.163-16 16c0 8.837 7.163 16 16 16s16-7.163 16-16zM3.2 16c0-7.069 5.731-12.8 12.8-12.8s12.8 5.731 12.8 12.8c0 7.069-5.731 12.8-12.8 12.8s-12.8-5.731-12.8-12.8z"></path>
<path fill="#444444" d="M8.678 20.653l2.028-1.895-1.073 0.019 3.164 2.758 0.166 0.112c0.94 0.473 2.187 0.188 2.37-0.839l1.861-12.476-1.586-0.027 1.855 16.125c0.17 1.209 1.848 1.486 2.561 0.599l3.381-4.503-0.663 0.319 3.512 0.1c0.354 0 0.679-0.1 0.938-0.293l2.469-1.842c0.67-0.5 0.67-1.434 0-1.934-0.525-0.392-1.305-0.392-1.83 0l-2.465 1.843 0.512-0.159-3.271-0.135c-0.48-0.001-0.913 0.182-1.186 0.522l-2.891 4.009 1.442 0.365-2.163-16.681c-0.205-1.457-2.551-1.481-2.806-0.050l-2.267 13.182 1.302-0.478-2.857-2.39c-0.56-0.419-1.34-0.419-1.864-0.028l-2.068 1.736 0.515-0.187h-3.703c-0.74 0-1.417 0.505-1.417 1.261s0.677 1.261 1.417 1.261h3.703c0.331 0 0.656-0.101 0.915-0.294z"></path>
</svg>
