<?xml version="1.0" encoding="utf-8"?>
<!-- Generated by IcoMoon.io -->
<!DOCTYPE svg PUBLIC "-//W3C//DTD SVG 1.1//EN" "http://www.w3.org/Graphics/SVG/1.1/DTD/svg11.dtd">
<svg version="1.1" xmlns="http://www.w3.org/2000/svg" xmlns:xlink="http://www.w3.org/1999/xlink" width="44" height="32" viewBox="0 0 44 32">
<path fill="#444444" d="M20.394 30.49c-0.029 0-0.057-0.002-0.086-0.005-3.588-0.445-4.592-3.605-4.633-3.739-0.070-0.229-0.032-0.478 0.102-0.674l6.641-9.708-8.862-3.669c-0.27-0.111-0.45-0.379-0.46-0.681-0.14-4.163 2.471-5.352 2.582-5.4 0.175-0.076 0.375-0.078 0.552-0.005l8.127 3.386c0.375 0.155 0.558 0.599 0.407 0.989s-0.577 0.582-0.947 0.425l-7.805-3.25c-0.447 0.318-1.394 1.236-1.46 3.311l9.27 3.838c0.209 0.087 0.366 0.268 0.431 0.494s0.025 0.468-0.107 0.658l-6.948 10.155c0.29 0.616 1.096 1.906 2.865 2.289l6.961-10.075c0.235-0.341 0.692-0.419 1.019-0.172s0.4 0.722 0.165 1.064l-7.224 10.456c-0.139 0.198-0.361 0.314-0.593 0.314v0z"></path>
<path fill="#444444" d="M14.556 30.49c-0.029 0-0.058-0.002-0.088-0.005-3.588-0.445-4.592-3.605-4.633-3.739-0.070-0.229-0.032-0.478 0.102-0.674l6.641-9.708-8.862-3.669c-0.27-0.111-0.45-0.379-0.46-0.681-0.14-4.163 2.471-5.352 2.582-5.4 0.177-0.076 0.375-0.078 0.552-0.005l2.33 0.971c0.374 0.157 0.556 0.6 0.407 0.99-0.15 0.39-0.575 0.579-0.949 0.425l-2.006-0.835c-0.447 0.318-1.394 1.236-1.46 3.31l9.27 3.838c0.209 0.087 0.366 0.268 0.431 0.494s0.025 0.468-0.107 0.658l-6.948 10.155c0.312 0.661 1.22 2.103 3.28 2.359 0.4 0.050 0.686 0.428 0.639 0.847-0.044 0.384-0.359 0.669-0.724 0.669v0z"></path>
<path fill="#444444" d="M30.321 8.126c-0.398 0-0.724-0.588-0.73-1.004l-0.074-5.218c-0.666-0.184-2.010-0.498-3.572-0.119l0.023 5.352c0.001 0.421-0.324 0.987-0.727 0.987h-0.003c-0.401 0-0.728-0.593-0.73-1.012l-0.026-5.841c-0.001-0.335 0.207-0.695 0.512-0.795 2.979-0.971 5.42 0.024 5.522 0.067 0.27 0.116 0.448 0.372 0.453 0.677l0.083 5.885c0.006 0.421-0.315 1.019-0.718 1.019-0.006 0.002-0.010 0.002-0.013 0.002v0z"></path>
<path fill="#444444" d="M19.4 6.603c-0.401 0-0.727-0.593-0.73-1.010l-0.026-4.317c-0.001-0.335 0.206-0.696 0.512-0.797 1.598-0.518 3.039-0.488 3.969-0.343 0.398 0.062 0.673 0.434 0.613 0.85s-0.422 0.69-0.831 0.634c-0.676-0.105-1.674-0.165-2.801 0.108l0.023 3.857c0.003 0.421-0.323 1.019-0.725 1.019-0.001-0.002-0.003-0.002-0.004-0.002v0z"></path>
<path fill="#444444" d="M8.717 30.49c-0.029 0-0.058-0.002-0.088-0.005-3.588-0.445-4.592-3.605-4.633-3.739-0.070-0.229-0.032-0.478 0.102-0.674l6.641-9.708-8.862-3.669c-0.27-0.111-0.45-0.379-0.46-0.681-0.14-4.163 2.471-5.352 2.582-5.4 0.177-0.076 0.375-0.078 0.552-0.005l2.33 0.971c0.374 0.157 0.556 0.6 0.407 0.99-0.15 0.39-0.575 0.579-0.949 0.425l-2.006-0.835c-0.447 0.318-1.394 1.236-1.46 3.31l9.27 3.838c0.209 0.087 0.366 0.268 0.431 0.494s0.025 0.468-0.107 0.658l-6.948 10.155c0.312 0.661 1.22 2.103 3.28 2.359 0.4 0.050 0.686 0.428 0.639 0.847-0.044 0.384-0.359 0.669-0.724 0.669v0z"></path>
<path fill="#444444" d="M13.562 6.603c-0.401 0-0.727-0.593-0.73-1.010l-0.026-4.317c-0.001-0.335 0.206-0.696 0.512-0.797 1.598-0.518 3.039-0.488 3.969-0.343 0.398 0.062 0.673 0.434 0.613 0.85s-0.422 0.69-0.831 0.634c-0.676-0.105-1.676-0.165-2.801 0.108l0.023 3.857c0.003 0.421-0.323 1.019-0.725 1.019-0.001-0.002-0.003-0.002-0.004-0.002v0z"></path>
<path fill="#444444" d="M35.065 30.49c-0.234 0-0.454-0.116-0.593-0.317l-7.224-10.456c-0.235-0.341-0.162-0.818 0.165-1.064 0.328-0.245 0.784-0.168 1.019 0.172l6.961 10.075c1.765-0.384 2.573-1.678 2.864-2.29l-6.946-10.153c-0.13-0.19-0.169-0.433-0.107-0.658s0.222-0.407 0.431-0.494l9.27-3.838c-0.064-2.083-1.012-2.996-1.458-3.311l-7.806 3.25c-0.371 0.158-0.798-0.034-0.947-0.425-0.15-0.39 0.032-0.834 0.407-0.989l8.127-3.386c0.177-0.073 0.374-0.072 0.552 0.005 0.111 0.049 2.722 1.237 2.582 5.4-0.010 0.302-0.19 0.57-0.46 0.681l-8.862 3.669 6.641 9.708c0.134 0.195 0.172 0.445 0.102 0.674-0.041 0.134-1.044 3.294-4.633 3.739-0.029 0.006-0.058 0.008-0.086 0.008v0z"></path>
</svg>
