<?xml version="1.0" encoding="UTF-8"?>
<svg width="12px" height="12px" viewBox="0 0 12 12" version="1.1" xmlns="http://www.w3.org/2000/svg" xmlns:xlink="http://www.w3.org/1999/xlink">
    <!-- Generator: Sketch 59.1 (86144) - https://sketch.com -->
    <title>icon/essential/125-bell-1</title>
    <desc>Created with Sketch.</desc>
    <g id="Page-1" stroke="none" stroke-width="1" fill="none" fill-rule="evenodd">
        <g id="Artboard" transform="translate(-57.000000, -16.000000)" fill="#000000" fill-rule="nonzero">
            <path d="M68.5152656,24.2740352 C67.8701953,24.2740352 67.3454297,23.7492461 67.3454297,23.1041992 L67.3454297,20.3465664 C67.3454297,17.9505039 65.3960859,16.0011602 63,16.0011602 C60.6039141,16.0011602 58.6545703,17.9505039 58.6545703,20.3465664 L58.6545703,23.1041992 C58.6545703,23.7492695 58.1297813,24.2740352 57.4847344,24.2740352 C57.2170312,24.2740352 57,24.4910664 57,24.758793 C57,25.0265195 57.2170312,25.2435273 57.4847344,25.2435273 L68.5152656,25.2435273 C68.7829922,25.2435273 69,25.0265195 69,24.758793 C69,24.4910664 68.7829922,24.2740352 68.5152656,24.2740352 Z M59.275125,24.2740352 C59.4956719,23.9376367 59.6240625,23.5355898 59.6240625,23.1041992 L59.6240625,20.3465664 C59.6240625,18.4850664 61.1385,16.9706289 63,16.9706289 C64.8615,16.9706289 66.3759375,18.4850664 66.3759375,20.3465664 L66.3759375,23.1041992 C66.3759375,23.5356133 66.5043281,23.9376602 66.7248516,24.2740352 L59.275125,24.2740352 L59.275125,24.2740352 Z M64.1973516,26.5455508 C63.9657656,26.411207 63.6691406,26.4900742 63.5348203,26.7216367 C63.36375,27.0165742 62.9846484,27.1173086 62.6897109,26.9462148 C62.5967344,26.8922852 62.5190625,26.8146133 62.4651328,26.7216367 C62.3308125,26.4900508 62.0341641,26.4112539 61.8026016,26.5455508 C61.5710391,26.6798711 61.4922187,26.9765195 61.6265391,27.208082 C61.7650547,27.4468633 61.9644844,27.646293 62.2032656,27.7848086 C62.4533672,27.9299102 62.7270703,27.9988398 62.9973047,27.9988398 C63.5453438,27.9988398 64.0792031,27.7152695 64.3734141,27.2080586 C64.5077344,26.9765195 64.4289375,26.6798711 64.1973516,26.5455508 L64.1973516,26.5455508 Z" id="icon/essential/125-bell-1"></path>
        </g>
    </g>
</svg>