<?xml version="1.0" encoding="utf-8"?>
<!-- Generated by IcoMoon.io -->
<!DOCTYPE svg PUBLIC "-//W3C//DTD SVG 1.1//EN" "http://www.w3.org/Graphics/SVG/1.1/DTD/svg11.dtd">
<svg version="1.1" xmlns="http://www.w3.org/2000/svg" xmlns:xlink="http://www.w3.org/1999/xlink" width="32" height="32" viewBox="0 0 32 32">
<path d="M17.934 30.222h-3.868c-0.35 0-0.679-0.114-0.949-0.331-0.304-0.249-0.484-0.59-0.512-0.965l-0.405-2.645c-0.249-0.094-0.489-0.19-0.72-0.295l-2.050 1.556c-0.441 0.404-1.408 0.459-1.973-0.112-1.484-1.34-2.464-2.341-2.958-3.026-0.185-0.26-0.281-0.564-0.281-0.889 0-0.318 0.105-0.629 0.3-0.896 0.174-0.245 0.478-0.64 0.908-1.186 0.242-0.306 0.446-0.569 0.617-0.793-0.142-0.295-0.265-0.596-0.37-0.891l-2.674-0.395c-0.373-0.057-0.688-0.245-0.912-0.542-0.203-0.265-0.309-0.581-0.309-0.914v-3.868c0-0.315 0.105-0.622 0.299-0.892 0.277-0.38 0.619-0.514 0.857-0.558l2.766-0.416c0.096-0.26 0.206-0.519 0.331-0.777-0.412-0.56-0.926-1.212-1.534-1.947-0.302-0.364-0.366-0.718-0.366-0.953 0-0.288 0.103-0.583 0.306-0.876 0.345-0.475 0.935-1.124 1.819-1.993 1.262-1.244 1.774-1.486 2.235-1.486 0.34 0 0.665 0.117 0.964 0.348l1.995 1.545c0.235-0.108 0.475-0.208 0.716-0.299 0.167-1.349 0.32-2.279 0.464-2.834 0.172-0.695 0.711-1.115 1.438-1.115h3.868c0.348 0 0.676 0.114 0.946 0.327 0.308 0.252 0.487 0.592 0.517 0.969l0.404 2.645c0.249 0.092 0.489 0.19 0.72 0.295l2.071-1.559c0.327-0.35 1.275-0.475 1.892 0.043 1.588 1.463 2.565 2.476 3.022 3.124 0.096 0.103 0.276 0.404 0.276 0.866 0 0.311-0.103 0.619-0.297 0.889-0.183 0.252-0.482 0.649-0.914 1.189-0.242 0.308-0.448 0.574-0.62 0.798 0.137 0.293 0.258 0.583 0.364 0.869l2.688 0.411c0.37 0.057 0.681 0.242 0.907 0.537 0.204 0.267 0.313 0.585 0.313 0.919v3.87c0 0.32-0.107 0.629-0.306 0.898-0.208 0.293-0.514 0.489-0.871 0.555l-2.757 0.416c-0.107 0.268-0.213 0.521-0.322 0.756 0.38 0.514 0.896 1.168 1.538 1.952 0.236 0.288 0.364 0.624 0.364 0.969 0 0.361-0.132 0.695-0.377 0.962-0.284 0.402-0.878 1.051-1.756 1.915-1.25 1.236-1.762 1.479-2.224 1.479-0.302 0-0.606-0.098-0.905-0.29l-2.055-1.604c-0.235 0.108-0.476 0.208-0.716 0.299-0.164 1.324-0.32 2.277-0.462 2.834-0.176 0.695-0.715 1.113-1.438 1.113zM17.934 28.551v0.836l0.011-0.837c-0.004 0-0.007 0-0.011 0.002zM11.296 24.025l0.469 0.242c0.436 0.224 0.921 0.423 1.445 0.596l0.491 0.16 0.542 3.57 3.543-0.039c0.101-0.448 0.254-1.307 0.45-2.99l0.062-0.537 0.514-0.165c0.498-0.158 0.988-0.363 1.451-0.608l0.48-0.251 2.741 2.146c0.158-0.107 0.482-0.359 1.077-0.948 0.766-0.756 1.303-1.335 1.596-1.728-0.816-0.926-1.444-1.737-1.852-2.322l-0.293-0.423 0.244-0.453c0.212-0.393 0.423-0.885 0.628-1.467l0.167-0.475 3.513-0.532-0.014-3.534-3.504-0.537-0.155-0.5c-0.156-0.503-0.377-1.031-0.656-1.572l-0.236-0.453 0.297-0.416c0.215-0.297 0.537-0.718 0.967-1.262 0.363-0.457 0.629-0.805 0.804-1.044-0.357-0.459-1.058-1.223-2.572-2.624l-2.789 2.112-0.468-0.238c-0.434-0.222-0.919-0.421-1.445-0.594l-0.491-0.16-0.542-3.57-3.543 0.039c-0.137 0.587-0.286 1.588-0.452 2.992l-0.062 0.535-0.514 0.165c-0.5 0.158-0.988 0.364-1.454 0.606l-0.476 0.249-2.752-2.135c-0.164 0.112-0.489 0.368-1.077 0.948-0.889 0.878-1.333 1.385-1.554 1.671 0.754 0.917 1.362 1.703 1.815 2.352l0.299 0.425-0.249 0.455c-0.261 0.48-0.469 0.967-0.613 1.445l-0.153 0.507-3.541 0.533 0.018 3.532 3.516 0.519 0.148 0.519c0.146 0.51 0.363 1.033 0.645 1.556l0.249 0.464-0.306 0.423c-0.213 0.299-0.535 0.72-0.964 1.26-0.366 0.462-0.635 0.812-0.811 1.051 0.325 0.423 1.040 1.209 2.613 2.631l2.756-2.128zM16 21.296c-1.458 0-2.718-0.523-3.746-1.552-1.031-1.029-1.552-2.288-1.552-3.744s0.523-2.716 1.554-3.746c1.028-1.031 2.288-1.552 3.744-1.552 1.458 0 2.716 0.523 3.746 1.552 1.029 1.031 1.55 2.29 1.55 3.746s-0.521 2.715-1.55 3.744c-1.028 1.031-2.288 1.552-3.746 1.552zM16 12.375c-1.010 0-1.849 0.347-2.562 1.061-0.716 0.715-1.063 1.554-1.063 2.564s0.347 1.847 1.063 2.562c0.711 0.715 1.55 1.063 2.562 1.063s1.849-0.348 2.564-1.063c0.713-0.715 1.061-1.552 1.061-2.562s-0.347-1.851-1.061-2.564c-0.715-0.715-1.552-1.061-2.564-1.061z"></path>
</svg>
