<?xml version="1.0" encoding="UTF-8" standalone="no"?>
<svg width="18px" height="18px" viewBox="0 0 18 18" version="1.1" xmlns="http://www.w3.org/2000/svg" xmlns:xlink="http://www.w3.org/1999/xlink" xmlns:sketch="http://www.bohemiancoding.com/sketch/ns">
    <!-- Generator: Sketch 3.3 (11970) - http://www.bohemiancoding.com/sketch -->
    <title>Shape 6</title>
    <desc>Created with Sketch.</desc>
    <defs></defs>
    <g id="Page-1" stroke="none" stroke-width="1" fill="none" fill-rule="evenodd" sketch:type="MSPage">
        <g id="settings-team@2x" sketch:type="MSArtboardGroup" transform="translate(-431.000000, -15.000000)" fill="#FFFFFF">
            <g id="Group" sketch:type="MSLayerGroup" transform="translate(-133.000000, 0.000000)">
                <path d="M573,26.9371099 C572.171811,26.9371099 571.464884,26.6457173 570.878842,26.0630262 C570.292895,25.4799581 570.000063,24.7769215 570.000063,23.9528796 C570.000063,23.1292147 570.292989,22.4257068 570.878842,21.8428272 C571.464884,21.2599476 572.171716,20.9686492 573,20.9686492 C573.828,20.9686492 574.535116,21.2600419 575.121253,21.8428272 C575.7072,22.4257068 576.000032,23.1291204 576.000032,23.9528796 C576.000032,24.776733 575.707011,25.4799581 575.121253,26.0630262 C574.535116,26.6457173 573.828,26.9371099 573,26.9371099 L573,26.9371099 Z M581.9064,22.4082723 C581.843684,22.3266597 581.761737,22.2781257 581.660084,22.2623874 L579.515526,21.9361257 C579.398432,21.5632147 579.238137,21.1824817 579.035211,20.7937382 C579.175611,20.5996021 579.386684,20.325644 579.668053,19.9718639 C579.949326,19.6183665 580.148368,19.3598639 580.265747,19.1966387 C580.328084,19.1112565 580.359537,19.021822 580.359537,18.9284293 C580.359537,18.8197696 580.331968,18.7342932 580.2774,18.672 C579.996126,18.275623 579.351726,17.6151832 578.343916,16.6903037 C578.250221,16.6126492 578.152453,16.5737277 578.050895,16.5737277 C577.9338,16.5737277 577.839916,16.6086911 577.769621,16.6786178 L576.105474,17.9260838 C575.784979,17.7628586 575.433411,17.6191414 575.050768,17.4947435 L574.722695,15.3497277 C574.714737,15.2488901 574.669832,15.1652042 574.587789,15.0991414 C574.505937,15.0331728 574.410158,15 574.300737,15 L571.699263,15 C571.472558,15 571.331968,15.1089424 571.2774,15.3264503 C571.175747,15.7150995 571.062347,16.4378325 570.937579,17.4947435 C570.570284,17.6113194 570.214926,17.7589948 569.871126,17.9376754 L568.253968,16.6903979 C568.152316,16.6127435 568.050663,16.573822 567.9492,16.573822 C567.777347,16.573822 567.408158,16.8517382 566.841821,17.407288 C566.275389,17.9631204 565.890568,18.3807016 565.687547,18.6605026 C565.617253,18.761623 565.582105,18.8510576 565.582105,18.9286178 C565.582105,19.0219162 565.621137,19.1151204 565.699295,19.2085131 C566.222526,19.8380419 566.640695,20.374178 566.953137,20.8172042 C566.757789,21.1747539 566.605453,21.5323037 566.496221,21.8896649 L564.316421,22.2159267 C564.2304,22.2315707 564.156221,22.2819895 564.093789,22.3673717 C564.031168,22.4530366 564,22.5422827 564,22.6354869 L564,25.2234346 C564,25.3244607 564.031168,25.4157801 564.093789,25.4972984 C564.156221,25.578911 564.238263,25.6276335 564.339916,25.643089 L566.484379,25.9578534 C566.593705,26.3386806 566.753905,26.7233717 566.964884,27.1119267 C566.824295,27.3062513 566.613316,27.5803037 566.332042,27.9338953 C566.050768,28.2876754 565.851537,28.545801 565.734347,28.7091204 C565.671726,28.7946911 565.640558,28.8839372 565.640558,28.9773298 C565.640558,29.078356 565.667842,29.1677906 565.7226,29.2455393 C566.027274,29.6651937 566.671863,30.318 567.656274,31.2037696 C567.7422,31.2895288 567.839779,31.3319372 567.9492,31.3319372 C568.066389,31.3319372 568.164063,31.2970681 568.242221,31.2271414 L569.894526,29.9799581 C570.214737,30.1429948 570.566305,30.287089 570.949232,30.4112042 L571.277305,32.5562199 C571.284979,32.6569634 571.330074,32.7407435 571.412116,32.8068063 C571.494063,32.8726806 571.589747,32.9059476 571.699168,32.9059476 L574.300737,32.9059476 C574.527253,32.9059476 574.667842,32.7970052 574.7226,32.5794974 C574.823968,32.1908482 574.937463,31.4681152 575.062326,30.4112042 C575.429621,30.2947225 575.784884,30.1470471 576.128874,29.9682723 L577.746032,31.2271414 C577.855263,31.2970681 577.957011,31.3319372 578.050611,31.3319372 C578.222274,31.3319372 578.589663,31.0561885 579.152116,30.5045026 C579.714663,29.9528168 580.101474,29.5329738 580.312453,29.2455393 C580.382747,29.1678848 580.417705,29.0786387 580.417705,28.9773298 C580.417705,28.8764921 580.378674,28.7790471 580.300611,28.6857487 C579.738063,28.0020314 579.319989,27.465801 579.046863,27.0772461 C579.202989,26.7897173 579.355421,26.4359372 579.503684,26.0162827 L581.671926,25.6899267 C581.765526,25.6744712 581.843589,25.6238639 581.906305,25.5383874 C581.968737,25.4530995 582,25.3636649 582,25.2702723 L582,22.6822304 C582,22.5812042 581.968737,22.4898848 581.9064,22.4082723 L581.9064,22.4082723 Z" id="Shape-6" sketch:type="MSShapeGroup"></path>
            </g>
        </g>
    </g>
</svg>