<?xml version="1.0" encoding="utf-8"?>
<!-- Generator: Adobe Illustrator 16.0.0, SVG Export Plug-In . SVG Version: 6.00 Build 0)  -->
<!DOCTYPE svg PUBLIC "-//W3C//DTD SVG 1.1//EN" "http://www.w3.org/Graphics/SVG/1.1/DTD/svg11.dtd">
<svg version="1.1" id="Capa_1" xmlns="http://www.w3.org/2000/svg" xmlns:xlink="http://www.w3.org/1999/xlink" x="0px" y="0px"
	 width="17px" height="17px" viewBox="0 0 17 17" enable-background="new 0 0 17 17" xml:space="preserve">
<title>settings</title>
<desc>Created with Sketch.</desc>
<g>
	<path fill="#96A4AA" d="M16.326,6.916L16.326,6.916c-0.127-0.166-0.304-0.271-0.509-0.303l-1.521-0.232
		c-0.059-0.159-0.127-0.32-0.202-0.482c0.098-0.128,0.209-0.274,0.353-0.455c0.237-0.299,0.409-0.523,0.514-0.67
		c0.107-0.147,0.166-0.318,0.166-0.5c0-0.198-0.058-0.38-0.184-0.525c-0.23-0.331-0.787-0.903-1.653-1.703
		c-0.177-0.148-0.363-0.223-0.564-0.223c-0.218,0-0.417,0.075-0.567,0.227l-1.13,0.846c-0.125-0.056-0.254-0.109-0.388-0.159
		l-0.234-1.542c-0.013-0.181-0.113-0.37-0.281-0.506C9.972,0.564,9.787,0.5,9.588,0.5H7.412C7.006,0.5,6.7,0.738,6.603,1.131
		c-0.082,0.312-0.168,0.855-0.261,1.61c-0.13,0.049-0.259,0.103-0.386,0.161L4.818,2.021C4.653,1.894,4.47,1.824,4.274,1.824
		c-0.329,0-0.67,0.258-1.257,0.836C2.526,3.146,2.189,3.512,2.001,3.773C1.887,3.938,1.824,4.1,1.824,4.274
		c0,0.197,0.075,0.379,0.207,0.537c0.353,0.426,0.63,0.785,0.863,1.104C2.827,6.057,2.766,6.199,2.713,6.341L1.165,6.574
		C0.953,6.612,0.789,6.725,0.668,6.89C0.56,7.04,0.5,7.21,0.5,7.392v2.176c0,0.188,0.06,0.365,0.175,0.516
		c0.125,0.166,0.303,0.271,0.509,0.303L2.7,10.611c0.058,0.163,0.126,0.327,0.204,0.491c-0.098,0.129-0.209,0.273-0.352,0.453
		c-0.242,0.307-0.412,0.526-0.514,0.671c-0.106,0.146-0.166,0.317-0.166,0.499c0,0.18,0.052,0.35,0.154,0.495
		c0.284,0.393,0.841,0.961,1.688,1.727c0.14,0.141,0.34,0.229,0.561,0.229c0.211,0,0.405-0.069,0.56-0.209l1.139-0.862
		c0.125,0.057,0.253,0.109,0.386,0.159l0.234,1.543c0.012,0.18,0.113,0.369,0.282,0.506C7.029,16.436,7.213,16.5,7.412,16.5h2.176
		c0.405,0,0.711-0.238,0.81-0.631c0.081-0.312,0.168-0.856,0.262-1.61c0.13-0.049,0.258-0.103,0.385-0.16l1.137,0.89
		c0.197,0.129,0.367,0.188,0.545,0.188c0.329,0,0.67-0.258,1.251-0.831c0.488-0.479,0.826-0.849,1.021-1.116
		c0.105-0.113,0.178-0.301,0.178-0.503c0-0.201-0.074-0.388-0.207-0.546c-0.373-0.457-0.647-0.811-0.863-1.105
		c0.06-0.128,0.118-0.267,0.175-0.414l1.545-0.234c0.211-0.035,0.383-0.146,0.506-0.314C16.44,9.961,16.5,9.789,16.5,9.607V7.431
		C16.5,7.243,16.439,7.066,16.326,6.916z M16.029,9.607c0,0.079-0.025,0.154-0.078,0.227c-0.053,0.071-0.118,0.113-0.196,0.127
		l-1.813,0.274c-0.125,0.353-0.252,0.65-0.383,0.892c0.229,0.327,0.578,0.778,1.049,1.354c0.065,0.078,0.098,0.16,0.098,0.245
		s-0.029,0.16-0.088,0.226c-0.176,0.242-0.5,0.595-0.971,1.059s-0.777,0.695-0.921,0.695c-0.079,0-0.163-0.029-0.255-0.088
		l-1.354-1.059c-0.287,0.15-0.584,0.275-0.892,0.373c-0.104,0.889-0.2,1.496-0.284,1.823c-0.046,0.183-0.164,0.274-0.354,0.274
		H7.412c-0.091,0-0.171-0.027-0.24-0.083c-0.068-0.056-0.106-0.126-0.113-0.211l-0.274-1.804c-0.32-0.104-0.614-0.226-0.882-0.363
		L4.52,14.617c-0.065,0.059-0.147,0.088-0.245,0.088c-0.091,0-0.173-0.035-0.245-0.107c-0.823-0.744-1.363-1.294-1.618-1.646
		c-0.046-0.065-0.068-0.141-0.068-0.226c0-0.079,0.026-0.153,0.078-0.226c0.098-0.138,0.265-0.354,0.5-0.652
		c0.235-0.297,0.412-0.527,0.53-0.691c-0.177-0.326-0.311-0.65-0.402-0.971L1.255,9.922C1.17,9.908,1.101,9.867,1.049,9.799
		s-0.078-0.146-0.078-0.23V7.392c0-0.079,0.026-0.153,0.078-0.226c0.052-0.072,0.114-0.114,0.187-0.127l1.824-0.274
		c0.091-0.3,0.219-0.601,0.382-0.902C3.18,5.49,2.83,5.04,2.392,4.51C2.327,4.432,2.294,4.353,2.294,4.274
		c0-0.065,0.03-0.14,0.088-0.226c0.17-0.235,0.492-0.586,0.966-1.054c0.474-0.467,0.783-0.701,0.926-0.701
		c0.085,0,0.17,0.033,0.255,0.098l1.353,1.049c0.288-0.15,0.585-0.275,0.892-0.373C6.879,2.18,6.974,1.572,7.059,1.245
		c0.045-0.183,0.163-0.274,0.353-0.274h2.176c0.092,0,0.172,0.028,0.24,0.083C9.896,1.109,9.935,1.18,9.941,1.265l0.274,1.804
		c0.319,0.104,0.614,0.225,0.882,0.363l1.393-1.049c0.059-0.059,0.137-0.088,0.235-0.088c0.085,0,0.167,0.033,0.245,0.098
		c0.844,0.778,1.383,1.333,1.617,1.667c0.046,0.053,0.069,0.125,0.069,0.216c0,0.079-0.026,0.154-0.079,0.226
		c-0.098,0.137-0.264,0.354-0.5,0.652c-0.234,0.297-0.412,0.528-0.529,0.691c0.17,0.327,0.305,0.647,0.402,0.96l1.794,0.274
		c0.085,0.013,0.153,0.054,0.206,0.123c0.053,0.068,0.078,0.145,0.078,0.23V9.607z"/>
	<path fill="#96A4AA" d="M8.5,5.52c-0.818,0-1.529,0.294-2.107,0.873C5.814,6.971,5.52,7.683,5.52,8.5
		c0,0.818,0.294,1.529,0.873,2.107S7.683,11.48,8.5,11.48s1.529-0.295,2.107-0.873c0.578-0.579,0.873-1.29,0.873-2.107
		c0-0.818-0.295-1.529-0.873-2.107C10.029,5.814,9.317,5.52,8.5,5.52z M10.274,10.274c-0.49,0.49-1.081,0.735-1.774,0.735
		c-0.693,0-1.284-0.245-1.774-0.735S5.99,9.193,5.99,8.5c0-0.693,0.245-1.284,0.735-1.774S7.807,5.99,8.5,5.99
		c0.693,0,1.284,0.245,1.774,0.735S11.01,7.807,11.01,8.5C11.01,9.193,10.765,9.784,10.274,10.274z"/>
</g>
</svg>
