<?xml version="1.0" encoding="iso-8859-1"?>
<!-- Generator: Adobe Illustrator 16.0.0, SVG Export Plug-In . SVG Version: 6.00 Build 0)  -->
<!DOCTYPE svg PUBLIC "-//W3C//DTD SVG 1.1//EN" "http://www.w3.org/Graphics/SVG/1.1/DTD/svg11.dtd">
<svg version="1.1" xmlns="http://www.w3.org/2000/svg" xmlns:xlink="http://www.w3.org/1999/xlink" x="0px" y="0px" width="190px"
	 height="174.664px" viewBox="0 0 190 174.664" style="enable-background:new 0 0 190 174.664;" xml:space="preserve">
<g id="setting_advanced">
	<g id="settings_advanced">
		<path d="M63.333,112.674c-6.994,0-12.963-2.479-17.912-7.438C40.474,100.276,38,94.293,38,87.283
			c0-7.008,2.474-12.994,7.421-17.953c4.948-4.959,10.918-7.438,17.912-7.438c6.993,0,12.963,2.479,17.911,7.438
			c4.948,4.959,7.422,10.945,7.422,17.953c0,7.01-2.474,12.993-7.422,17.952C76.296,110.194,70.326,112.674,63.333,112.674z
			 M160.955,147.042c-2.473,2.48-5.459,3.721-8.955,3.721c-3.497,0-6.482-1.24-8.956-3.721c-2.476-2.479-3.711-5.47-3.711-8.977
			c0-3.438,1.253-6.412,3.761-8.926s5.477-3.771,8.906-3.771s6.398,1.257,8.906,3.771c2.507,2.514,3.761,5.487,3.761,8.926
			C164.667,141.572,163.43,144.562,160.955,147.042z M160.955,45.477c-2.473,2.48-5.459,3.72-8.955,3.72
			c-3.497,0-6.482-1.24-8.956-3.72c-2.476-2.479-3.711-5.47-3.711-8.976c0-3.437,1.253-6.413,3.761-8.926
			c2.508-2.512,5.477-3.769,8.906-3.769s6.398,1.257,8.906,3.769c2.507,2.514,3.761,5.489,3.761,8.926
			C164.667,40.007,163.43,42.997,160.955,45.477z M125.975,76.323c-0.463-0.561-1.023-0.908-1.684-1.041l-15.041-2.281
			c-0.727-2.248-1.848-4.959-3.365-8.133c0.99-1.454,2.475-3.437,4.453-5.952c1.979-2.511,3.365-4.297,4.156-5.355
			c0.462-0.661,0.693-1.29,0.693-1.885c0-1.786-4.752-7.075-14.25-15.871c-0.662-0.527-1.354-0.793-2.078-0.793
			c-0.793,0-1.452,0.233-1.979,0.695l-11.678,8.827c-2.706-1.389-5.18-2.413-7.422-3.074l-2.276-15.176
			c-0.066-0.661-0.396-1.24-0.989-1.736c-0.595-0.496-1.254-0.744-1.979-0.744H54.13c-1.519,0-2.508,0.794-2.969,2.38
			c-0.792,3.042-1.551,8.133-2.276,15.275c-2.837,0.927-5.377,1.983-7.62,3.173l-11.38-8.926c-0.66-0.462-1.353-0.695-2.078-0.695
			c-1.254,0-3.859,1.951-7.818,5.852c-3.958,3.902-6.664,6.844-8.114,8.828c-0.463,0.53-0.693,1.189-0.693,1.983
			c0,0.595,0.23,1.257,0.693,1.984c3.693,4.431,6.662,8.232,8.906,11.406c-1.386,2.711-2.442,5.224-3.167,7.538l-15.339,2.38
			c-0.593,0.067-1.123,0.414-1.583,1.041C0.23,76.654,0,77.299,0,77.96v18.35c0,0.729,0.23,1.373,0.692,1.935
			c0.461,0.562,1.023,0.878,1.683,0.942l15.042,2.381c0.792,2.514,1.945,5.224,3.463,8.133c-1.055,1.453-2.606,3.471-4.65,6.051
			c-2.046,2.578-3.398,4.331-4.057,5.256c-0.463,0.662-0.693,1.29-0.693,1.885c0,1.785,4.75,7.077,14.25,15.871
			c0.659,0.528,1.351,0.793,2.079,0.793c0.856,0,1.517-0.23,1.979-0.695l11.677-8.826c2.704,1.389,5.178,2.414,7.421,3.074
			l2.276,15.176c0.065,0.662,0.396,1.24,0.99,1.734c0.594,0.496,1.252,0.744,1.979,0.744h18.407c1.516,0,2.505-0.794,2.968-2.38
			c0.791-3.108,1.55-8.231,2.276-15.374c2.638-0.794,5.178-1.818,7.619-3.074l11.38,8.926c0.658,0.465,1.352,0.695,2.078,0.695
			c1.254,0,3.843-1.968,7.77-5.902c3.926-3.934,6.646-6.894,8.164-8.877c0.46-0.461,0.691-1.09,0.691-1.885
			c0-0.66-0.231-1.322-0.691-1.982c-3.695-4.43-6.665-8.233-8.906-11.406c1.387-2.711,2.439-5.223,3.166-7.538l15.34-2.381
			c0.594-0.065,1.121-0.412,1.582-1.041c0.461-0.628,0.692-1.272,0.692-1.935V78.257C126.666,77.531,126.436,76.886,125.975,76.323z
			 M175.255,128.049c-0.856-1.917-1.848-3.637-2.968-5.157c3.363-7.473,5.046-12.035,5.046-13.688c0-0.265-0.133-0.495-0.396-0.694
			c-7.916-4.627-12.008-6.941-12.271-6.941l-0.595,0.197c-2.705,2.713-5.738,6.414-9.104,11.108
			c-1.319-0.133-2.311-0.199-2.969-0.199c-0.66,0-1.649,0.066-2.97,0.199c-0.924-1.39-2.639-3.62-5.146-6.694
			c-2.508-3.074-4.024-4.611-4.553-4.611c-0.133,0-1.122,0.529-2.97,1.586c-1.846,1.059-3.793,2.183-5.838,3.373
			c-2.045,1.189-3.2,1.852-3.463,1.982c-0.266,0.199-0.396,0.432-0.396,0.694c0,1.653,1.684,6.216,5.047,13.688
			c-1.122,1.521-2.111,3.24-2.969,5.157c-9.83,0.991-14.744,2.019-14.744,3.074v13.885c0,1.06,4.914,2.084,14.744,3.076
			c0.793,1.785,1.781,3.503,2.969,5.156c-3.363,7.472-5.047,12.034-5.047,13.688c0,0.262,0.132,0.495,0.396,0.692
			c8.047,4.694,12.138,7.043,12.271,7.043c0.526,0,2.045-1.556,4.553-4.662c2.507-3.108,4.222-5.354,5.146-6.744
			c1.32,0.132,2.31,0.198,2.97,0.198c0.658,0,1.647-0.066,2.969-0.198c0.923,1.39,2.638,3.636,5.146,6.744
			c2.508,3.106,4.023,4.662,4.554,4.662c0.131,0,4.222-2.349,12.271-7.043c0.264-0.197,0.396-0.431,0.396-0.692
			c0-1.654-1.683-6.218-5.046-13.688c1.188-1.653,2.177-3.371,2.968-5.156c9.829-0.992,14.745-2.017,14.745-3.076v-13.885
			C190,130.065,185.084,129.04,175.255,128.049L175.255,128.049z M175.255,26.482c-0.856-1.916-1.848-3.635-2.968-5.157
			c3.363-7.472,5.046-12.034,5.046-13.688c0-0.264-0.133-0.496-0.396-0.695C169.021,2.315,164.93,0,164.667,0l-0.595,0.198
			c-2.705,2.712-5.738,6.415-9.104,11.108c-1.319-0.131-2.311-0.198-2.969-0.198c-0.66,0-1.649,0.066-2.97,0.198
			c-0.924-1.389-2.639-3.619-5.146-6.695C141.376,1.537,139.859,0,139.331,0c-0.133,0-1.122,0.53-2.97,1.587
			c-1.846,1.058-3.793,2.182-5.838,3.372s-3.2,1.852-3.463,1.983c-0.266,0.199-0.396,0.431-0.396,0.695
			c0,1.653,1.684,6.216,5.047,13.688c-1.122,1.522-2.111,3.241-2.969,5.157C118.914,27.475,114,28.501,114,29.558v13.886
			c0,1.059,4.914,2.083,14.744,3.075c0.793,1.786,1.781,3.505,2.969,5.158c-3.363,7.473-5.047,12.036-5.047,13.688
			c0,0.265,0.132,0.496,0.396,0.694c8.047,4.696,12.138,7.042,12.271,7.042c0.526,0,2.045-1.553,4.553-4.662
			c2.507-3.107,4.222-5.356,5.146-6.744c1.319,0.133,2.309,0.198,2.969,0.198c0.658,0,1.647-0.065,2.969-0.198
			c0.923,1.388,2.638,3.637,5.146,6.744c2.507,3.109,4.022,4.662,4.553,4.662c0.131,0,4.222-2.347,12.271-7.042
			c0.264-0.198,0.396-0.429,0.396-0.694c0-1.652-1.683-6.215-5.046-13.688c1.188-1.652,2.177-3.372,2.968-5.158
			C185.084,45.527,190,44.502,190,43.444V29.558C190,28.501,185.084,27.475,175.255,26.482L175.255,26.482z"/>
	</g>
</g>
<g id="Capa_1">
</g>
</svg>
