<?xml version="1.0" encoding="UTF-8" standalone="no"?>
<svg width="30px" height="31px" viewBox="0 0 30 31" version="1.1" xmlns="http://www.w3.org/2000/svg" xmlns:xlink="http://www.w3.org/1999/xlink" xmlns:sketch="http://www.bohemiancoding.com/sketch/ns">
    <!-- Generator: Sketch 3.2.2 (9983) - http://www.bohemiancoding.com/sketch -->
    <title>expand</title>
    <desc>Created with Sketch.</desc>
    <defs></defs>
    <g id="Page-1" stroke="none" stroke-width="1" fill="none" fill-rule="evenodd" sketch:type="MSPage">
        <g id="better-sidebar-detail-igram@2x" sketch:type="MSArtboardGroup" transform="translate(-367.000000, -309.000000)" fill="#FFFFFF">
            <path d="M368.551724,315.413793 L367,315.413793 L367,317.017241 L367,338.396552 L367,340 L368.551724,340 L389.33523,340 L390.886954,340 L390.886954,338.396552 L390.886954,329.844278 L387.783506,329.844278 L387.783506,338.396552 L389.33523,336.793103 L368.551724,336.793103 L370.103448,338.396552 L370.103448,317.017241 L368.551724,318.62069 L376.827586,318.62069 L376.827586,315.413793 L368.551724,315.413793 Z M395.448276,312.206897 L393.896552,310.603448 L393.896552,339.957265 L397,339.957265 L397,310.603448 L397,309 L395.448276,309 L367.103549,309 L367.103549,312.206897 L395.448276,312.206897 Z M383.777893,319.876827 L379.627821,318.378868 L380.71137,315.561602 L387.214182,317.908776 L387.941218,318.171198 L388.16073,318.892105 L390.124105,325.340089 L387.147459,326.190698 L385.89444,322.075616 L379.706014,327.666079 L377.589468,325.467289 L383.777893,319.876827 L383.777893,319.876827 Z" id="expand" sketch:type="MSShapeGroup"></path>
        </g>
    </g>
</svg>