<?xml version="1.0" encoding="UTF-8" standalone="no"?>
<svg width="16px" height="18px" viewBox="0 0 16 18" version="1.1" xmlns="http://www.w3.org/2000/svg" xmlns:xlink="http://www.w3.org/1999/xlink" xmlns:sketch="http://www.bohemiancoding.com/sketch/ns">
    <!-- Generator: Sketch 3.3 (11970) - http://www.bohemiancoding.com/sketch -->
    <title>Shape 3</title>
    <desc>Created with Sketch.</desc>
    <defs></defs>
    <g id="Page-1" stroke="none" stroke-width="1" fill="none" fill-rule="evenodd" sketch:type="MSPage">
        <g id="settings-general@2x" sketch:type="MSArtboardGroup" transform="translate(-274.000000, -92.000000)" fill="#565656">
            <path d="M288.65237,110 L275.347541,110 C274.603349,110 274,109.403341 274,108.667604 L274,100.613451 L280.712687,105.849407 C281.430438,106.409143 282.593867,106.409143 283.311529,105.849407 L290,100.632615 L290,108.667604 C290,109.403341 289.39674,110 288.65237,110 L288.65237,110 Z M278.864804,105.673407 C278.677042,105.453802 278.344608,105.426198 278.122392,105.611956 L275.465326,107.833143 C275.24311,108.018637 275.215244,108.347516 275.403095,108.567209 C275.590946,108.786901 275.923291,108.814418 276.145507,108.628659 L278.802662,106.407648 C279.024878,106.221802 279.052833,105.893187 278.864804,105.673407 L278.864804,105.673407 Z M288.424456,107.833143 L285.767301,105.611956 C285.545085,105.426374 285.212651,105.453802 285.0248,105.673407 C284.837038,105.893187 284.864993,106.221802 285.087031,106.40756 L287.744187,108.628659 C287.966403,108.814418 288.298747,108.786901 288.486687,108.567209 C288.674627,108.347341 288.646672,108.018637 288.424456,107.833143 L288.424456,107.833143 Z M279.586561,99.2913407 L284.437922,99.2913407 C284.640819,99.2913407 284.805522,99.4541538 284.805522,99.6546813 C284.805522,99.8554725 284.640819,100.018198 284.437922,100.018198 L279.586561,100.018198 C279.383575,100.018198 279.218961,99.8554725 279.218961,99.6546813 C279.218961,99.4541538 279.383486,99.2913407 279.586561,99.2913407 L279.586561,99.2913407 Z M279.586561,102.683165 L284.437922,102.683165 C284.640819,102.683165 284.805522,102.845978 284.805522,103.046681 C284.805522,103.247385 284.640819,103.410022 284.437922,103.410022 L279.586561,103.410022 C279.383575,103.410022 279.218961,103.247385 279.218961,103.046681 C279.218961,102.845978 279.383486,102.683165 279.586561,102.683165 L279.586561,102.683165 Z M279.586561,100.987341 L284.437922,100.987341 C284.640819,100.987341 284.805522,101.150154 284.805522,101.350769 C284.805522,101.551473 284.640819,101.714198 284.437922,101.714198 L279.586561,101.714198 C279.383575,101.714198 279.218961,101.551297 279.218961,101.350769 C279.218961,101.150154 279.383486,100.987341 279.586561,100.987341 L279.586561,100.987341 Z M289.525298,99.8094945 L286.544434,102.134769 C286.54479,102.123692 286.545324,102.112791 286.545324,102.101802 L286.545324,98.9764396 C286.545324,98.5081319 286.161432,98.1284396 285.687709,98.1284396 L278.336863,98.1284396 C277.863318,98.1284396 277.479248,98.508044 277.479248,98.9764396 L277.479248,102.101802 C277.479248,102.114989 277.479604,102.128 277.480316,102.140923 L274.491261,99.8094945 C273.945959,99.3841758 273.945959,98.6945934 274.491261,98.2691868 L281.020994,93.1761758 C281.566207,92.7507692 282.450442,92.7507692 282.995743,93.1761758 L289.525476,98.2692747 C290.0706,98.6946813 290.0706,99.3842637 289.525298,99.8094945 L289.525298,99.8094945 Z" id="Shape-3" sketch:type="MSShapeGroup"></path>
        </g>
    </g>
</svg>