<?xml version="1.0" encoding="UTF-8" standalone="no"?>
<svg width="10px" height="14px" viewBox="0 0 10 14" version="1.1" xmlns="http://www.w3.org/2000/svg" xmlns:xlink="http://www.w3.org/1999/xlink" xmlns:sketch="http://www.bohemiancoding.com/sketch/ns">
    <!-- Generator: Sketch 3.2.2 (9983) - http://www.bohemiancoding.com/sketch -->
    <title>Rectangle 86</title>
    <desc>Created with Sketch.</desc>
    <defs></defs>
    <g id="Page-1" stroke="none" stroke-width="1" fill="none" fill-rule="evenodd" sketch:type="MSPage">
        <g id="icons@2x" sketch:type="MSArtboardGroup" transform="translate(-1504.000000, -61.000000)" fill="#000000">
            <path d="M1504,63.8764279 C1504,62.8401054 1504.83225,62 1505.875,62 C1506.91053,62 1507.75,62.8329844 1507.75,63.8764279 L1507.75,73.1235721 C1507.75,74.1598946 1506.91775,75 1505.875,75 C1504.83947,75 1504,74.1670156 1504,73.1235721 L1504,63.8764279 Z M1510.25,63.6261274 C1510.25,62.5898049 1511.08225,61.7496995 1512.125,61.7496995 C1513.16053,61.7496995 1514,62.5826839 1514,63.6261274 L1514,72.8732716 C1514,73.9095941 1513.16775,74.7496995 1512.125,74.7496995 C1511.08947,74.7496995 1510.25,73.9167151 1510.25,72.8732716 L1510.25,63.6261274 Z" id="Rectangle-86" sketch:type="MSShapeGroup"></path>
        </g>
    </g>
</svg>