<?xml version="1.0" encoding="utf-8"?>
<!-- Generated by IcoMoon.io -->
<!DOCTYPE svg PUBLIC "-//W3C//DTD SVG 1.1//EN" "http://www.w3.org/Graphics/SVG/1.1/DTD/svg11.dtd">
<svg version="1.1" xmlns="http://www.w3.org/2000/svg" xmlns:xlink="http://www.w3.org/1999/xlink" width="32" height="32" viewBox="0 0 32 32">
<path fill="#565656" d="M1.832 24.889c0.449 4.020 3.638 7.111 7.475 7.111h13.386c3.837 0 7.026-3.091 7.475-7.111h0.066c0.975 0 1.766-0.792 1.766-1.77v-14.239c0-0.96-0.791-1.77-1.766-1.77h-0.066c-0.449-4.020-3.638-7.111-7.475-7.111h-13.386c-3.837 0-7.026 3.091-7.475 7.111h-0.066c-0.975 0-1.766 0.792-1.766 1.77v14.239c0 0.96 0.791 1.77 1.766 1.77h0.066zM26.564 7.111h-21.128c0.421-2.024 2.091-3.556 4.11-3.556h12.908c2.019 0 3.689 1.531 4.11 3.556zM26.564 24.889c-0.421 2.024-2.091 3.556-4.11 3.556h-12.908c-2.019 0-3.689-1.531-4.11-3.556h21.128zM7.118 14.216v0.221c0.355-0.424 0.724-0.735 1.107-0.934s0.816-0.298 1.301-0.298c0.581 0 1.116 0.145 1.605 0.435s0.875 0.714 1.159 1.272c0.284 0.558 0.425 1.218 0.425 1.981 0 0.562-0.082 1.079-0.246 1.549s-0.389 0.866-0.675 1.185c-0.286 0.319-0.624 0.564-1.014 0.736s-0.808 0.258-1.256 0.258c-0.54 0-0.993-0.105-1.359-0.315s-0.716-0.518-1.048-0.924v2.744c0 0.803-0.302 1.205-0.906 1.205-0.355 0-0.59-0.104-0.706-0.311s-0.173-0.51-0.173-0.907v-7.884c0-0.348 0.078-0.608 0.235-0.78s0.371-0.258 0.643-0.258c0.268 0 0.485 0.088 0.654 0.264s0.253 0.429 0.253 0.76zM10.82 16.873c0-0.482-0.076-0.896-0.228-1.242s-0.363-0.611-0.633-0.796c-0.27-0.185-0.568-0.278-0.896-0.278-0.521 0-0.96 0.199-1.318 0.596s-0.536 0.982-0.536 1.754c0 0.727 0.178 1.293 0.533 1.697s0.796 0.606 1.321 0.606c0.314 0 0.604-0.088 0.872-0.264s0.482-0.441 0.643-0.793c0.161-0.352 0.242-0.779 0.242-1.278zM18.933 19.577v-0.181c-0.254 0.281-0.504 0.51-0.751 0.686s-0.514 0.31-0.803 0.402c-0.288 0.091-0.603 0.137-0.944 0.137-0.452 0-0.871-0.093-1.256-0.278s-0.718-0.45-1-0.793c-0.281-0.344-0.495-0.747-0.64-1.211s-0.218-0.966-0.218-1.506c0-1.142 0.288-2.032 0.865-2.671s1.335-0.957 2.276-0.957c0.544 0 1.003 0.090 1.377 0.271s0.738 0.458 1.093 0.833v-2.697c0-0.375 0.077-0.658 0.232-0.85s0.375-0.288 0.661-0.288c0.286 0 0.506 0.088 0.661 0.264s0.232 0.436 0.232 0.78v8.059c0 0.348-0.083 0.609-0.249 0.783s-0.381 0.261-0.643 0.261c-0.258 0-0.472-0.090-0.64-0.271s-0.253-0.438-0.253-0.773zM15.218 16.893c0 0.495 0.080 0.917 0.239 1.265s0.377 0.61 0.654 0.786c0.277 0.176 0.579 0.264 0.906 0.264 0.332 0 0.635-0.084 0.91-0.251s0.494-0.424 0.657-0.77c0.164-0.346 0.246-0.777 0.246-1.295 0-0.486-0.082-0.905-0.246-1.255s-0.385-0.618-0.664-0.803c-0.279-0.185-0.585-0.278-0.917-0.278-0.346 0-0.655 0.095-0.927 0.284s-0.483 0.462-0.633 0.817c-0.15 0.355-0.225 0.766-0.225 1.235zM22.107 13.353h0.45v-0.549c0-0.571 0.075-1.025 0.225-1.362s0.404-0.582 0.761-0.736c0.357-0.154 0.848-0.231 1.47-0.231 1.102 0 1.654 0.261 1.654 0.783 0 0.17-0.058 0.315-0.173 0.435s-0.251 0.181-0.408 0.181c-0.074 0-0.201-0.013-0.381-0.040s-0.332-0.040-0.457-0.040c-0.341 0-0.56 0.097-0.657 0.291s-0.145 0.472-0.145 0.833v0.435h0.464c0.72 0 1.079 0.21 1.079 0.629 0 0.299-0.096 0.489-0.287 0.569s-0.455 0.12-0.792 0.12h-0.464v4.839c0 0.361-0.089 0.637-0.266 0.827s-0.407 0.284-0.688 0.284c-0.267 0-0.49-0.095-0.668-0.284s-0.266-0.465-0.266-0.827v-4.839h-0.519c-0.281 0-0.498-0.061-0.65-0.184s-0.228-0.282-0.228-0.479c0-0.437 0.316-0.656 0.948-0.656z"></path>
</svg>
