<?xml version="1.0" encoding="UTF-8" standalone="no"?>
<svg width="12px" height="5px" viewBox="0 0 12 5" version="1.1" xmlns="http://www.w3.org/2000/svg" xmlns:xlink="http://www.w3.org/1999/xlink" xmlns:sketch="http://www.bohemiancoding.com/sketch/ns">
    <!-- Generator: Sketch 3.3 (11970) - http://www.bohemiancoding.com/sketch -->
    <title>PDF</title>
    <desc>Created with Sketch.</desc>
    <defs></defs>
    <g id="Page-1" stroke="none" stroke-width="1" fill="none" fill-rule="evenodd" sketch:type="MSPage">
        <g id="files-2@2x" sketch:type="MSArtboardGroup" transform="translate(-74.000000, -570.000000)" fill="#FFFFFF">
            <g id="Group" sketch:type="MSLayerGroup" transform="translate(28.000000, 304.000000)">
                <g id="Rectangle-4-+-PDF" transform="translate(43.000000, 259.000000)" sketch:type="MSShapeGroup">
                    <path d="M3.46289062,12 L3.46289062,7.70507812 L5.08300781,7.70507812 C5.36816549,7.70507812 5.58593675,7.71874986 5.73632812,7.74609375 C5.94726668,7.78125018 6.12402272,7.84814404 6.26660156,7.94677734 C6.4091804,8.04541065 6.52392535,8.18359286 6.61083984,8.36132812 C6.69775434,8.53906339 6.74121094,8.73437394 6.74121094,8.94726562 C6.74121094,9.31250183 6.62500116,9.62158077 6.39257812,9.87451172 C6.16015509,10.1274427 5.74023741,10.2539062 5.1328125,10.2539062 L4.03125,10.2539062 L4.03125,12 L3.46289062,12 Z M4.03125,9.74707031 L5.14160156,9.74707031 C5.5087909,9.74707031 5.76953048,9.67871162 5.92382812,9.54199219 C6.07812577,9.40527275 6.15527344,9.21289187 6.15527344,8.96484375 C6.15527344,8.78515535 6.10986374,8.6313483 6.01904297,8.50341797 C5.9282222,8.37548764 5.80859449,8.29101583 5.66015625,8.25 C5.56445265,8.22460925 5.3876966,8.21191406 5.12988281,8.21191406 L4.03125,8.21191406 L4.03125,9.74707031 Z M7.46484375,12 L7.46484375,7.70507812 L8.94433594,7.70507812 C9.27832198,7.70507812 9.53320225,7.72558573 9.70898438,7.76660156 C9.95507936,7.82324247 10.1650382,7.92578051 10.3388672,8.07421875 C10.5654308,8.26562596 10.7348627,8.51025242 10.847168,8.80810547 C10.9594732,9.10595852 11.015625,9.44628715 11.015625,9.82910156 C11.015625,10.1552751 10.9775394,10.4443347 10.9013672,10.6962891 C10.8251949,10.9482434 10.7275397,11.1567375 10.6083984,11.3217773 C10.4892572,11.4868172 10.3588874,11.6166987 10.2172852,11.7114258 C10.0756829,11.8061528 9.90478616,11.8779294 9.70458984,11.9267578 C9.50439353,11.9755862 9.27441536,12 9.01464844,12 L7.46484375,12 Z M8.03320312,11.4931641 L8.95019531,11.4931641 C9.23339985,11.4931641 9.4555656,11.4667971 9.61669922,11.4140625 C9.77783284,11.3613279 9.90624952,11.2871099 10.0019531,11.1914062 C10.1367194,11.05664 10.2416988,10.8754894 10.3168945,10.6479492 C10.3920902,10.420409 10.4296875,10.1445329 10.4296875,9.8203125 C10.4296875,9.3710915 10.3559578,9.02588011 10.2084961,8.78466797 C10.0610344,8.54345583 9.88183699,8.38183635 9.67089844,8.29980469 C9.51855393,8.24121064 9.27343919,8.21191406 8.93554688,8.21191406 L8.03320312,8.21191406 L8.03320312,11.4931641 Z M11.8271484,12 L11.8271484,7.70507812 L14.7246094,7.70507812 L14.7246094,8.21191406 L12.3955078,8.21191406 L12.3955078,9.54199219 L14.4111328,9.54199219 L14.4111328,10.0488281 L12.3955078,10.0488281 L12.3955078,12 L11.8271484,12 Z" id="PDF"></path>
                </g>
            </g>
        </g>
    </g>
</svg>