<?xml version="1.0" encoding="UTF-8" standalone="no"?>
<svg width="490px" height="490px" viewBox="0 0 490 490" version="1.1" xmlns="http://www.w3.org/2000/svg" xmlns:xlink="http://www.w3.org/1999/xlink" xmlns:sketch="http://www.bohemiancoding.com/sketch/ns">
    <!-- Generator: Sketch 3.5.1 (25234) - http://www.bohemiancoding.com/sketch -->
    <title>behaviour</title>
    <desc>Created with Sketch.</desc>
    <defs></defs>
    <g id="Page-1" stroke="none" stroke-width="1" fill="none" fill-rule="evenodd" sketch:type="MSPage">
        <g id="Artboard-32" sketch:type="MSArtboardGroup" transform="translate(-5.000000, -5.000000)" fill="#73B94F">
            <path d="M372.376758,345.686068 C380.865174,328.029724 385.624361,308.260433 385.624361,287.408153 C385.624361,279.872278 385.004896,272.479953 383.814331,265.279153 C382.145479,260.400309 367.996527,255.537185 344.14715,253.498722 C343.684968,254.944715 343.043812,256.309933 342.24961,257.568451 C362.595364,287.478217 373.036488,319.100803 372.376758,345.686073 Z M348.791562,379.978572 C347.943669,380.877688 347.083616,381.765221 346.211669,382.640902 C327.435713,401.201618 291.150182,402.223397 253.647148,386.974482 C265.211079,363.396527 276.641495,331.403155 285.501878,295.382514 C286.007195,293.341556 286.497542,291.310805 286.973046,289.290971 C292.520916,288.989737 296.889546,284.431345 296.767239,278.927492 C296.767239,274.958894 294.493734,271.481865 291.188268,269.737946 C292.281458,264.144749 293.254808,258.661677 294.111381,253.305738 C299.583054,252.964877 304.845419,252.738494 309.88695,252.614937 C311.901147,260.265261 318.853829,265.890048 327.145746,265.890048 C328.898598,265.890048 330.591603,265.638694 332.190762,265.169985 C362.011695,308.897714 369.442783,355.559231 348.791562,379.978572 Z M297.63122,225.592952 C296.957509,232.934722 296.027893,240.639733 294.831681,248.64864 C299.532046,248.243813 304.385152,247.874096 309.304647,247.56363 C309.382613,244.589658 310.184423,241.799253 311.54079,239.361697 C309.382693,237.03923 307.158157,234.741762 304.868178,232.473697 C302.485653,230.108313 300.071665,227.814367 297.63122,225.592952 Z M298.711411,209.90094 C299.175581,199.441197 299.047981,189.953143 298.368015,181.65554 C320.890188,180.806932 340.207507,186.446038 352.097986,198.421771 C365.318403,213.486198 375.247593,231.51107 380.747255,251.367318 C371.488507,248.391889 358.828171,247.036396 344.943044,246.692283 C344.255144,237.452603 336.564409,230.195309 327.145746,230.195309 C325.06404,230.195309 323.066742,230.549825 321.210804,231.201904 C318.916234,228.72652 316.548467,226.27986 314.108306,223.866455 C309.105791,218.907918 303.960027,214.250202 298.711411,209.90094 Z M291.194728,219.951921 C290.628153,229.364589 289.717157,239.262845 288.48178,249.224268 C284.139044,249.637188 279.972037,250.0721 276.056215,250.507909 C274.936223,247.29732 271.888488,245.004832 268.287393,245.004832 C263.997421,245.004832 260.492769,248.258302 260.097076,252.441605 C254.323458,253.198149 249.936977,253.835853 247.492548,254.199583 C246.452199,247.811859 242.682758,242.324812 237.425343,238.97956 C242.618189,223.178813 248.400905,207.885467 254.232102,194.870853 C266.692421,201.434171 279.201384,209.835644 291.194728,219.951921 Z M291.824035,204.413993 C291.981347,196.226926 291.825144,188.679742 291.338854,182.121786 C282.977168,182.910256 274.253425,184.548205 265.366955,187.042786 C274.295603,191.990052 283.172214,197.791332 291.824035,204.413993 Z M190.725635,166.339441 C208.775076,157.385108 229.0968,152.350399 250.566606,152.350399 C255.693555,152.350399 260.755035,152.637501 265.735738,153.19652 C260.06141,158.893246 254.016028,167.420599 247.951933,178.493197 C227.922144,169.90924 208.195464,165.734961 190.725629,166.339441 Z M156.650046,190.423653 C154.969977,192.050794 153.331911,193.721107 151.737658,195.432797 C137.283602,213.196302 135.64636,242.979281 146.342586,274.673531 C154.502568,261.535175 164.787622,248.525481 176.977355,236.254336 C176.044343,234.699399 175.506386,232.885245 175.506386,230.954775 C175.506386,225.258806 180.189739,220.575454 185.885708,220.575454 C188.098005,220.575454 190.157547,221.281948 191.849263,222.479866 C192.847324,221.628797 193.855159,220.782951 194.872681,219.942568 C210.200044,207.229572 226.357826,196.945551 242.463216,189.208215 C208.064964,174.222743 175.419411,173.744472 156.650046,190.423653 Z M355.062591,390.892356 C328.36601,417.811194 291.371169,434.490732 250.566606,434.490732 C205.018502,434.490732 164.217366,413.667892 137.187877,381.04689 L137.153528,381.075205 C136.598748,380.403989 136.062416,379.721367 135.544414,379.027665 C115.411368,353.843419 103.35745,321.93646 103.35745,287.281578 C103.35745,248.106261 118.761126,212.472019 143.826542,186.092291 C144.529353,185.289278 145.258423,184.505479 146.013924,183.741521 L146.062539,183.78942 C172.759735,156.881903 209.757925,140.198998 250.566606,140.198998 C294.864212,140.198998 334.671921,159.856443 361.68814,190.910937 C362.522082,191.781603 363.328428,192.682768 364.10625,193.614534 L364.033577,193.674439 C380.383321,213.4227 391.679399,237.495556 395.917813,263.898953 C395.949631,264.055054 395.978263,264.212442 396.003677,264.371127 L395.993063,264.372691 C397.166472,271.838956 397.775762,279.490233 397.775762,287.281578 C397.775762,326.410317 382.456528,361.988046 357.512843,388.362373 C356.745374,389.248415 355.947572,390.110653 355.119283,390.948214 L355.062591,390.892356 Z M247.772778,258.43111 C252.186005,257.743253 256.515823,257.122542 260.758579,256.565288 C262.033417,259.453138 264.918215,261.459854 268.287393,261.459854 C272.210692,261.459854 275.538379,258.581068 276.336429,254.757521 C280.2806,254.361383 284.136465,254.02192 287.900572,253.735643 C287.237142,258.698875 286.494087,263.661967 285.673877,268.57282 C280.305752,268.944471 276.008596,273.471424 276.008596,278.927492 C276.008596,283.015116 278.420519,286.581243 281.88773,288.269238 C281.263121,291.11187 280.611187,293.9088 279.932486,296.648285 C272.634259,326.040232 259.563024,359.674993 247.026026,384.11777 C235.008728,378.632794 222.964846,371.492488 211.426718,362.738291 C213.622978,337.148219 219.038312,306.690745 225.601147,280.066476 C237.620336,280.015 247.432389,270.381703 247.772777,258.43112 Z M205.183496,266.912568 C183.128789,272.30141 164.464597,278.528908 150.0622,284.571121 C157.089654,301.538902 167.574635,318.749996 181.444962,334.694865 C182.948583,333.843141 184.680885,333.355641 186.518593,333.355641 C192.214562,333.355641 196.897915,338.038993 196.897915,343.734962 C196.897915,345.713322 196.332936,347.569523 195.356782,349.149764 C196.794219,350.501034 198.244768,351.824764 199.707223,353.120859 C201.971247,332.453327 206.399126,307.406014 213.099788,277.788296 C213.198835,277.351097 213.29821,276.914795 213.397909,276.479391 C209.822745,274.154699 206.951857,270.833007 205.183496,266.912568 Z M203.726696,262.49116 C187.594225,266.045123 169.072196,270.692229 152.468493,276.253882 C159.545202,263.592421 168.699789,251.059918 179.835644,239.367767 C181.543439,240.60322 183.63556,241.334097 185.885708,241.334097 C191.581677,241.334097 196.265029,236.650744 196.265029,230.954775 C196.265029,228.908098 195.660357,226.992161 194.621305,225.377257 C195.414859,224.700442 196.215929,224.028015 197.024492,223.36015 C210.379387,212.329124 224.61615,203.506188 238.935663,196.862745 C233.939631,208.139726 229.052254,221.085501 224.477398,235.534948 C212.673628,236.07393 203.226775,245.855299 203.226775,257.789115 C203.226775,259.40159 203.399245,260.974768 203.726696,262.49116 Z M282.859063,156.907178 L283.096913,156.907178 C286.632517,157.741046 289.051864,163.936463 290.442967,173.638206 C280.822779,175.196136 270.816847,177.837909 260.653982,181.533023 C268.867062,165.797194 276.777738,155.948771 282.843763,157.033751 L282.859063,156.907178 Z M199.122939,358.866265 C196.773804,356.785222 194.445957,354.64291 192.142942,352.440251 C190.518303,353.497843 188.58509,354.114284 186.518593,354.114284 C180.822624,354.114284 176.139272,349.430931 176.139272,343.734962 C176.139272,341.529294 176.841538,339.475467 178.032929,337.786624 C164.483807,322.503994 153.555436,306.326511 145.507882,290.241992 C131.229895,322.89921 131.014599,354.673404 146.520233,373.354001 L146.501259,373.369642 C161.187614,391.113835 180.312322,405.059774 202.15121,413.483287 C197.866029,401.952292 196.783903,383.873846 199.122939,358.866265 Z M210.967458,368.708296 C221.746254,377.095827 232.833341,384.227174 243.911636,390.019844 C233.683018,408.837295 224.174457,420.644621 218.922328,417.909137 L218.626075,418.644991 C218.604052,418.639624 218.582032,418.634251 218.560013,418.628872 L218.795757,418.035711 C211.10207,413.788796 209.244561,394.188245 210.967458,368.708296 Z M117.152941,308.478902 C118.637542,317.901068 121.101194,327.003886 124.435985,335.679446 C125.473346,321.369678 130.020799,305.871302 137.705968,290.214806 C122.129197,298.02008 114.705657,304.910615 117.534079,308.419954 C117.534079,308.419954 117.534079,308.546531 117.534079,308.419954 L117.15294,308.478893 Z M115.632602,293.222696 C115.550381,291.294525 115.508851,289.356065 115.508851,287.408153 C115.508851,266.07265 120.474267,245.887797 129.307472,227.942318 C129.055642,244.043956 133.063401,262.02834 140.937353,280.401232 C130.838776,284.318714 122.002,288.609195 115.632602,293.222696 Z M321.655756,172.605537 C313.159015,167.326705 304.036621,162.964588 294.428271,159.657749 C295.637448,163.38534 296.615988,167.754371 297.351938,172.698484 C301.776847,172.213783 306.104434,171.969851 310.310987,171.969851 C314.200504,171.969851 317.988172,172.181095 321.655756,172.605537 Z M311.277367,408.018382 C293.012028,417.256945 272.381986,422.465908 250.566606,422.465908 C244.113335,422.465908 237.763788,422.010097 231.548492,421.129001 C237.534667,415.117127 243.975596,405.578888 250.44507,393.28188 C270.028306,402.598356 289.388551,407.668977 306.766829,408.036124 C308.28612,408.06572 309.790032,408.059946 311.277367,408.018382 Z M250,495 C385.309764,495 495,385.309764 495,250 C495,114.690236 385.309764,5 250,5 C114.690236,5 5,114.690236 5,250 C5,385.309764 114.690236,495 250,495 Z M307.77945,368.670646 C297.146976,368.670646 288.413157,360.063404 288.413157,349.304351 C288.413157,338.671875 297.020399,329.938057 307.77945,329.938057 C318.411926,329.938057 327.145746,338.671875 327.145746,349.304351 C327.145746,359.936827 318.411926,368.670646 307.77945,368.670646 Z M248.288218,332.469598 C239.301245,332.469598 231.959774,325.128126 231.959774,316.141153 C231.959774,307.15418 239.301245,299.812708 248.288218,299.812708 C257.275192,299.812708 264.616663,307.15418 264.616663,316.141153 C264.616663,325.128126 257.275192,332.469598 248.288218,332.469598 Z M115.12912,184.627557 C113.610195,187.032521 111.078653,188.298293 108.547111,188.298293 C107.154763,188.298293 105.762415,187.918561 104.370067,187.159099 L63.3590901,161.590527 C60.9541254,160.198179 59.6883545,157.666637 59.6883545,155.008518 C59.6883545,153.61617 60.0680858,152.223822 60.8275483,150.831474 C62.3464734,148.426509 64.8780152,147.160738 67.409557,147.160738 C68.801905,147.160738 70.194253,147.540469 71.586601,148.299932 L112.597578,173.741927 C115.002543,175.260852 116.268314,177.792394 116.268314,180.450513 C116.394891,181.842861 116.01516,183.361786 115.12912,184.627557 Z M384.738321,184.627557 C383.978858,183.361786 383.599127,181.969438 383.599127,180.450513 C383.599127,177.792394 384.864899,175.260852 387.269864,173.741927 L428.280841,148.299932 C429.546612,147.540469 430.93896,147.160738 432.457885,147.160738 C435.116004,147.160738 437.647545,148.426509 439.16647,150.831474 C439.925933,152.097245 440.305664,153.489593 440.305664,155.008518 C440.305664,157.666637 439.039892,160.198179 436.634929,161.717103 L395.62395,187.159099 C394.358181,188.045138 392.965833,188.298293 391.446908,188.298293 C388.788789,188.298293 386.257246,187.032521 384.738321,184.627557 Z M169.810423,136.148531 C168.671229,136.65484 167.532035,136.907994 166.392841,136.907994 C163.481568,136.907994 160.696872,135.262492 159.304524,132.477796 L138.545882,88.9352769 C138.039573,87.796083 137.786419,86.6568892 137.786419,85.5176953 C137.786419,82.6064224 139.431921,79.8217263 142.216617,78.4293783 C143.355811,77.92307 144.495005,77.6699159 145.634199,77.6699159 C148.545472,77.6699159 151.330168,79.315418 152.722516,82.100114 L173.607735,125.76921 C174.114044,126.781827 174.367198,128.047598 174.367198,129.060214 C174.367198,131.971487 172.721696,134.882761 169.810423,136.148531 Z M327.525477,136.148531 C324.74078,134.756183 323.095279,131.971487 323.095279,129.060214 C323.095279,127.92102 323.348433,126.781827 323.854742,125.76921 L344.73996,82.2266911 C346.13231,79.4419952 348.917005,77.7964929 351.828279,77.7964929 C352.967473,77.7964929 354.106667,78.049647 355.119283,78.5559554 C357.903978,79.8217263 359.54948,82.7329994 359.54948,85.6442725 C359.54948,86.7834663 359.296327,87.9226602 358.790018,89.061854 L337.904797,132.477796 C336.51245,135.262492 333.727755,136.907994 330.816481,136.907994 C329.803865,136.907994 328.538093,136.65484 327.525477,136.148531 Z M242.718827,110.073651 L242.718827,61.8477796 C242.718827,57.5441585 246.262985,54 250.566606,54 C254.870227,54 258.414386,57.5441585 258.414386,61.8477796 L258.414386,110.200228 C258.414386,114.503849 254.870227,118.048008 250.566606,118.048008 C246.262985,117.92143 242.718827,114.377272 242.718827,110.073651 Z" id="behaviour" sketch:type="MSShapeGroup"></path>
        </g>
    </g>
</svg>