<?xml version="1.0" encoding="UTF-8" standalone="no"?>
<svg width="18px" height="18px" viewBox="0 0 18 18" version="1.1" xmlns="http://www.w3.org/2000/svg" xmlns:xlink="http://www.w3.org/1999/xlink" xmlns:sketch="http://www.bohemiancoding.com/sketch/ns">
    <!-- Generator: Sketch 3.4.4 (17249) - http://www.bohemiancoding.com/sketch -->
    <title>Oval 1084 Copy</title>
    <desc>Created with Sketch.</desc>
    <defs></defs>
    <g id="Page-1" stroke="none" stroke-width="1" fill="none" fill-rule="evenodd" sketch:type="MSPage">
        <g id="C-4-A@2x" sketch:type="MSArtboardGroup" transform="translate(-377.000000, -702.000000)" fill="#000000">
            <path d="M386,720 C390.970563,720 395,715.970563 395,711 C395,706.029437 390.970563,702 386,702 C381.029437,702 377,706.029437 377,711 C377,715.970563 381.029437,720 386,720 Z M384.43,714.639384 C383.184366,713.872182 382,712.343528 382,710.58 C382,708.048 383.791,706.005 386,706.005 C388.209,706.005 390,708.048 390,710.58 C390,712.344 388.815,713.873 387.57,714.64 L387.57,715.953 C387.57,716.208 387.494,716.446 387.363,716.645 C387.369,716.68 387.372,716.715 387.372,716.752 C387.372,717.024 387.2,717.256 386.954,717.34 L386.954,717.373 C386.954,717.716 386.673,717.994 386.33,717.994 L385.672,717.994 C385.326,717.994 385.047,717.719 385.047,717.373 L385.047,717.339 C384.804,717.256 384.629,717.025 384.629,716.752 C384.629,716.715 384.632,716.68 384.638,716.646 C384.507,716.448 384.431,716.21 384.431,715.953 L384.431,714.645615 C384.430667,714.64541 384.430333,714.645205 384.43,714.645 L384.43,714.639384 Z M386.011,714.229 C385.77,714.229 385.484,714.141 385.189,714.005 L384.9,712.062 L386.954,712.062 L386.655,714.078 C386.425,714.166 386.203,714.229 386.011,714.229 L386.011,714.229 Z M387.367,713.692 L387.871,711.035 C387.916,710.869 387.812,710.696 387.652,710.653 C387.486,710.608 387.317,710.703 387.271,710.875 L387.121,711.437 L384.734,711.437 L384.584,710.875 C384.538,710.703 384.368,710.608 384.203,710.653 C384.042,710.696 383.938,710.869 383.983,711.035 L384.462,713.557 C383.614,712.902 382.853,711.826 382.853,710.604 C382.853,708.605 384.267,706.996 386.011,706.996 C387.755,706.996 389.168,708.605 389.168,710.604 C389.168,711.918 388.289,713.059 387.367,713.692 L387.367,713.692 Z" id="Oval-1084-Copy" sketch:type="MSShapeGroup"></path>
        </g>
    </g>
</svg>