<?xml version="1.0" encoding="UTF-8"?>
<svg width="20px" height="16px" viewBox="0 0 20 16" version="1.1" xmlns="http://www.w3.org/2000/svg" xmlns:xlink="http://www.w3.org/1999/xlink">
    <!-- Generator: Sketch 41 (35326) - http://www.bohemiancoding.com/sketch -->
    <title>image_picture [#972]</title>
    <desc>Created with Sketch.</desc>
    <defs></defs>
    <g id="Icons" stroke="none" stroke-width="1" fill="none" fill-rule="evenodd">
        <g id="Media" transform="translate(-340.000000, -142.000000)" fill="#000000">
            <g id="icons" transform="translate(20.000000, 20.000000)">
                <path d="M332,126.5 C332,125.948 332.448,125.5 333,125.5 C333.552,125.5 334,125.948 334,126.5 C334,127.052 333.552,127.5 333,127.5 C332.448,127.5 332,127.052 332,126.5 L332,126.5 Z M336,134 L324,134 L328.518,127.812 L331.354,131.625 L332.75,129.75 L336,134 Z M322,136 L338,136 L338,124 L322,124 L322,136 Z M320,138 L340,138 L340,122 L320,122 L320,138 Z" id="image_picture-[#972]"></path>
            </g>
        </g>
    </g>
</svg>