<?xml version="1.0" encoding="utf-8"?>
<!-- Generated by IcoMoon.io -->
<!DOCTYPE svg PUBLIC "-//W3C//DTD SVG 1.1//EN" "http://www.w3.org/Graphics/SVG/1.1/DTD/svg11.dtd">
<svg version="1.1" xmlns="http://www.w3.org/2000/svg" xmlns:xlink="http://www.w3.org/1999/xlink" width="32" height="32" viewBox="0 0 32 32">
<path fill="#444444" d="M16.135 14.444c-1.212 0-2.249-0.421-3.109-1.264s-1.292-1.856-1.292-3.044c0-1.186 0.43-2.199 1.292-3.042s1.897-1.264 3.109-1.264c1.212 0 2.247 0.421 3.109 1.264s1.292 1.856 1.292 3.042c0 1.186-0.43 2.201-1.292 3.044s-1.897 1.264-3.109 1.264v0zM16 32c0 0-11.556-15.444-11.556-21.333s5.173-10.667 11.556-10.667 11.556 4.777 11.556 10.667-11.556 21.333-11.556 21.333zM21.858 13.973c0.812-1.148 1.22-2.427 1.22-3.836 0-0.917-0.181-1.794-0.546-2.629-0.364-0.837-0.853-1.557-1.474-2.164-0.62-0.604-1.356-1.086-2.21-1.442s-1.749-0.533-2.686-0.533-1.833 0.178-2.686 0.533c-0.855 0.356-1.593 0.837-2.212 1.444-0.619 0.604-1.111 1.326-1.474 2.164-0.364 0.837-0.546 1.712-0.546 2.629s0.181 1.794 0.546 2.629c0.363 0.837 0.853 1.557 1.474 2.164s1.356 1.086 2.212 1.444c0.853 0.356 1.749 0.533 2.686 0.533 1.44 0 2.747-0.396 3.92-1.191l1.593 1.605c0.236 0.244 0.53 0.364 0.884 0.364 0.34 0 0.635-0.121 0.885-0.364 0.249-0.245 0.372-0.533 0.372-0.866 0-0.34-0.119-0.629-0.363-0.866l-1.595-1.618z"></path>
</svg>
