<?xml version="1.0" encoding="iso-8859-1"?>
<!-- Generator: Adobe Illustrator 16.0.0, SVG Export Plug-In . SVG Version: 6.00 Build 0)  -->
<!DOCTYPE svg PUBLIC "-//W3C//DTD SVG 1.1//EN" "http://www.w3.org/Graphics/SVG/1.1/DTD/svg11.dtd">
<svg version="1.1" xmlns="http://www.w3.org/2000/svg" xmlns:xlink="http://www.w3.org/1999/xlink" x="0px" y="0px" width="190px"
	 height="190px" viewBox="0 0 190 190" style="enable-background:new 0 0 190 190;" xml:space="preserve">
<g id="action_play_video">
	<g>
		<g>
			<path d="M95,0C41.562,0,0,41.562,0,95c0,53.438,41.562,95,95,95c53.438,0,95-41.562,95-95C190,41.562,148.438,0,95,0z
				 M95,166.251c-41.562,0-71.25-29.688-71.25-71.251c0-41.563,29.688-71.249,71.25-71.249c41.562,0,71.25,29.686,71.25,71.249
				C166.25,136.562,136.562,166.251,95,166.251z M71.25,142.5L130.625,95L71.25,47.5V142.5z"/>
		</g>
	</g>
</g>
<g id="Capa_1">
</g>
</svg>
