<?xml version="1.0" encoding="utf-8"?>
<!-- Generated by IcoMoon.io -->
<!DOCTYPE svg PUBLIC "-//W3C//DTD SVG 1.1//EN" "http://www.w3.org/Graphics/SVG/1.1/DTD/svg11.dtd">
<svg version="1.1" xmlns="http://www.w3.org/2000/svg" xmlns:xlink="http://www.w3.org/1999/xlink" width="32" height="32" viewBox="0 0 32 32">
<path fill="#565656" d="M26.599 17.945c0.103 0.103 0.244 0.16 0.389 0.156s0.283-0.067 0.38-0.174c3.191-3.519 1.456-11.129 1.273-11.881l3.2-3.205c0.099-0.1 0.155-0.235 0.155-0.376s-0.056-0.277-0.155-0.376l-1.928-1.931c-0.104-0.104-0.24-0.156-0.376-0.156s-0.272 0.052-0.375 0.156l-3.199 3.205c-1.557-0.401-3.505-0.64-5.224-0.64-2.066 0-4.894 0.332-6.636 1.915-0.107 0.098-0.171 0.236-0.174 0.381s0.053 0.286 0.156 0.389l12.515 12.538zM20.871 17.292c-0.281-0.281-0.654-0.437-1.051-0.437s-0.771 0.155-1.051 0.436l-3.966 3.973c-0.1 0.1-0.156 0.235-0.156 0.376s0.056 0.276 0.156 0.376l1.351 1.354c0.104 0.103 0.24 0.156 0.376 0.156s0.272-0.052 0.376-0.156l3.966-3.973c0.58-0.58 0.58-1.525 0-2.105zM10.018 17.224c0.104 0.104 0.24 0.156 0.376 0.156s0.272-0.052 0.376-0.156l3.965-3.973c0.281-0.282 0.436-0.655 0.436-1.053s-0.155-0.772-0.436-1.053c-0.281-0.282-0.654-0.436-1.051-0.436s-0.771 0.155-1.052 0.436l-3.965 3.972c-0.207 0.208-0.207 0.545 0 0.753l1.351 1.353zM5.397 14.056c-0.103-0.103-0.244-0.16-0.388-0.156-0.146 0.004-0.283 0.067-0.381 0.174-3.191 3.519-1.455 11.129-1.273 11.881l-3.2 3.205c-0.1 0.1-0.155 0.235-0.155 0.376s0.056 0.277 0.156 0.376l1.927 1.931c0.104 0.104 0.24 0.156 0.376 0.156s0.272-0.052 0.375-0.156l3.199-3.204c1.557 0.401 3.505 0.64 5.224 0.64 2.066 0 4.894-0.332 6.636-1.916 0.108-0.098 0.171-0.235 0.174-0.381s-0.053-0.286-0.155-0.389l-12.515-12.538z"></path>
</svg>
