<?xml version="1.0" encoding="UTF-8" standalone="no"?>
<svg width="19px" height="18px" viewBox="0 0 19 18" version="1.1" xmlns="http://www.w3.org/2000/svg" xmlns:xlink="http://www.w3.org/1999/xlink" xmlns:sketch="http://www.bohemiancoding.com/sketch/ns">
    <!-- Generator: Sketch 3.3 (11970) - http://www.bohemiancoding.com/sketch -->
    <title>Fill 1 + Fill 3</title>
    <desc>Created with Sketch.</desc>
    <defs></defs>
    <g id="Page-1" stroke="none" stroke-width="1" fill="none" fill-rule="evenodd" sketch:type="MSPage">
        <g id="settings-general@2x" sketch:type="MSArtboardGroup" transform="translate(-156.000000, -193.000000)" fill="#565656">
            <g id="plug42" sketch:type="MSLayerGroup" transform="translate(156.500000, 193.000000)">
                <g id="Fill-1-+-Fill-3" sketch:type="MSShapeGroup">
                    <path d="M9.75913953,9.79455652 L8.4640814,11.0858609 L6.88186047,9.50822609 L8.1769186,8.21692174 C8.46387209,7.93074783 8.46387209,7.46504348 8.1769186,7.17892174 C7.88991279,6.8928 7.42306395,6.8928 7.13590116,7.17892174 L5.84084302,8.47022609 L5.19043605,7.82170435 C5.0179186,7.64973913 4.73834302,7.64973913 4.56582558,7.82170435 L3.62621512,8.7585913 C3.45369767,8.9306087 3.45369767,9.20942609 3.62621512,9.38144348 L3.76639535,9.52126957 L1.64312791,11.6381739 C1.54444186,11.7367826 1.49823837,11.8761913 1.51864535,12.0139826 L1.84588953,14.2183304 L0.129401163,15.9298957 C-0.0431162791,16.101913 -0.0431162791,16.3806783 0.129401163,16.5526957 L1.3992907,17.8187478 C1.57180814,17.9907652 1.85143605,17.9907652 2.02374419,17.8187478 L3.74023256,16.1071826 L5.95119767,16.4334783 C6.08938953,16.4538783 6.22920349,16.4080174 6.32815116,16.3093565 L8.4512093,14.1924522 L8.59138953,14.3322783 C8.76390698,14.504087 9.04353488,14.504087 9.21605233,14.3322783 L10.1556628,13.3953913 C10.3279709,13.2233739 10.3279709,12.9443478 10.1556628,12.7725391 L9.50504651,12.1240174 L10.800314,10.8325043 C11.0873198,10.5463826 11.0873198,10.0806783 10.800314,9.79455652 C10.5131512,9.50843478 10.0463023,9.50843478 9.75913953,9.79455652 L9.75913953,9.79455652 Z" id="Fill-1"></path>
                    <path d="M17.8581453,1.4078087 L16.5882558,0.141547826 C16.4157384,-0.0304695652 16.1361105,-0.0304695652 15.963593,0.141547826 L14.2470523,1.85311304 L12.0362965,1.52681739 C11.898157,1.50641739 11.7581337,1.55248696 11.6593953,1.65114783 L9.53633721,3.76805217 L9.39610465,3.62822609 C9.22358721,3.45626087 8.94401163,3.45626087 8.77149419,3.62822609 L7.83188372,4.56511304 C7.65936628,4.73692174 7.65936628,5.01573913 7.83188372,5.18775652 L12.7970581,10.1385913 C12.9695756,10.3106087 13.2492035,10.3106087 13.4217209,10.1385913 L14.3613314,9.20170435 C14.5336395,9.02968696 14.5336395,8.75086957 14.3613314,8.57906087 L14.2208895,8.43923478 L16.344157,6.32212174 C16.4428953,6.22366957 16.4890988,6.08431304 16.4686395,5.94631304 L16.1413953,3.74196522 L17.8581453,2.0304 C18.0306628,1.8585913 18.0306628,1.57961739 17.8581453,1.4078087 L17.8581453,1.4078087 Z" id="Fill-3"></path>
                </g>
            </g>
        </g>
    </g>
</svg>