<?xml version="1.0" encoding="UTF-8"?>
<svg width="24px" height="24px" viewBox="0 0 24 24" version="1.1" xmlns="http://www.w3.org/2000/svg" xmlns:xlink="http://www.w3.org/1999/xlink">
    <!-- Generator: Sketch 55.2 (78181) - https://sketchapp.com -->
    <title>icon/essential/090-grid</title>
    <desc>Created with Sketch.</desc>
    <defs>
        <path d="M8.3231245,0 L2.19506237,0 C0.984749941,0 0,0.984749941 0,2.19506237 L0,8.32317138 C0,9.53353068 0.984749941,10.5182337 2.19506237,10.5182337 L8.32317138,10.5182337 C9.53353068,10.5182337 10.5182337,9.53348381 10.5182337,8.3231245 L10.5182337,2.19506237 C10.5182337,0.984749941 9.53353068,0 8.3231245,0 Z M8.57929636,8.3231245 C8.57929636,8.46435887 8.46435887,8.57929636 8.3231245,8.57929636 L2.19506237,8.57929636 C2.05387488,8.57929636 1.93893738,8.46435887 1.93893738,8.3231245 L1.93893738,2.19506237 C1.93893738,2.05387488 2.05387488,1.93893738 2.19506237,1.93893738 L8.3231245,1.93893738 C8.46435887,1.93893738 8.57929636,2.053828 8.57929636,2.19506237 L8.57929636,8.3231245 Z M21.8049362,0 L15.6768272,0 C14.466421,0 13.4817648,0.984749941 13.4817648,2.19506237 L13.4817648,8.3231245 C13.4817648,9.53353068 14.4664679,10.5182337 15.6768272,10.5182337 L21.8049362,10.5182337 C23.0152955,10.5182337 23.9999986,9.53348381 23.9999986,8.3231245 L23.9999986,2.19506237 C23.9999986,0.984749941 23.0152486,0 21.8049362,0 Z M22.0610612,8.3231245 C22.0610612,8.46435887 21.9461706,8.57929636 21.8049362,8.57929636 L15.6768272,8.57929636 C15.5356397,8.57929636 15.4207022,8.46435887 15.4207022,8.3231245 L15.4207022,2.19506237 C15.4207022,2.05387488 15.5356397,1.93893738 15.6768272,1.93893738 L21.8049362,1.93893738 C21.9461237,1.93893738 22.0610612,2.053828 22.0610612,2.19506237 L22.0610612,8.3231245 Z M21.8049362,13.4817648 L15.6768272,13.4817648 C14.4664679,13.4817648 13.4817648,14.4664679 13.4817648,15.6768272 L13.4817648,21.8049362 C13.4817648,23.0152955 14.4664679,23.9999986 15.6768272,23.9999986 L21.8049362,23.9999986 C23.0152486,23.9999986 23.9999986,23.0152486 23.9999986,21.8049362 L23.9999986,15.6768272 C23.9999986,14.4664679 23.0152955,13.4817648 21.8049362,13.4817648 Z M22.0610612,21.8049362 C22.0610612,21.9461237 21.9461706,22.0610612 21.8049362,22.0610612 L15.6768272,22.0610612 C15.5356397,22.0610612 15.4207022,21.9461706 15.4207022,21.8049362 L15.4207022,15.6768272 C15.4207022,15.5356397 15.5356397,15.4207022 15.6768272,15.4207022 L21.8049362,15.4207022 C21.9461237,15.4207022 22.0610612,15.5356397 22.0610612,15.6768272 L22.0610612,21.8049362 Z M8.3231245,13.4817648 L2.19506237,13.4817648 C0.984749941,13.4817648 0,14.466421 0,15.6768272 L0,21.8049362 C0,23.0152486 0.984749941,23.9999986 2.19506237,23.9999986 L8.32317138,23.9999986 C9.53353068,23.9999986 10.5182337,23.0152486 10.5182337,21.8049362 L10.5182337,15.6768272 C10.5182337,14.4664679 9.53353068,13.4817648 8.3231245,13.4817648 Z M8.57929636,21.8049362 C8.57929636,21.9461237 8.46435887,22.0610612 8.3231245,22.0610612 L2.19506237,22.0610612 C2.05387488,22.0610612 1.93893738,21.9461706 1.93893738,21.8049362 L1.93893738,15.6768272 C1.93893738,15.5356397 2.053828,15.4207022 2.19506237,15.4207022 L8.3231245,15.4207022 C8.46435887,15.4207022 8.57929636,15.5356397 8.57929636,15.6768272 L8.57929636,21.8049362 Z" id="path-1"></path>
    </defs>
    <g id="Page-2" stroke="none" stroke-width="1" fill="none" fill-rule="evenodd">
        <g id="Artboard" transform="translate(-81.000000, -19.000000)">
            <g id="more-apps" transform="translate(81.000000, 19.000000)">
                <path d="M8.3231245,0 L2.19506237,0 C0.984749941,0 0,0.984749941 0,2.19506237 L0,8.32317138 C0,9.53353068 0.984749941,10.5182337 2.19506237,10.5182337 L8.32317138,10.5182337 C9.53353068,10.5182337 10.5182337,9.53348381 10.5182337,8.3231245 L10.5182337,2.19506237 C10.5182337,0.984749941 9.53353068,0 8.3231245,0 Z M8.57929636,8.3231245 C8.57929636,8.46435887 8.46435887,8.57929636 8.3231245,8.57929636 L2.19506237,8.57929636 C2.05387488,8.57929636 1.93893738,8.46435887 1.93893738,8.3231245 L1.93893738,2.19506237 C1.93893738,2.05387488 2.05387488,1.93893738 2.19506237,1.93893738 L8.3231245,1.93893738 C8.46435887,1.93893738 8.57929636,2.053828 8.57929636,2.19506237 L8.57929636,8.3231245 Z M21.8049362,0 L15.6768272,0 C14.466421,0 13.4817648,0.984749941 13.4817648,2.19506237 L13.4817648,8.3231245 C13.4817648,9.53353068 14.4664679,10.5182337 15.6768272,10.5182337 L21.8049362,10.5182337 C23.0152955,10.5182337 23.9999986,9.53348381 23.9999986,8.3231245 L23.9999986,2.19506237 C23.9999986,0.984749941 23.0152486,0 21.8049362,0 Z M22.0610612,8.3231245 C22.0610612,8.46435887 21.9461706,8.57929636 21.8049362,8.57929636 L15.6768272,8.57929636 C15.5356397,8.57929636 15.4207022,8.46435887 15.4207022,8.3231245 L15.4207022,2.19506237 C15.4207022,2.05387488 15.5356397,1.93893738 15.6768272,1.93893738 L21.8049362,1.93893738 C21.9461237,1.93893738 22.0610612,2.053828 22.0610612,2.19506237 L22.0610612,8.3231245 Z M21.8049362,13.4817648 L15.6768272,13.4817648 C14.4664679,13.4817648 13.4817648,14.4664679 13.4817648,15.6768272 L13.4817648,21.8049362 C13.4817648,23.0152955 14.4664679,23.9999986 15.6768272,23.9999986 L21.8049362,23.9999986 C23.0152486,23.9999986 23.9999986,23.0152486 23.9999986,21.8049362 L23.9999986,15.6768272 C23.9999986,14.4664679 23.0152955,13.4817648 21.8049362,13.4817648 Z M22.0610612,21.8049362 C22.0610612,21.9461237 21.9461706,22.0610612 21.8049362,22.0610612 L15.6768272,22.0610612 C15.5356397,22.0610612 15.4207022,21.9461706 15.4207022,21.8049362 L15.4207022,15.6768272 C15.4207022,15.5356397 15.5356397,15.4207022 15.6768272,15.4207022 L21.8049362,15.4207022 C21.9461237,15.4207022 22.0610612,15.5356397 22.0610612,15.6768272 L22.0610612,21.8049362 Z M8.3231245,13.4817648 L2.19506237,13.4817648 C0.984749941,13.4817648 0,14.466421 0,15.6768272 L0,21.8049362 C0,23.0152486 0.984749941,23.9999986 2.19506237,23.9999986 L8.32317138,23.9999986 C9.53353068,23.9999986 10.5182337,23.0152486 10.5182337,21.8049362 L10.5182337,15.6768272 C10.5182337,14.4664679 9.53353068,13.4817648 8.3231245,13.4817648 Z M8.57929636,21.8049362 C8.57929636,21.9461237 8.46435887,22.0610612 8.3231245,22.0610612 L2.19506237,22.0610612 C2.05387488,22.0610612 1.93893738,21.9461706 1.93893738,21.8049362 L1.93893738,15.6768272 C1.93893738,15.5356397 2.053828,15.4207022 2.19506237,15.4207022 L8.3231245,15.4207022 C8.46435887,15.4207022 8.57929636,15.5356397 8.57929636,15.6768272 L8.57929636,21.8049362 Z" id="path-1"></path>
            </g>
        </g>
    </g>
</svg>
