<?xml version="1.0" encoding="UTF-8"?>
<svg width="20px" height="20px" viewBox="0 0 20 20" version="1.1" xmlns="http://www.w3.org/2000/svg" xmlns:xlink="http://www.w3.org/1999/xlink">
  <!-- Generator: Sketch 42 (36781) - http://www.bohemiancoding.com/sketch -->
  <title>Combined Shape</title>
  <desc>Created with Sketch.</desc>
  <defs></defs>
  <g id="Page-1" stroke="none" stroke-width="1" fill="none" fill-rule="evenodd">
    <g id="Insights@2x" transform="translate(-1157.000000, -96.000000)" fill-rule="nonzero" fill="#FFFFFF">
      <g id="Group-4" transform="translate(-1.000000, 0.000000)">
        <g id="Group-8" transform="translate(1159.000000, 97.000000)">
          <path d="M-2.22044605e-16,2 C-2.22044605e-16,3.11227036 0.8954305,4 2,4 C3.11227036,4 4,3.1045695 4,2 C4,0.887729645 3.1045695,-2.22044605e-16 2,-2.22044605e-16 C0.887729645,-2.22044605e-16 -2.22044605e-16,0.8954305 -2.22044605e-16,2 Z M-0.8,2 C-0.8,0.451412188 0.44808386,-0.8 2,-0.8 C3.54858781,-0.8 4.8,0.44808386 4.8,2 C4.8,3.54858781 3.55191614,4.8 2,4.8 C0.451412188,4.8 -0.8,3.55191614 -0.8,2 Z M7,2 C7,3.11227036 7.8954305,4 9,4 C10.1122704,4 11,3.1045695 11,2 C11,0.887729645 10.1045695,-2.22044605e-16 9,-2.22044605e-16 C7.88772964,-2.22044605e-16 7,0.8954305 7,2 Z M6.2,2 C6.2,0.451412188 7.44808386,-0.8 9,-0.8 C10.5485878,-0.8 11.8,0.44808386 11.8,2 C11.8,3.54858781 10.5519161,4.8 9,4.8 C7.45141219,4.8 6.2,3.55191614 6.2,2 Z M14,2 C14,3.11227036 14.8954305,4 16,4 C17.1122704,4 18,3.1045695 18,2 C18,0.887729645 17.1045695,-2.22044605e-16 16,-2.22044605e-16 C14.8877296,-2.22044605e-16 14,0.8954305 14,2 Z M13.2,2 C13.2,0.451412188 14.4480839,-0.8 16,-0.8 C17.5485878,-0.8 18.8,0.44808386 18.8,2 C18.8,3.54858781 17.5519161,4.8 16,4.8 C14.4514122,4.8 13.2,3.55191614 13.2,2 Z M-2.22044605e-16,9 C-2.22044605e-16,10.1122704 0.8954305,11 2,11 C3.11227036,11 4,10.1045695 4,9 C4,7.88772964 3.1045695,7 2,7 C0.887729645,7 -2.22044605e-16,7.8954305 -2.22044605e-16,9 Z M-0.8,9 C-0.8,7.45141219 0.44808386,6.2 2,6.2 C3.54858781,6.2 4.8,7.44808386 4.8,9 C4.8,10.5485878 3.55191614,11.8 2,11.8 C0.451412188,11.8 -0.8,10.5519161 -0.8,9 Z M7,9 C7,10.1122704 7.8954305,11 9,11 C10.1122704,11 11,10.1045695 11,9 C11,7.88772964 10.1045695,7 9,7 C7.88772964,7 7,7.8954305 7,9 Z M6.2,9 C6.2,7.45141219 7.44808386,6.2 9,6.2 C10.5485878,6.2 11.8,7.44808386 11.8,9 C11.8,10.5485878 10.5519161,11.8 9,11.8 C7.45141219,11.8 6.2,10.5519161 6.2,9 Z M14,9 C14,10.1122704 14.8954305,11 16,11 C17.1122704,11 18,10.1045695 18,9 C18,7.88772964 17.1045695,7 16,7 C14.8877296,7 14,7.8954305 14,9 Z M13.2,9 C13.2,7.45141219 14.4480839,6.2 16,6.2 C17.5485878,6.2 18.8,7.44808386 18.8,9 C18.8,10.5485878 17.5519161,11.8 16,11.8 C14.4514122,11.8 13.2,10.5519161 13.2,9 Z M-2.22044605e-16,16 C-2.22044605e-16,17.1122704 0.8954305,18 2,18 C3.11227036,18 4,17.1045695 4,16 C4,14.8877296 3.1045695,14 2,14 C0.887729645,14 -2.22044605e-16,14.8954305 -2.22044605e-16,16 Z M-0.8,16 C-0.8,14.4514122 0.44808386,13.2 2,13.2 C3.54858781,13.2 4.8,14.4480839 4.8,16 C4.8,17.5485878 3.55191614,18.8 2,18.8 C0.451412188,18.8 -0.8,17.5519161 -0.8,16 Z M7,16 C7,17.1122704 7.8954305,18 9,18 C10.1122704,18 11,17.1045695 11,16 C11,14.8877296 10.1045695,14 9,14 C7.88772964,14 7,14.8954305 7,16 Z M6.2,16 C6.2,14.4514122 7.44808386,13.2 9,13.2 C10.5485878,13.2 11.8,14.4480839 11.8,16 C11.8,17.5485878 10.5519161,18.8 9,18.8 C7.45141219,18.8 6.2,17.5519161 6.2,16 Z M14,16 C14,17.1122704 14.8954305,18 16,18 C17.1122704,18 18,17.1045695 18,16 C18,14.8877296 17.1045695,14 16,14 C14.8877296,14 14,14.8954305 14,16 Z M13.2,16 C13.2,14.4514122 14.4480839,13.2 16,13.2 C17.5485878,13.2 18.8,14.4480839 18.8,16 C18.8,17.5485878 17.5519161,18.8 16,18.8 C14.4514122,18.8 13.2,17.5519161 13.2,16 Z" id="Combined-Shape"></path>
        </g>
      </g>
    </g>
  </g>
</svg>
