<?xml version="1.0" encoding="UTF-8" standalone="no"?>
<svg width="490px" height="490px" viewBox="0 0 490 490" version="1.1" xmlns="http://www.w3.org/2000/svg" xmlns:xlink="http://www.w3.org/1999/xlink" xmlns:sketch="http://www.bohemiancoding.com/sketch/ns">
    <!-- Generator: Sketch 3.5.1 (25234) - http://www.bohemiancoding.com/sketch -->
    <title>profile</title>
    <desc>Created with Sketch.</desc>
    <defs></defs>
    <g id="Page-1" stroke="none" stroke-width="1" fill="none" fill-rule="evenodd" sketch:type="MSPage">
        <g id="Artboard-32" sketch:type="MSArtboardGroup" transform="translate(-5.000000, -5.000000)" fill="#4BA7FF">
            <path d="M250,495 C385.309764,495 495,385.309764 495,250 C495,114.690236 385.309764,5 250,5 C114.690236,5 5,114.690236 5,250 C5,385.309764 114.690236,495 250,495 Z M374.750531,185.524006 C374.946677,187.373333 375.050424,190.149812 375.050424,193.851782 C375.050424,211.127647 372.5913,228.456586 367.681158,245.833624 C362.766152,263.217297 355.244507,279.874507 345.122708,295.81189 C334.994425,311.749273 322.912783,325.840646 308.879404,338.072741 C294.842783,350.31147 277.996893,360.083877 258.348217,367.380011 C238.694679,374.68112 217.640558,378.333333 195.184234,378.333333 C160.294502,378.333333 128.006546,368.667076 98.3333333,349.33622 C103.146213,349.951556 108.15524,350.261712 113.371759,350.261712 C142.443564,350.261712 168.612079,341.008444 191.875683,322.496931 C178.236218,322.296241 166.055693,317.975617 155.330865,309.540032 C144.602795,301.111082 137.134645,290.414841 132.923172,277.456284 C138.13645,278.278945 142.046409,278.688616 144.654668,278.688616 C149.062287,278.688616 154.176682,277.870932 159.994609,276.222294 C145.353338,273.3463 133.022056,265.889284 122.997519,253.85622 C112.968119,241.824814 107.959093,228.098331 107.959093,212.673452 L107.959093,212.056457 C118.585037,217.199742 128.609574,219.875046 138.037566,220.075735 C119.789473,207.533484 110.666237,189.536134 110.666237,166.088659 C110.666237,154.573075 113.569527,143.674486 119.389075,133.387916 C135.226676,153.339085 154.476575,169.281443 177.138771,181.206699 C199.796105,193.135272 224.061514,199.821045 249.928514,201.257383 C248.923467,197.353064 248.422564,192.417103 248.422564,186.449499 C248.422564,168.558298 254.590637,153.287668 266.92192,140.637609 C279.253202,127.990867 294.142492,121.666667 311.58979,121.666667 C330.035651,121.666667 345.375591,128.453613 357.609611,142.025848 C371.445222,139.357178 384.878815,134.112719 397.91363,126.29413 C392.89812,142.133656 383.573874,154.166721 369.940893,162.388347 C382.970846,160.53902 395.101119,157.042714 406.333333,151.899429 C397.907146,165.061992 387.383328,176.269079 374.750531,185.524006 Z" id="profile" sketch:type="MSShapeGroup"></path>
        </g>
    </g>
</svg>