<?xml version="1.0" encoding="utf-8"?>
<!-- Generated by IcoMoon.io -->
<!DOCTYPE svg PUBLIC "-//W3C//DTD SVG 1.1//EN" "http://www.w3.org/Graphics/SVG/1.1/DTD/svg11.dtd">
<svg version="1.1" xmlns="http://www.w3.org/2000/svg" xmlns:xlink="http://www.w3.org/1999/xlink" width="32" height="32" viewBox="0 0 32 32">
<path fill="#444444" d="M17.41 11.97h-6.741c-0.648 0-1.174-0.524-1.174-1.182v-1.185c0-0.653 0.534-1.182 1.174-1.182h11.706c0.333 0 0.633 0.138 0.847 0.361v0c0.221 0.216 0.357 0.519 0.357 0.855v11.824c0 0.647-0.524 1.186-1.17 1.186h-1.174c-0.652 0-1.17-0.531-1.17-1.186v-7.154l-10.503 10.608c-0.457 0.462-1.195 0.466-1.655 0.001l-0.83-0.838c-0.457-0.462-0.451-1.216 0.001-1.672l10.332-10.436z"></path>
<path fill="#444444" d="M5.053 3.368h21.894c0.934 0 1.684 0.749 1.684 1.684v21.894c0 0.934-0.749 1.684-1.684 1.684h-21.894c-0.934 0-1.684-0.749-1.684-1.684v-21.894c0-0.934 0.749-1.684 1.684-1.684zM0 26.947c0 2.797 2.26 5.053 5.053 5.053h21.894c2.797 0 5.053-2.26 5.053-5.053v-21.894c0-2.797-2.26-5.053-5.053-5.053h-21.894c-2.797 0-5.053 2.26-5.053 5.053v21.894z"></path>
</svg>
