<?xml version="1.0" encoding="utf-8"?>
<!-- Generated by IcoMoon.io -->
<!DOCTYPE svg PUBLIC "-//W3C//DTD SVG 1.1//EN" "http://www.w3.org/Graphics/SVG/1.1/DTD/svg11.dtd">
<svg version="1.1" xmlns="http://www.w3.org/2000/svg" xmlns:xlink="http://www.w3.org/1999/xlink" width="32" height="32" viewBox="0 0 32 32">
<path d="M18.37 10.174c-0.684-0.331-1.474-0.496-2.37-0.496-0.964 0-1.806 0.197-2.528 0.592s-1.271 0.894-1.648 1.497c-0.377 0.603-0.565 1.196-0.565 1.783 0 0.284 0.119 0.548 0.356 0.791 0.238 0.244 0.53 0.366 0.875 0.366 0.587 0 0.985-0.348 1.195-1.045 0.222-0.667 0.494-1.172 0.814-1.515s0.823-0.516 1.502-0.516c0.58 0 1.054 0.169 1.422 0.51 0.366 0.34 0.551 0.756 0.551 1.25 0 0.252-0.060 0.487-0.181 0.704s-0.27 0.412-0.444 0.588c-0.176 0.174-0.462 0.436-0.857 0.782-0.452 0.395-0.809 0.736-1.074 1.022-0.267 0.288-0.478 0.62-0.64 1.001-0.16 0.379-0.24 0.828-0.24 1.348 0 0.412 0.11 0.725 0.329 0.933 0.22 0.21 0.489 0.316 0.811 0.316 0.617 0 0.985-0.322 1.102-0.964 0.068-0.302 0.117-0.514 0.153-0.633 0.036-0.121 0.082-0.242 0.144-0.361 0.060-0.121 0.155-0.254 0.281-0.4 0.126-0.144 0.295-0.313 0.505-0.503 0.759-0.679 1.285-1.163 1.579-1.449s0.548-0.628 0.761-1.022c0.212-0.396 0.32-0.855 0.32-1.38 0-0.667-0.187-1.284-0.56-1.852s-0.905-1.019-1.591-1.349z"></path>
<path d="M16 1.778c-7.842 0-14.222 6.38-14.222 14.222s6.38 14.222 14.222 14.222 14.222-6.38 14.222-14.222-6.38-14.222-14.222-14.222zM16 28.642c-6.983 0-12.642-5.662-12.642-12.642 0-6.983 5.66-12.642 12.642-12.642s12.642 5.66 12.642 12.642c0 6.981-5.66 12.642-12.642 12.642z"></path>
<path d="M16.629 22.053c0 0.583-0.473 1.056-1.056 1.056s-1.056-0.473-1.056-1.056c0-0.583 0.473-1.056 1.056-1.056s1.056 0.473 1.056 1.056z"></path>
</svg>
