<?xml version="1.0" encoding="UTF-8" standalone="no"?>
<svg width="16px" height="16px" viewBox="0 0 16 16" version="1.1" xmlns="http://www.w3.org/2000/svg" xmlns:xlink="http://www.w3.org/1999/xlink" xmlns:sketch="http://www.bohemiancoding.com/sketch/ns">
    <!-- Generator: Sketch 3.2.2 (9983) - http://www.bohemiancoding.com/sketch -->
    <title>close 3</title>
    <desc>Created with Sketch.</desc>
    <defs></defs>
    <g id="Page-1" stroke="none" stroke-width="1" fill="none" fill-rule="evenodd" sketch:type="MSPage">
        <g id="icons@2x" sketch:type="MSArtboardGroup" transform="translate(-1458.000000, -302.000000)" fill="#000000">
            <path d="M1458,310 C1458,314.418278 1461.58172,318 1466,318 C1470.41828,318 1474,314.418278 1474,310 C1474,305.581722 1470.41828,302 1466,302 C1461.58172,302 1458,305.581722 1458,310 Z M1463,308.449219 C1463,308.078123 1463.11914,307.70215 1463.35742,307.321289 C1463.5957,306.940428 1463.94336,306.625001 1464.40039,306.375 C1464.85742,306.124999 1465.39062,306 1466,306 C1466.56641,306 1467.0664,306.104491 1467.5,306.313477 C1467.9336,306.522462 1468.26855,306.806639 1468.50488,307.166016 C1468.74121,307.525392 1468.85938,307.916014 1468.85938,308.337891 C1468.85938,308.669924 1468.79199,308.960936 1468.65723,309.210938 C1468.52246,309.460939 1468.36231,309.676757 1468.17676,309.858398 C1467.99121,310.04004 1467.65821,310.345701 1467.17773,310.775391 C1467.04492,310.896485 1466.93848,311.002929 1466.8584,311.094727 C1466.77832,311.186524 1466.71875,311.270507 1466.67969,311.34668 C1466.64062,311.422852 1466.61035,311.499023 1466.58887,311.575195 C1466.56738,311.651368 1466.53516,311.785155 1466.49219,311.976562 C1466.41797,312.382815 1466.18555,312.585938 1465.79492,312.585938 C1465.5918,312.585938 1465.4209,312.519532 1465.28223,312.386719 C1465.14355,312.253906 1465.07422,312.056642 1465.07422,311.794922 C1465.07422,311.466795 1465.125,311.182618 1465.22656,310.942383 C1465.32813,310.702147 1465.46289,310.491212 1465.63086,310.30957 C1465.79883,310.127929 1466.02539,309.912111 1466.31055,309.662109 C1466.56055,309.443358 1466.74121,309.278321 1466.85254,309.166992 C1466.96387,309.055664 1467.05762,308.931641 1467.13379,308.794922 C1467.20996,308.658202 1467.24805,308.509766 1467.24805,308.349609 C1467.24805,308.037108 1467.13184,307.773439 1466.89941,307.558594 C1466.66699,307.343749 1466.36719,307.236328 1466,307.236328 C1465.57031,307.236328 1465.25391,307.344725 1465.05078,307.561523 C1464.84766,307.778321 1464.67578,308.097654 1464.53516,308.519531 C1464.40234,308.96094 1464.15039,309.181641 1463.7793,309.181641 C1463.56055,309.181641 1463.37598,309.104493 1463.22559,308.950195 C1463.07519,308.795898 1463,308.628907 1463,308.449219 Z M1465.85938,314.871094 C1465.62109,314.871094 1465.41309,314.793946 1465.23535,314.639648 C1465.05762,314.485351 1464.96875,314.269533 1464.96875,313.992188 C1464.96875,313.746093 1465.05469,313.539063 1465.22656,313.371094 C1465.39844,313.203124 1465.60937,313.119141 1465.85938,313.119141 C1466.10547,313.119141 1466.3125,313.203124 1466.48047,313.371094 C1466.64844,313.539063 1466.73242,313.746093 1466.73242,313.992188 C1466.73242,314.265626 1466.64453,314.480468 1466.46875,314.636719 C1466.29297,314.79297 1466.08984,314.871094 1465.85938,314.871094 Z" id="close-3" sketch:type="MSShapeGroup"></path>
        </g>
    </g>
</svg>