<?xml version="1.0" encoding="utf-8"?>
<!-- Generated by IcoMoon.io -->
<!DOCTYPE svg PUBLIC "-//W3C//DTD SVG 1.1//EN" "http://www.w3.org/Graphics/SVG/1.1/DTD/svg11.dtd">
<svg version="1.1" xmlns="http://www.w3.org/2000/svg" xmlns:xlink="http://www.w3.org/1999/xlink" width="64" height="64" viewBox="0 0 64 64">
<path fill="#96a4aa" d="M3.654 32c0 15.655 12.691 28.346 28.346 28.346s28.346-12.691 28.346-28.346c0-15.655-12.691-28.346-28.346-28.346s-28.346 12.691-28.346 28.346v0zM1.882 32c0-16.634 13.484-30.118 30.118-30.118s30.118 13.484 30.118 30.118c0 16.633-13.484 30.118-30.118 30.118s-30.118-13.484-30.118-30.118zM31.502 50.677c-1.185 0-2.252-0.396-3.14-1.167-0.956-0.83-1.433-1.989-1.433-3.364 0-1.251 0.456-2.351 1.34-3.214 0.877-0.857 1.981-1.296 3.233-1.296 1.244 0 2.339 0.444 3.203 1.308s1.308 1.959 1.308 3.203c0 1.358-0.471 2.508-1.41 3.343-0.881 0.783-1.935 1.188-3.101 1.188zM31.502 49.26c0.817 0 1.536-0.277 2.159-0.83s0.934-1.315 0.934-2.284c0-0.872-0.298-1.606-0.893-2.201s-1.329-0.893-2.201-0.893c-0.886 0-1.633 0.298-2.242 0.893s-0.913 1.329-0.913 2.201c0 0.983 0.315 1.747 0.945 2.294s1.367 0.82 2.211 0.82zM19.953 22.962c0-1.595 0.503-3.184 1.482-4.748s2.392-2.846 4.217-3.845c1.837-1.005 3.96-1.503 6.348-1.503 2.212 0 4.193 0.414 5.93 1.251 1.761 0.849 3.147 2.024 4.129 3.519 0.989 1.503 1.489 3.158 1.489 4.931 0 1.402-0.292 2.664-0.886 3.766-0.544 1.009-1.197 1.889-1.959 2.634-0.677 0.663-1.869 1.757-3.576 3.284-0.434 0.395-0.774 0.736-1.018 1.016-0.213 0.245-0.36 0.451-0.44 0.608-0.096 0.188-0.169 0.37-0.219 0.548-0.067 0.239-0.177 0.693-0.312 1.292-0.384 2.1-1.782 3.322-3.865 3.322-1.079 0-2.038-0.372-2.797-1.1-0.798-0.764-1.174-1.834-1.174-3.12 0-1.343 0.213-2.535 0.652-3.573 0.423-1 0.989-1.887 1.697-2.653 0.633-0.684 1.47-1.482 2.516-2.398 0.864-0.756 1.484-1.323 1.852-1.69 0.302-0.302 0.555-0.636 0.761-1.006 0.152-0.272 0.226-0.561 0.226-0.888 0-0.711-0.246-1.268-0.78-1.762-0.55-0.509-1.267-0.765-2.225-0.765-1.162 0-1.909 0.256-2.329 0.704-0.563 0.601-1.078 1.558-1.504 2.834-0.639 2.124-2.044 3.355-4.035 3.355-1.156 0-2.176-0.427-2.977-1.248-0.779-0.799-1.202-1.738-1.202-2.764zM21.37 22.962c0 0.637 0.266 1.228 0.799 1.775s1.187 0.82 1.962 0.82c1.315 0 2.208-0.782 2.678-2.346 0.498-1.495 1.107-2.626 1.827-3.394s1.841-1.152 3.363-1.152c1.301 0 2.363 0.381 3.187 1.142s1.235 1.695 1.235 2.803c0 0.567-0.135 1.093-0.405 1.578s-0.602 0.924-0.997 1.318c-0.394 0.394-1.035 0.979-1.92 1.754-1.010 0.886-1.813 1.651-2.408 2.294s-1.073 1.391-1.433 2.242c-0.36 0.851-0.54 1.858-0.54 3.021 0 0.927 0.246 1.626 0.737 2.097s1.097 0.706 1.817 0.706c1.384 0 2.208-0.72 2.471-2.159 0.152-0.678 0.266-1.152 0.343-1.422s0.183-0.54 0.322-0.81c0.138-0.27 0.349-0.568 0.633-0.893s0.661-0.702 1.132-1.131c1.702-1.523 2.882-2.606 3.54-3.249s1.225-1.408 1.702-2.294c0.477-0.886 0.716-1.917 0.716-3.093 0-1.495-0.419-2.879-1.256-4.152s-2.024-2.28-3.561-3.021c-1.536-0.741-3.308-1.111-5.315-1.111-2.159 0-4.048 0.443-5.668 1.329s-2.851 2.003-3.695 3.353c-0.844 1.349-1.266 2.682-1.266 3.997z"></path>
</svg>
