<?xml version="1.0" encoding="utf-8"?>
<!-- Generated by IcoMoon.io -->
<!DOCTYPE svg PUBLIC "-//W3C//DTD SVG 1.1//EN" "http://www.w3.org/Graphics/SVG/1.1/DTD/svg11.dtd">
<svg version="1.1" xmlns="http://www.w3.org/2000/svg" xmlns:xlink="http://www.w3.org/1999/xlink" width="35" height="32" viewBox="0 0 35 32">
<path fill="#444444" d="M28.663 6.965c0 3.119-2.456 5.647-5.486 5.647s-5.486-2.528-5.486-5.647c0-3.119 2.456-5.647 5.486-5.647s5.486 2.528 5.486 5.647z"></path>
<path fill="#444444" d="M24.183 32h-2.011v-18.824h2.011l10.971 5.647-1.829 5.647-3.657-1.882v9.412h-5.486zM11.2 18.824l1.829 5.647 3.657-1.882v9.412h5.486v-18.824l-10.971 5.647z"></path>
<path fill="#444444" d="M8.32 17.6c4.418 0 8-3.582 8-8s-3.582-8-8-8c-4.418 0-8 3.582-8 8s3.582 8 8 8zM7.477 10.098h-3.957v-1.664h9.6v1.666l-5.643-0.002z"></path>
</svg>
