<?xml version="1.0" encoding="utf-8"?>
<!-- Generated by IcoMoon.io -->
<!DOCTYPE svg PUBLIC "-//W3C//DTD SVG 1.1//EN" "http://www.w3.org/Graphics/SVG/1.1/DTD/svg11.dtd">
<svg version="1.1" xmlns="http://www.w3.org/2000/svg" xmlns:xlink="http://www.w3.org/1999/xlink" width="32" height="32" viewBox="0 0 32 32">
<path fill="#444444" d="M10.763 12.569l-10.763 5.563 1.794 5.563 3.588-1.854v9.271h12.736v-9.271l3.588 1.854 1.796-5.563-10.764-5.563z"></path>
<path fill="#444444" d="M17.131 6.452c0 3.072-2.409 5.563-5.381 5.563s-5.381-2.49-5.381-5.563c0-3.072 2.409-5.563 5.381-5.563s5.381 2.49 5.381 5.563z"></path>
<path fill="#444444" d="M28.164 6.452h-5.998l2.971-2.971-1.314-1.31-5.074 5.074 0.084 0.084-0.084 0.084 5.074 5.072 1.312-1.31-2.868-2.868h5.895c1.143 0 2.204 1.733 2.023 3.616-0.219 2.263-2.053 3.801-5.609 3.801v1.854c4.439 0 7.079-2.213 7.394-5.47 0.277-2.859-1.436-5.655-3.806-5.655z"></path>
</svg>
