<?xml version="1.0" encoding="UTF-8" standalone="no"?>
<svg width="490px" height="490px" viewBox="0 0 490 490" version="1.1" xmlns="http://www.w3.org/2000/svg" xmlns:xlink="http://www.w3.org/1999/xlink" xmlns:sketch="http://www.bohemiancoding.com/sketch/ns">
    <!-- Generator: Sketch 3.5.1 (25234) - http://www.bohemiancoding.com/sketch -->
    <title>relationships</title>
    <desc>Created with Sketch.</desc>
    <defs></defs>
    <g id="Page-1" stroke="none" stroke-width="1" fill="none" fill-rule="evenodd" sketch:type="MSPage">
        <g id="Artboard-32" sketch:type="MSArtboardGroup" transform="translate(-5.000000, -5.000000)" fill="#D73333">
            <path d="M250,495 C385.309764,495 495,385.309764 495,250 C495,114.690236 385.309764,5 250,5 C114.690236,5 5,114.690236 5,250 C5,385.309764 114.690236,495 250,495 Z M359.439381,191.836227 C378.477173,191.836227 393.910353,176.128236 393.910353,156.751447 C393.910353,137.374658 378.477173,121.666667 359.439381,121.666667 C340.401588,121.666667 324.968409,137.374658 324.968409,156.751447 C324.968409,176.128236 340.401588,191.836227 359.439381,191.836227 Z M391.486612,185.958148 C384.538557,195.795765 373.173909,202.224914 360.355016,202.224914 C347.536123,202.224914 336.189428,195.816175 329.241373,185.958148 C319.654134,191.632127 311.664768,200.388014 306.332539,211.042031 C309.40261,218.430449 311.108205,226.533217 311.108205,235.023774 C311.108205,246.473781 308.020181,257.189028 302.652045,266.455165 C302.723859,266.700085 302.813627,266.924595 302.903396,267.169515 C320.300464,271.251514 333.370708,285.29359 338.182281,303.478895 C342.850225,304.989234 347.76952,305.785224 352.850398,305.785224 L367.913495,305.785224 C397.465172,305.785224 421.666667,278.354192 421.666667,244.534832 L421.666667,242.289732 C421.648713,217.838559 409.404336,196.550935 391.486612,185.958148 Z M297.409584,274.088503 C285.757678,288.722469 267.696325,298.131476 247.408721,298.131476 C226.905674,298.131476 208.664785,288.518369 197.012878,273.578253 C173.727018,286.51819 157.586704,313.765532 157.586704,345.298973 L157.586704,363.810837 C157.586704,397.609788 181.752292,425 211.573273,425 L281.897647,425 C311.844304,425 335.884216,397.609788 335.884216,363.810837 L335.884216,345.298973 C335.884216,314.234962 320.22865,287.232539 297.409584,274.088503 Z M247.857562,287.681559 C275.5516,287.681559 298.002054,265.421719 298.002054,237.962813 C298.002054,210.503908 275.5516,188.244068 247.857562,188.244068 C220.163524,188.244068 197.71307,210.503908 197.71307,237.962813 C197.71307,265.421719 220.163524,287.681559 247.857562,287.681559 Z M137.083657,193.795586 C156.121449,193.795586 171.554629,178.087595 171.554629,158.710806 C171.554629,139.334017 156.121449,123.626026 137.083657,123.626026 C118.045865,123.626026 102.612685,139.334017 102.612685,158.710806 C102.612685,178.087595 118.045865,193.795586 137.083657,193.795586 Z M192.398795,263.209976 C188.66444,256.270578 186.563865,248.33109 186.563865,239.922173 C186.563865,231.676535 188.592625,223.879917 192.183351,217.042569 C186.940891,204.551653 178.197473,194.305836 167.40734,187.917508 C160.459285,197.755125 149.094636,204.163863 136.293697,204.163863 C123.474804,204.163863 112.110156,197.755125 105.162101,187.917508 C87.2264229,198.510295 75,219.797919 75,244.269502 L75,246.494191 C75,280.313551 99.2194486,307.744584 128.771126,307.744584 L143.816269,307.744584 C146.814525,307.744584 149.758921,307.438434 152.613548,306.928184 C160.13612,287.906069 175.163309,271.822994 192.398795,263.209976 Z" id="relationships" sketch:type="MSShapeGroup"></path>
        </g>
    </g>
</svg>