<?xml version="1.0" encoding="UTF-8" standalone="no"?>
<svg width="18px" height="18px" viewBox="0 0 18 18" version="1.1" xmlns="http://www.w3.org/2000/svg" xmlns:xlink="http://www.w3.org/1999/xlink" xmlns:sketch="http://www.bohemiancoding.com/sketch/ns">
    <!-- Generator: Sketch 3.4.4 (17249) - http://www.bohemiancoding.com/sketch -->
    <title>Oval 1088</title>
    <desc>Created with Sketch.</desc>
    <defs></defs>
    <g id="Page-1" stroke="none" stroke-width="1" fill="none" fill-rule="evenodd" sketch:type="MSPage">
        <g id="C-4-A@2x" sketch:type="MSArtboardGroup" transform="translate(-400.000000, -701.000000)" fill="#000000">
            <path d="M409,719 C413.970563,719 418,714.970563 418,710 C418,705.029437 413.970563,701 409,701 C404.029437,701 400,705.029437 400,710 C400,714.970563 404.029437,719 409,719 Z M408.029071,714.599976 L408.029071,711.839237 L408.966954,712.391385 L408.966954,710.734942 L406.535284,709.078499 L406.535284,714.599976 L406.535296,709.078499 L405.987574,709.078499 L405.987574,714.599976 L406.53529,714.599976 L408.029071,714.599976 Z M403,710.734942 L403.497929,712.391385 L404.493787,711.839237 L404.493787,714.599976 L405.987574,714.599976 L405.987574,709.078499 L403,710.734942 Z M412.012432,714.599976 L413.506213,714.599976 L413.506213,711.839237 L414.502071,712.391385 L415,710.734942 L412.012426,709.078499 L412.012426,714.599976 L412.012438,709.078499 L411.464716,709.078499 L411.464716,714.599976 L412.012432,714.599976 Z M408.97507,712.391385 L409.970929,711.839237 L409.970929,714.599976 L411.464716,714.599976 L411.464716,709.078499 L408.97507,710.734942 L408.97507,712.391385 Z M406.261429,708.912862 C407.086425,708.912862 407.755217,708.171247 407.755217,707.256419 C407.755217,706.34159 407.086425,705.599976 406.261429,705.599976 C405.436433,705.599976 404.767642,706.34159 404.767642,707.256419 C404.767642,708.171247 405.436433,708.912862 406.261429,708.912862 Z M411.738571,708.912862 C412.563567,708.912862 413.232358,708.171247 413.232358,707.256419 C413.232358,706.34159 412.563567,705.599976 411.738571,705.599976 C410.913575,705.599976 410.244783,706.34159 410.244783,707.256419 C410.244783,708.171247 410.913575,708.912862 411.738571,708.912862 Z" id="Oval-1088" sketch:type="MSShapeGroup"></path>
        </g>
    </g>
</svg>