<?xml version="1.0" encoding="utf-8"?>
<!-- Generated by IcoMoon.io -->
<!DOCTYPE svg PUBLIC "-//W3C//DTD SVG 1.1//EN" "http://www.w3.org/Graphics/SVG/1.1/DTD/svg11.dtd">
<svg version="1.1" xmlns="http://www.w3.org/2000/svg" xmlns:xlink="http://www.w3.org/1999/xlink" width="30" height="32" viewBox="0 0 30 32">
<path fill="#565656" d="M26.51 20.738c2.312-0.383 3.712-1.772 3.712-5.58 0-8.371-6.765-15.158-15.111-15.158s-15.111 6.786-15.111 15.158c0 3.808 1.4 5.197 3.712 5.58-0.345 1.483-0.531 3.059-0.531 4.693 0 8.758 23.86 8.758 23.86 0 0-1.634-0.186-3.21-0.531-4.693zM15.111 16.842c0 0 3.358 2.87 3.358 4.542s-1.503-1.298-3.358-1.298c-1.855 0-3.358 2.97-3.358 1.298s3.358-4.542 3.358-4.542zM8.687 10.159c2.283-0.403 4.096-0.946 4.499 1.344s-1.12 4.473-3.403 4.875c-2.283 0.403-4.461-1.128-4.865-3.418s1.485-2.4 3.768-2.802zM21.536 10.159c2.283 0.403 4.172 0.512 3.768 2.802s-2.582 3.82-4.865 3.418c-2.283-0.403-3.806-2.585-3.403-4.875s2.216-1.747 4.499-1.344zM24 28.444h-1.778c0-1.276-3.13-2.667-7.111-2.667s-7.111 1.391-7.111 2.667h-1.778c0-2.652 4.034-4.444 8.889-4.444s8.889 1.793 8.889 4.444z"></path>
</svg>
