<?xml version="1.0" encoding="utf-8"?>
<!-- Generated by IcoMoon.io -->
<!DOCTYPE svg PUBLIC "-//W3C//DTD SVG 1.1//EN" "http://www.w3.org/Graphics/SVG/1.1/DTD/svg11.dtd">
<svg version="1.1" xmlns="http://www.w3.org/2000/svg" xmlns:xlink="http://www.w3.org/1999/xlink" width="46" height="32" viewBox="0 0 46 32">
<path fill="#444444" d="M23.111 10.667v-5.343c0-3.917-2.669-5.386-5.962-3.269l-12.966 8.335c-3.298 2.12-3.292 5.548 0 7.665l12.966 8.335c3.298 2.12 5.962 0.653 5.962-3.269v-5.343h8.889c0.694 0 2.038 0.299 3.361 1.181 2.312 1.541 3.75 4.418 3.75 9.486 0 1.964 1.592 3.556 3.556 3.556s3.556-1.592 3.556-3.556c0-7.376-2.562-12.5-6.917-15.403-2.677-1.785-5.333-2.375-7.306-2.375h-8.889z"></path>
</svg>
