<?xml version="1.0" encoding="UTF-8" standalone="no"?>
<svg width="19px" height="20px" viewBox="0 0 19 20" version="1.1" xmlns="http://www.w3.org/2000/svg" xmlns:xlink="http://www.w3.org/1999/xlink" xmlns:sketch="http://www.bohemiancoding.com/sketch/ns">
    <!-- Generator: Sketch 3.2.2 (9983) - http://www.bohemiancoding.com/sketch -->
    <title>reports</title>
    <desc>Created with Sketch.</desc>
    <defs></defs>
    <g id="Page-1" stroke="none" stroke-width="1" fill="none" fill-rule="evenodd" sketch:type="MSPage">
        <g id="icons@2x" sketch:type="MSArtboardGroup" transform="translate(-776.000000, -93.000000)" fill="#000000">
            <g id="reports" sketch:type="MSLayerGroup" transform="translate(776.000000, 92.749699)">
                <g id="Group" sketch:type="MSShapeGroup">
                    <g transform="translate(4.000000, 5.650302)" id="Shape">
                        <path d="M5.564,1.393 C5.564,0.843 5.114,0.393 4.564,0.393 L1.877,0.393 C1.327,0.393 0.877,0.843 0.877,1.393 L0.877,1.59 C0.877,2.14 1.327,2.59 1.877,2.59 L4.564,2.59 C5.114,2.59 5.564,2.14 5.564,1.59 L5.564,1.393 L5.564,1.393 Z"></path>
                        <path d="M7.096,4.424 C7.096,3.874 6.646,3.424 6.096,3.424 L1.877,3.424 C1.327,3.424 0.877,3.874 0.877,4.424 L0.877,4.621 C0.877,5.171 1.327,5.621 1.877,5.621 L6.095,5.621 C6.645,5.621 7.095,5.171 7.095,4.621 L7.095,4.424 L7.096,4.424 Z"></path>
                        <path d="M0.877,7.653 C0.877,8.203 1.327,8.653 1.877,8.653 L8.877,8.653 C9.427,8.653 9.877,8.203 9.877,7.653 L9.877,7.456 C9.877,6.906 9.427,6.456 8.877,6.456 L1.877,6.456 C1.327,6.456 0.877,6.906 0.877,7.456 L0.877,7.653 L0.877,7.653 Z"></path>
                    </g>
                    <path d="M12.841,0.677 C12.814,0.65 12.786,0.627 12.759,0.603 L12.62,0.482 C12.461,0.429 12.313,0.376 12.143,0.376 L5.109,0.376 C2.5,0.376 0.377,2.393 0.377,4.872 L0.377,14.882 C0.377,17.361 2.505,19.376 5.121,19.376 L13.633,19.376 C16.25,19.376 18.377,17.358 18.377,14.877 L18.377,6 C18.377,5.782 18.285,5.589 18.148,5.433 L12.841,0.677 Z M13.092,2.643 L15.859,5.1 L13.091,5.1 L13.091,2.643 L13.092,2.643 Z M13.632,17.574 L5.121,17.574 C3.55,17.574 2.272,16.366 2.272,14.881 L2.272,4.871 C2.272,3.385 3.545,2.175 5.109,2.175 L11.197,2.175 L11.197,6 C11.197,6.497 11.621,6.9 12.144,6.9 L16.482,6.9 L16.482,14.876 C16.482,16.363 15.205,17.574 13.632,17.574 Z" id="Shape"></path>
                </g>
            </g>
        </g>
    </g>
</svg>