<?xml version="1.0" encoding="UTF-8" standalone="no"?>
<svg width="190px" height="190px" viewBox="0 0 190 190" version="1.1" xmlns="http://www.w3.org/2000/svg" xmlns:xlink="http://www.w3.org/1999/xlink" xmlns:sketch="http://www.bohemiancoding.com/sketch/ns">
    <!-- Generator: Sketch 3.3 (11970) - http://www.bohemiancoding.com/sketch -->
    <title>Shape</title>
    <desc>Created with Sketch.</desc>
    <defs></defs>
    <g id="Page-1" stroke="none" stroke-width="1" fill="none" fill-rule="evenodd" sketch:type="MSPage">
        <g id="rocket" sketch:type="MSLayerGroup" transform="translate(-1.000000, 0.000000)" fill="#000000">
            <g id="missions" sketch:type="MSShapeGroup">
                <path d="M153.768,48.358 C150.665,48.358 148.028,47.274 145.856,45.103 C143.684,42.935 142.598,40.298 142.598,37.198 C142.598,34.099 143.684,31.464 145.856,29.293 C148.028,27.125 150.667,26.038 153.768,26.038 C156.871,26.038 159.507,27.125 161.68,29.293 C163.85,31.464 164.938,34.1 164.938,37.198 C164.938,40.299 163.85,42.935 161.68,45.103 C159.507,47.274 156.869,48.358 153.768,48.358 L153.768,48.358 Z M189.837,1.104 C189.062,0.367 188.13,0 187.045,0 C166.799,0 150.082,2.751 136.897,8.253 C123.709,13.758 109.826,23.754 95.243,38.245 C89.036,44.522 82.212,52.079 74.764,60.915 L30.668,63.24 C29.426,63.396 28.417,64.014 27.642,65.099 L1.578,109.739 C0.647,111.291 0.84,112.801 2.16,114.272 L9.606,121.712 C10.304,122.408 11.195,122.757 12.282,122.757 C12.747,122.757 13.096,122.72 13.328,122.641 L45.442,112.759 L78.137,145.425 L68.246,177.511 C67.858,178.907 68.168,180.146 69.177,181.232 L76.624,188.671 C77.477,189.368 78.369,189.718 79.3,189.718 C79.998,189.718 80.618,189.561 81.162,189.253 L125.842,163.212 C126.927,162.439 127.547,161.431 127.702,160.19 L130.029,116.13 C138.873,108.692 146.435,101.872 152.717,95.671 C166.525,81.799 176.355,67.829 182.213,53.763 C188.07,39.698 191,23.016 191,3.717 C191,2.712 190.611,1.839 189.837,1.104 L189.837,1.104 Z" id="Shape"></path>
            </g>
        </g>
    </g>
</svg>