<?xml version="1.0" encoding="utf-8"?>
<!-- Generated by IcoMoon.io -->
<!DOCTYPE svg PUBLIC "-//W3C//DTD SVG 1.1//EN" "http://www.w3.org/Graphics/SVG/1.1/DTD/svg11.dtd">
<svg version="1.1" xmlns="http://www.w3.org/2000/svg" xmlns:xlink="http://www.w3.org/1999/xlink" width="64" height="32" viewBox="0 0 64 32">
<path fill="#444444" d="M11.076 3.936c1.732-2.165 4.565-2.165 6.297 0l7.925 9.906c1.732 2.165 0.878 3.936-1.892 3.936h-18.368c-2.773 0-3.623-1.771-1.892-3.936l7.929-9.906z"></path>
<path fill="#444444" d="M10.667 28.444c0 1.966 1.593 3.556 3.556 3.556h17.778c1.966 0 3.556-1.589 3.556-3.556s-1.589-3.556-3.556-3.556h-17.778l3.556 3.556v-21.333c0-1.963-1.593-3.556-3.556-3.556s-3.556 1.593-3.556 3.556v21.333z"></path>
<path fill="#444444" d="M52.928 28.068c-1.732 2.162-4.565 2.162-6.297 0l-7.925-9.909c-1.735-2.165-0.882-3.936 1.888-3.936h18.368c2.77 0 3.623 1.771 1.888 3.932l-7.922 9.913z"></path>
<path fill="#444444" d="M53.333 3.556c0-1.963-1.589-3.556-3.556-3.556h-17.778c-1.963 0-3.556 1.593-3.556 3.556s1.593 3.556 3.556 3.556h17.778l-3.556-3.556v21.333c0 1.966 1.589 3.556 3.556 3.556s3.556-1.589 3.556-3.556v-21.333z"></path>
</svg>
