<?xml version="1.0" encoding="utf-8"?>
<!-- Generated by IcoMoon.io -->
<!DOCTYPE svg PUBLIC "-//W3C//DTD SVG 1.1//EN" "http://www.w3.org/Graphics/SVG/1.1/DTD/svg11.dtd">
<svg version="1.1" xmlns="http://www.w3.org/2000/svg" xmlns:xlink="http://www.w3.org/1999/xlink" width="35" height="32" viewBox="0 0 35 32">
<path fill="#444444" d="M32.064 18.036l-4.059-10.471c-0.062-0.162-0.182-0.243-0.312-0.283l1.467-0.392c0.904-0.243 1.433-1.164 1.191-2.063-0.243-0.906-1.164-1.432-2.063-1.191l-10.501 2.813c1.051-0.589 1.763-1.715 1.763-3.005 0-1.901-1.546-3.444-3.453-3.444s-3.453 1.543-3.453 3.444c0 1.903 1.546 3.444 3.453 3.444 0.017 0 0.034 0 0.049 0l-10.631 2.85c-0.904 0.243-1.433 1.165-1.192 2.063 0.243 0.904 1.165 1.432 2.065 1.191l1.064-0.285c-0.019 0.029-0.047 0.044-0.061 0.079l-4.453 11.481h-2.083c0 3.995 3.124 7.235 6.978 7.235s6.978-3.24 6.978-7.235h-2.083l-4.451-11.481c-0.045-0.115-0.116-0.194-0.2-0.248l19.17-5.137c-0.045 0.049-0.096 0.091-0.123 0.163l-4.061 10.471h-2.476c0 3.997 3.123 7.234 6.978 7.234s6.978-3.237 6.978-7.234h-2.477zM11.673 24.253h-7.68l3.84-9.901 3.84 9.901zM16.098 5.511c-1.144 0-2.072-0.925-2.072-2.067s0.928-2.067 2.072-2.067c1.145 0 2.072 0.925 2.072 2.067s-0.926 2.067-2.072 2.067zM24.109 18.036l3.453-8.908 3.454 8.908h-6.907z"></path>
</svg>
