<?xml version="1.0" encoding="UTF-8" standalone="no"?>
<svg width="22px" height="20px" viewBox="0 0 22 20" version="1.1" xmlns="http://www.w3.org/2000/svg" xmlns:xlink="http://www.w3.org/1999/xlink" xmlns:sketch="http://www.bohemiancoding.com/sketch/ns">
    <!-- Generator: Sketch 3.2.2 (9983) - http://www.bohemiancoding.com/sketch -->
    <title>from audience</title>
    <desc>Created with Sketch.</desc>
    <defs></defs>
    <g id="Page-1" stroke="none" stroke-width="1" fill="none" fill-rule="evenodd" sketch:type="MSPage">
        <g id="from-audience" sketch:type="MSLayerGroup" fill="#000000">
            <g id="Oval-28-_x2B_-Path" transform="translate(0.599976, 0.500000)" sketch:type="MSShapeGroup">
                <path d="M5,10 C7.76142375,10 10,7.76142375 10,5 C10,2.23857625 7.76142375,0 5,0 C2.23857625,0 0,2.23857625 0,5 C0,7.76142375 2.23857625,10 5,10 Z M4.473,5.311 L2,5.311 L2,4.271 L4.473,4.271 L5.527,4.271 L8,4.271 L8,5.312 L5.527,5.312 L4.473,5.312 L4.473,5.311 Z" id="Oval-28"></path>
            </g>
            <g id="tailored-audience-2" transform="translate(5.099976, 4.000000)" sketch:type="MSShapeGroup">
                <g id="Group">
                    <path d="M12.3155757,3.04884242 C13.0121801,1.34169723 11.9384991,0.362735844 11.4945299,0.0450842369 C11.4035255,-0.019932174 11.2734927,0.0116472256 11.221461,0.110100648 L8.41834345,5.50832036 L9.72608354,8.02724188 L12.3155757,3.04884242 L12.3155757,3.04884242 Z" id="Shape"></path>
                    <g id="Shape">
                        <path d="M1.86836731,15.5951335 C3.56993966,16.4812143 5.66718331,15.8217622 6.55326411,14.1220474 L6.55883695,14.1257626 L7.58052341,12.1585518 L6.27278332,9.63963029 L6.01084149,10.1430431 C5.74336397,9.85698944 5.42383618,9.61176611 5.05604763,9.4241659 C3.35076005,8.55108839 1.27952297,9.21239817 0.393442166,10.9102553 C-0.492657209,12.6118276 0.16865257,14.7090713 1.86836731,15.5951335 L1.86836731,15.5951335 Z M3.45848296,10.6650505 C4.46345091,10.6650505 5.27894246,11.4805235 5.27894246,12.48551 C5.27894246,13.490478 4.46345091,14.3059696 3.45848296,14.3059696 C2.45351501,14.3059696 1.63802345,13.490478 1.63802345,12.48551 C1.63802345,11.4805235 2.4516574,10.6650505 3.45848296,10.6650505 L3.45848296,10.6650505 Z"></path>
                        <path d="M15.6053875,10.9102553 C14.9849824,9.71950759 13.7812314,9.03964027 12.5291825,9.03964027 C11.9960665,9.03964027 11.4536439,9.16410026 10.9428007,9.4241659 C10.5749935,9.61362372 10.2536267,9.85882847 9.98800679,10.1430431 C9.98800679,10.1430431 4.78669393,0.126800577 4.77740587,0.110082072 C4.72908939,0.015343873 4.59721753,-0.0218083618 4.50433694,0.0450656608 C4.05851013,0.362717268 2.98481054,1.34167865 3.68327255,3.04882384 L9.44002991,14.123905 L9.44560274,14.1201898 C10.0641875,15.3071851 11.2753503,15.9889472 12.527362,15.9889472 C13.0679271,15.9889472 13.6177616,15.8626296 14.1304995,15.5951335 C15.8320347,14.7090713 16.4933445,12.6118276 15.6053875,10.9102553 L15.6053875,10.9102553 Z M12.5422229,14.3059696 C11.5372364,14.3059696 10.7217634,13.490478 10.7217634,12.48551 C10.7217634,11.4805235 11.5372364,10.6650505 12.5422229,10.6650505 C13.5471909,10.6650505 14.3626824,11.4805235 14.3626824,12.48551 C14.3626824,13.490478 13.5471723,14.3059696 12.5422229,14.3059696 L12.5422229,14.3059696 Z"></path>
                    </g>
                </g>
            </g>
        </g>
    </g>
</svg>