<?xml version="1.0" encoding="utf-8"?>
<!-- Generated by IcoMoon.io -->
<!DOCTYPE svg PUBLIC "-//W3C//DTD SVG 1.1//EN" "http://www.w3.org/Graphics/SVG/1.1/DTD/svg11.dtd">
<svg version="1.1" xmlns="http://www.w3.org/2000/svg" xmlns:xlink="http://www.w3.org/1999/xlink" width="36" height="32" viewBox="0 0 36 32">
<path fill="#444444" d="M29.004 8.976c1.237-3.035-0.67-4.775-1.46-5.34-0.162-0.116-0.393-0.059-0.484 0.116l-4.985 9.596 2.327 4.478 4.601-8.85z"></path>
<path fill="#444444" d="M17.797 21.588c-0.476-0.507-1.044-0.944-1.698-1.278-3.033-1.552-6.715-0.375-8.29 2.642-1.575 3.024-0.4 6.754 2.622 8.331 3.026 1.575 6.754 0.404 8.329-2.62l0.011 0.007 1.815-3.499-2.324-4.478-0.466 0.896zM13.259 28.99c-1.787 0-3.236-1.451-3.236-3.237s1.445-3.236 3.236-3.236c1.787 0 3.236 1.449 3.236 3.236s-1.449 3.237-3.236 3.237z"></path>
<path fill="#444444" d="M34.853 22.951c-1.104-2.116-3.243-3.326-5.468-3.326-0.948 0-1.913 0.222-2.82 0.684-0.654 0.336-1.225 0.775-1.698 1.278 0 0-3.691-7.109-6.414-12.35 0.005-0.119 0.036-0.229 0.036-0.348 0-4.908-3.979-8.889-8.889-8.889-4.908 0-8.889 3.98-8.889 8.889s3.98 8.889 8.889 8.889c2.8 0 5.266-1.321 6.896-3.344l7.397 14.231 0.011-0.007c1.1 2.11 3.253 3.321 5.479 3.321 0.962 0 1.938-0.222 2.852-0.699 3.022-1.575 4.197-5.305 2.619-8.329zM14.933 9.442h-4.396v4.425h-1.874v-4.425h-4.396v-1.849h4.396v-4.393h1.874v4.393h4.396v1.849zM29.408 28.99c-1.787 0-3.236-1.451-3.236-3.237s1.449-3.236 3.236-3.236 3.237 1.449 3.237 3.236-1.451 3.237-3.237 3.237z"></path>
</svg>
