<?xml version="1.0" encoding="iso-8859-1"?>
<!-- Generator: Adobe Illustrator 16.0.0, SVG Export Plug-In . SVG Version: 6.00 Build 0)  -->
<!DOCTYPE svg PUBLIC "-//W3C//DTD SVG 1.1//EN" "http://www.w3.org/Graphics/SVG/1.1/DTD/svg11.dtd">
<svg version="1.1" xmlns="http://www.w3.org/2000/svg" xmlns:xlink="http://www.w3.org/1999/xlink" x="0px" y="0px" width="190px"
	 height="190.001px" viewBox="0 0 190 190.001" style="enable-background:new 0 0 190 190.001;" xml:space="preserve">
<g id="search">
	<g id="search_1_">
		<path d="M80.385,131.537c-14.084,0-26.131-5.004-36.139-15.016C34.235,106.514,29.23,94.467,29.23,80.384
			c0-14.082,5.005-26.127,15.016-36.139c10.008-10.009,22.055-15.016,36.139-15.016c14.082,0,26.129,5.007,36.139,15.016
			c10.011,10.012,15.017,22.057,15.017,36.139c0,14.083-5.006,26.13-15.017,36.14C106.514,126.533,94.467,131.537,80.385,131.537z
			 M185.775,165.107l-39.166-39.164c9.438-13.627,14.16-28.812,14.16-45.561c0-10.885-2.112-21.295-6.338-31.229
			c-4.226-9.933-9.935-18.497-17.127-25.69c-7.193-7.193-15.758-12.902-25.691-17.128C101.68,2.112,91.27,0,80.385,0
			C69.498,0,59.09,2.112,49.156,6.336c-9.936,4.226-18.498,9.935-25.692,17.128c-7.193,7.193-12.902,15.758-17.127,25.69
			C2.112,59.089,0,69.499,0,80.384c0,10.887,2.112,21.296,6.337,31.229c4.225,9.935,9.934,18.498,17.127,25.691
			c7.194,7.193,15.757,12.901,25.692,17.127c9.934,4.226,20.342,6.338,31.229,6.338c16.745,0,31.932-4.72,45.561-14.16
			l39.164,39.052c2.74,2.892,6.166,4.34,10.274,4.34c3.958,0,7.384-1.448,10.277-4.34c2.894-2.894,4.339-6.319,4.339-10.276
			C190,171.348,188.591,167.923,185.775,165.107L185.775,165.107z"/>
	</g>
</g>
<g id="Capa_1">
</g>
</svg>
