<?xml version="1.0" encoding="utf-8"?>
<!-- Generated by IcoMoon.io -->
<!DOCTYPE svg PUBLIC "-//W3C//DTD SVG 1.1//EN" "http://www.w3.org/Graphics/SVG/1.1/DTD/svg11.dtd">
<svg version="1.1" xmlns="http://www.w3.org/2000/svg" xmlns:xlink="http://www.w3.org/1999/xlink" width="32" height="32" viewBox="0 0 32 32">
<path fill="#565656" d="M10.331 30.939h-1.309v-12.131h1.309l7.14 3.639-1.191 3.64-2.379-1.212v6.065h-3.57zM1.882 22.446l1.19 3.64 2.379-1.212v6.065h3.57v-12.131l-7.14 3.639zM9.677 18.442c1.972 0 3.57-1.629 3.57-3.639s-1.598-3.639-3.57-3.639c-1.972 0-3.57 1.629-3.57 3.639s1.598 3.639 3.57 3.639zM6.985 7.374c-0.057 0.379 0.198 0.738 0.58 0.801l2.181 0.359c0.378 0.063 0.731-0.193 0.788-0.576 0.058-0.38-0.198-0.738-0.58-0.801l-2.181-0.359c-0.377-0.063-0.73 0.192-0.788 0.576v0 0zM9.447 2.612c-0.271 0.269-0.271 0.707 0.005 0.982l1.575 1.575c0.274 0.273 0.711 0.277 0.984 0.006 0.269-0.27 0.269-0.707-0.006-0.983l-1.574-1.573c-0.274-0.273-0.712-0.278-0.984-0.006zM14.643 0.006c-0.382 0.052-0.645 0.396-0.589 0.779l0.321 2.186c0.055 0.379 0.407 0.645 0.792 0.593 0.382-0.052 0.645-0.396 0.589-0.779l-0.322-2.184c-0.056-0.38-0.407-0.645-0.791-0.595zM25.040 22.571l-10.89-10.89 5.171-5.171 10.89 10.89-5.171 5.171zM13.209 10.846l-1.089-1.089 5.171-5.171 1.089 1.089-5.171 5.171z"></path>
</svg>
