<?xml version="1.0" encoding="UTF-8"?>
<svg width="12px" height="12px" viewBox="0 0 12 12" version="1.1" xmlns="http://www.w3.org/2000/svg" xmlns:xlink="http://www.w3.org/1999/xlink">
    <!-- Generator: Sketch 59.1 (86144) - https://sketch.com -->
    <title>icon/essential/111-settings</title>
    <desc>Created with Sketch.</desc>
    <g id="Page-1" stroke="none" stroke-width="1" fill="none" fill-rule="evenodd">
        <g id="Artboard" transform="translate(-125.000000, -16.000000)" fill="#000000" fill-rule="nonzero">
            <path d="M135.155784,23.6951523 C135.209596,23.5695977 135.332666,23.488082 135.467361,23.4875664 L135.512477,23.4875664 C136.332691,23.4875664 137,22.8202539 137,22.0000352 C137,21.1798398 136.332691,20.5125273 135.512477,20.5125273 L135.429181,20.5125273 C135.313588,20.5120586 135.207721,20.4536523 135.145261,20.3596211 C135.138332,20.3253782 135.127732,20.2919821 135.113644,20.2600117 C135.057043,20.1318086 135.083363,19.9843164 135.180698,19.8836523 L135.207276,19.8570742 C135.208026,19.8563711 135.208753,19.8556445 135.209456,19.854918 C135.490235,19.5738086 135.644781,19.200168 135.644524,18.802832 C135.644313,18.4061758 135.48986,18.0333086 135.209667,17.752668 C135.208917,17.751918 135.20819,17.7511914 135.207464,17.7504414 C134.926543,17.4698242 134.553257,17.3153477 134.156228,17.3153477 L134.155384,17.3153477 C133.75805,17.3155586 133.384576,17.4705039 133.103984,17.7514258 L133.07621,17.7792227 C132.97557,17.8765117 132.828079,17.9028555 132.699853,17.8462773 C132.69826,17.8455977 132.696666,17.8448945 132.695072,17.8442148 C132.569518,17.7904023 132.488003,17.667332 132.487487,17.5326602 L132.487487,17.4875195 C132.487487,16.6673242 131.820179,16.0000117 130.999965,16.0000117 C130.179751,16.0000117 129.512466,16.6673242 129.512466,17.4875195 L129.512466,17.5708398 C129.512048,17.6850549 129.454697,17.7915385 129.35956,17.8547383 C129.325412,17.8616523 129.292014,17.8722461 129.259952,17.8863789 C129.131773,17.9429805 128.984258,17.9166367 128.883594,17.8193242 L128.85486,17.7905664 C128.573917,17.5099492 128.200677,17.3554727 127.803648,17.3554727 L127.80278,17.3554727 C127.405447,17.3556836 127.031972,17.5106289 126.750396,17.7925352 C126.469593,18.0736211 126.31507,18.4472617 126.315305,18.8445977 C126.315516,19.2419336 126.47046,19.6153867 126.75138,19.8959805 L126.779154,19.9237539 C126.876466,20.024418 126.902809,20.1718867 126.846231,20.3001133 C126.842083,20.3094648 126.838286,20.3189336 126.834747,20.3285195 C126.786372,20.4600039 126.665412,20.5475664 126.525749,20.5526055 L126.487476,20.5526055 C125.667309,20.5526055 125,21.219918 125,22.0401133 C125,22.8603555 125.667309,23.5276445 126.487546,23.5275977 L126.570842,23.5275977 C126.707482,23.5281602 126.830505,23.6096289 126.884317,23.7351836 C126.884997,23.7368008 126.8857,23.7383945 126.88638,23.7399648 C126.942981,23.868168 126.916637,24.0156602 126.819302,24.1163477 L126.791529,24.1440977 C126.790894,24.1447598 126.790253,24.145416 126.789607,24.1460664 C126.509413,24.4270352 126.355242,24.8003008 126.355453,25.197168 C126.355664,25.5945039 126.510608,25.9679805 126.791716,26.2487617 C126.792396,26.2494648 126.793099,26.250168 126.793802,26.2508477 C127.374205,26.8292617 128.316902,26.8283008 128.895946,26.2485742 L128.923743,26.2207773 C129.024383,26.1234883 129.171874,26.0970977 129.300076,26.1537227 C129.309404,26.1578242 129.318873,26.1616445 129.328459,26.1651836 C129.459966,26.2135586 129.547505,26.334543 129.552567,26.474207 L129.552567,26.512457 C129.552567,27.3326758 130.219876,27.9999883 131.040066,27.9999883 C131.860304,27.9999883 132.527589,27.3326758 132.527612,26.5125039 L132.527612,26.4292305 C132.528175,26.2925898 132.609643,26.169543 132.735197,26.1157305 L132.739955,26.113668 C132.86818,26.0570664 133.015672,26.0833867 133.116335,26.1807227 L133.145093,26.209457 C133.426013,26.4900742 133.799277,26.6445742 134.196305,26.6445508 L134.197173,26.6445508 C134.594506,26.6443164 134.967981,26.4893945 135.249557,26.2075117 C135.829187,25.6271992 135.828671,24.6834883 135.248596,24.1040195 L135.220799,24.0762461 C135.123511,23.975582 135.097167,23.8281133 135.153745,23.6998633 C135.154448,23.6983164 135.155128,23.6967461 135.155784,23.6951523 Z M134.529163,24.7556992 C134.530405,24.7569648 134.531671,24.7582305 134.532913,24.7594961 L134.563171,24.7897539 C134.765224,24.9916445 134.765435,25.3202852 134.562772,25.5231602 C134.464991,25.621082 134.334914,25.6750352 134.19654,25.6751055 L134.196235,25.6751055 C134.057955,25.6751055 133.927948,25.621293 133.829534,25.5229727 L133.799464,25.4929023 C133.798198,25.4916367 133.796933,25.4903945 133.795644,25.4891289 C133.410568,25.1124883 132.843665,25.0092461 132.350683,25.2257617 C131.871178,25.432457 131.560165,25.9030117 131.558055,26.4272852 L131.558055,26.5125039 C131.558055,26.7981602 131.325674,27.030543 131.040019,27.030543 C130.754388,27.030543 130.522007,26.7981367 130.522007,26.5125039 L130.522007,26.4673867 C130.522007,26.4636133 130.52196,26.4598398 130.521866,26.456043 C130.509304,25.9190195 130.178415,25.4514648 129.677465,25.2607305 C129.187249,25.0509648 128.626252,25.1555898 128.24427,25.5292305 C128.243004,25.5304727 128.241739,25.5317383 128.240473,25.5329805 L128.210192,25.5632617 C128.00835,25.7653398 127.679687,25.7655508 127.477587,25.5636836 C127.477001,25.5630977 127.476392,25.5625117 127.475829,25.5619492 C127.378541,25.4642617 127.324963,25.3346055 127.324869,25.1966992 C127.324775,25.0583242 127.378611,24.9282227 127.476392,24.8303242 C127.476954,24.8297852 127.477493,24.8291992 127.478056,24.8286602 L127.507071,24.7996211 C127.508337,24.7983555 127.509602,24.7970898 127.510845,24.7958008 C127.88746,24.410793 127.990701,23.8438867 127.774257,23.3509023 C127.567587,22.8713477 127.096988,22.5603086 126.572694,22.5581992 L126.487452,22.5581992 C126.201821,22.5581992 125.96944,22.325793 125.96944,22.0401602 C125.96944,21.7545273 126.201845,21.5221445 126.487452,21.5221211 L126.532593,21.5221211 C126.536366,21.5221211 126.540163,21.5220742 126.543936,21.5219805 C127.081003,21.509418 127.548532,21.1785273 127.739265,20.6775742 C127.948983,20.1873555 127.844405,19.6264023 127.470767,19.244418 C127.469525,19.2431523 127.468259,19.2418867 127.466993,19.2406211 L127.436736,19.2103398 C127.338838,19.1125352 127.284885,18.9824805 127.284815,18.8441055 C127.284721,18.7057539 127.338557,18.5756289 127.437134,18.4769336 C127.534938,18.3790352 127.664992,18.325082 127.803366,18.3250117 L127.803671,18.3250117 C127.941952,18.3250117 128.071959,18.3788242 128.170372,18.4771445 L128.200466,18.5072148 C128.201708,18.5084805 128.202997,18.5097461 128.204262,18.5109883 C128.565596,18.8644258 129.087078,18.9771133 129.557395,18.8107305 C129.601953,18.8050228 129.645502,18.7931514 129.686793,18.775457 C130.167751,18.5693242 130.47989,18.0980195 130.481976,17.572832 L130.481976,17.4875898 C130.481976,17.201957 130.714357,16.9695742 130.999988,16.9695742 C131.285619,16.9695742 131.518024,17.2019805 131.518024,17.4876133 L131.518024,17.5346758 C131.520087,18.0570273 131.831147,18.5276289 132.310699,18.7343242 C132.803728,18.9508398 133.37056,18.8475273 133.755613,18.4709102 C133.756878,18.469668 133.758144,18.4684023 133.759433,18.4671367 L133.789714,18.4368789 C133.887495,18.3389805 134.017572,18.2850273 134.155923,18.284957 L134.156228,18.284957 C134.294063,18.284957 134.423742,18.3384414 134.521452,18.4356133 C134.521991,18.4361758 134.522554,18.4367148 134.523093,18.4372773 C134.621014,18.535082 134.674967,18.6651367 134.675037,18.8035117 C134.675131,18.9415117 134.6216,19.0712617 134.524358,19.1690664 C134.52389,19.1695352 134.523397,19.1700039 134.522905,19.1704961 L134.492835,19.2005898 C134.491569,19.201832 134.490327,19.2030977 134.489062,19.2043867 C134.135626,19.5657227 134.022939,20.0872305 134.189321,20.5575273 C134.195045,20.6020927 134.206924,20.6456485 134.224618,20.6869492 C134.430749,21.1679102 134.902051,21.4800508 135.427236,21.4821367 L135.512454,21.4821367 C135.798109,21.4821367 136.03049,21.7145195 136.03049,22.0001523 C136.03049,22.2857852 135.798085,22.5181914 135.512454,22.5181914 L135.465415,22.5181914 C134.943067,22.5202539 134.472491,22.8313164 134.265774,23.3108477 C134.049283,23.8037148 134.152548,24.370668 134.529163,24.7556992 Z M130.999965,20.0111289 C129.903307,20.0111289 129.01107,20.9033477 129.01107,22.0000352 C129.01107,23.0967227 129.903284,23.9889414 130.999965,23.9889414 C132.096646,23.9889414 132.988859,23.0967227 132.988859,22.0000352 C132.988859,20.9033477 132.096622,20.0111289 130.999965,20.0111289 Z M130.999965,23.0194258 C130.437867,23.0194258 129.980557,22.5621367 129.980557,22.0000117 C129.980557,21.4379102 130.437867,20.9805977 130.999965,20.9805977 C131.562087,20.9805977 132.019373,21.4379102 132.019373,22.0000117 C132.019373,22.5621133 131.562087,23.0194258 130.999965,23.0194258 Z" id="icon/essential/111-settings"></path>
        </g>
    </g>
</svg>