<?xml version="1.0" encoding="UTF-8" standalone="no"?>
<svg width="96px" height="116px" viewBox="0 0 96 116" version="1.1" xmlns="http://www.w3.org/2000/svg" xmlns:xlink="http://www.w3.org/1999/xlink" xmlns:sketch="http://www.bohemiancoding.com/sketch/ns">
    <!-- Generator: Sketch 3.3 (11970) - http://www.bohemiancoding.com/sketch -->
    <title>logo</title>
    <desc>Created with Sketch.</desc>
    <defs></defs>
    <g id="socialbro" stroke="none" stroke-width="1" fill="none" fill-rule="evenodd" sketch:type="MSPage">
        <g id="logo" sketch:type="MSLayerGroup">
            <path id="layer-up" fill="#32C4D0" d="M47.98475,95.261 C45.08075,95.261 42.30175,94.497 40.18975,93.156 L11.98275,75 L2.55975,81.047 C-0.85325,83.249 -0.85325,86.847 2.55975,89.013 L41.79375,114.235 C43.50075,115.342 45.74575,115.89 47.98475,115.89 C50.22675,115.89 52.48175,115.342 54.18575,114.235 L93.41875,89.013 C96.83275,86.847 96.83275,83.249 93.41875,81.047 L83.99675,75 L55.79675,93.156 C53.67275,94.497 50.89875,95.261 47.98475,95.261" sketch:type="MSShapeGroup"></path>
            <path id="layer-medium" fill="#41787C" d="M93.41875,54.06 L83.99675,48 L68.38175,58.048 L67.02375,58.919 L65.64275,59.806 L55.79675,66.14 C53.67275,67.503 50.89875,68.257 47.98475,68.257 C45.08075,68.257 42.30175,67.503 40.18975,66.14 L30.32175,59.806 L28.95575,58.919 L27.60275,58.048 L11.98275,48 L2.55975,54.06 C-0.85325,56.253 -0.85325,59.827 2.55975,62.025 L11.98275,68.084 L13.33275,68.968 L14.71175,69.829 L41.79375,87.254 C43.50075,88.33 45.74575,88.906 47.98475,88.906 C50.22675,88.906 52.48175,88.33 54.18575,87.254 L81.25975,69.829 L82.63875,68.968 L83.99675,68.084 L93.41875,62.025 C96.83275,59.827 96.83275,56.253 93.41875,54.06" sketch:type="MSShapeGroup"></path>
            <path id="layer-down" fill="#32C4D0" d="M93.41875,26.861 L54.18575,1.648 C52.48175,0.554 50.22675,0 47.98475,0 C45.74575,0 43.50075,0.554 41.79375,1.648 L2.55975,26.861 C-0.85325,29.051 -0.85325,32.649 2.55975,34.847 L11.98275,40.898 L13.33275,41.775 L14.71175,42.648 L30.32175,52.685 L31.67375,53.572 L33.05575,54.448 L41.79375,60.064 C43.50075,61.149 45.74575,61.704 47.98475,61.704 C50.22675,61.704 52.48175,61.149 54.18575,60.064 L62.91875,54.448 L64.29575,53.572 L65.64275,52.685 L81.25975,42.648 L82.63875,41.775 L83.99675,40.898 L93.41875,34.847 C96.83275,32.649 96.83275,29.051 93.41875,26.861" sketch:type="MSShapeGroup"></path>
        </g>
    </g>
</svg>
