<?xml version="1.0" encoding="UTF-8" standalone="no"?>
<svg width="20px" height="17px" viewBox="0 0 20 17" version="1.1" xmlns="http://www.w3.org/2000/svg" xmlns:xlink="http://www.w3.org/1999/xlink" xmlns:sketch="http://www.bohemiancoding.com/sketch/ns">
    <!-- Generator: Sketch 3.2.2 (9983) - http://www.bohemiancoding.com/sketch -->
    <title>un mute</title>
    <desc>Created with Sketch.</desc>
    <defs></defs>
    <g id="Page-1" stroke="none" stroke-width="1" fill="none" fill-rule="evenodd" sketch:type="MSPage">
        <g id="un-mute" sketch:type="MSLayerGroup" fill="#000000">
            <g id="Page-1" sketch:type="MSShapeGroup">
                <g id="mute-+-Rectangle-32">
                    <g id="mute">
                        <path d="M12.8796357,11.7825059 L12.8796357,15.5290456 C12.8796357,16.081565 12.4442049,16.4202492 11.9158939,16.2877303 L7.50513745,15.1813583 C5.86536792,14.7700467 4.40746695,13.6020355 3.48102857,12.1243164 L3.48102857,12.1636517 L1.74051429,12.1636517 C0.779254789,12.1636517 0,11.3814212 0,10.4196017 L0,6.0492281 C0,5.08601587 0.772553064,4.30517809 1.74051429,4.30517809 L3.48102857,4.30517809 L3.48102857,4.344043 C4.40691138,2.86705527 5.86402702,1.69911948 7.50513745,1.28747157 L11.9158939,0.181099544 C12.4481538,0.0475901417 12.8796357,0.383104782 12.8796357,0.939784214 L12.8796357,4.68632391 C14.1992953,5.31824015 15.1111111,6.6694889 15.1111111,8.23441492 C15.1111111,9.79934094 14.1992953,11.1505897 12.8796357,11.7825059 L12.8796357,11.7825059 Z" id="Rectangle-460"></path>
                    </g>
                    <path d="M17.1667822,2.49454493 C17.4306259,2.70186502 17.4797375,3.08204491 17.2718807,3.34961608 L16.0845045,4.87810881 C15.8787051,5.14303148 15.4998236,5.19117301 15.2341405,4.98240753 C14.9702968,4.77508744 14.9211852,4.39490755 15.129042,4.12733638 L16.3164182,2.59884365 C16.5222176,2.33392098 16.9010991,2.28577945 17.1667822,2.49454493 L17.1667822,2.49454493 L17.1667822,2.49454493 Z M19.1880166,8.44898482 C19.19386,8.78567717 18.9309974,9.06331801 18.5934333,9.06924403 L16.6651084,9.1030962 C16.3308857,9.10896355 16.0552484,8.84312427 16.0493642,8.50408456 C16.0435207,8.16739222 16.3063834,7.88975137 16.6439474,7.88382536 L18.5722723,7.84997319 C18.906495,7.84410583 19.1821324,8.10994512 19.1880166,8.44898482 L19.1880166,8.44898482 L19.1880166,8.44898482 Z M17.3063987,14.4986112 C17.0461928,14.7105308 16.6668227,14.6731364 16.4543544,14.4092544 L15.2406353,12.9018359 C15.0302701,12.6405659 15.0688599,12.2584474 15.3308799,12.0450503 C15.5910858,11.8331306 15.9704559,11.8705251 16.1829242,12.1344071 L17.3966432,13.6418255 C17.6070085,13.9030955 17.5684187,14.2852141 17.3063987,14.4986112 L17.3063987,14.4986112 L17.3063987,14.4986112 Z" id="Rectangle-32"></path>
                </g>
            </g>
        </g>
    </g>
</svg>