<?xml version="1.0" encoding="UTF-8" standalone="no"?>
<svg width="16px" height="17px" viewBox="0 0 16 17" version="1.1" xmlns="http://www.w3.org/2000/svg" xmlns:xlink="http://www.w3.org/1999/xlink" xmlns:sketch="http://www.bohemiancoding.com/sketch/ns">
    <!-- Generator: Sketch 3.2.2 (9983) - http://www.bohemiancoding.com/sketch -->
    <title>mute</title>
    <desc>Created with Sketch.</desc>
    <defs></defs>
    <g id="Page-1" stroke="none" stroke-width="1" fill="none" fill-rule="evenodd" sketch:type="MSPage">
        <g id="mute" sketch:type="MSLayerGroup" fill="#000000">
            <g id="Page-1" sketch:type="MSShapeGroup">
                <g id="mute">
                    <g id="Rectangle-460">
                        <path d="M6.04628026,14.5958371 C6.5082768,14.8545717 6.99800957,15.0541529 7.50513745,15.1813583 L11.9158939,16.2877303 C12.4442049,16.4202492 12.8796357,16.081565 12.8796357,15.5290456 L12.8796357,11.7825059 C14.1992953,11.1505897 15.1111111,9.79934094 15.1111111,8.23441492 C15.1111111,6.6694889 14.1992953,5.31824015 12.8796357,4.68632391 L12.8796357,0.939784214 C12.8796357,0.488837822 12.5964952,0.183020854 12.2060059,0.154087477 L6.04628026,14.5958371 L6.04628026,14.5958371 Z M4.11848169,12.994577 C3.88546421,12.7202531 3.67195978,12.428862 3.48102857,12.1243164 L3.48102857,12.1636517 L1.74051429,12.1636517 C0.779254789,12.1636517 0,11.3814212 0,10.4196017 L0,6.0492281 C0,5.08601587 0.772553064,4.30517809 1.74051429,4.30517809 L3.48102857,4.30517809 L3.48102857,4.344043 C4.40691138,2.86705527 5.86402702,1.69911948 7.50513745,1.28747157 L9.30430836,0.836176566 L4.11848169,12.994577 L4.11848169,12.994577 Z" id="Shape"></path>
                    </g>
                </g>
            </g>
        </g>
    </g>
</svg>