<?xml version="1.0" encoding="UTF-8" standalone="no"?>
<svg width="90px" height="72px" viewBox="0 0 90 72" version="1.1" xmlns="http://www.w3.org/2000/svg" xmlns:xlink="http://www.w3.org/1999/xlink" xmlns:sketch="http://www.bohemiancoding.com/sketch/ns">
    <!-- Generator: Sketch 3.3 (11970) - http://www.bohemiancoding.com/sketch -->
    <title>Shape + Group</title>
    <desc>Created with Sketch.</desc>
    <defs></defs>
    <g id="Page-1" stroke="none" stroke-width="1" fill="none" fill-rule="evenodd" sketch:type="MSPage">
        <g id="noun_29931_cc" sketch:type="MSLayerGroup" transform="translate(-5.000000, 0.000000)" fill="#000000">
            <g id="Shape-+-Group" transform="translate(5.000000, 0.000000)" sketch:type="MSShapeGroup">
                <path d="M16.131,0.676 L73.868,0.676 C95.377,0.676 95.377,57.371 73.868,57.371 L49.87,57.371 L17.951,71.127 C16.25,71.858 14.587,70.073 15.356,68.44 C17.132,64.001 17.356,63.435 19.554,57.371 L16.132,57.371 C-5.377,57.371 -5.377,0.676 16.131,0.676 L16.131,0.676 L16.131,0.676 Z M73.868,4.675 L16.131,4.675 C0.014,4.675 0.014,53.374 16.131,53.374 L22.397,53.374 C22.397,53.375 23.019,53.477 23.076,53.498 C24.112,53.873 24.646,55.016 24.271,56.052 C22.312,61.465 21.557,63.548 20.785,65.556 L48.59,53.573 C48.854,53.444 49.151,53.374 49.463,53.374 L73.868,53.374 C89.985,53.374 89.985,4.675 73.868,4.675 L73.868,4.675 Z" id="Shape"></path>
                <g id="Group" transform="translate(15.000000, 15.000000)">
                    <path d="M4.013,4.214 C2.909,4.214 2.013,3.318 2.013,2.214 C2.013,1.11 2.909,0.215 4.013,0.215 L55.989,0.215 C57.093,0.215 57.987,1.111 57.987,2.214 C57.987,3.317 57.092,4.214 55.989,4.214 L4.013,4.214 L4.013,4.214 Z" id="Shape"></path>
                    <path d="M2.013,16.023 C0.909,16.023 0.014,15.127 0.014,14.023 C0.014,12.919 0.909,12.024 2.013,12.024 L57.986,12.024 C59.09,12.024 59.985,12.919 59.985,14.023 C59.985,15.127 59.09,16.023 57.986,16.023 L2.013,16.023 L2.013,16.023 Z" id="Shape"></path>
                    <path d="M4.013,27.832 C2.909,27.832 2.013,26.936 2.013,25.832 C2.013,24.728 2.909,23.833 4.013,23.833 L37.996,23.833 C39.1,23.833 39.995,24.729 39.995,25.832 C39.995,26.935 39.1,27.832 37.996,27.832 L4.013,27.832 L4.013,27.832 Z" id="Shape"></path>
                </g>
            </g>
        </g>
    </g>
</svg>