<?xml version="1.0" encoding="UTF-8" standalone="no"?>
<svg width="18px" height="19px" viewBox="0 0 18 19" version="1.1" xmlns="http://www.w3.org/2000/svg" xmlns:xlink="http://www.w3.org/1999/xlink" xmlns:sketch="http://www.bohemiancoding.com/sketch/ns">
    <!-- Generator: Sketch 3.2.2 (9983) - http://www.bohemiancoding.com/sketch -->
    <title>sync</title>
    <desc>Created with Sketch.</desc>
    <defs></defs>
    <g id="Page-1" stroke="none" stroke-width="1" fill="none" fill-rule="evenodd" sketch:type="MSPage">
        <g id="icons@2x" sketch:type="MSArtboardGroup" transform="translate(-1012.000000, -728.000000)" fill="#030104">
            <path d="M1014.34338,738.6875 L1012.06975,738.6875 L1012,738.6875 L1012,744.625 L1013.66612,743.008812 C1015.2985,745.424188 1017.97487,747 1021,747 C1025.59,747 1029.37675,743.373375 1029.93025,738.6875 L1027.65663,738.6875 C1027.12113,742.057625 1024.34463,744.625 1021,744.625 C1018.63075,744.625 1016.545,743.335375 1015.34125,741.384312 L1018.12113,738.6875 L1014.34338,738.6875 Z M1021,728 C1016.41,728 1012.62325,731.626625 1012.06975,736.3125 L1014.34337,736.3125 C1014.87887,732.942375 1017.65537,730.375 1021,730.375 C1023.44012,730.375 1025.57875,731.741813 1026.7645,733.79025 L1024.375,736.3125 L1026.625,736.3125 L1027.65663,736.3125 L1029.93025,736.3125 L1030,736.3125 L1030,730.375 L1028.389,732.0755 C1026.76337,729.611437 1024.06,728 1021,728 Z" id="sync" sketch:type="MSShapeGroup"></path>
        </g>
    </g>
</svg>