<?xml version="1.0" encoding="utf-8"?>
<!-- Generated by IcoMoon.io -->
<!DOCTYPE svg PUBLIC "-//W3C//DTD SVG 1.1//EN" "http://www.w3.org/Graphics/SVG/1.1/DTD/svg11.dtd">
<svg version="1.1" xmlns="http://www.w3.org/2000/svg" xmlns:xlink="http://www.w3.org/1999/xlink" width="34" height="32" viewBox="0 0 34 32">
<path fill="#565656" d="M3.86 2.269c2.26-2.107 5.45-2.216 5.45-2.216 1.923-0.318 4.567 0.598 5.899 2.037l9.604 10.385c1.334 1.443 1.255 3.696-0.186 5.039l-7.137 6.655c-1.437 1.34-3.687 1.253-5.018-0.186l-9.604-10.385c-1.335-1.443-2.033-4.158-1.493-6.048 0 0 0.631-3.552 2.485-5.281zM7.554 10.415c1.144 1.227 3.107 1.255 4.385 0.064s1.387-3.152 0.242-4.379c-1.144-1.227-3.107-1.255-4.385-0.064s-1.387 3.152-0.242 4.379zM19.191 26.463l10.030-9.353c1.026-0.957 2.623-0.911 3.582 0.117 0.952 1.021 0.907 2.611-0.133 3.581l-10.030 9.353-3.449-3.698zM18.38 28.83c0.302-0.926 1.089-1.094 1.751-0.385l1.27 1.361c0.665 0.713 0.43 1.486-0.506 1.72l-1.925 0.482c-0.978 0.245-1.515-0.339-1.205-1.292l0.615-1.887z"></path>
</svg>
