<?xml version="1.0" encoding="utf-8"?>
<!-- Generated by IcoMoon.io -->
<!DOCTYPE svg PUBLIC "-//W3C//DTD SVG 1.1//EN" "http://www.w3.org/Graphics/SVG/1.1/DTD/svg11.dtd">
<svg version="1.1" xmlns="http://www.w3.org/2000/svg" xmlns:xlink="http://www.w3.org/1999/xlink" width="32" height="32" viewBox="0 0 32 32">
<path fill="#444444" d="M32 16c0-8.837-7.163-16-16-16s-16 7.163-16 16c0 8.837 7.163 16 16 16s16-7.163 16-16zM1.684 16c0-7.906 6.409-14.316 14.316-14.316s14.316 6.409 14.316 14.316c0 7.906-6.409 14.316-14.316 14.316s-14.316-6.409-14.316-14.316zM27.789 16c0-6.511-5.278-11.789-11.789-11.789s-11.789 5.278-11.789 11.789c0 6.511 5.278 11.789 11.789 11.789s11.789-5.278 11.789-11.789zM7.579 16c0-4.651 3.77-8.421 8.421-8.421s8.421 3.77 8.421 8.421c0 4.651-3.77 8.421-8.421 8.421s-8.421-3.77-8.421-8.421zM16 21.053c2.791 0 5.053-2.262 5.053-5.053s-2.262-5.053-5.053-5.053c-2.79 0-5.053 2.262-5.053 5.053s2.262 5.053 5.053 5.053z"></path>
<path fill="#444444" d="M15.111 0h1.778v32h-1.778v-32z"></path>
</svg>
