<?xml version="1.0" encoding="utf-8"?>
<!-- Generated by IcoMoon.io -->
<!DOCTYPE svg PUBLIC "-//W3C//DTD SVG 1.1//EN" "http://www.w3.org/Graphics/SVG/1.1/DTD/svg11.dtd">
<svg version="1.1" xmlns="http://www.w3.org/2000/svg" xmlns:xlink="http://www.w3.org/1999/xlink" width="32" height="32" viewBox="0 0 32 32">
<path fill="#444444" d="M29.21 4.788l0.853-0.853c0.39-0.389 0.39-1.017 0-1.407l-0.591-0.594c-0.195-0.195-0.45-0.292-0.702-0.292s-0.51 0.097-0.702 0.292l-0.977 0.977-0.201-2.602c-0.013-0.191-0.171-0.309-0.336-0.309-0.084 0-0.168 0.030-0.235 0.097l-3.845 3.845c-0.346 0.346-0.524 0.826-0.487 1.316l0.010 0.151 0.185 2.408-7.444 7.444c-0.141 0.141-0.228 0.329-0.242 0.527l-0.067 0.843c-0.040 0.49 0.349 0.907 0.836 0.907h0.044l0.89-0.044c0.208-0.010 0.406-0.097 0.551-0.245l7.555-7.555 2.293 0.175c0.044 0.003 0.087 0.003 0.128 0.003 0.443 0 0.87-0.175 1.189-0.49l3.841-3.841c0.201-0.201 0.074-0.551-0.212-0.571l-2.334-0.181zM14.385 13.898c0.094 0 0.188 0.003 0.282 0.010l2.713-2.713c-0.91-0.426-1.924-0.665-2.995-0.665-3.912 0-7.082 3.17-7.082 7.082s3.17 7.085 7.082 7.085c3.912 0 7.082-3.17 7.082-7.082 0-1.071-0.238-2.085-0.665-2.995l-2.713 2.713c0.007 0.094 0.010 0.188 0.010 0.282 0 2.052-1.662 3.717-3.717 3.717s-3.714-1.666-3.714-3.717c0-2.052 1.666-3.717 3.717-3.717zM14.385 32c7.945 0 14.385-6.44 14.385-14.385 0-2.444-0.608-4.745-1.682-6.759-0.118 0.017-0.238 0.024-0.356 0.024-0.067 0-0.138-0.003-0.208-0.007l-1.83-0.141-1.316 1.316c1.004 1.618 1.585 3.526 1.585 5.567 0 5.839-4.735 10.574-10.574 10.574s-10.577-4.735-10.577-10.574c0-5.839 4.735-10.574 10.574-10.574 2.045 0 3.952 0.581 5.567 1.585l1.192-1.192-0.161-2.099c-0.013-0.168-0.010-0.336 0.007-0.5-1.978-1.024-4.224-1.605-6.608-1.605-7.941 0-14.382 6.44-14.382 14.385s6.44 14.385 14.385 14.385z"></path>
</svg>
