<?xml version="1.0" encoding="UTF-8" standalone="no"?>
<svg width="19px" height="14px" viewBox="0 0 19 14" version="1.1" xmlns="http://www.w3.org/2000/svg" xmlns:xlink="http://www.w3.org/1999/xlink" xmlns:sketch="http://www.bohemiancoding.com/sketch/ns">
    <!-- Generator: Sketch 3.2.2 (9983) - http://www.bohemiancoding.com/sketch -->
    <title>un sel 2</title>
    <desc>Created with Sketch.</desc>
    <defs></defs>
    <g id="Page-1" stroke="none" stroke-width="1" fill="none" fill-rule="evenodd" sketch:type="MSPage">
        <g id="un-sel-2" sketch:type="MSLayerGroup" fill="#000000">
            <g id="Page-1" sketch:type="MSShapeGroup">
                <g id="Oval-12-+-Path-68-+-Rectangle-25-+-Path-70-+-Oval-12-+-Path-68-+-Rectangle-25-+-Path-70">
                    <g id="Oval-12-+-Path-68-+-Rectangle-25-+-Path-70" transform="translate(0.400024, 0.000000)">
                        <g id="Group" transform="translate(8.499878, 0.000000)">
                            <g id="Oval-12-+-Path-68">
                                <ellipse id="Oval-12" cx="5.0613542" cy="3.04706888" rx="2.31818182" ry="2.47058824"></ellipse>
                                <path d="M5.48635421,14 L7.80452659,14 L7.80452659,9.88235294 L9.34998113,10.7058824 L10.1227084,8.23529412 L5.48634477,5.76470588 L5.48634477,14 L5.48636365,5.76470588 L4.63636364,5.76470588 L4.63636364,14 L5.48635421,14 L5.48635421,14 Z M0,8.23529412 L0.772727273,10.7058824 L2.31818182,9.88235294 L2.31818182,14 L4.63636364,14 L4.63636364,5.76470588 L0,8.23529412 L0,8.23529412 Z" id="Path-68"></path>
                            </g>
                        </g>
                        <g id="Group">
                            <g id="Oval-12-+-Path-68">
                                <ellipse id="Oval-12" cx="5.0613542" cy="3.04706888" rx="2.31818182" ry="2.47058824"></ellipse>
                                <path d="M5.48635421,14 L7.80452659,14 L7.80452659,9.88235294 L9.34998113,10.7058824 L10.1227084,8.23529412 L5.48634477,5.76470588 L5.48634477,14 L5.48636365,5.76470588 L4.63636364,5.76470588 L4.63636364,14 L5.48635421,14 L5.48635421,14 Z M0,8.23529412 L0.772727273,10.7058824 L2.31818182,9.88235294 L2.31818182,14 L4.63636364,14 L4.63636364,5.76470588 L0,8.23529412 L0,8.23529412 Z" id="Path-68"></path>
                            </g>
                        </g>
                    </g>
                </g>
            </g>
        </g>
    </g>
</svg>