<?xml version="1.0" encoding="UTF-8" standalone="no"?>
<svg width="18px" height="18px" viewBox="0 0 18 18" version="1.1" xmlns="http://www.w3.org/2000/svg" xmlns:xlink="http://www.w3.org/1999/xlink" xmlns:sketch="http://www.bohemiancoding.com/sketch/ns">
    <!-- Generator: Sketch 3.4.4 (17249) - http://www.bohemiancoding.com/sketch -->
    <title>Oval 1085</title>
    <desc>Created with Sketch.</desc>
    <defs></defs>
    <g id="Page-1" stroke="none" stroke-width="1" fill="none" fill-rule="evenodd" sketch:type="MSPage">
        <g id="C-4-A@2x" sketch:type="MSArtboardGroup" transform="translate(-354.000000, -702.000000)" fill="#000000">
            <path d="M363,720 C367.970563,720 372,715.970563 372,711 C372,706.029437 367.970563,702 363,702 C358.029437,702 354,706.029437 354,711 C354,715.970563 358.029437,720 363,720 Z M359,706.995577 C359,706.445735 359.453036,706 359.99703,706 L366.00297,706 C366.553614,706 367,706.444837 367,706.995577 L367,716.004423 C367,716.554265 366.546964,717 366.00297,717 L359.99703,717 C359.446386,717 359,716.555163 359,716.004423 L359,706.995577 Z M362.5,715.5 C362.5,715.223858 362.731934,715 363,715 C363.276142,715 363.5,715.231934 363.5,715.5 C363.5,715.776142 363.268066,716 363,716 C362.723858,716 362.5,715.768066 362.5,715.5 Z M360,707.503423 C360,707.22539 360.22788,707 360.491005,707 L365.508995,707 C365.780169,707 366,707.232903 366,707.503423 L366,713.496577 C366,713.77461 365.77212,714 365.508995,714 L360.491005,714 C360.219831,714 360,713.767097 360,713.496577 L360,707.503423 Z" id="Oval-1085" sketch:type="MSShapeGroup"></path>
        </g>
    </g>
</svg>