<?xml version="1.0" encoding="UTF-8" standalone="no"?>
<svg width="18px" height="18px" viewBox="0 0 18 18" version="1.1" xmlns="http://www.w3.org/2000/svg" xmlns:xlink="http://www.w3.org/1999/xlink" xmlns:sketch="http://www.bohemiancoding.com/sketch/ns">
    <!-- Generator: Sketch 3.4.4 (17249) - http://www.bohemiancoding.com/sketch -->
    <title>Oval 1091</title>
    <desc>Created with Sketch.</desc>
    <defs></defs>
    <g id="Page-1" stroke="none" stroke-width="1" fill="none" fill-rule="evenodd" sketch:type="MSPage">
        <g id="C-4-A@2x" sketch:type="MSArtboardGroup" transform="translate(-331.000000, -747.000000)" fill="#000000">
            <path d="M340,765 C344.970563,765 349,760.970563 349,756 C349,751.029437 344.970563,747 340,747 C335.029437,747 331,751.029437 331,756 C331,760.970563 335.029437,765 340,765 Z M342.628833,752.587938 L342.275314,752.943422 L341.941905,753.278685 C341.212511,752.704136 340.293688,752.361619 339.295308,752.361619 C336.923075,752.361619 335,754.295387 335,756.68081 C335,759.066233 336.923075,761 339.295308,761 C341.667541,761 343.590616,759.066233 343.590616,756.68081 C343.590616,755.708975 343.271425,754.812105 342.732711,754.090423 L343.064417,753.756874 L343.427861,753.391409 L344.04397,754.010944 C344.264599,754.232799 344.6201,754.230551 344.838005,754.005922 C345.05591,753.781294 345.053702,753.419347 344.833073,753.197492 L342.811752,751.164932 C342.591123,750.943077 342.235622,750.945325 342.017717,751.169953 C341.799812,751.394582 341.80202,751.756528 342.022649,751.978383 L342.628833,752.587938 Z M336.122956,756.68081 C336.122956,754.930023 337.540165,753.504934 339.295308,753.504934 C341.050451,753.504934 342.46766,754.930023 342.46766,756.68081 C342.46766,758.431596 341.050451,759.856685 339.295308,759.856685 C337.540165,759.856685 336.122956,758.431596 336.122956,756.68081 Z M338.545008,756.811217 C338.556027,757.126743 338.816188,757.373754 339.126095,757.362931 L340.893674,757.301206 C341.203581,757.290384 341.445878,757.025827 341.43486,756.710302 C341.423841,756.394776 341.16368,756.147765 340.853773,756.158588 L339.589996,756.220313 C339.589996,756.220313 339.314525,753.87347 339.004618,753.884293 C338.694711,753.895115 338.452414,754.159672 338.463433,754.475197 L338.545008,756.811217 Z" id="Oval-1091" sketch:type="MSShapeGroup"></path>
        </g>
    </g>
</svg>