<?xml version="1.0" encoding="UTF-8" standalone="no"?>
<svg width="18px" height="18px" viewBox="0 0 18 18" version="1.1" xmlns="http://www.w3.org/2000/svg" xmlns:xlink="http://www.w3.org/1999/xlink" xmlns:sketch="http://www.bohemiancoding.com/sketch/ns">
    <!-- Generator: Sketch 3.3 (11970) - http://www.bohemiancoding.com/sketch -->
    <title>Fill 1</title>
    <desc>Created with Sketch.</desc>
    <defs></defs>
    <g id="Page-1" stroke="none" stroke-width="1" fill="none" fill-rule="evenodd" sketch:type="MSPage">
        <g id="settings-general@2x" sketch:type="MSArtboardGroup" transform="translate(-158.000000, -92.000000)" fill="#565656">
            <g id="tools6" sketch:type="MSLayerGroup" transform="translate(158.500000, 92.000000)">
                <path d="M16.4200167,14.9397231 L10.6051667,9.25726154 C10.5507667,9.20326154 10.49325,9.15563077 10.4323333,9.11132308 L11.4628167,8.05236923 C11.51495,8.00030769 11.5645333,7.9452 11.611,7.89009231 C12.9780833,8.39409231 14.58175,8.1108 15.6808,7.03661538 C16.4820667,6.25347692 16.8872333,5.1696 16.7886333,4.06273846 C16.7787167,3.9384 16.6934333,3.8304 16.5727333,3.78692308 C16.4520333,3.74372308 16.3160333,3.77390769 16.2253667,3.8628 L14.36245,5.68329231 L12.47545,5.21806154 L11.9410833,3.31643077 L13.8037167,1.49593846 C13.8943833,1.40621538 13.9244167,1.27412308 13.8810667,1.15615385 C13.8368667,1.03735385 13.7260833,0.955107692 13.5977333,0.944307692 C12.4666667,0.849046154 11.3577,1.24393846 10.5564333,2.02707692 C9.45851667,3.10015385 9.16725,4.66753846 9.68206667,6.00341538 C9.62681667,6.04993846 9.57015,6.09867692 9.51603333,6.15156923 L8.00076667,7.57412308 L5.2173,4.85363077 C5.18188333,4.82012308 5.14533333,4.78966154 5.10651667,4.76169231 C5.13995,4.70547692 5.17196667,4.64815385 5.20058333,4.58861538 C5.78963333,4.69883077 6.86318333,3.58033846 7.77608333,2.6892 L5.11756667,0.0897230769 C3.92898333,1.25141538 3.06028333,2.03150769 3.17305,2.60695385 C2.90076667,2.73655385 2.65851667,2.89467692 2.48681667,3.06332308 L2.11168333,3.42886154 C1.86943333,3.66701538 1.7221,3.96332308 1.67025,4.27153846 C1.6337,4.31169231 1.59715,4.35489231 1.5606,4.40030769 L1.42006667,4.57227692 C1.41666667,4.57670769 1.40448333,4.59304615 1.40108333,4.5972 L1.275,4.77027692 C1.19538333,4.87412308 1.12681667,4.98544615 1.0591,5.09372308 C1.03473333,5.13387692 1.00923333,5.17486154 0.984016667,5.21501538 C0.979483333,5.22138462 0.976083333,5.22775385 0.972966667,5.23550769 L0.9163,5.33824615 C0.847733333,5.46258462 0.778033333,5.59246154 0.717116667,5.73424615 L0.7072,5.75695385 C0.636366667,5.92116923 0.562133333,6.09230769 0.511416667,6.27396923 L0.485916667,6.35178462 C0.466083333,6.41658462 0.444833333,6.48166154 0.426133333,6.55836923 L0.374,6.80843077 C0.3366,6.96516923 0.323283333,7.11886154 0.312233333,7.25510769 L0.3043,7.34483077 C0.2856,7.48661538 0.290983333,7.62064615 0.295516667,7.73861538 C0.297783333,7.77766154 0.298916667,7.81643077 0.3009,7.8696 C0.302033333,7.8912 0.302033333,7.91169231 0.303166667,7.93329231 C0.3043,7.98535385 0.305433333,8.04572308 0.31535,8.10858462 L0.3485,8.31073846 C0.3553,8.35089231 0.360683333,8.38883077 0.36635,8.42538462 C0.379666667,8.50763077 0.39185,8.5932 0.41735,8.67323077 L0.55335,9.13513846 C0.595566667,9.27470769 0.731566667,9.36775385 0.87975,9.35806154 C0.95965,9.35252308 1.03048333,9.31901538 1.08233333,9.26695385 C1.12993333,9.22153846 1.16308333,9.16116923 1.17328333,9.09193846 L1.24298333,8.62338462 C1.24836667,8.58544615 1.26508333,8.53144615 1.28151667,8.47412308 C1.2937,8.43424615 1.30588333,8.39298462 1.31495,8.35836923 L1.36453333,8.18307692 C1.37133333,8.15926154 1.38238333,8.13655385 1.39343333,8.11273846 C1.40335,8.09113846 1.41326667,8.06843077 1.42233333,8.04572308 C1.43876667,8.00889231 1.45435,7.97123077 1.46993333,7.93329231 C1.50081667,7.85852308 1.53056667,7.78846154 1.57505,7.71923077 C1.59375,7.68655385 1.61245,7.65526154 1.6303,7.62286154 C1.67676667,7.54172308 1.72096667,7.46501538 1.7731,7.40104615 C1.77735,7.39772308 1.77961667,7.39356923 1.78301667,7.38913846 L1.90145,7.22907692 C1.92581667,7.2 1.95358333,7.17064615 1.97993333,7.14267692 C1.99891667,7.12190769 2.01761667,7.10252308 2.04085,7.07538462 C2.11055,6.99313846 2.19243333,6.92196923 2.27233333,6.85163077 L2.31426667,6.81369231 C2.37291667,6.7608 2.44035,6.71095385 2.51231667,6.65806154 C2.54121667,6.63618462 2.56983333,6.61569231 2.59873333,6.5952 C2.63415,6.57138462 2.66956667,6.54867692 2.70385,6.52596923 C2.76816667,6.48387692 2.82341667,6.44704615 2.88745,6.41464615 L3.02826667,6.33655385 L3.16993333,6.26843077 C3.21951667,6.24350769 3.26825,6.22412308 3.31358333,6.20695385 C3.34021667,6.19504615 3.36685,6.18535385 3.39121667,6.17427692 C3.41558333,6.16569231 3.43995,6.15710769 3.46205,6.14852308 C3.49293333,6.13772308 3.51956667,6.12775385 3.55498333,6.11806154 L3.59266667,6.11058462 C3.6346,6.17649231 3.68333333,6.23935385 3.74198333,6.29667692 L6.4957,8.98698462 L0.6188,14.5046769 C0.616533333,14.5068923 0.614266667,14.5091077 0.612,14.5113231 C-0.119566667,15.2263385 -0.239133333,16.2722769 0.492433333,16.9872923 C1.224,17.7023077 2.22671667,17.5195385 2.95828333,16.8045231 C2.96168333,16.8012 2.96395,16.7992615 2.96735,16.7959385 L8.15235,11.4596308 C8.18238333,11.4942462 8.21213333,11.5299692 8.24641667,11.5623692 L14.0604167,17.2459385 C14.7112333,17.8820308 15.7680667,17.8820308 16.4200167,17.2459385 C17.0708333,16.6087385 17.0708333,15.5758154 16.4200167,14.9397231 L16.4200167,14.9397231 Z M2.19923333,16.2149538 C1.93006667,16.4788615 1.49316667,16.4788615 1.224,16.2149538 C0.955116667,15.9521538 0.955116667,15.5248615 1.224,15.2620615 C1.49316667,14.9992615 1.93006667,14.9992615 2.19923333,15.2620615 C2.46811667,15.5248615 2.46811667,15.9521538 2.19923333,16.2149538 L2.19923333,16.2149538 Z" id="Fill-1" sketch:type="MSShapeGroup"></path>
            </g>
        </g>
    </g>
</svg>