<?xml version="1.0" encoding="UTF-8" standalone="no"?>
<svg width="21px" height="24px" viewBox="0 0 21 24" version="1.1" xmlns="http://www.w3.org/2000/svg" xmlns:xlink="http://www.w3.org/1999/xlink">
    <!-- Generator: Sketch 3.8.2 (29753) - http://www.bohemiancoding.com/sketch -->
    <title>Shape</title>
    <desc>Created with Sketch.</desc>
    <defs></defs>
    <g id="Page-1" stroke="none" stroke-width="1" fill="none" fill-rule="evenodd">
        <path d="M1.891,5.52 L1.891,20.938 C1.891,22.544 3.195,23.847 4.803,23.847 L16.143,23.847 C17.75,23.847 19.055,22.545 19.055,20.938 L19.055,5.52 L1.891,5.52 L1.891,5.52 Z M13.091,9.592 C13.091,9.271 13.352,9.011 13.672,9.011 L15.128,9.011 C15.449,9.011 15.709,9.272 15.709,9.592 L15.709,20.648 C15.709,20.969 15.448,21.229 15.128,21.229 L13.672,21.229 C13.351,21.229 13.091,20.968 13.091,20.648 L13.091,9.592 L13.091,9.592 Z M4.364,9.592 C4.364,9.271 4.625,9.011 4.945,9.011 L6.401,9.011 C6.722,9.011 6.982,9.272 6.982,9.592 L6.982,20.648 C6.982,20.969 6.721,21.229 6.401,21.229 L4.945,21.229 C4.624,21.229 4.364,20.968 4.364,20.648 L4.364,9.592 L4.364,9.592 Z M8.727,9.592 C8.727,9.271 8.988,9.011 9.308,9.011 L10.764,9.011 C11.085,9.011 11.345,9.272 11.345,9.592 L11.345,20.648 C11.345,20.969 11.084,21.229 10.764,21.229 L9.308,21.229 C8.987,21.229 8.727,20.968 8.727,20.648 L8.727,9.592 L8.727,9.592 Z M0,3.775 L0,3.775 L0,3.775 C0,4.256 0.392,4.648 0.875,4.648 L19.197,4.648 C19.68,4.648 20.072,4.257 20.072,3.775 C20.072,3.294 19.68,2.902 19.197,2.902 L0.875,2.902 C0.392,2.902 -1.77635684e-15,3.293 -1.77635684e-15,3.775 L0,3.775 Z M6.982,1.455 L6.982,2.91 L13.091,2.91 L13.091,1.455 C13.091,0.653 12.439,1.77635684e-15 11.635,1.77635684e-15 L8.437,1.77635684e-15 C7.635,1.77635684e-15 6.981,0.651 6.981,1.455 L6.982,1.455 Z M8.146,1.445 C8.146,1.286 8.276,1.157 8.436,1.157 L11.637,1.157 C11.797,1.157 11.927,1.288 11.927,1.445 L11.927,2.902 L8.145,2.902 L8.145,1.445 L8.146,1.445 Z" id="Shape" fill="#565656"></path>
    </g>
</svg>