<?xml version="1.0" encoding="UTF-8" standalone="no"?>
<svg width="13px" height="16px" viewBox="0 0 13 16" version="1.1" xmlns="http://www.w3.org/2000/svg" xmlns:xlink="http://www.w3.org/1999/xlink" xmlns:sketch="http://www.bohemiancoding.com/sketch/ns">
    <!-- Generator: Sketch 3.3 (11970) - http://www.bohemiancoding.com/sketch -->
    <title>Shape</title>
    <desc>Created with Sketch.</desc>
    <defs></defs>
    <g id="Page-1" stroke="none" stroke-width="1" fill="none" fill-rule="evenodd" sketch:type="MSPage">
        <g id="añade-ads@2x" sketch:type="MSArtboardGroup" transform="translate(-1925.000000, -688.000000)" fill="#888888">
            <g id="Group-5" sketch:type="MSLayerGroup" transform="translate(1451.000000, 679.000000)">
                <g id="delete" transform="translate(474.000000, 9.000000)" sketch:type="MSShapeGroup">
                    <g id="delete_mini">
                        <g>
                            <path d="M8.35734366,2.00005424 L8.35734366,1.00002712 C8.35734366,0.447799242 7.94155142,0 7.42857143,0 L5.57142857,0 C5.05844858,0 4.64279021,0.447799242 4.64279021,1.00002712 L4.64279021,2.00005424 L0,2.00005424 L0,3.00008136 L13,3.00008136 L13,2.00005424 L8.35734366,2.00005424 L8.35734366,2.00005424 Z M7.42883916,2.00005424 L5.57142857,2.00005424 L5.57142857,1.00002712 L7.42857143,1.00002712 L7.42857143,2.00005424 L7.42883916,2.00005424 L7.42883916,2.00005424 Z M0.928638362,14.0000904 C0.928638362,15.1046908 1.76008897,16 2.78564735,16 L10.2144865,16 C11.239911,16 12.0716294,15.1046908 12.0716294,14.0000904 L12.0716294,4.00010848 L0.928638362,4.00010848 L0.928638362,14.0000904 L0.928638362,14.0000904 Z M8.35734366,6.00016272 L10.2144865,6.00016272 L10.2144865,14.000235 L8.35734366,14.000235 L8.35734366,6.00016272 L8.35734366,6.00016272 Z M5.57142857,6.00016272 L7.42857143,6.00016272 L7.42857143,14.000235 L5.57142857,14.000235 L5.57142857,6.00016272 L5.57142857,6.00016272 Z M2.78564735,6.00016272 L4.64292408,6.00016272 L4.64292408,14.000235 L2.78564735,14.000235 L2.78564735,6.00016272 L2.78564735,6.00016272 Z" id="Shape"></path>
                        </g>
                    </g>
                </g>
            </g>
        </g>
    </g>
</svg>