<?xml version="1.0" encoding="utf-8"?>
<!-- Generated by IcoMoon.io -->
<!DOCTYPE svg PUBLIC "-//W3C//DTD SVG 1.1//EN" "http://www.w3.org/Graphics/SVG/1.1/DTD/svg11.dtd">
<svg version="1.1" xmlns="http://www.w3.org/2000/svg" xmlns:xlink="http://www.w3.org/1999/xlink" width="32" height="32" viewBox="0 0 32 32">
<path fill="#fff" d="M16 32c8.837 0 16-7.163 16-16s-7.163-16-16-16c-8.837 0-16 7.163-16 16s7.163 16 16 16v0z"></path>
<path fill="#565656" d="M8 9.6v15.418c0 1.606 1.304 2.909 2.912 2.909h11.34c1.607 0 2.912-1.302 2.912-2.909v-15.418h-17.164zM19.2 13.672c0-0.321 0.261-0.581 0.581-0.581h1.456c0.321 0 0.581 0.261 0.581 0.581v11.056c0 0.321-0.261 0.581-0.581 0.581h-1.456c-0.321 0-0.581-0.261-0.581-0.581v-11.056zM10.473 13.672c0-0.321 0.261-0.581 0.581-0.581h1.456c0.321 0 0.581 0.261 0.581 0.581v11.056c0 0.321-0.261 0.581-0.581 0.581h-1.456c-0.321 0-0.581-0.261-0.581-0.581v-11.056zM14.836 13.672c0-0.321 0.261-0.581 0.581-0.581h1.456c0.321 0 0.581 0.261 0.581 0.581v11.056c0 0.321-0.261 0.581-0.581 0.581h-1.456c-0.321 0-0.581-0.261-0.581-0.581v-11.056zM6.109 7.855v0 0c0 0.481 0.392 0.873 0.875 0.873h18.322c0.483 0 0.875-0.391 0.875-0.873 0-0.481-0.392-0.873-0.875-0.873h-18.322c-0.483 0-0.875 0.391-0.875 0.873zM13.091 5.535v1.455h6.109v-1.455c0-0.802-0.652-1.455-1.456-1.455h-3.198c-0.802 0-1.456 0.651-1.456 1.455zM14.255 5.525c0-0.159 0.13-0.288 0.29-0.288h3.201c0.16 0 0.29 0.131 0.29 0.288v1.457h-3.782v-1.457z"></path>
</svg>
