<?xml version="1.0" encoding="utf-8"?>
<!-- Generated by IcoMoon.io -->
<!DOCTYPE svg PUBLIC "-//W3C//DTD SVG 1.1//EN" "http://www.w3.org/Graphics/SVG/1.1/DTD/svg11.dtd">
<svg version="1.1" xmlns="http://www.w3.org/2000/svg" xmlns:xlink="http://www.w3.org/1999/xlink" width="32" height="32" viewBox="0 0 32 32">
<path d="M28.054 5.469c0 0.451-0.266 1.688-1.418 3.245-0.61-0.096-1.305-0.167-2.024-0.167-1.098 0-2.252 0.165-3.24 0.664 0 0 2.456 0 3.719 1.224-0.615 0.574-1.352 1.167-2.237 1.758 0 0-1.315-0.664-2.632-0.664-0.66 0-1.317 0.167-1.812 0.664 0 0 1.482 0 2.964 1.492 0 0-1.482 1.492-4.446 1.492-1.268 0-2.535 0.819-3.803 2.341-0.61 0.834-1.329 1.869-1.917 2.983h3.373v0.709c0 0.392-0.323 0.711-0.697 0.711h-0.128c0.076 0.175 0.116 0.365 0.116 0.568h0.003c1.565 0 2.833 1.258 2.833 2.836 0 1.568-1.27 2.838-2.833 2.838h-7.099c-1.565 0-2.833-1.258-2.833-2.838 0-1.566 1.27-2.836 2.833-2.836h0.003c0-0.202 0.040-0.392 0.116-0.568h-0.128c-0.386 0-0.697-0.328-0.697-0.711v-0.709h3.269c1.779-5.051 5.986-11.613 15.909-14.383 0.889-0.249 1.824-0.467 2.806-0.65zM29.472 3.761l-1.679 0.315c-1 0.187-1.984 0.414-2.924 0.677-9.92 2.769-14.447 9.132-16.512 14.331h-3.705v2.127c0 0.14 0.013 0.276 0.039 0.408-1.292 0.733-2.166 2.119-2.166 3.705 0 2.348 1.907 4.254 4.251 4.254h7.097c2.344 0 4.251-1.908 4.251-4.254 0-1.587-0.874-2.976-2.166-3.705 0.025-0.133 0.039-0.268 0.039-0.408v-2.127h-2.248c0.177-0.254 0.345-0.488 0.492-0.691 0.696-0.829 1.716-1.797 2.686-1.797 3.454 0 5.258-1.715 5.452-1.91l0.994-1-0.079-0.079 0.35-0.234c0.894-0.6 1.706-1.238 2.415-1.901l1.088-1.017-0.275-0.268 0.394 0.062 0.51-0.691c1.251-1.691 1.696-3.22 1.696-4.089v-1.708z"></path>
</svg>
