<?xml version="1.0" encoding="UTF-8"?>
<svg width="12px" height="12px" viewBox="0 0 12 12" version="1.1" xmlns="http://www.w3.org/2000/svg" xmlns:xlink="http://www.w3.org/1999/xlink">
    <!-- Generator: Sketch 59.1 (86144) - https://sketch.com -->
    <title>icon/essential/096-feather</title>
    <desc>Created with Sketch.</desc>
    <g id="Page-1" stroke="none" stroke-width="1" fill="none" fill-rule="evenodd">
        <g id="Artboard" transform="translate(-188.000000, -16.000000)" fill="#000000" fill-rule="nonzero">
            <path d="M198.885919,17.1113359 C198.169247,16.3946875 197.216442,16 196.202911,16 C195.189403,16 194.236552,16.3946875 193.51988,17.1113359 L189.798638,20.8325781 C189.707738,20.9234936 189.656653,21.0467885 189.656653,21.1753516 L189.656653,25.861375 C189.656653,26.1291016 189.873685,26.3461094 190.141388,26.3461094 L194.827388,26.3461094 C194.9562,26.3461094 195.079716,26.2948516 195.170677,26.2036328 L198.885896,22.477375 C199.602567,21.7607031 199.997231,20.8078516 199.997231,19.7943437 C199.997231,18.7808594 199.602591,17.8280078 198.885919,17.1113359 Z M198.200372,21.7918281 C198.200231,21.7919922 198.200044,21.7921797 198.19988,21.7923437 L194.6262,25.3766406 L190.626146,25.3766406 L190.626146,21.3761406 L194.205427,17.7968828 C194.738981,17.2633281 195.448388,16.9694922 196.202911,16.9694922 C196.957435,16.9694922 197.666841,17.2633281 198.200372,17.7968594 C198.733903,18.3303906 199.027763,19.0397969 199.027763,19.7943437 C199.027763,20.5488906 198.733927,21.2582734 198.200372,21.7918281 Z M196.548427,19.4543594 C196.359122,19.2650547 196.052208,19.2650547 195.862903,19.4543594 L188.144747,27.1724922 C187.955442,27.3617969 187.955442,27.6687109 188.144747,27.8580156 C188.239411,27.9526797 188.363442,28 188.487521,28 C188.611575,28 188.735653,27.9526563 188.830294,27.8580156 L196.548427,20.1398594 C196.737708,19.9505781 196.737708,19.6436641 196.548427,19.4543594 Z M196.75695,23.1714531 L192.346575,23.1714531 C192.078872,23.1714531 191.861841,23.3884609 191.861841,23.6561875 C191.861841,23.9239141 192.078872,24.1409219 192.346575,24.1409219 L196.756974,24.1409219 C197.0247,24.1409219 197.241685,23.9239141 197.241685,23.6561875 C197.241685,23.3884609 197.024677,23.1714531 196.75695,23.1714531 L196.75695,23.1714531 Z" id="icon/essential/096-feather"></path>
        </g>
    </g>
</svg>