<?xml version="1.0" encoding="UTF-8" standalone="no"?>
<svg width="190px" height="188px" viewBox="0 0 190 188" version="1.1" xmlns="http://www.w3.org/2000/svg" xmlns:xlink="http://www.w3.org/1999/xlink" xmlns:sketch="http://www.bohemiancoding.com/sketch/ns">
    <!-- Generator: Sketch 3.3 (11970) - http://www.bohemiancoding.com/sketch -->
    <title>Shape</title>
    <desc>Created with Sketch.</desc>
    <defs></defs>
    <g id="Page-1" stroke="none" stroke-width="1" fill="none" fill-rule="evenodd" sketch:type="MSPage">
        <g id="tweet-editor" sketch:type="MSLayerGroup" fill="#000000">
            <g id="editor" sketch:type="MSShapeGroup">
                <path d="M158.062,151.262 L157.206,151.262 L162.379,187.5 L105.477,151.262 L70.097,151.262 L98.202,133.366 L139.881,133.366 C157.52,133.366 171.819,119.057 171.819,101.405 L171.819,78.648 L171.895,78.786 L171.895,33.625 C182.604,38.784 190,49.738 190,62.428 L190,119.302 C190,136.953 175.702,151.262 158.062,151.262 L158.062,151.262 Z M124.979,120.793 L86.479,120.793 L34.363,157.302 L39.575,120.793 L31.936,120.793 C14.298,120.793 0,106.484 0,88.833 L0,31.96 C0,14.31 14.298,0 31.936,0 L124.978,0 C142.617,0 156.915,14.31 156.915,31.96 L156.915,88.833 C156.914,106.484 142.616,120.793 124.979,120.793 L124.979,120.793 Z M35.64,47.161 C28.187,47.161 22.145,53.207 22.145,60.666 C22.145,68.124 28.187,74.172 35.64,74.172 C43.094,74.172 49.135,68.125 49.135,60.666 C49.135,53.208 43.094,47.161 35.64,47.161 L35.64,47.161 Z M79.499,47.161 C72.046,47.161 66.004,53.207 66.004,60.666 C66.004,68.124 72.046,74.172 79.499,74.172 C86.952,74.172 92.994,68.125 92.994,60.666 C92.994,53.208 86.952,47.161 79.499,47.161 L79.499,47.161 Z M122.081,47.161 C114.628,47.161 108.587,53.207 108.587,60.666 C108.587,68.124 114.628,74.172 122.081,74.172 C129.533,74.172 135.576,68.125 135.576,60.666 C135.576,53.208 129.533,47.161 122.081,47.161 L122.081,47.161 Z" id="Shape"></path>
            </g>
        </g>
    </g>
</svg>