<?xml version="1.0" encoding="utf-8"?>
<!-- Generated by IcoMoon.io -->
<!DOCTYPE svg PUBLIC "-//W3C//DTD SVG 1.1//EN" "http://www.w3.org/Graphics/SVG/1.1/DTD/svg11.dtd">
<svg version="1.1" xmlns="http://www.w3.org/2000/svg" xmlns:xlink="http://www.w3.org/1999/xlink" width="96" height="96" viewBox="0 0 96 96">
<path fill="#444444" d="M38.153 71.095c0-0.741-0.153-1.444-0.428-2.079v0h0.587c1.402 0 2.566-1.164 2.566-2.599v-2.599h-13.704c1.945-7.235 7.087-14.49 11.045-19.657 4.873-5.576 9.746-8.578 14.619-8.578 11.391 0 17.086-5.468 17.086-5.468-5.695-5.468-11.391-5.468-11.391-5.468 5.695-5.468 17.086 0 17.086 0 3.392-2.171 6.225-4.342 8.586-6.449-4.848-4.486-14.282-4.486-14.282-4.486 6.285-3.017 14.303-2.704 20.229-1.818v0c4.423-5.706 5.446-10.243 5.446-11.895-3.775 0.673-7.364 1.471-10.778 2.379-44.518 11.853-59.078 42.596-63.841 61.439h-12.806v2.599c0 1.393 1.149 2.599 2.566 2.599h0.591c-0.278 0.637-0.432 1.34-0.432 2.079h-0.498c-5.7 0-10.403 4.654-10.403 10.396 0 5.781 4.658 10.396 10.403 10.396h28.248c5.7 0 10.403-4.654 10.403-10.396 0-5.781-4.658-10.396-10.403-10.396h-0.498z"></path>
</svg>
