<?xml version="1.0" encoding="utf-8"?>
<!-- Generated by IcoMoon.io -->
<!DOCTYPE svg PUBLIC "-//W3C//DTD SVG 1.1//EN" "http://www.w3.org/Graphics/SVG/1.1/DTD/svg11.dtd">
<svg version="1.1" xmlns="http://www.w3.org/2000/svg" xmlns:xlink="http://www.w3.org/1999/xlink" width="64" height="64" viewBox="0 0 64 64">
<path fill="#96a4aa" d="M26.535 61.333h-15.844c-4.427 0-8.025-3.591-8.025-8 0-3.925 2.862-7.236 6.66-7.886-0.996-0.42-1.639-1.351-1.639-2.428v-2.667h7.964c4.359-12.729 14.471-29.067 37.924-36.021 2.165-0.64 4.416-1.195 6.699-1.646l1.063-0.213v1.084c0 0.37-0.096 3.751-3.502 8.644l-0.32 0.462-0.555-0.092c-3.161-0.526-6.055-0.537-8.466-0.043 1.874 0.437 4.057 1.269 5.6 2.859l0.612 0.633-0.626 0.619c-1.572 1.564-3.385 3.079-5.383 4.505l-0.448 0.32-0.491-0.26c-0.028-0.014-2.955-1.557-5.796-1.557-0.75 0-1.422 0.11-2.016 0.327 1.451 0.48 3.428 1.483 5.387 3.58l0.565 0.608-0.565 0.608c-0.153 0.164-3.844 4.021-11.14 4.021-2.613 0-5.401 1.86-8.277 5.529-1.013 1.476-2.464 3.644-3.758 6.041h7.385v2.667c0 1.102-0.636 2.027-1.572 2.443 3.762 0.668 6.592 3.957 6.592 7.865 0 4.409-3.602 8-8.028 8v0zM9.465 42.133v0.889c0 0.473 0.42 0.889 0.892 0.889h1.358l-0.356 1.244c-0.149 0.338-0.224 0.697-0.224 1.067v0.836l-0.836 0.068c-3.282 0.199-5.856 2.926-5.856 6.208 0 3.431 2.802 6.222 6.247 6.222h15.844c3.445 0 6.247-2.791 6.247-6.222 0-3.285-2.574-6.009-5.856-6.208l-0.836-0.053v-0.836c0-0.384-0.075-0.747-0.22-1.084l-0.537-1.244h1.351c0.693 0 1.077-0.38 1.077-0.889v-0.889h-8.505l0.64-1.284c1.486-2.994 3.332-5.764 4.587-7.588 3.264-4.164 6.517-6.254 9.707-6.254 4.846 0 7.929-1.916 9.191-2.894-2.916-2.738-5.579-2.805-5.703-2.805l-2.009-0.025 1.369-1.472c1.205-1.291 2.862-1.945 4.924-1.945 2.567 0 5.081 1.031 6.13 1.518 1.472-1.074 2.83-2.201 4.057-3.353-2.812-2.172-7.417-2.208-7.467-2.208l-0.42-1.675c3.154-1.685 7.431-2.169 12.423-1.426 1.675-2.524 2.446-4.686 2.731-6.048-1.817 0.391-3.605 0.846-5.333 1.358-23.090 6.848-32.836 23.079-36.946 35.484l-0.206 0.619h-7.467z"></path>
</svg>
