<?xml version="1.0" encoding="UTF-8" standalone="no"?>
<svg width="18px" height="18px" viewBox="0 0 18 18" version="1.1" xmlns="http://www.w3.org/2000/svg" xmlns:xlink="http://www.w3.org/1999/xlink" xmlns:sketch="http://www.bohemiancoding.com/sketch/ns">
    <!-- Generator: Sketch 3.3 (11970) - http://www.bohemiancoding.com/sketch -->
    <title>Shape Copy + Shape</title>
    <desc>Created with Sketch.</desc>
    <defs></defs>
    <g id="Page-1" stroke="none" stroke-width="1" fill="none" fill-rule="evenodd" sketch:type="MSPage">
        <g id="Shape-Copy-+-Shape" sketch:type="MSLayerGroup" fill="#000000">
            <path d="M5,18.032 L5,13 L0,13 L0,0 L18,0 L18,13 L11.56,13 L5,18.032 L5,18.032 Z M1,12 L6,12 L6,15.965 L11.163,12 L17,12 L17,1 L1,1 L1,12 L1,12 Z" id="Shape-Copy" sketch:type="MSShapeGroup"></path>
            <path d="M12.791,4.558 C12.796,4.614 12.8,4.698 12.8,4.81 C12.8,5.332 12.723,5.857 12.572,6.383 C12.42,6.909 12.186,7.413 11.873,7.895 C11.56,8.377 11.186,8.803 10.75,9.174 C10.316,9.545 9.794,9.84 9.186,10.062 C8.578,10.283 7.925,10.392 7.23,10.392 C6.149,10.392 5.15,10.1 4.231,9.515 C4.379,9.534 4.535,9.543 4.697,9.543 C5.596,9.543 6.407,9.263 7.128,8.703 C6.705,8.696 6.328,8.566 5.996,8.311 C5.663,8.056 5.432,7.732 5.302,7.34 C5.463,7.365 5.584,7.377 5.664,7.377 C5.802,7.377 5.959,7.352 6.14,7.303 C5.687,7.216 5.305,6.99 4.994,6.625 C4.684,6.262 4.528,5.846 4.528,5.379 L4.528,5.361 C4.857,5.517 5.168,5.597 5.46,5.604 C4.895,5.224 4.612,4.679 4.612,3.97 C4.612,3.621 4.702,3.292 4.882,2.98 C5.372,3.584 5.969,4.066 6.67,4.427 C7.372,4.788 8.123,4.99 8.924,5.034 C8.894,4.916 8.878,4.767 8.878,4.586 C8.878,4.044 9.068,3.583 9.451,3.199 C9.833,2.816 10.295,2.625 10.835,2.625 C11.406,2.625 11.881,2.831 12.259,3.241 C12.688,3.16 13.105,3.002 13.508,2.765 C13.353,3.244 13.064,3.609 12.642,3.858 C13.045,3.802 13.421,3.696 13.769,3.54 C13.508,3.938 13.182,4.277 12.791,4.558 L12.791,4.558 L12.791,4.558 Z" id="Shape" sketch:type="MSShapeGroup"></path>
        </g>
    </g>
</svg>