<?xml version="1.0" encoding="utf-8"?>
<!-- Generated by IcoMoon.io -->
<!DOCTYPE svg PUBLIC "-//W3C//DTD SVG 1.1//EN" "http://www.w3.org/Graphics/SVG/1.1/DTD/svg11.dtd">
<svg version="1.1" xmlns="http://www.w3.org/2000/svg" xmlns:xlink="http://www.w3.org/1999/xlink" width="64" height="64" viewBox="0 0 64 64">
<path fill="#96a4aa" d="M61.463 26.037v0c-0.478-0.625-1.145-1.020-1.916-1.141l-5.726-0.873c-0.222-0.599-0.478-1.205-0.761-1.815 0.369-0.482 0.787-1.032 1.329-1.713 0.892-1.126 1.54-1.969 1.935-2.522 0.403-0.553 0.625-1.197 0.625-1.882 0-0.745-0.218-1.431-0.693-1.976-0.866-1.246-2.963-3.399-6.223-6.411-0.666-0.557-1.367-0.84-2.123-0.84-0.821 0-1.57 0.282-2.135 0.855l-4.254 3.185c-0.471-0.211-0.956-0.41-1.461-0.599l-0.881-5.805c-0.049-0.681-0.425-1.393-1.058-1.905-0.58-0.471-1.276-0.712-2.025-0.712h-8.192c-1.529 0-2.68 0.896-3.046 2.375-0.309 1.175-0.633 3.219-0.983 6.061-0.489 0.184-0.975 0.388-1.453 0.606l-4.284-3.317c-0.621-0.478-1.31-0.742-2.048-0.742-1.239 0-2.522 0.971-4.732 3.147-1.848 1.83-3.117 3.207-3.825 4.19-0.429 0.621-0.666 1.231-0.666 1.886 0 0.742 0.282 1.427 0.779 2.022 1.329 1.604 2.372 2.955 3.249 4.156-0.252 0.535-0.482 1.069-0.681 1.604l-5.828 0.877c-0.798 0.143-1.415 0.569-1.871 1.19-0.407 0.565-0.632 1.205-0.632 1.89v8.192c0 0.708 0.226 1.374 0.659 1.943 0.471 0.625 1.141 1.020 1.916 1.141l5.707 0.843c0.218 0.614 0.474 1.231 0.768 1.849-0.369 0.486-0.787 1.028-1.325 1.705-0.911 1.156-1.551 1.98-1.935 2.526-0.399 0.55-0.625 1.193-0.625 1.879 0 0.678 0.196 1.318 0.58 1.864 1.069 1.48 3.166 3.618 6.355 6.502 0.527 0.531 1.28 0.862 2.112 0.862 0.794 0 1.525-0.26 2.108-0.787l4.288-3.245c0.471 0.215 0.953 0.41 1.453 0.599l0.881 5.809c0.045 0.678 0.425 1.389 1.062 1.905 0.576 0.463 1.269 0.704 2.018 0.704h8.192c1.525 0 2.677-0.896 3.049-2.376 0.305-1.175 0.633-3.223 0.986-6.061 0.489-0.184 0.971-0.388 1.449-0.602l4.28 3.351c0.742 0.486 1.382 0.708 2.052 0.708 1.239 0 2.522-0.971 4.71-3.129 1.837-1.803 3.11-3.196 3.844-4.201 0.395-0.425 0.67-1.133 0.67-1.894 0-0.757-0.279-1.461-0.779-2.056-1.404-1.721-2.436-3.053-3.249-4.16 0.226-0.482 0.444-1.005 0.659-1.559l5.816-0.881c0.794-0.132 1.442-0.55 1.905-1.182 0.403-0.576 0.629-1.224 0.629-1.909v-8.192c0-0.708-0.23-1.374-0.655-1.939zM60.344 36.167c0 0.297-0.094 0.58-0.294 0.855-0.2 0.267-0.444 0.425-0.738 0.478l-6.825 1.032c-0.471 1.329-0.949 2.447-1.442 3.358 0.862 1.231 2.176 2.929 3.949 5.097 0.245 0.294 0.369 0.602 0.369 0.922s-0.109 0.602-0.331 0.851c-0.663 0.911-1.882 2.24-3.655 3.987s-2.925 2.617-3.467 2.617c-0.297 0-0.614-0.109-0.96-0.331l-5.097-3.987c-1.081 0.565-2.199 1.035-3.358 1.404-0.392 3.347-0.753 5.632-1.069 6.863-0.173 0.689-0.617 1.032-1.333 1.032h-8.188c-0.343 0-0.644-0.102-0.904-0.313-0.256-0.211-0.399-0.474-0.425-0.794l-1.032-6.791c-1.205-0.392-2.311-0.851-3.32-1.367l-5.207 3.949c-0.245 0.222-0.553 0.331-0.922 0.331-0.343 0-0.651-0.132-0.922-0.403-3.098-2.801-5.131-4.871-6.091-6.197-0.173-0.245-0.256-0.531-0.256-0.851 0-0.297 0.098-0.576 0.294-0.851 0.369-0.52 0.998-1.333 1.882-2.455 0.885-1.118 1.551-1.984 1.995-2.601-0.666-1.227-1.171-2.447-1.513-3.655l-6.758-0.994c-0.32-0.053-0.58-0.207-0.776-0.463s-0.294-0.55-0.294-0.866v-8.196c0-0.297 0.098-0.576 0.294-0.851 0.196-0.271 0.429-0.429 0.704-0.478l6.867-1.032c0.343-1.129 0.825-2.263 1.438-3.396-0.986-1.404-2.304-3.098-3.953-5.094-0.245-0.294-0.369-0.591-0.369-0.889 0-0.245 0.113-0.527 0.331-0.851 0.64-0.885 1.852-2.206 3.637-3.968 1.784-1.758 2.948-2.639 3.486-2.639 0.32 0 0.64 0.124 0.96 0.369l5.094 3.949c1.084-0.565 2.202-1.035 3.358-1.404 0.395-3.339 0.753-5.628 1.073-6.859 0.169-0.689 0.614-1.032 1.329-1.032h8.192c0.346 0 0.648 0.105 0.904 0.313s0.403 0.474 0.425 0.794l1.032 6.792c1.201 0.392 2.312 0.847 3.321 1.367l5.244-3.949c0.222-0.222 0.516-0.331 0.885-0.331 0.32 0 0.629 0.124 0.922 0.369 3.177 2.929 5.207 5.018 6.087 6.276 0.173 0.2 0.26 0.471 0.26 0.813 0 0.297-0.098 0.58-0.297 0.851-0.369 0.516-0.994 1.333-1.882 2.455-0.881 1.118-1.551 1.988-1.992 2.601 0.64 1.231 1.148 2.436 1.513 3.614l6.754 1.032c0.32 0.049 0.576 0.203 0.776 0.463 0.2 0.256 0.294 0.546 0.294 0.866v8.188z"></path>
<path fill="#96a4aa" d="M32 20.781c-3.079 0-5.756 1.107-7.932 3.287-2.18 2.176-3.287 4.857-3.287 7.932 0 3.080 1.107 5.756 3.287 7.932s4.857 3.287 7.932 3.287 5.756-1.111 7.932-3.287c2.176-2.18 3.287-4.856 3.287-7.932 0-3.079-1.111-5.756-3.287-7.932-2.176-2.18-4.856-3.287-7.932-3.287zM38.679 38.679c-1.845 1.845-4.070 2.767-6.679 2.767s-4.834-0.922-6.679-2.767-2.771-4.070-2.771-6.679c0-2.609 0.922-4.834 2.767-6.679s4.073-2.771 6.682-2.771c2.609 0 4.834 0.922 6.679 2.767s2.771 4.073 2.771 6.682c0 2.609-0.922 4.834-2.771 6.679z"></path>
</svg>
