<?xml version="1.0" encoding="iso-8859-1"?>
<!-- Generator: Adobe Illustrator 16.0.0, SVG Export Plug-In . SVG Version: 6.00 Build 0)  -->
<!DOCTYPE svg PUBLIC "-//W3C//DTD SVG 1.1//EN" "http://www.w3.org/Graphics/SVG/1.1/DTD/svg11.dtd">
<svg version="1.1" xmlns="http://www.w3.org/2000/svg" xmlns:xlink="http://www.w3.org/1999/xlink" x="0px" y="0px" width="190px"
	 height="190px" viewBox="0 0 190 190" style="enable-background:new 0 0 190 190;" xml:space="preserve">
<g id="twitter_rounded">
	<g id="Capa_33">
		<g>
			<g>
				<path d="M95,0C42.533,0,0,42.533,0,95s42.533,95,95,95s95-42.533,95-95S147.467,0,95,0z M148.49,71.296
					c0.083,0.765,0.127,1.912,0.127,3.442c0,7.139-1.041,14.298-3.126,21.477c-2.087,7.182-5.274,14.067-9.567,20.651
					c-4.296,6.586-9.42,12.409-15.373,17.464c-5.955,5.057-13.098,9.095-21.433,12.107c-8.335,3.02-17.265,4.525-26.79,4.525
					c-14.799,0-28.493-3.992-41.078-11.98c2.041,0.254,4.165,0.382,6.377,0.382c12.331,0,23.431-3.824,33.297-11.472
					c-5.784-0.086-10.951-1.869-15.5-5.354c-4.551-3.481-7.718-7.902-9.504-13.256c2.211,0.338,3.869,0.511,4.976,0.511
					c1.871,0,4.039-0.34,6.507-1.021c-6.209-1.188-11.441-4.271-15.692-9.239c-4.254-4.973-6.379-10.645-6.379-17.018v-0.255
					c4.507,2.125,8.759,3.231,12.757,3.315c-7.739-5.182-11.608-12.62-11.608-22.308c0-4.757,1.231-9.261,3.7-13.511
					c6.716,8.244,14.882,14.83,24.494,19.758c9.609,4.929,19.901,7.691,30.873,8.285c-0.427-1.613-0.638-3.654-0.638-6.118
					c0-7.395,2.613-13.704,7.845-18.93c5.229-5.226,11.547-7.84,18.943-7.84c7.825,0,14.331,2.805,19.521,8.414
					c5.869-1.104,11.566-3.271,17.096-6.501c-2.127,6.546-6.084,11.516-11.865,14.914c5.529-0.765,10.673-2.209,15.437-4.334
					C158.312,62.842,153.848,67.473,148.49,71.296z"/>
			</g>
		</g>
	</g>
</g>
<g id="Capa_1">
</g>
</svg>
