<?xml version="1.0" encoding="utf-8"?>
<!-- Generated by IcoMoon.io -->
<!DOCTYPE svg PUBLIC "-//W3C//DTD SVG 1.1//EN" "http://www.w3.org/Graphics/SVG/1.1/DTD/svg11.dtd">
<svg version="1.1" xmlns="http://www.w3.org/2000/svg" xmlns:xlink="http://www.w3.org/1999/xlink" width="27" height="32" viewBox="0 0 27 32">
<path fill="#444444" d="M8.911 31.314h-1.881l-0.748-1.776h-3.424l-0.707 1.776h-1.835l3.336-7.819h1.829l3.43 7.819zM5.726 28.22l-1.18-2.902-1.157 2.902h2.337zM9.822 23.494h3.161c0.713 0 1.256 0.050 1.63 0.149 0.502 0.135 0.933 0.375 1.291 0.72s0.631 0.767 0.818 1.267c0.187 0.5 0.28 1.116 0.28 1.848 0 0.644-0.088 1.198-0.263 1.664-0.214 0.569-0.52 1.029-0.917 1.381-0.3 0.267-0.705 0.475-1.215 0.624-0.382 0.11-0.892 0.165-1.531 0.165h-3.254v-7.82zM11.552 24.817v5.179h1.291c0.483 0 0.832-0.025 1.046-0.075 0.28-0.064 0.513-0.172 0.698-0.325s0.336-0.404 0.453-0.755c0.117-0.35 0.175-0.828 0.175-1.432s-0.058-1.069-0.175-1.392c-0.117-0.324-0.28-0.576-0.491-0.757s-0.477-0.304-0.8-0.368c-0.242-0.050-0.715-0.075-1.42-0.075h-0.777zM18.031 28.77l1.683-0.149c0.101 0.516 0.307 0.894 0.616 1.136s0.727 0.363 1.253 0.363c0.557 0 0.977-0.108 1.259-0.323s0.424-0.467 0.424-0.755c0-0.185-0.059-0.342-0.178-0.472s-0.326-0.243-0.622-0.339c-0.203-0.064-0.664-0.178-1.385-0.341-0.927-0.21-1.578-0.468-1.951-0.773-0.526-0.43-0.789-0.955-0.789-1.573 0-0.398 0.124-0.771 0.371-1.117s0.604-0.611 1.069-0.792c0.465-0.181 1.027-0.272 1.686-0.272 1.075 0 1.884 0.215 2.428 0.645s0.829 1.005 0.856 1.723l-1.729 0.069c-0.074-0.402-0.233-0.691-0.476-0.867s-0.609-0.264-1.095-0.264c-0.502 0-0.896 0.094-1.18 0.283-0.183 0.121-0.275 0.283-0.275 0.485 0 0.185 0.086 0.343 0.257 0.475 0.218 0.167 0.748 0.341 1.589 0.523s1.464 0.369 1.867 0.563c0.403 0.194 0.719 0.459 0.947 0.795s0.342 0.751 0.342 1.245c0 0.448-0.136 0.868-0.409 1.259s-0.658 0.682-1.157 0.872c-0.499 0.19-1.12 0.285-1.864 0.285-1.083 0-1.914-0.228-2.495-0.685s-0.927-1.123-1.040-1.998zM22.989 6.233c0.016 0.148 0.025 0.369 0.025 0.665 0 1.379-0.202 2.762-0.604 4.148s-1.020 2.716-1.85 3.988c-0.831 1.272-1.822 2.396-2.973 3.372s-2.533 1.756-4.145 2.339c-1.612 0.583-3.339 0.874-5.181 0.874-2.862 0-5.51-0.771-7.944-2.314 0.395 0.049 0.806 0.074 1.234 0.074 2.385 0 4.531-0.738 6.439-2.216-1.119-0.016-2.118-0.361-2.998-1.034s-1.492-1.526-1.838-2.56c0.428 0.066 0.748 0.098 0.962 0.098 0.362 0 0.781-0.065 1.258-0.197-1.201-0.229-2.212-0.825-3.035-1.785s-1.234-2.056-1.234-3.286v-0.049c0.872 0.41 1.694 0.624 2.467 0.64-1.497-1.001-2.245-2.437-2.245-4.308 0-0.919 0.238-1.789 0.715-2.61 1.299 1.592 2.878 2.864 4.737 3.816s3.849 1.485 5.97 1.6c-0.082-0.312-0.124-0.705-0.124-1.182 0-1.428 0.506-2.646 1.517-3.656s2.233-1.514 3.664-1.514c1.513 0 2.771 0.542 3.775 1.625 1.135-0.213 2.237-0.631 3.306-1.255-0.411 1.264-1.176 2.224-2.294 2.88 1.069-0.148 2.064-0.427 2.985-0.837-0.691 1.050-1.554 1.945-2.591 2.683z"></path>
</svg>
