<?xml version="1.0" encoding="utf-8"?>
<!-- Generated by IcoMoon.io -->
<!DOCTYPE svg PUBLIC "-//W3C//DTD SVG 1.1//EN" "http://www.w3.org/Graphics/SVG/1.1/DTD/svg11.dtd">
<svg version="1.1" xmlns="http://www.w3.org/2000/svg" xmlns:xlink="http://www.w3.org/1999/xlink" width="27" height="32" viewBox="0 0 27 32">
<path fill="#444444" d="M3.378 6.514c-0.144-0.497-0.72-0.798-1.288-0.672s-0.911 0.631-0.767 1.128l6.924 23.933c0.122 0.421 0.553 0.701 1.027 0.701 0.086 0 0.174-0.009 0.261-0.029 0.567-0.126 0.911-0.631 0.767-1.128l-6.924-23.933zM26.424 13.255c-1.128-3.65-2.258-7.3-3.386-10.95-0.122-0.395-0.337-0.819-1.143-0.861-6.345-0.403-10.512 5.134-16.858 4.731-0.501-0.054-0.823 0.174-0.7 0.569 1.129 3.65 2.249 7.302 3.386 10.95 0.183 0.585 0.642 0.807 1.143 0.861 6.345 0.403 10.512-5.134 16.858-4.731 0.501 0.054 0.822-0.174 0.7-0.57zM21.444 2.821c0.311 1.007 0.623 2.014 0.934 3.021-1.335 0.038-2.513 0.274-3.761 0.684-0.311-1.007-0.623-2.014-0.934-3.021 1.248-0.41 2.426-0.646 3.761-0.684zM8.368 14.112c-0.354-1.144-0.708-2.289-1.062-3.433 1.403-0.036 2.648-0.302 3.95-0.753-0.312-1.007-0.623-2.014-0.934-3.021 1.273-0.499 2.474-1.095 3.676-1.712 0.311 1.007 0.623 2.014 0.934 3.021-1.203 0.616-2.403 1.213-3.676 1.712 0.354 1.144 0.708 2.289 1.062 3.433-1.302 0.451-2.547 0.717-3.95 0.753zM20.649 13.017c-0.316-1.022-0.632-2.044-0.948-3.066 1.241-0.405 2.413-0.639 3.739-0.676 0.316 1.022 0.632 2.044 0.948 3.065-1.326 0.038-2.498 0.271-3.739 0.677zM15.995 11.647c-0.354-1.144-0.708-2.289-1.061-3.433 1.202-0.615 2.404-1.204 3.684-1.687 0.354 1.144 0.708 2.289 1.062 3.433-1.279 0.484-2.482 1.072-3.684 1.687zM13.267 16.424c-0.316-1.022-0.632-2.044-0.948-3.066 1.264-0.495 2.456-1.087 3.65-1.699 0.316 1.022 0.632 2.044 0.948 3.066-1.194 0.612-2.386 1.204-3.65 1.699z"></path>
</svg>
