<?xml version="1.0" encoding="utf-8"?>
<!-- Generated by IcoMoon.io -->
<!DOCTYPE svg PUBLIC "-//W3C//DTD SVG 1.1//EN" "http://www.w3.org/Graphics/SVG/1.1/DTD/svg11.dtd">
<svg version="1.1" xmlns="http://www.w3.org/2000/svg" xmlns:xlink="http://www.w3.org/1999/xlink" width="32" height="32" viewBox="0 0 32 32">
<path fill="#565656" d="M28.719 8.635c0.020 0.192 0.031 0.481 0.031 0.865 0 1.795-0.256 3.595-0.766 5.401s-1.292 3.537-2.344 5.193c-1.052 1.656-2.308 3.12-3.766 4.391s-3.209 2.287-5.25 3.045c-2.042 0.759-4.229 1.138-6.563 1.138-3.625 0-6.979-1.004-10.062-3.013 0.5 0.064 1.020 0.096 1.562 0.096 3.020 0 5.739-0.961 8.156-2.885-1.417-0.021-2.683-0.47-3.797-1.346s-1.891-1.987-2.328-3.333c0.542 0.085 0.948 0.128 1.219 0.128 0.458 0 0.989-0.085 1.594-0.256-1.521-0.299-2.802-1.074-3.844-2.324s-1.562-2.676-1.562-4.279v-0.064c1.104 0.534 2.146 0.812 3.125 0.833-1.896-1.303-2.844-3.173-2.844-5.609 0-1.196 0.302-2.329 0.906-3.397 1.645 2.073 3.645 3.729 6 4.968s4.875 1.934 7.563 2.083c-0.104-0.406-0.156-0.918-0.156-1.538 0-1.859 0.641-3.445 1.922-4.76s2.828-1.971 4.641-1.971c1.916 0 3.51 0.705 4.781 2.115 1.437-0.277 2.833-0.822 4.187-1.634-0.521 1.646-1.49 2.896-2.906 3.75 1.354-0.192 2.614-0.555 3.781-1.090-0.875 1.368-1.969 2.532-3.281 3.493v0 0z"></path>
</svg>
