<?xml version="1.0" encoding="utf-8"?>
<!-- Generator: Adobe Illustrator 16.0.0, SVG Export Plug-In . SVG Version: 6.00 Build 0)  -->
<!DOCTYPE svg PUBLIC "-//W3C//DTD SVG 1.1//EN" "http://www.w3.org/Graphics/SVG/1.1/DTD/svg11.dtd">
<svg version="1.1" id="Capa_1" xmlns:sketch="http://www.bohemiancoding.com/sketch/ns"
	 xmlns="http://www.w3.org/2000/svg" xmlns:xlink="http://www.w3.org/1999/xlink" x="0px" y="0px" width="30px" height="30px"
	 viewBox="0 0 30 30" enable-background="new 0 0 30 30" xml:space="preserve">
<title>Rectangle 210</title>
<desc>Created with Sketch.</desc>
<path d="M17.828,18.242l0.707,0.707l0.707-0.707l5.601-5.6L30,17.8v-12H18l5.428,5.429l-4.893,4.893l-2.828-2.828l-0.732-0.732
	l-0.706,0.757L3.104,25.281V1.552C3.104,0.695,2.409,0,1.552,0S0,0.695,0,1.552v26.896C0,29.305,0.695,30,1.552,30h26.896
	C29.305,30,30,29.305,30,28.448s-0.695-1.552-1.552-1.552H4.331l10.693-11.458L17.828,18.242z"/>
</svg>
