<?xml version="1.0" encoding="UTF-8" standalone="no"?>
<svg width="19px" height="18px" viewBox="0 0 19 18" version="1.1" xmlns="http://www.w3.org/2000/svg" xmlns:xlink="http://www.w3.org/1999/xlink" xmlns:sketch="http://www.bohemiancoding.com/sketch/ns">
    <!-- Generator: Sketch 3.3.1 (12005) - http://www.bohemiancoding.com/sketch -->
    <title>txt</title>
    <desc>Created with Sketch.</desc>
    <defs></defs>
    <g id="Page-1" stroke="none" stroke-width="1" fill="none" fill-rule="evenodd" sketch:type="MSPage">
        <g id="txt" sketch:type="MSLayerGroup" fill="#000000">
            <g id="list" transform="translate(1.000000, 0.000000)" sketch:type="MSShapeGroup">
                <path d="M2,3.9947834 L2,3.9947834 L2,14.0052166 C2,15.1036685 2.89862977,16 4.00723574,16 L12.9927643,16 C14.106726,16 15,15.1084362 15,14.0052166 L15,3.9947834 C15,2.89633147 14.1013702,2 12.9927643,2 L4.00723574,2 C2.89327403,2 2,2.89156379 2,3.9947834 L2,3.9947834 Z M0,3.9947834 C0,1.78852545 1.78716697,0 4.00723574,0 L12.9927643,0 C15.2058994,0 17,1.79171562 17,3.9947834 L17,14.0052166 C17,16.2114745 15.212833,18 12.9927643,18 L4.00723574,18 C1.79410055,18 0,16.2082844 0,14.0052166 L0,3.9947834 L0,3.9947834 Z" id="Shape"></path>
            </g>
            <path d="M0,4.99539757 C0,4.44565467 0.450925395,4 0.994771168,4 L18.0052288,4 C18.5546258,4 19,4.4556644 19,4.99539757 L19,13.0046024 C19,13.5543453 18.5490746,14 18.0052288,14 L0.994771168,14 C0.445374222,14 0,13.5443356 0,13.0046024 L0,4.99539757 Z M4.55810547,7.23583984 L4.68994141,7.23583984 L4.68994141,6.51513672 C4.68994141,6.32177638 4.69506831,6.17016656 4.70532227,6.06030273 C4.71557622,5.9504389 4.74414039,5.85595743 4.79101562,5.77685547 C4.83789086,5.69482381 4.905273,5.62817408 4.99316406,5.5769043 C5.08105513,5.52563451 5.17919868,5.5 5.28759766,5.5 C5.43994217,5.5 5.5776361,5.55712833 5.70068359,5.67138672 C5.78271525,5.74755897 5.83471669,5.84057562 5.85668945,5.95043945 C5.87866222,6.06030328 5.88964844,6.21630758 5.88964844,6.41845703 L5.88964844,7.23583984 L6.32910156,7.23583984 C6.49902429,7.23583984 6.62866166,7.27612264 6.71801758,7.35668945 C6.80737349,7.43725626 6.85205078,7.54052671 6.85205078,7.66650391 C6.85205078,7.82763752 6.78833072,7.94042937 6.66088867,8.00488281 C6.53344663,8.06933626 6.35107541,8.1015625 6.11376953,8.1015625 L5.88964844,8.1015625 L5.88964844,10.3076172 C5.88964844,10.4951181 5.89624017,10.6394038 5.90942383,10.7404785 C5.92260749,10.8415532 5.95776339,10.9235837 6.01489258,10.9865723 C6.07202177,11.0495609 6.16503842,11.0810547 6.29394531,11.0810547 C6.36425816,11.0810547 6.45947206,11.0686036 6.57958984,11.0437012 C6.69970763,11.0187987 6.79345669,11.0063477 6.86083984,11.0063477 C6.95752001,11.0063477 7.04467735,11.0451656 7.12231445,11.1228027 C7.19995156,11.2004398 7.23876953,11.2963861 7.23876953,11.4106445 C7.23876953,11.6040049 7.13330184,11.7519526 6.92236328,11.8544922 C6.71142473,11.9570318 6.4082051,12.0083008 6.01269531,12.0083008 C5.63769344,12.0083008 5.35351659,11.9453131 5.16015625,11.8193359 C4.96679591,11.6933587 4.84008819,11.5190441 4.7800293,11.2963867 C4.7199704,11.0737294 4.68994141,10.776369 4.68994141,10.4042969 L4.68994141,8.1015625 L4.53173828,8.1015625 C4.35888585,8.1015625 4.22705124,8.06054729 4.13623047,7.97851562 C4.0454097,7.89648396 4,7.7924811 4,7.66650391 C4,7.54052671 4.04760695,7.43725626 4.14282227,7.35668945 C4.23803759,7.27612264 4.37646394,7.23583984 4.55810547,7.23583984 Z M10.5321849,11.4417224 L9.67596866,10.1833441 L8.79813082,11.4417224 C8.67128334,11.6175792 8.56389702,11.7429833 8.47596866,11.8179387 C8.38804029,11.892894 8.27632969,11.9303711 8.14083352,11.9303711 C7.99092286,11.9303711 7.86335657,11.8835247 7.75813082,11.7898306 C7.65290507,11.6961364 7.60029298,11.5887501 7.60029298,11.4676684 C7.60029298,11.3437038 7.68101289,11.1664083 7.84245514,10.9357765 L8.91056325,9.40496569 L7.96353622,8.12929001 C7.79921108,7.91883851 7.71704974,7.73577728 7.71704974,7.58010082 C7.71704974,7.45901914 7.76605826,7.35379496 7.86407676,7.26442515 C7.96209527,7.17505533 8.09038228,7.13037109 8.24894163,7.13037109 C8.3873207,7.13037109 8.50191415,7.16928962 8.59272541,7.24712785 C8.68353668,7.32496608 8.78948156,7.44748737 8.91056325,7.61469542 L9.67596866,8.6611819 L10.4197524,7.61469542 C10.543717,7.44172158 10.6511033,7.31775886 10.7419146,7.24280353 C10.8327259,7.1678482 10.9458779,7.13037109 11.0813741,7.13037109 C11.2370505,7.13037109 11.3660582,7.17433462 11.4684011,7.26226299 C11.5707439,7.35019135 11.6219146,7.45613624 11.6219146,7.58010082 C11.6219146,7.66947064 11.6010139,7.75523555 11.5592119,7.83739812 C11.5174099,7.91956069 11.4532664,8.01685702 11.3667795,8.12929001 L10.4197524,9.40496569 L11.4878605,10.9357765 C11.6550686,11.175057 11.7386714,11.3552354 11.7386714,11.476317 C11.7386714,11.6002816 11.68678,11.7069472 11.5829957,11.796317 C11.4792114,11.8856869 11.3509244,11.9303711 11.1981308,11.9303711 C11.0626346,11.9303711 10.9480412,11.8914526 10.854347,11.8136143 C10.7606529,11.7357761 10.6532666,11.6118134 10.5321849,11.4417224 Z M12.458107,7.23583984 L12.5899429,7.23583984 L12.5899429,6.51513672 C12.5899429,6.32177638 12.5950698,6.17016656 12.6053238,6.06030273 C12.6155777,5.9504389 12.6441419,5.85595743 12.6910172,5.77685547 C12.7378924,5.69482381 12.8052745,5.62817408 12.8931656,5.5769043 C12.9810567,5.52563451 13.0792002,5.5 13.1875992,5.5 C13.3399437,5.5 13.4776376,5.55712833 13.6006851,5.67138672 C13.6827168,5.74755897 13.7347182,5.84057562 13.756691,5.95043945 C13.7786637,6.06030328 13.78965,6.21630758 13.78965,6.41845703 L13.78965,7.23583984 L14.2291031,7.23583984 C14.3990258,7.23583984 14.5286632,7.27612264 14.6180191,7.35668945 C14.707375,7.43725626 14.7520523,7.54052671 14.7520523,7.66650391 C14.7520523,7.82763752 14.6883322,7.94042937 14.5608902,8.00488281 C14.4334482,8.06933626 14.2510769,8.1015625 14.0137711,8.1015625 L13.78965,8.1015625 L13.78965,10.3076172 C13.78965,10.4951181 13.7962417,10.6394038 13.8094254,10.7404785 C13.822609,10.8415532 13.8577649,10.9235837 13.9148941,10.9865723 C13.9720233,11.0495609 14.0650399,11.0810547 14.1939468,11.0810547 C14.2642597,11.0810547 14.3594736,11.0686036 14.4795914,11.0437012 C14.5997092,11.0187987 14.6934582,11.0063477 14.7608414,11.0063477 C14.8575215,11.0063477 14.9446789,11.0451656 15.022316,11.1228027 C15.0999531,11.2004398 15.1387711,11.2963861 15.1387711,11.4106445 C15.1387711,11.6040049 15.0333034,11.7519526 14.8223648,11.8544922 C14.6114263,11.9570318 14.3082066,12.0083008 13.9126968,12.0083008 C13.537695,12.0083008 13.2535181,11.9453131 13.0601578,11.8193359 C12.8667974,11.6933587 12.7400897,11.5190441 12.6800308,11.2963867 C12.6199719,11.0737294 12.5899429,10.776369 12.5899429,10.4042969 L12.5899429,8.1015625 L12.4317398,8.1015625 C12.2588874,8.1015625 12.1270528,8.06054729 12.036232,7.97851562 C11.9454112,7.89648396 11.9000015,7.7924811 11.9000015,7.66650391 C11.9000015,7.54052671 11.9476085,7.43725626 12.0428238,7.35668945 C12.1380391,7.27612264 12.2764655,7.23583984 12.458107,7.23583984 Z" id="Rectangle-14" sketch:type="MSShapeGroup"></path>
        </g>
    </g>
</svg>