<?xml version="1.0" encoding="utf-8"?>
<!-- Generated by IcoMoon.io -->
<!DOCTYPE svg PUBLIC "-//W3C//DTD SVG 1.1//EN" "http://www.w3.org/Graphics/SVG/1.1/DTD/svg11.dtd">
<svg version="1.1" xmlns="http://www.w3.org/2000/svg" xmlns:xlink="http://www.w3.org/1999/xlink" width="32" height="32" viewBox="0 0 32 32">
<path fill="#565656" d="M8.442 13.416c0-0.484 0.412-0.876 0.887-0.876 0.49 0 0.887 0.382 0.887 0.876v3.555c0 0.484-0.412 0.876-0.887 0.876-0.49 0-0.887-0.382-0.887-0.876v-3.555zM13.829 14.585c0.284-0.392 0.848-0.467 1.233-0.187 0.397 0.288 0.494 0.83 0.203 1.231l-2.089 2.876c-0.284 0.392-0.848 0.467-1.233 0.187-0.397-0.288-0.494-0.83-0.203-1.231l2.089-2.876zM17.498 18.69c0.46-0.15 0.961 0.121 1.108 0.573 0.151 0.466-0.089 0.962-0.559 1.115l-3.381 1.098c-0.46 0.15-0.961-0.121-1.108-0.573-0.151-0.466 0.089-0.962 0.559-1.115l3.381-1.098zM18.046 24.162c0.46 0.15 0.706 0.662 0.559 1.115-0.151 0.466-0.637 0.726-1.108 0.573l-3.381-1.098c-0.46-0.15-0.706-0.662-0.559-1.115 0.151-0.466 0.637-0.726 1.108-0.573l3.381 1.098zM15.265 28.911c0.284 0.392 0.182 0.951-0.203 1.231-0.397 0.288-0.942 0.213-1.233-0.187l-2.089-2.876c-0.284-0.392-0.182-0.951 0.203-1.231 0.397-0.288 0.942-0.213 1.233 0.187l2.089 2.876zM10.217 31.124c0 0.484-0.412 0.876-0.887 0.876-0.49 0-0.887-0.382-0.887-0.876v-3.555c0-0.484 0.412-0.876 0.887-0.876 0.49 0 0.887 0.382 0.887 0.876v3.555zM4.83 29.954c-0.285 0.392-0.848 0.467-1.233 0.187-0.397-0.288-0.494-0.83-0.203-1.231l2.089-2.876c0.284-0.392 0.848-0.467 1.233-0.187 0.397 0.288 0.494 0.83 0.203 1.231l-2.089 2.876zM1.161 25.85c-0.46 0.15-0.961-0.121-1.108-0.573-0.151-0.466 0.089-0.962 0.559-1.115l3.381-1.098c0.46-0.15 0.961 0.121 1.108 0.573 0.151 0.466-0.089 0.962-0.559 1.115l-3.381 1.098zM0.613 20.378c-0.46-0.15-0.706-0.662-0.559-1.115 0.151-0.466 0.637-0.726 1.108-0.573l3.381 1.098c0.46 0.15 0.706 0.662 0.559 1.115-0.151 0.466-0.637 0.726-1.108 0.573l-3.381-1.098zM3.394 15.629c-0.284-0.392-0.182-0.951 0.203-1.231 0.397-0.288 0.942-0.213 1.233 0.187l2.089 2.876c0.284 0.392 0.182 0.951-0.203 1.231-0.397 0.288-0.942 0.213-1.233-0.187l-2.089-2.876zM14.47 11.154l-1.123-1.123 5.317-5.317 1.123 1.123-5.317 5.317zM26.675 23.226l-11.234-11.234 5.317-5.317 11.234 11.234-5.317 5.317zM15.938 0.004c-0.394 0.053-0.664 0.407-0.606 0.801l0.334 2.25c0.057 0.39 0.42 0.664 0.817 0.612 0.394-0.053 0.664-0.407 0.606-0.801l-0.335-2.248c-0.059-0.391-0.42-0.664-0.816-0.613zM10.58 2.681c-0.278 0.277-0.278 0.727 0.007 1.011l1.625 1.624c0.283 0.281 0.733 0.286 1.013 0.008 0.277-0.278 0.276-0.727-0.008-1.012l-1.624-1.623c-0.283-0.281-0.734-0.288-1.013-0.008zM8.045 7.579c-0.058 0.391 0.205 0.761 0.598 0.827l2.245 0.374c0.389 0.065 0.752-0.197 0.81-0.593 0.059-0.392-0.205-0.761-0.598-0.827l-2.245-0.374c-0.388-0.066-0.75 0.197-0.81 0.593z"></path>
</svg>
