<?xml version="1.0" encoding="iso-8859-1"?>
<!-- Generator: Adobe Illustrator 16.0.0, SVG Export Plug-In . SVG Version: 6.00 Build 0)  -->
<!DOCTYPE svg PUBLIC "-//W3C//DTD SVG 1.1//EN" "http://www.w3.org/Graphics/SVG/1.1/DTD/svg11.dtd">
<svg version="1.1" id="Capa_1" xmlns:sketch="http://www.bohemiancoding.com/sketch/ns"
	 xmlns="http://www.w3.org/2000/svg" xmlns:xlink="http://www.w3.org/1999/xlink" x="0px" y="0px" width="17px" height="17px"
	 viewBox="0 0 17 17" style="enable-background:new 0 0 17 17;" xml:space="preserve">
<title>email &gt; profiles</title>
<desc>Created with Sketch.</desc>
<g id="email_open" transform="translate(0.000000, 6.000000)">
	<path id="Shape" d="M15.568,10.605H1.432C0.641,10.605,0,9.979,0,9.207V0.75l7.132,5.499c0.763,0.587,1.999,0.587,2.761,0L17,0.77
		v8.437C17,9.979,16.359,10.605,15.568,10.605L15.568,10.605z M5.169,6.062c-0.2-0.23-0.553-0.26-0.789-0.064L1.557,8.33
		C1.321,8.525,1.291,8.871,1.491,9.102s0.553,0.26,0.789,0.064l2.823-2.332C5.339,6.639,5.369,6.293,5.169,6.062L5.169,6.062z
		 M15.326,8.33l-2.823-2.332c-0.236-0.195-0.589-0.166-0.789,0.064s-0.17,0.576,0.065,0.771l2.824,2.332
		c0.236,0.195,0.589,0.166,0.789-0.064C15.592,8.87,15.562,8.525,15.326,8.33L15.326,8.33z"/>
</g>
<path d="M16.086,5.491L9.289,1.098c-0.469-0.303-1.223-0.302-1.689,0L0.804,5.491C0.335,5.794,0.317,6.31,0.758,6.647l4.224,3.228
	c0.348-1.161,1.297-2.368,3.55-2.368c2.187,0,3.138,1.138,3.511,2.266l4.089-3.125C16.576,6.307,16.552,5.792,16.086,5.491z
	 M8.545,7.26c-1.249,0-2.26-1.012-2.26-2.26s1.012-2.26,2.26-2.26c1.247,0,2.259,1.012,2.259,2.26S9.792,7.26,8.545,7.26z"/>
</svg>
