<?xml version="1.0" encoding="utf-8"?>
<!-- Generated by IcoMoon.io -->
<!DOCTYPE svg PUBLIC "-//W3C//DTD SVG 1.1//EN" "http://www.w3.org/Graphics/SVG/1.1/DTD/svg11.dtd">
<svg version="1.1" xmlns="http://www.w3.org/2000/svg" xmlns:xlink="http://www.w3.org/1999/xlink" width="32" height="32" viewBox="0 0 32 32">
<path fill="#85c8fb" d="M10.912 3.721c0.682-2.157 2.706-3.721 5.088-3.721 2.383 0 4.401 1.575 5.085 3.72 2.007-1.043 4.544-0.718 6.229 0.966s1.999 4.226 0.965 6.226c2.157 0.682 3.721 2.706 3.721 5.088 0 2.383-1.575 4.401-3.72 5.085 1.043 2.007 0.718 4.544-0.966 6.229s-4.226 1.999-6.226 0.965c-0.682 2.157-2.706 3.721-5.088 3.721-2.383 0-4.402-1.575-5.085-3.72-2.007 1.043-4.544 0.718-6.229-0.966s-1.999-4.226-0.965-6.226c-2.157-0.682-3.721-2.706-3.721-5.088 0-2.383 1.575-4.402 3.72-5.085-1.043-2.007-0.718-4.544 0.966-6.229s4.226-1.999 6.226-0.965zM12.455 21.575c0.767 0.733 2.005 0.733 2.773 0.001l9.078-8.654c0.773-0.737 0.779-1.937 0.013-2.68s-2.012-0.749-2.785-0.013l-7.534 7.362-3.533-3.253c-0.772-0.737-2.019-0.732-2.785 0.011s-0.761 1.943 0.011 2.68l4.761 4.546z"></path>
</svg>
