<?xml version="1.0" encoding="UTF-8"?>
<svg width="27px" height="25px" viewBox="0 0 27 25" version="1.1" xmlns="http://www.w3.org/2000/svg" xmlns:xlink="http://www.w3.org/1999/xlink">
    <!-- Generator: Sketch 42 (36781) - http://www.bohemiancoding.com/sketch -->
    <title>Combined Shape</title>
    <desc>Created with Sketch.</desc>
    <defs></defs>
    <g id="Page-1" stroke="none" stroke-width="1" fill="none" fill-rule="evenodd">
        <g id="436-picture-warning-interaction-communication-interface-outline" fill-rule="nonzero" fill="#C8B14A">
            <g id="436---Picture-Warning-(interaction,-communication,-interface,-outline)">
                <g id="Page-1">
                    <g id="Icons">
                        <g id="Picture-Warning">
                            <path d="M24.4515752,22.5694444 C24.5199226,22.5694444 24.5859595,22.4511977 24.5273527,22.3478111 L13.5469753,2.98905472 C13.5060496,2.91678281 13.437154,2.91678281 13.3957997,2.98965867 L2.41682123,22.3475822 C2.35808468,22.4511977 2.42412154,22.5694444 2.49246897,22.5694444 L24.4515752,22.5694444 Z M24.4515752,24.6527778 L2.49246897,24.6527778 C0.790504446,24.6527778 -0.246556523,22.7957988 0.586523078,21.3261862 L11.565731,1.96785807 C12.4103716,0.479403913 14.5345132,0.479403913 15.3774859,1.96803376 L26.3576323,21.3263823 C27.1906007,22.7957988 26.1535397,24.6527778 24.4515752,24.6527778 Z M12.5003448,8.35798817 L12.5003448,15.9845496 C12.5003448,16.5598463 12.9704458,17.0262163 13.5503448,17.0262163 C14.1302438,17.0262163 14.6003448,16.5598463 14.6003448,15.9845496 L14.6003448,8.35798817 C14.6003448,7.78269155 14.1302438,7.3163215 13.5503448,7.3163215 C12.9704458,7.3163215 12.5003448,7.78269155 12.5003448,8.35798817 Z M13.6734483,20.9278435 C14.2533473,20.9278435 14.7234483,20.4614735 14.7234483,19.8861769 C14.7234483,19.3108802 14.2533473,18.8445102 13.6734483,18.8445102 C13.0935493,18.8445102 12.6234483,19.3108802 12.6234483,19.8861769 C12.6234483,20.4614735 13.0935493,20.9278435 13.6734483,20.9278435 Z" id="Combined-Shape"></path>
                        </g>
                    </g>
                </g>
            </g>
        </g>
    </g>
</svg>