<?xml version="1.0" encoding="UTF-8" standalone="no"?>
<svg width="18px" height="18px" viewBox="0 0 18 18" version="1.1" xmlns="http://www.w3.org/2000/svg" xmlns:xlink="http://www.w3.org/1999/xlink" xmlns:sketch="http://www.bohemiancoding.com/sketch/ns">
    <!-- Generator: Sketch 3.4.4 (17249) - http://www.bohemiancoding.com/sketch -->
    <title>watson</title>
    <desc>Created with Sketch.</desc>
    <defs></defs>
    <g id="Page-1" stroke="none" stroke-width="1" fill="none" fill-rule="evenodd" sketch:type="MSPage">
        <g id="Artboard-2" sketch:type="MSArtboardGroup" transform="translate(-40.000000, -728.000000)" fill="#565656">
            <g id="watson" sketch:type="MSLayerGroup" transform="translate(40.000000, 728.000000)">
                <g id="Layer_1" sketch:type="MSShapeGroup">
                    <g id="Group">
                        <g transform="translate(2.093023, 4.305648)" id="Shape">
                            <path d="M8.57541528,7.09833887 C9.49634551,3.37873754 9.36478405,0.376744186 8.52757475,0.0179401993 C8.52159468,0.0179401993 8.51561462,0.0179401993 8.51561462,0.0119601329 L8.44983389,0.556146179 L8.46179402,0.556146179 C9.09568106,0.705647841 8.97009967,4.50299003 8.31229236,7.15813953 C7.65448505,9.80730897 6.00398671,13.1860465 5.42990033,12.8870432 L5.24451827,13.3475083 C5.26245847,13.3534884 5.2744186,13.3594684 5.2923588,13.3654485 C6.1654485,13.6285714 7.66046512,10.8179402 8.57541528,7.09833887"></path>
                            <path d="M9.58006645,12.420598 C7.88172757,12.3847176 5.78272425,11.3980066 4.01860465,9.65182724 C1.29767442,6.95481728 0.382724252,3.44451827 1.98538206,1.82392027 L2.39202658,2.22458472 C1.01063123,3.6179402 1.63853821,6.99069767 4.13820598,9.46644518 C6.63787375,11.9421927 10.076412,12.6 11.4578073,11.2066445 L11.8644518,11.607309 C11.3023256,12.1813953 10.5009967,12.4385382 9.58006645,12.420598"></path>
                            <path d="M9.74750831,1.26777409 C10.8119601,1.26777409 11.7149502,1.60265781 12.2890365,2.29036545 L11.8465116,2.6551495 C10.5966777,1.14219269 7.110299,1.45315615 4.39534884,3.69568106 C1.68039867,5.93820598 0.753488372,9.26910299 2.00930233,10.7820598 L1.56677741,11.1468439 C0.113621262,9.38870432 1.33953488,5.97408638 4.29368771,3.53421927 C6.08172757,2.05116279 8.1089701,1.26777409 9.74750831,1.26777409"></path>
                            <path d="M0.63986711,7.71428571 C0.316943522,7.31362126 2.82259136,5.98006645 6.75747508,5.35813953 C10.6744186,4.74219269 13.2099668,5.24451827 13.227907,5.71694352 L13.7960133,5.63322259 C13.5508306,4.10232558 6.96677741,5.12491694 6.68571429,5.16677741 C6.40465116,5.20863787 -0.179401993,6.26710963 0.0598006645,7.79800664 L0.0598006645,7.80398671 L0.63986711,7.71428571 C0.63986711,7.72026578 0.63986711,7.71428571 0.63986711,7.71428571"></path>
                            <path d="M3.89900332,9.8730897 C3.62990033,9.8730897 3.40863787,9.65182724 3.40863787,9.38272425 C3.40863787,9.11362126 3.62990033,8.8923588 3.89900332,8.8923588 C4.16810631,8.8923588 4.38936877,9.11362126 4.38936877,9.38272425 C4.38936877,9.65182724 4.16810631,9.8730897 3.89900332,9.8730897"></path>
                            <path d="M3.86910299,4.5448505 C3.6,4.5448505 3.37873754,4.32358804 3.37873754,4.05448505 C3.37873754,3.78538206 3.6,3.5641196 3.86910299,3.5641196 C4.13820598,3.5641196 4.35946844,3.78538206 4.35946844,4.05448505 C4.35946844,4.32358804 4.13820598,4.5448505 3.86910299,4.5448505"></path>
                            <path d="M7.76212625,5.49568106 C7.54684385,5.49568106 7.37342193,5.32225914 7.37342193,5.10697674 C7.37342193,4.89169435 7.54684385,4.71827243 7.76212625,4.71827243 C7.97740864,4.71827243 8.15083056,4.89169435 8.15083056,5.10697674 C8.1448505,5.32225914 7.97142857,5.49568106 7.76212625,5.49568106"></path>
                            <path d="M8.61727575,6.81129568 C8.34817276,6.81129568 8.1269103,6.59003322 8.1269103,6.32093023 C8.1269103,6.05182724 8.34817276,5.83056478 8.61727575,5.83056478 C8.88637874,5.83056478 9.1076412,6.05182724 9.1076412,6.32093023 C9.11362126,6.59003322 8.8923588,6.81129568 8.61727575,6.81129568"></path>
                        </g>
                        <g id="Shape">
                            <path d="M14.3760797,6.59601329 C15.8292359,8.35415282 14.7109635,11.8345515 11.7568106,14.2744186 C8.80265781,16.7142857 5.11295681,17.2106312 3.65980066,15.4524917 L4.10232558,15.0877076 C4.95747508,16.5169435 8.68305648,16.1043189 11.3980066,13.8677741 C14.1069767,11.6252492 15.1714286,8.13887043 13.9395349,6.96079734 L14.3760797,6.59601329 L14.3760797,6.59601329 Z"></path>
                            <path d="M13.9574751,15.9189369 L13.5508306,15.5182724 C14.9322259,14.1249169 14.0830565,10.9076412 11.5833887,8.43189369 C9.089701,5.95614618 5.86644518,5.13687708 4.48504983,6.53621262 L4.07840532,6.13554817 C5.68106312,4.51495017 9.29900332,5.3282392 12.0199336,8.02524917 C14.7468439,10.7222591 15.5601329,14.2983389 13.9574751,15.9189369"></path>
                            <path d="M9.30498339,12.689701 C10.166113,12.5641196 16.1222591,11.4757475 15.8830565,9.9448505 L15.8830565,9.9448505 L15.3209302,10.0285714 L15.3209302,10.0285714 C15.3328904,10.4651163 13.0784053,11.517608 9.15548173,12.1335548 C5.22657807,12.7495017 2.99601329,12.4803987 2.73289037,12.0199336 L2.15282392,12.1096346 C2.49966777,13.6345515 8.25847176,12.8392027 9.30498339,12.689701"></path>
                            <path d="M8.64717608,2.64916944 L8.64717608,0.37076412 C8.64717608,0.16744186 8.81461794,0 9.0179402,0 C9.22126246,0 9.38870432,0.16744186 9.38870432,0.37076412 L9.38870432,2.6551495 C9.38870432,2.85847176 9.22126246,3.02591362 9.0179402,3.02591362 C8.81461794,3.01993355 8.64717608,2.85249169 8.64717608,2.64916944"></path>
                            <path d="M12.6538206,3.88106312 C12.5222591,3.81528239 12.4445183,3.68372093 12.4445183,3.5461794 C12.4445183,3.4923588 12.4564784,3.43853821 12.4803987,3.39069767 L13.4671096,1.33355482 C13.5328904,1.20199336 13.6644518,1.12425249 13.8019934,1.12425249 C13.855814,1.12425249 13.9096346,1.13621262 13.9574751,1.16013289 C14.0890365,1.21993355 14.1667774,1.35747508 14.1667774,1.49501661 C14.1667774,1.54883721 14.1548173,1.60265781 14.130897,1.65647841 L13.144186,3.7076412 C13.0784053,3.83920266 12.9468439,3.91694352 12.8093023,3.91694352 C12.7614618,3.91694352 12.7016611,3.90498339 12.6538206,3.88106312"></path>
                            <path d="M5.20265781,3.88106312 C5.14883721,3.90498339 5.09501661,3.91694352 5.04119601,3.91694352 C4.90365449,3.91694352 4.77209302,3.83920266 4.70631229,3.7076412 L3.7255814,1.65049834 C3.70166113,1.59667774 3.689701,1.54285714 3.689701,1.48903654 C3.689701,1.35149502 3.76744186,1.21993355 3.89900332,1.15415282 C3.95282392,1.13023256 4.00664452,1.11827243 4.06046512,1.11827243 C4.19800664,1.11827243 4.32956811,1.19601329 4.39534884,1.32757475 L5.3820598,3.39069767 C5.40598007,3.43853821 5.4179402,3.49833887 5.4179402,3.5461794 C5.4179402,3.68372093 5.34019934,3.82126246 5.20265781,3.88106312"></path>
                            <path d="M15.3568106,6.17142857 C15.3209302,6.11162791 15.30299,6.04584718 15.30299,5.97408638 C15.30299,5.84850498 15.3627907,5.72890365 15.476412,5.65714286 L17.4139535,4.4551495 C17.4737542,4.4192691 17.5395349,4.4013289 17.6112957,4.4013289 C17.7368771,4.4013289 17.8564784,4.46112957 17.9282392,4.57475083 C17.9641196,4.6345515 17.9820598,4.70033223 17.9820598,4.77209302 C17.9820598,4.89767442 17.9222591,5.01727575 17.8086379,5.08903654 L15.8710963,6.2910299 C15.8112957,6.33289037 15.745515,6.3448505 15.6737542,6.3448505 C15.5481728,6.3448505 15.4285714,6.28504983 15.3568106,6.17142857"></path>
                            <path d="M2.6192691,6.17142857 C2.54750831,6.28504983 2.42790698,6.3448505 2.30830565,6.3448505 C2.24252492,6.3448505 2.17674419,6.3269103 2.11096346,6.2910299 L0.173421927,5.08305648 C0.0598006645,5.01727575 0,4.89767442 0,4.77209302 C0,4.70631229 0.0179401993,4.64053156 0.053820598,4.57475083 C0.125581395,4.46112957 0.245182724,4.4013289 0.364784053,4.4013289 C0.430564784,4.4013289 0.496345515,4.4192691 0.562126246,4.4551495 L2.49966777,5.65714286 C2.61328904,5.72890365 2.6730897,5.84850498 2.6730897,5.97408638 C2.67906977,6.03986711 2.66112957,6.11162791 2.6192691,6.17142857"></path>
                            <path d="M8.910299,13.1561462 C8.48571429,13.1561462 8.13887043,12.8093023 8.13887043,12.3847176 C8.13887043,11.9601329 8.48571429,11.613289 8.910299,11.613289 C9.33488372,11.613289 9.68172757,11.9601329 9.68172757,12.3847176 C9.68172757,12.8093023 9.33488372,13.1561462 8.910299,13.1561462"></path>
                            <path d="M12.6358804,10.0106312 C12.1694352,10.0106312 11.792691,9.63388704 11.792691,9.16744186 C11.792691,8.70099668 12.1694352,8.32425249 12.6358804,8.32425249 C13.1023256,8.32425249 13.4790698,8.70099668 13.4790698,9.16744186 C13.4790698,9.63388704 13.1023256,10.0106312 12.6358804,10.0106312"></path>
                            <path d="M11.7209302,14.8664452 C11.2186047,14.8664452 10.8059801,14.4598007 10.8059801,13.951495 C10.8059801,13.4491694 11.2126246,13.0365449 11.7209302,13.0365449 C12.2232558,13.0365449 12.6358804,13.4491694 12.6358804,13.951495 C12.6358804,14.4538206 12.2232558,14.8664452 11.7209302,14.8664452"></path>
                            <path d="M7.83388704,10.6803987 C7.2538206,10.6803987 6.78139535,10.2079734 6.78139535,9.62790698 C6.78139535,9.04784053 7.2538206,8.57541528 7.83388704,8.57541528 C8.41395349,8.57541528 8.88637874,9.04784053 8.88637874,9.62790698 C8.88637874,10.2079734 8.41395349,10.6803987 7.83388704,10.6803987"></path>
                            <path d="M7.51694352,17.1986711 C6.76943522,16.7860465 7.18803987,13.3056478 7.84584718,10.6504983 C8.49767442,8.00730897 9.80730897,4.73621262 10.5428571,4.86777409 L10.6086379,4.32358804 C9.74750831,3.98870432 8.18671096,6.42857143 7.24784053,10.5727575 C6.2372093,15.0398671 6.32093023,17.3063123 7.33156146,17.6651163 L7.51694352,17.1986711 L7.51694352,17.1986711"></path>
                            <path d="M9.0179402,4.64651163 C5.50166113,4.64651163 2.6372093,7.50498339 2.6372093,11.0272425 C2.6372093,14.5435216 5.50166113,17.4079734 9.0179402,17.4079734 C12.5342193,17.4079734 15.3986711,14.5435216 15.3986711,11.0272425 C15.3986711,7.50498339 12.5342193,4.64651163 9.0179402,4.64651163 M9.0179402,17.9760797 C5.18471761,17.9760797 2.06312292,14.854485 2.06312292,11.0212625 C2.06312292,7.18803987 5.18471761,4.07242525 9.0179402,4.07242525 C12.8511628,4.07242525 15.9727575,7.18803987 15.9727575,11.0212625 C15.9727575,14.8604651 12.8511628,17.9760797 9.0179402,17.9760797"></path>
                        </g>
                    </g>
                </g>
            </g>
        </g>
    </g>
</svg>