<?xml version="1.0" encoding="UTF-8" standalone="no"?>
<svg width="57px" height="71px" viewBox="0 0 57 71" version="1.1" xmlns="http://www.w3.org/2000/svg" xmlns:xlink="http://www.w3.org/1999/xlink" xmlns:sketch="http://www.bohemiancoding.com/sketch/ns">
    <!-- Generator: Sketch 3.3 (11970) - http://www.bohemiancoding.com/sketch -->
    <title>Group</title>
    <desc>Created with Sketch.</desc>
    <defs></defs>
    <g id="Page-1" stroke="none" stroke-width="1" fill="none" fill-rule="evenodd" sketch:type="MSPage">
        <g id="noun_5490_cc" sketch:type="MSLayerGroup" transform="translate(-14.000000, -1.000000)" fill="#000000">
            <g id="Group" transform="translate(14.000000, 0.000000)" sketch:type="MSShapeGroup">
                <path d="M55.502,64.115 L43.846,52.684 C39.457,55.289 34.338,56.79 28.872,56.79 C23.407,56.79 18.286,55.289 13.897,52.682 L2.105,64.247 C0.447,65.874 0.291,68.491 1.742,70.305 C3.196,72.117 5.784,72.535 7.733,71.272 C10.632,69.392 19.959,64.514 28.19,64.514 C39.374,64.514 49.909,71.208 50.015,71.276 C50.771,71.764 51.623,72 52.467,72 C52.508,72 52.547,71.999 52.59,71.999 C55.035,71.938 57,69.937 57,67.476 C57,66.143 56.422,64.943 55.502,64.115 L55.502,64.115 Z" id="Shape"></path>
                <circle id="Oval" cx="28.872" cy="27.373" r="7.599"></circle>
                <path d="M28.872,0.985 C14.268,0.985 2.364,12 1.793,27 L17.996,27 C18.544,21 23.212,17.157 28.872,17.157 C34.531,17.157 39.2,21 39.747,27 L55.952,27 C55.381,12 43.475,0.985 28.872,0.985 L28.872,0.985 Z M28.871,10.432 C27.402,10.432 26.211,9.24 26.211,7.77 C26.211,6.3 27.402,5.108 28.871,5.108 C30.343,5.108 31.534,6.3 31.534,7.77 C31.534,9.24 30.342,10.432 28.871,10.432 L28.871,10.432 Z" id="Shape"></path>
                <path d="M28.872,38.304 C23.212,38.304 18.544,33.979 17.996,28.461 L1.793,28.461 C2.365,42.925 14.268,54.476 28.872,54.476 C43.475,54.476 55.381,42.925 55.952,28.461 L39.746,28.461 C39.199,33.979 34.531,38.304 28.872,38.304 L28.872,38.304 Z" id="Shape"></path>
            </g>
        </g>
    </g>
</svg>