<?xml version="1.0" encoding="utf-8"?>
<!-- Generated by IcoMoon.io -->
<!DOCTYPE svg PUBLIC "-//W3C//DTD SVG 1.1//EN" "http://www.w3.org/Graphics/SVG/1.1/DTD/svg11.dtd">
<svg version="1.1" xmlns="http://www.w3.org/2000/svg" xmlns:xlink="http://www.w3.org/1999/xlink" width="32" height="32" viewBox="0 0 32 32">
<path fill="rgb(86, 86, 86)" d="M16 2.667c7.353 0 13.333 5.982 13.333 13.333 0 7.353-5.98 13.333-13.333 13.333s-13.333-5.98-13.333-13.333c0-7.353 5.98-13.333 13.333-13.333zM16 0c-8.837 0-16 7.163-16 16 0 8.836 7.163 16 16 16s16-7.164 16-16c0-8.837-7.163-16-16-16v0z"></path>
<path fill="rgb(86, 86, 86)" d="M16.012 4.267c2.832 2.395 7.099 7.015 7.099 11.733 0 5.028-4.635 9.625-7.111 11.721-2.478-2.098-7.111-6.693-7.111-11.721 0-5.036 4.649-9.639 7.124-11.733zM16 0.889c0 0-9.778 6.766-9.778 15.111s9.778 15.111 9.778 15.111 9.778-6.766 9.778-15.111c0-8.345-9.778-15.111-9.778-15.111v0z"></path>
<path fill="rgb(86, 86, 86)" d="M31.111 14.667h-13.778v-13.778h-2.667v13.778h-13.778v2.667h13.778v13.778h2.667v-13.778h13.778z"></path>
</svg>
