<?xml version="1.0" encoding="utf-8"?>
<!-- Generated by IcoMoon.io -->
<!DOCTYPE svg PUBLIC "-//W3C//DTD SVG 1.1//EN" "http://www.w3.org/Graphics/SVG/1.1/DTD/svg11.dtd">
<svg version="1.1" xmlns="http://www.w3.org/2000/svg" xmlns:xlink="http://www.w3.org/1999/xlink" width="32" height="32" viewBox="0 0 32 32">
<path fill="rgb(86, 86, 86)" d="M16 0c-8.836 0-16 7.164-16 16s7.164 16 16 16c8.836 0 16-7.164 16-16s-7.164-16-16-16zM8.517 15.157c0.356-3.244 1.753-6.076 3.904-8.507 0.88-0.997 1.826-1.851 2.77-2.56 0.020-0.014 0.034-0.021 0.052-0.036v11.104h-6.725zM16.926 1.73c7.191 0.462 12.926 6.224 13.346 13.428h-5.088c-0.359-3.691-1.932-6.901-4.341-9.623-0.962-1.084-1.989-2.014-3.019-2.789-0.348-0.261-0.642-0.466-0.896-0.633v-0.382zM16.926 4.187c0.903 0.693 1.808 1.508 2.651 2.464 2.153 2.43 3.55 5.262 3.906 8.507h-6.556v-10.971zM15.243 1.723v0.286c-0.284 0.178-0.626 0.405-1.065 0.736-1.029 0.775-2.059 1.705-3.020 2.789-2.407 2.724-3.98 5.932-4.341 9.623h-5.090c0.425-7.259 6.244-13.052 13.516-13.435zM23.484 16.843c-0.356 3.243-1.753 6.078-3.906 8.507-0.844 0.955-1.748 1.771-2.651 2.464v-10.971h6.556zM15.243 30.277c-7.271-0.384-13.092-6.176-13.516-13.436h5.090c0.359 3.691 1.932 6.901 4.341 9.623 0.962 1.083 1.989 2.016 3.019 2.789 0.439 0.331 0.779 0.556 1.065 0.736v0.288zM15.243 27.947c-0.020-0.016-0.032-0.023-0.052-0.037-0.944-0.709-1.89-1.564-2.772-2.56-2.149-2.428-3.548-5.264-3.902-8.507h6.725v11.104zM16.926 30.268v-0.38c0.254-0.169 0.548-0.373 0.896-0.633 1.029-0.775 2.057-1.707 3.019-2.789 2.409-2.722 3.982-5.932 4.341-9.623h5.088c-0.416 7.204-6.153 12.965-13.344 13.426z"></path>
</svg>
