<?xml version="1.0" encoding="utf-8"?>
<!-- Generated by IcoMoon.io -->
<!DOCTYPE svg PUBLIC "-//W3C//DTD SVG 1.1//EN" "http://www.w3.org/Graphics/SVG/1.1/DTD/svg11.dtd">
<svg version="1.1" xmlns="http://www.w3.org/2000/svg" xmlns:xlink="http://www.w3.org/1999/xlink" width="32" height="32" viewBox="0 0 32 32">
<path fill="#565656" d="M1.832 24.889c0.449 4.020 3.638 7.111 7.475 7.111h13.386c3.837 0 7.026-3.091 7.475-7.111h0.066c0.975 0 1.766-0.792 1.766-1.77v-14.239c0-0.96-0.791-1.77-1.766-1.77h-0.066c-0.449-4.020-3.638-7.111-7.475-7.111h-13.386c-3.837 0-7.026 3.091-7.475 7.111h-0.066c-0.975 0-1.766 0.792-1.766 1.77v14.239c0 0.96 0.791 1.77 1.766 1.77h0.066zM26.564 7.111h-21.128c0.421-2.024 2.091-3.556 4.11-3.556h12.908c2.019 0 3.689 1.531 4.11 3.556zM26.564 24.889c-0.421 2.024-2.091 3.556-4.11 3.556h-12.908c-2.019 0-3.689-1.531-4.11-3.556h21.128zM10.924 20.632l-1.633-2.477-1.674 2.477c-0.242 0.346-0.447 0.593-0.614 0.74s-0.381 0.221-0.639 0.221c-0.286 0-0.529-0.092-0.73-0.277s-0.301-0.396-0.301-0.634c0-0.244 0.154-0.593 0.462-1.047l2.037-3.013-1.806-2.511c-0.313-0.414-0.47-0.774-0.47-1.081 0-0.238 0.093-0.445 0.28-0.621s0.432-0.264 0.734-0.264c0.264 0 0.482 0.077 0.656 0.23s0.375 0.394 0.606 0.723l1.46 2.060 1.418-2.060c0.236-0.34 0.441-0.584 0.614-0.732s0.389-0.221 0.647-0.221c0.297 0 0.543 0.087 0.738 0.26s0.293 0.382 0.293 0.626c0 0.176-0.040 0.345-0.12 0.506s-0.202 0.353-0.367 0.575l-1.806 2.511 2.037 3.013c0.319 0.471 0.478 0.826 0.478 1.064 0 0.244-0.099 0.454-0.297 0.63s-0.443 0.264-0.734 0.264c-0.258 0-0.477-0.077-0.656-0.23s-0.383-0.397-0.614-0.732zM14.841 20.181v-10.077c0-0.465 0.1-0.817 0.301-1.055s0.471-0.357 0.812-0.357c0.341 0 0.616 0.118 0.825 0.353s0.313 0.589 0.313 1.060v10.077c0 0.471-0.106 0.824-0.317 1.060s-0.485 0.353-0.82 0.353c-0.33 0-0.598-0.122-0.804-0.366s-0.309-0.593-0.309-1.047zM26.667 18.555c0 0.641-0.151 1.19-0.454 1.647s-0.749 0.803-1.34 1.038c-0.591 0.235-1.31 0.353-2.156 0.353-0.808 0-1.501-0.128-2.078-0.383s-1.003-0.575-1.278-0.957c-0.275-0.383-0.412-0.767-0.412-1.153 0-0.255 0.088-0.474 0.264-0.655s0.399-0.272 0.668-0.272c0.236 0 0.418 0.060 0.544 0.179s0.247 0.287 0.363 0.502c0.231 0.414 0.507 0.723 0.829 0.928s0.76 0.306 1.315 0.306c0.451 0 0.82-0.104 1.109-0.311s0.433-0.444 0.433-0.711c0-0.409-0.15-0.706-0.449-0.894s-0.793-0.366-1.48-0.536c-0.775-0.199-1.406-0.407-1.893-0.626s-0.875-0.506-1.167-0.864c-0.291-0.357-0.437-0.797-0.437-1.319 0-0.465 0.135-0.905 0.404-1.319s0.667-0.745 1.192-0.992c0.525-0.247 1.159-0.37 1.901-0.37 0.583 0 1.106 0.062 1.571 0.187s0.852 0.292 1.163 0.502c0.311 0.21 0.547 0.443 0.709 0.698s0.243 0.505 0.243 0.749c0 0.267-0.087 0.485-0.26 0.655s-0.419 0.255-0.738 0.255c-0.231 0-0.427-0.068-0.59-0.204s-0.348-0.34-0.557-0.613c-0.17-0.227-0.371-0.409-0.602-0.545s-0.544-0.204-0.94-0.204c-0.407 0-0.745 0.089-1.014 0.268s-0.404 0.401-0.404 0.668c0 0.244 0.099 0.444 0.297 0.6s0.465 0.285 0.8 0.387c0.335 0.102 0.797 0.227 1.385 0.374 0.698 0.176 1.269 0.386 1.711 0.63s0.778 0.532 1.006 0.864c0.228 0.332 0.342 0.711 0.342 1.136z"></path>
</svg>