<?xml version="1.0" encoding="UTF-8" standalone="no"?>
<svg width="11px" height="6px" viewBox="0 0 11 6" version="1.1" xmlns="http://www.w3.org/2000/svg" xmlns:xlink="http://www.w3.org/1999/xlink" xmlns:sketch="http://www.bohemiancoding.com/sketch/ns">
    <!-- Generator: Sketch 3.3 (11970) - http://www.bohemiancoding.com/sketch -->
    <title>XLS</title>
    <desc>Created with Sketch.</desc>
    <defs></defs>
    <g id="Page-1" stroke="none" stroke-width="1" fill="none" fill-rule="evenodd" sketch:type="MSPage">
        <g id="files-2@2x" sketch:type="MSArtboardGroup" transform="translate(-74.000000, -451.000000)" fill="#FFFFFF">
            <g id="Group" sketch:type="MSLayerGroup" transform="translate(28.000000, 304.000000)">
                <g id="Rectangle-4-+-PDF-6" transform="translate(43.000000, 140.000000)" sketch:type="MSShapeGroup">
                    <path d="M3.02636719,12 L4.6875,9.76171875 L3.22265625,7.70507812 L3.89941406,7.70507812 L4.67871094,8.80664062 C4.84082112,9.03515739 4.95605435,9.21093688 5.02441406,9.33398438 C5.12011767,9.17773359 5.23339778,9.01464929 5.36425781,8.84472656 L6.22851562,7.70507812 L6.84667969,7.70507812 L5.33789062,9.72949219 L6.96386719,12 L6.26074219,12 L5.1796875,10.4677734 C5.11914032,10.3798824 5.05664095,10.2841802 4.9921875,10.1806641 C4.8964839,10.3369148 4.82812521,10.4443356 4.78710938,10.5029297 L3.70898438,12 L3.02636719,12 Z M7.44140625,12 L7.44140625,7.70507812 L8.00976562,7.70507812 L8.00976562,11.4931641 L10.125,11.4931641 L10.125,12 L7.44140625,12 Z M10.6083984,10.6201172 L11.1445312,10.5732422 C11.169922,10.788087 11.2290034,10.9643548 11.3217773,11.1020508 C11.4145512,11.2397468 11.5585928,11.3510738 11.7539062,11.4360352 C11.9492197,11.5209965 12.1689441,11.5634766 12.4130859,11.5634766 C12.6298839,11.5634766 12.8212882,11.5312503 12.9873047,11.4667969 C13.1533211,11.4023434 13.2768551,11.3139654 13.3579102,11.2016602 C13.4389652,11.0893549 13.4794922,10.9667975 13.4794922,10.8339844 C13.4794922,10.6992181 13.4404301,10.5815435 13.3623047,10.480957 C13.2841793,10.3803706 13.1552743,10.2958988 12.9755859,10.2275391 C12.860351,10.182617 12.6054707,10.1127934 12.2109375,10.0180664 C11.8164043,9.92333937 11.5400399,9.83398479 11.3818359,9.75 C11.1767568,9.64257759 11.0239263,9.50927814 10.9233398,9.35009766 C10.8227534,9.19091717 10.7724609,9.0126963 10.7724609,8.81542969 C10.7724609,8.59863173 10.8339838,8.39599704 10.9570312,8.20751953 C11.0800787,8.01904203 11.2597644,7.87597705 11.4960938,7.77832031 C11.7324231,7.68066357 11.9951157,7.63183594 12.2841797,7.63183594 C12.6025407,7.63183594 12.8832996,7.68310496 13.1264648,7.78564453 C13.3696301,7.88818411 13.55664,8.0390615 13.6875,8.23828125 C13.81836,8.437501 13.8886718,8.66308468 13.8984375,8.91503906 L13.3535156,8.95605469 C13.3242186,8.68456896 13.2250985,8.47949288 13.0561523,8.34082031 C12.8872062,8.20214774 12.637697,8.1328125 12.3076172,8.1328125 C11.9638655,8.1328125 11.7133797,8.19580015 11.5561523,8.32177734 C11.398925,8.44775454 11.3203125,8.59960849 11.3203125,8.77734375 C11.3203125,8.9316414 11.375976,9.05859325 11.4873047,9.15820312 C11.5966802,9.257813 11.8823219,9.35986276 12.3442383,9.46435547 C12.8061547,9.56884818 13.123046,9.66015586 13.2949219,9.73828125 C13.5449231,9.8535162 13.7294916,9.99951083 13.8486328,10.1762695 C13.967774,10.3530282 14.0273438,10.5566395 14.0273438,10.7871094 C14.0273438,11.0156261 13.9619147,11.230956 13.8310547,11.4331055 C13.7001947,11.6352549 13.5122083,11.7924799 13.2670898,11.9047852 C13.0219714,12.0170904 12.7460953,12.0732422 12.4394531,12.0732422 C12.0507793,12.0732422 11.725099,12.0166021 11.4624023,11.9033203 C11.1997057,11.7900385 10.9936531,11.61963 10.8442383,11.3920898 C10.6948235,11.1645496 10.616211,10.907228 10.6083984,10.6201172 L10.6083984,10.6201172 Z" id="XLS"></path>
                </g>
            </g>
        </g>
    </g>
</svg>