<svg xmlns="http://www.w3.org/2000/svg"><symbol viewBox="0 0 18 21" id="icon-bell"><title>Path + Shape 2</title><g fill-rule="evenodd"><path d="M9 19.048c1.165 0 2.118-.772 2.118-1.715H6.882c0 .943.953 1.715 2.118 1.715z"/><path d="M15.882 14.423V8.738c0-3.204-2.223-5.788-5.294-6.512v-.723c0-.827-.74-1.55-1.588-1.55-.847 0-1.588.723-1.588 1.55v.723c-3.07.724-5.294 3.308-5.294 6.512v5.685L0 16.49v1.034h18V16.49l-2.118-2.067z" stroke-linecap="round" stroke-linejoin="bevel"/></g></symbol><symbol viewBox="0 0 18 13" id="icon-credit-card"><title>Fill 1</title><path d="M15.837 0H2.15C.965 0 0 1.038 0 2.314v8.32c0 1.275.965 2.313 2.15 2.313h13.687c1.186 0 2.15-1.038 2.15-2.313v-8.32c0-1.276-.964-2.314-2.15-2.314zm.96 10.634c0 .57-.43 1.033-.96 1.033H2.15c-.53 0-.96-.463-.96-1.033V5.058h15.607v5.576zm0-7.402H1.19v-.918c0-.57.43-1.034.96-1.034h13.687c.53 0 .96.464.96 1.034v.918z" fill-rule="evenodd"/></symbol><symbol viewBox="0 0 18 18" id="icon-headphones"><title>Shape</title><path d="M17.863 10.228l-1.085 2.858c-.13.343-.516.526-.878.43-.123.136-.268.245-.432.32-.266.118-.556.133-.815.043l-.026-.01h-.002l-.05-.017c-.596-.208-.876-.913-.626-1.57l.554-1.46c-.14-.476-.25-1.212-.068-2.177.047-.245.11-.482.178-.733.22-.83.45-1.686.037-2.844-.29-.81-.65-1.818-2.286-2.702-2.204-1.192-4.98-.72-6.25-.003-1.655.933-2.142 2.07-2.285 2.664-.332 1.383-.086 2.532.195 3.59.225.844.114 1.602-.033 2.118l.586 1.544c.133.348.123.725-.027 1.033-.123.256-.336.447-.598.538l-.07.025h-.004c-.26.09-.552.076-.82-.043-.16-.073-.306-.182-.43-.318-.156.04-.32.032-.47-.027.2.55.742 1.54 2.164 2.237 1.14.56 2.522.556 3.36.483.185-.503.687-.86 1.257-.86.735 0 1.334.574 1.334 1.28 0 .705-.6 1.278-1.335 1.278-.46 0-.877-.224-1.12-.585-.975.092-2.635.097-4.128-.652-1.678-.84-2.364-2.184-2.62-2.878-.056-.026-.108-.06-.15-.11l-.385-.475c-.024-.03-.042-.062-.064-.113-.053-.144-.237-.644-.338-1.03-.104-.396 0-.79.28-1.102.032-.227.134-.437.3-.6l-.05-.134c-.13-.344.043-.72.386-.87.01-.483.28-.896.712-1.046 0 0 .072-.026.045-.015l.016-.007.018-.007c.3-.103.62-.06.9.09-.26-.893-.624-2.485-.112-4.023.007-.02.014-.038.012-.028.14-.495.74-2.2 2.66-3.332.04-.024 4.118-2.365 8.244.238 1.387.875 2.11 2.51 2.32 3.343-.002 0 .014.072.013.083.455 1.576.058 2.91-.22 3.806.306-.216.684-.296 1.034-.175l.075.026c.26.092.472.283.597.538.076.156.113.33.117.51.34.15.513.526.383.87z" fill-rule="evenodd"/></symbol><symbol viewBox="0 0 20 18" id="icon-heart"><title>Shape</title><path d="M9.986 18l-1.398-1.37C3.395 12.13 0 9.098 0 5.38 0 2.348 2.397 0 5.492 0 7.19 0 8.888.783 9.986 2.054 11.086.784 12.782 0 14.48 0c3.096 0 5.492 2.348 5.492 5.38 0 3.718-3.395 6.75-8.588 11.25L9.986 18z" fill-rule="evenodd"/></symbol><symbol viewBox="0 0 190 190" id="icon-lifevest"><title>lifevest</title><path d="M95 0C42.533 0 0 42.533 0 95s42.533 95 95 95 95-42.533 95-95S147.467 0 95 0zm0 11.875c11.27 0 22.016 2.248 31.816 6.312l-13.635 32.92C107.58 48.784 101.44 47.5 95 47.5c-6.44 0-12.58 1.284-18.18 3.607L70.424 35.67l-7.242-17.483c9.8-4.064 20.546-6.312 31.817-6.312zM51.107 113.182l-32.92 13.637c-4.064-9.804-6.312-20.548-6.312-31.818 0-11.27 2.248-22.016 6.312-31.817l17.483 7.242 15.437 6.394C48.785 82.42 47.5 88.56 47.5 95c0 6.44 1.284 12.58 3.607 18.182zM95 178.125c-11.27 0-22.016-2.248-31.817-6.312l4.25-10.26 9.386-22.66c5.6 2.323 11.74 3.607 18.18 3.607 6.44 0 12.58-1.284 18.182-3.607l13.637 32.92c-9.804 4.064-20.55 6.312-31.82 6.312zm0-47.5c-19.675 0-35.625-15.95-35.625-35.625S75.325 59.375 95 59.375 130.625 75.325 130.625 95 114.675 130.625 95 130.625zm43.893-17.443c2.323-5.602 3.607-11.74 3.607-18.182 0-6.44-1.284-12.58-3.607-18.18l22.66-9.387 10.26-4.25c4.065 9.8 6.312 20.545 6.312 31.817 0 11.27-2.248 22.016-6.312 31.816l-32.92-13.634z"/></symbol><symbol viewBox="0 0 18 18" id="icon-nut"><title>Shape 6</title><path d="M9 11.937c-.828 0-1.535-.29-2.12-.874C6.292 10.48 6 9.777 6 8.953c0-.824.293-1.527.88-2.11C7.464 6.26 8.17 5.97 9 5.97c.828 0 1.535.29 2.12.873.587.583.88 1.286.88 2.11 0 .824-.293 1.527-.88 2.11-.585.583-1.292.874-2.12.874zm8.906-4.53c-.062-.08-.144-.13-.246-.145l-2.144-.326c-.118-.373-.278-.754-.48-1.142.14-.194.35-.468.632-.822.28-.354.48-.612.598-.775.062-.086.094-.175.094-.27 0-.107-.028-.193-.083-.255-.28-.396-.925-1.057-1.933-1.982-.094-.077-.192-.116-.293-.116-.116 0-.21.035-.28.105l-1.665 1.246c-.32-.163-.672-.307-1.054-.43L10.724.35c-.008-.1-.053-.185-.135-.25-.082-.067-.178-.1-.287-.1H7.7c-.227 0-.368.11-.423.326-.1.39-.215 1.112-.34 2.17-.367.115-.722.263-1.066.442L4.255 1.69c-.102-.077-.203-.116-.305-.116-.173 0-.542.278-1.108.833-.567.556-.95.974-1.154 1.254-.07.102-.106.19-.106.27 0 .092.04.185.117.28.523.628.94 1.164 1.253 1.607-.195.358-.348.715-.457 1.073l-2.18.326c-.086.016-.16.066-.222.15-.063.087-.094.176-.094.27v2.587c0 .1.03.193.094.274.062.082.144.13.246.146l2.144.315c.11.38.27.765.48 1.154-.14.194-.35.468-.632.822-.28.354-.48.612-.598.775-.062.085-.093.174-.093.267 0 .1.028.19.083.27.304.418.95 1.07 1.933 1.957.086.086.184.128.293.128.116 0 .214-.035.292-.105l1.653-1.247c.32.163.67.307 1.054.43l.327 2.146c.008.1.053.185.135.25.082.067.178.1.287.1h2.6c.227 0 .368-.11.423-.327.1-.39.214-1.112.34-2.17.367-.115.722-.263 1.066-.442l1.616 1.26c.11.07.21.104.305.104.172 0 .54-.276 1.102-.827.563-.552.95-.972 1.16-1.26.07-.077.106-.166.106-.268 0-.1-.04-.198-.117-.29-.562-.685-.98-1.22-1.253-1.61.156-.287.308-.64.457-1.06l2.168-.327c.094-.016.172-.066.234-.152.063-.085.094-.174.094-.268V7.682c0-.1-.03-.192-.094-.274z" fill-rule="evenodd"/></symbol><symbol viewBox="0 0 16 18" id="icon-open-envelope"><title>Shape 3</title><path d="M14.652 18H1.348C.603 18 0 17.403 0 16.668V8.613l6.713 5.236c.717.56 1.88.56 2.6 0L16 8.632v8.035c0 .735-.603 1.332-1.348 1.332zm-9.787-4.327c-.188-.22-.52-.247-.743-.06l-2.657 2.22c-.222.186-.25.515-.062.734.188.22.52.247.743.062l2.657-2.222c.222-.186.25-.515.062-.735zm9.56 2.16l-2.658-2.22c-.222-.187-.554-.16-.742.06-.188.22-.16.55.062.735l2.657 2.22c.222.186.555.16.743-.06.188-.22.16-.55-.063-.735zM5.586 7.29h4.85c.204 0 .37.164.37.365 0 .2-.166.363-.37.363h-4.85c-.203 0-.368-.163-.368-.363 0-.2.163-.364.367-.364zm0 3.393h4.85c.204 0 .37.163.37.364 0 .2-.166.363-.37.363h-4.85c-.203 0-.368-.163-.368-.363 0-.2.163-.364.367-.364zm0-1.696h4.85c.204 0 .37.163.37.364 0 .2-.166.364-.37.364h-4.85c-.203 0-.368-.163-.368-.363 0-.2.163-.363.367-.363zm9.938-1.178l-2.98 2.325V6.976c0-.468-.384-.848-.857-.848h-7.35c-.475 0-.86.38-.86.848v3.126l.002.04L.49 7.808c-.544-.426-.544-1.115 0-1.54l6.53-5.094c.546-.425 1.43-.425 1.976 0l6.53 5.093c.545.425.545 1.114 0 1.54z" fill-rule="evenodd"/></symbol><symbol viewBox="0 0 19 18" id="icon-plugin"><title>Fill 1 + Fill 3</title><g fill-rule="evenodd"><path d="M10.26 9.795l-1.296 1.29L7.382 9.51l1.295-1.29c.287-.287.287-.753 0-1.04-.287-.285-.754-.285-1.04 0L6.34 8.47l-.65-.648c-.172-.172-.452-.172-.624 0l-.94.937c-.172.17-.172.45 0 .62l.14.14-2.123 2.118c-.1.1-.145.238-.124.376l.326 2.204L.63 15.93c-.173.172-.173.45 0 .623L1.9 17.82c.172.17.45.17.624 0l1.716-1.713 2.21.326c.14.02.28-.025.378-.124L8.95 14.19l.14.14c.174.172.454.172.626 0l.94-.937c.172-.172.172-.45 0-.622l-.65-.65 1.294-1.29c.287-.287.287-.752 0-1.038-.287-.287-.754-.287-1.04 0zM18.358 1.408L17.088.142c-.172-.172-.452-.172-.624 0l-1.717 1.71-2.21-.325c-.14-.02-.28.025-.378.124L10.035 3.77l-.14-.14c-.172-.172-.452-.172-.625 0l-.938.937c-.173.172-.173.45 0 .623l4.965 4.95c.173.173.452.173.625 0l.94-.936c.172-.172.172-.45 0-.623l-.14-.14 2.122-2.118c.1-.098.145-.238.125-.376l-.33-2.204L18.36 2.03c.173-.17.173-.45 0-.622z"/></g></symbol><symbol viewBox="0 0 190 190" id="icon-rocket"><title>Shape</title><path d="M152.768 48.358c-3.103 0-5.74-1.084-7.912-3.255-2.172-2.168-3.258-4.805-3.258-7.905 0-3.1 1.086-5.734 3.258-7.905 2.172-2.168 4.81-3.255 7.912-3.255 3.103 0 5.74 1.087 7.912 3.255 2.17 2.17 3.258 4.807 3.258 7.905 0 3.1-1.088 5.737-3.258 7.905-2.173 2.17-4.81 3.255-7.912 3.255zm36.07-47.254C188.06.367 187.13 0 186.044 0c-20.246 0-36.963 2.75-50.148 8.253-13.188 5.505-27.07 15.5-41.654 29.992-6.207 6.277-13.03 13.834-20.48 22.67L29.67 63.24c-1.242.156-2.25.774-3.026 1.86L.578 109.74c-.93 1.55-.738 3.06.582 4.532l7.446 7.44c.698.696 1.59 1.045 2.676 1.045.465 0 .814-.037 1.046-.116l32.114-9.88 32.695 32.665-9.89 32.086c-.39 1.397-.08 2.636.93 3.722l7.447 7.44c.853.696 1.745 1.046 2.676 1.046.698 0 1.318-.157 1.862-.465l44.68-26.04c1.085-.774 1.705-1.782 1.86-3.023l2.327-44.06c8.843-7.438 16.405-14.258 22.687-20.46 13.808-13.87 23.638-27.84 29.496-41.907C187.07 39.698 190 23.016 190 3.717c0-1.005-.39-1.878-1.163-2.613z" fill-rule="evenodd"/></symbol><symbol viewBox="0 0 96 116" id="icon-socialbro"><title>logo</title><g fill-rule="evenodd"><path d="M47.985 95.26c-2.904 0-5.683-.763-7.795-2.104L11.983 75 2.56 81.047c-3.413 2.202-3.413 5.8 0 7.966l39.234 25.222c1.707 1.107 3.952 1.655 6.19 1.655 2.243 0 4.498-.548 6.202-1.655L93.42 89.013c3.413-2.166 3.413-5.764 0-7.966L83.996 75l-28.2 18.156c-2.124 1.34-4.898 2.105-7.812 2.105"/><path d="M93.42 54.06L83.996 48 68.382 58.048l-1.358.87-1.38.888-9.847 6.334c-2.124 1.363-4.898 2.117-7.812 2.117-2.904 0-5.683-.754-7.795-2.117l-9.868-6.334-1.366-.887-1.353-.872L11.983 48 2.56 54.06c-3.413 2.193-3.413 5.767 0 7.965l9.423 6.06 1.35.883 1.38.86 27.08 17.426c1.708 1.076 3.953 1.652 6.192 1.652 2.242 0 4.497-.576 6.2-1.652L81.26 69.83l1.38-.862 1.357-.884 9.422-6.06c3.413-2.197 3.413-5.77 0-7.964"/><path d="M93.42 26.86L54.185 1.65C52.482.554 50.226 0 47.986 0S43.5.554 41.793 1.648L2.56 26.86c-3.413 2.19-3.413 5.79 0 7.987l9.423 6.05 1.35.878 1.38.873 15.61 10.037 1.35.887 1.383.876 8.738 5.616c1.707 1.085 3.952 1.64 6.19 1.64 2.243 0 4.498-.555 6.202-1.64l8.733-5.616 1.376-.876 1.347-.887L81.26 42.648l1.38-.873 1.357-.877 9.422-6.05c3.413-2.2 3.413-5.797 0-7.987"/></g></symbol><symbol viewBox="0 0 18 18" id="icon-tools"><title>Fill 1</title><path d="M16.92 14.94l-5.815-5.683c-.054-.054-.112-.1-.173-.146l1.03-1.058c.053-.052.103-.107.15-.162 1.366.504 2.97.22 4.07-.853.8-.784 1.205-1.867 1.107-2.974-.01-.125-.097-.233-.217-.276-.12-.043-.257-.013-.348.076l-1.863 1.82-1.887-.465-.534-1.902 1.864-1.82c.09-.09.12-.222.077-.34-.043-.12-.154-.2-.282-.212-1.13-.095-2.24.3-3.042 1.083-1.097 1.073-1.39 2.64-.874 3.976-.055.047-.112.096-.166.15L8.5 7.572l-2.783-2.72c-.035-.033-.072-.063-.11-.09.033-.058.065-.115.094-.174.59.11 1.663-1.01 2.576-1.9L5.618.09C4.428 1.25 3.56 2.032 3.673 2.607c-.272.13-.514.288-.686.456l-.375.366c-.243.237-.39.533-.442.842-.036.04-.073.083-.11.128l-.14.172-.02.025-.125.173c-.08.104-.148.215-.216.324l-.076.12c-.005.007-.008.014-.01.022l-.058.102c-.068.125-.138.254-.2.396l-.01.023c-.07.164-.144.335-.195.517l-.024.078c-.02.065-.04.13-.06.206l-.052.25c-.037.157-.05.31-.062.447l-.008.09c-.018.142-.013.276-.008.394l.005.13c.002.02.002.042.003.063 0 .052.002.113.012.176l.033.2.018.115c.014.083.026.168.05.248l.137.462c.043.14.18.233.327.223.08-.005.15-.04.202-.09.048-.046.08-.107.09-.176l.07-.47c.006-.037.023-.09.04-.148.012-.04.024-.08.033-.116l.05-.175c.006-.024.017-.046.028-.07l.03-.067c.016-.037.03-.075.047-.113.03-.074.06-.145.105-.214.02-.033.037-.065.055-.097.047-.08.09-.158.143-.222.004-.002.007-.006.01-.01l.118-.16c.026-.03.054-.06.08-.087.02-.02.038-.04.06-.068.07-.082.152-.153.232-.223l.042-.038c.06-.053.126-.103.198-.156l.087-.063.104-.07c.064-.04.12-.078.183-.11l.14-.078.143-.07c.05-.023.098-.043.144-.06l.077-.033.072-.025c.03-.012.058-.022.093-.032l.038-.007c.042.066.09.13.15.187l2.753 2.69-5.877 5.518-.008.006c-.732.716-.85 1.762-.12 2.477.732.715 1.735.533 2.466-.182l.01-.01L8.65 11.46c.03.034.06.07.094.102l5.814 5.684c.65.636 1.708.636 2.36 0 .65-.637.65-1.67 0-2.306zM2.7 16.215c-.27.264-.707.264-.976 0-.27-.263-.27-.69 0-.953s.706-.263.975 0c.268.263.268.69 0 .953z" fill-rule="evenodd"/></symbol><symbol viewBox="0 0 13 16" id="icon-trash"><title>Shape</title><path d="M8.357 2V1c0-.552-.415-1-.928-1H5.57c-.512 0-.927.448-.927 1v1H0v1h13V2H8.357zM7.43 2H5.57V1h1.86v1zM.93 14c0 1.105.83 2 1.856 2h7.428c1.026 0 1.858-.895 1.858-2V4H.93v10zm7.427-8h1.857v8H8.357V6zM5.57 6h1.86v8H5.57V6zM2.787 6h1.857v8H2.786V6z" fill-rule="evenodd"/></symbol><symbol viewBox="0 0 8 5" id="icon-triangle-down"><title>Triangle 2</title><path d="M.225.3h7l-3.5 4-3.5-4z" fill-rule="evenodd"/></symbol><symbol viewBox="0 0 190 188" id="icon-tweet-editor"><title>Shape</title><path d="M158.062 151.262h-.856l5.173 36.238-56.903-36.238h-35.38l28.105-17.896h41.68c17.638 0 31.937-14.31 31.937-31.96V78.647l.075.138v-45.16C182.605 38.783 190 49.737 190 62.427v56.874c0 17.65-14.298 31.96-31.938 31.96zm-33.083-30.47h-38.5l-52.117 36.51 5.212-36.51h-7.64C14.3 120.793 0 106.485 0 88.833V31.96C0 14.31 14.298 0 31.936 0h93.042c17.64 0 31.937 14.31 31.937 31.96v56.873c0 17.65-14.3 31.96-31.936 31.96zm-89.34-73.63c-7.453 0-13.495 6.045-13.495 13.504 0 7.458 6.042 13.506 13.495 13.506 7.454 0 13.495-6.047 13.495-13.506 0-7.458-6.04-13.505-13.495-13.505zm43.86 0c-7.454 0-13.496 6.045-13.496 13.504 0 7.458 6.042 13.506 13.495 13.506 7.452 0 13.494-6.047 13.494-13.506 0-7.458-6.042-13.505-13.495-13.505zm42.58 0c-7.452 0-13.493 6.045-13.493 13.504 0 7.458 6.04 13.506 13.494 13.506 7.453 0 13.496-6.047 13.496-13.506 0-7.458-6.043-13.505-13.495-13.505z" fill-rule="evenodd"/></symbol><symbol viewBox="0 0 274 223" id="icon-twitter"><title>Fill 1</title><path d="M85.98 223c-31.675 0-61.158-9.285-85.98-25.2 4.388.52 8.853.784 13.38.784 26.278 0 50.463-8.967 69.66-24.01-24.545-.453-45.26-16.67-52.396-38.953 3.424.656 6.938 1.007 10.552 1.007 5.116 0 10.07-.685 14.778-1.967-25.66-5.152-44.993-27.822-44.993-54.998 0-.236 0-.47.005-.705 7.563 4.2 16.21 6.724 25.406 7.015C21.34 75.914 11.44 58.746 11.44 39.287c0-10.28 2.766-19.914 7.594-28.198 27.664 33.933 68.993 56.263 115.61 58.602-.957-4.105-1.454-8.386-1.454-12.782 0-30.975 25.114-56.088 56.09-56.088 16.133 0 30.71 6.812 40.942 17.713 12.776-2.516 24.78-7.184 35.617-13.61-4.188 13.096-13.08 24.088-24.662 31.03 11.346-1.356 22.156-4.37 32.215-8.832-7.52 11.248-17.03 21.127-27.988 29.035.108 2.405.162 4.824.162 7.256C245.564 137.534 189.148 223 85.98 223" fill-rule="evenodd"/></symbol><symbol viewBox="0 0 14 18" id="icon-user"><title>Shape</title><path d="M7 8c2.2 0 4-1.8 4-4S9.2 0 7 0 3 1.8 3 4s1.8 4 4 4zm0 1c-2.363 0-7 1.896-7 5.833v2.917h14v-2.917C14 10.896 9.363 9 7 9z" fill-rule="evenodd"/></symbol></svg>