<svg xmlns="http://www.w3.org/2000/svg"><symbol viewBox="0 0 19 17" id="icon-account"><title>Rectangle 88 + Rectangle 91</title><g fill-rule="evenodd"><path d="M0 7.278c0-1.106.89-2.002 1.997-2.002h15.006c1.103 0 1.997.9 1.997 2.002v7.72C19 16.104 18.11 17 17.003 17H1.997C.894 17 0 16.1 0 14.998v-7.72zm13.063-2.002h1.78V17h-1.78V5.276zm-8.907 0h1.782V17H4.155V5.276zm4.81 4.69h1.187v1.163c0 .328-.275.594-.594.594-.33 0-.594-.275-.594-.595V9.965z"/><path d="M9.203 2.052h.594c.82 0 1.484.655 1.484 1.463v2.347H7.72V3.515c0-.806.666-1.463 1.483-1.463zM5.938 8.21c0 1.78 7.125.687 7.125 0V3.514c0-1.78-1.463-3.222-3.266-3.222h-.594c-1.8 0-3.265 1.444-3.265 3.222V8.21z"/></g></symbol><symbol viewBox="0 0 12 6" id="icon-ads"><title>ADS</title><path d="M-.01 5L1.64.705h.613L4.01 5h-.647l-.5-1.3H1.065L.596 5H-.01zm1.24-1.764h1.457l-.45-1.19c-.135-.36-.237-.657-.303-.89-.055.276-.132.55-.232.82l-.472 1.26zM4.465 5V.705h1.48c.333 0 .588.02.764.062.245.056.455.16.63.307.225.192.395.436.507.734.112.298.17.638.17 1.02 0 .327-.04.616-.116.868-.075.252-.172.46-.292.626-.12.165-.25.295-.39.39-.142.094-.313.166-.513.215-.2.05-.43.073-.69.073h-1.55zm.568-.507h.917c.283 0 .506-.026.667-.08.16-.052.29-.126.385-.222.135-.133.24-.315.315-.542.075-.228.113-.503.113-.828 0-.45-.074-.794-.222-1.035-.147-.242-.326-.403-.537-.485-.15-.06-.397-.088-.734-.088h-.903v3.28zm3.57-.873l.538-.047c.026.215.085.39.178.53.093.137.237.248.432.333.195.085.415.127.66.127.216 0 .407-.032.573-.096.166-.065.29-.153.37-.265.082-.113.123-.235.123-.368 0-.135-.04-.252-.118-.353-.078-.1-.207-.184-.386-.252-.116-.045-.37-.115-.765-.21-.395-.095-.67-.184-.83-.268-.204-.107-.357-.24-.458-.4-.1-.16-.15-.337-.15-.535 0-.216.06-.42.183-.607.123-.19.303-.332.54-.43.236-.097.498-.146.787-.146.32 0 .6.05.843.154.243.102.43.253.56.452.13.2.202.425.212.677l-.545.04c-.03-.27-.13-.476-.298-.614-.17-.138-.418-.207-.748-.207-.344 0-.595.063-.752.19-.157.125-.236.277-.236.454 0 .155.056.282.167.38.11.1.395.203.857.307.462.105.78.196.95.274.25.116.436.262.555.438.12.177.178.38.178.61 0 .23-.065.445-.196.647-.13.202-.32.36-.564.472-.245.112-.52.168-.827.168-.39 0-.715-.056-.978-.17-.262-.113-.468-.283-.618-.51-.15-.228-.228-.486-.236-.773z" fill-rule="evenodd"/></symbol><symbol viewBox="0 0 165.338 195" id="icon-attach"><title>attach</title><path d="M58.743 195c-8.373 0-16.806-2.748-23.836-8.404l-14.703-11.848c-7.966-6.406-12.968-15.535-14.092-25.725-1.105-10.062 1.868-20.322 8.16-28.213l48.623-60.96c4.782-6.008 11.606-9.767 19.21-10.612 7.663-.817 15.083 1.36 21.05 6.16l3.896 3.125c5.985 4.825 9.74 11.68 10.563 19.324.852 7.612-1.323 15.135-6.104 21.13L76.416 142.96c-3.663 4.567-10.308 5.3-14.85 1.647-4.554-3.672-5.29-10.346-1.647-14.914l35.093-43.99c1.252-1.574 1.83-3.54 1.603-5.54-.22-2.023-1.203-3.82-2.775-5.076l-3.893-3.127c-3.24-2.624-7.987-2.096-10.576 1.17l-48.626 60.963c-2.812 3.52-4.145 8.105-3.65 12.595.5 4.562 2.73 8.646 6.293 11.508l14.7 11.847c7.336 5.896 18.11 4.724 23.998-2.676l68.39-85.75c5.89-7.386 4.71-18.2-2.65-24.106L97.427 25.006c-3.57-2.874-8.04-4.212-12.546-3.673-4.535.497-8.6 2.74-11.448 6.322L18.81 96.168c-3.66 4.58-10.305 5.312-14.848 1.654-4.553-3.668-5.29-10.348-1.647-14.92L56.955 14.4C63.333 6.394 72.425 1.368 82.567.24c10.187-1.135 20.11 1.795 28.08 8.206l40.39 32.504c16.438 13.215 19.096 37.41 5.936 53.925L88.59 180.633C81.053 190.08 69.946 195 58.743 195z"/></symbol><symbol viewBox="0 0 34 32" id="icon-audience"><title>audience</title><path d="M4.537 14.06l2.286 8.53c.25.93 1.254 1.657 2.235 1.587l16.07-1.156c.98-.07 1.567-.902 1.31-1.86L22.24 5.49c-.257-.958-1.18-1.384-2.066-.955L5.68 11.568c-.887.43-1.397 1.544-1.144 2.49zm1.39.755c-.263-.667-.04-1.41.503-1.66l13.126-6.032.957 2.416-14.106 6.483-.478-1.208z"/><path d="M1.036 17.578c-.256-.955.258-2.08 1.136-2.506l2.333-1.132 1.8 2.88c.522.835 1.594 1.964 2.404 2.53l.618.432c.806.563.664 1.114-.305 1.23l-5.086.605c-.974.116-1.973-.572-2.227-1.52l-.675-2.52z"/><path d="M11.7 21.25c.58.25.924.998.77 1.655l-1.69 7.25c-.156.664-.75 1.002-1.335.75l-3.16-1.358c-.582-.25-.925-1-.772-1.656l1.692-7.248c.155-.665.748-1.003 1.334-.75l3.16 1.357zM25.208 13.312c2.824 10.56 2.016 10.776 2.016 10.776-.573.153-3.253.3-3.428-.355l-5.13-19.15c-.177-.656 2.214-1.867 2.79-2.02 0 0 .93.19 3.753 10.75zM27.224.83c.548.234.808.864.574 1.42l-1.336 3.17c-.232.55-.86.807-1.412.57-.548-.235-.808-.865-.574-1.42l1.336-3.17c.232-.55.86-.808 1.412-.57zm6.21 9.294c.166.575-.158 1.173-.735 1.34l-3.297.944c-.57.164-1.167-.166-1.333-.745-.165-.575.16-1.173.736-1.34l3.296-.944c.57-.165 1.167.165 1.333.744zm-.447 11.254c-.35.484-1.018.594-1.504.24l-2.778-2.03c-.48-.353-.59-1.027-.24-1.514.35-.484 1.02-.594 1.505-.24l2.778 2.03c.48.353.59 1.027.24 1.514z"/></symbol><symbol viewBox="0 0 20 21" id="icon-bell"><title>Path + Shape-2</title><g fill-rule="evenodd"><path d="M10 20.048c1.165 0 2.118-.772 2.118-1.715H7.882c0 .943.953 1.715 2.118 1.715z"/><path d="M16.882 15.423V9.738c0-3.204-2.223-5.788-5.294-6.512v-.723c0-.827-.74-1.55-1.588-1.55-.847 0-1.588.723-1.588 1.55v.723c-3.07.724-5.294 3.308-5.294 6.512v5.685L1 17.49v1.034h18V17.49l-2.118-2.067z"/></g></symbol><symbol viewBox="0 0 18 15" id="icon-bubble-check"><title>discover 2</title><path d="M10.944 12h1.062C15.306 12 18 9.314 18 6c0-3.307-2.683-6-5.994-6H5.994C2.694 0 0 2.686 0 6c0 3.307 2.683 6 5.994 6H7.08c-.18 1.263-.716 2.545-2.08 3 0 0 3.99-.57 5.944-3zM7.89 7.047L5.97 5.75 5 7.203 7.62 8.95l.726.484.484-.726 3.493-5.24L10.87 2.5 7.89 7.047z" fill-rule="evenodd"/></symbol><symbol viewBox="0 0 18 16" id="icon-bubble-rt"><title>discover</title><g fill-rule="evenodd"><path d="M0 6.75c0-3.314 2.695-6 5.994-6h6.012c3.31 0 5.994 2.693 5.994 6 0 3.314-2.695 6-5.994 6H5.994c-3.31 0-5.994-2.693-5.994-6zm10.63 2.724l-.833-1c-.03-.038-.075-.057-.13-.057h-3v-2h1c.09 0 .168-.033.234-.1.067-.065.1-.143.1-.234C8 6 7.974 5.93 7.922 5.87l-1.667-2c-.066-.077-.15-.115-.255-.115-.104 0-.19.038-.255.115l-1.667 2C4.026 5.93 4 6 4 6.083c0 .09.033.17.1.235.065.066.143.1.233.1h1V9.54l.006.06c.002.03.007.05.014.06l.03.04c.01.02.027.03.046.038.02.007.042.01.07.01h5c.045 0 .084-.016.117-.05.033-.032.05-.07.05-.117 0-.034-.012-.07-.037-.11zm3.27-2.292c-.065-.066-.143-.1-.233-.1h-1V3.96l-.006-.06c-.002-.03-.007-.05-.014-.06l-.03-.04c-.01-.018-.027-.03-.046-.038-.02-.006-.042-.01-.07-.01h-5c-.045 0-.084.016-.117.05-.033.033-.05.072-.05.117 0 .038.012.073.037.104l.833 1c.03.043.075.063.13.063h3v2h-1c-.09 0-.168.033-.234.1-.067.065-.1.143-.1.234 0 .083.026.154.078.213l1.667 2c.07.08.154.12.255.12.1 0 .186-.04.255-.12l1.667-2c.052-.06.078-.13.078-.213 0-.09-.033-.17-.1-.235z"/><path d="M7 9.75s1 5-2 6c0 0 7-1 7-6H7z"/></g></symbol><symbol viewBox="0 0 19 14" id="icon-camera"><title>camera</title><path d="M4.868 2h1v-.406c0-.88.83-1.594 1.15-1.594h5.7c.32 0 1.15.714 1.15 1.594V2h3.484c.837 0 1.516.714 1.516 1.594v8.812c0 .88-.68 1.594-1.516 1.594H2.384c-.837 0-1.516-.714-1.516-1.594V3.594c0-.69.42-1.28 1.004-1.5C1.87 2.06 1.868 2.03 1.868 2c0-.552.443-1 1-1h1c.553 0 1 .444 1 1zm5 11c2.76 0 5-2.24 5-5s-2.24-5-5-5-5 2.24-5 5 2.24 5 5 5zm0-1c2.21 0 4-1.79 4-4s-1.79-4-4-4-4 1.79-4 4 1.79 4 4 4z" fill-rule="evenodd"/></symbol><symbol viewBox="0 0 32 32" id="icon-check-radius"><title>check-radius</title><path d="M16 0C7.164 0 0 7.164 0 16s7.164 16 16 16 16-7.164 16-16S24.836 0 16 0zm-2.48 23.383L6.158 16.02l2.828-2.828 4.533 4.535 9.616-9.617 2.828 2.828L13.52 23.383z"/></symbol><symbol viewBox="0 0 28 28" id="icon-check"><title>check</title><path d="M26.11 8.844q0 .625-.44 1.062L12.234 23.344q-.438.438-1.062.438t-1.06-.438l-7.782-7.78q-.438-.44-.438-1.063t.438-1.06l2.125-2.126q.438-.438 1.062-.438t1.062.438l4.594 4.61L21.42 5.656q.44-.438 1.063-.438t1.062.437l2.125 2.125q.438.437.438 1.062z"/></symbol><symbol viewBox="0 0 19 19" id="icon-chronometer"><title>chronometer</title><g fill-rule="evenodd"><path d="M8.714 4.286c-3.313 0-6 2.686-6 6 0 3.313 2.687 6 6 6 3.314 0 6-2.687 6-6h-6v-6M14.12 5.252c-.334-.352-.337-.92.006-1.28l1.2-1.26c.34-.354.882-.36 1.22-.006.333.352.336.92-.007 1.28l-1.202 1.26c-.338.355-.88.36-1.218.006"/><path d="M8.714 19c4.813 0 8.715-3.902 8.715-8.714 0-4.813-3.903-8.715-8.716-8.715C3.902 1.57 0 5.474 0 10.287 0 15.098 3.902 19 8.714 19m0-2C5.006 17 2 13.994 2 10.286 2 6.578 5.006 3.57 8.714 3.57c3.708 0 6.715 3.008 6.715 6.716S12.42 17 8.713 17M14.41 1.06c.333-.352.878-.35 1.205-.007L18.05 3.61c.332.35.332.913-.005 1.267-.335.352-.88.35-1.206.006l-2.437-2.557c-.332-.348-.33-.913.006-1.267"/></g></symbol><symbol viewBox="0 0 18 18" id="icon-circle-check"><title>un block</title><path d="M18 9c0-4.97-4.03-9-9-9S0 4.03 0 9s4.03 9 9 9 9-4.03 9-9zM2.57 9c0-3.55 2.88-6.43 6.43-6.43S15.43 5.45 15.43 9 12.55 15.43 9 15.43 2.57 12.55 2.57 9z"/><path d="M7.6 10.86L5.124 9.19l-1.248 1.87 3.375 2.25.937.626L8.81 13l4.5-6.75L11.44 5 7.6 10.86z"/></symbol><symbol viewBox="0 0 16 16" id="icon-circle-line"><title>block</title><g id="circle-line-Page-1" fill-rule="evenodd"><g id="circle-line-block"><path d="M3.2 12.938L10.628.928l1.98 1.068-7.43 12.008L3.2 12.938z"/><path d="M16 8c0-4.418-3.582-8-8-8S0 3.582 0 8s3.582 8 8 8 8-3.582 8-8zM2.286 8c0-3.156 2.558-5.714 5.714-5.714 3.156 0 5.714 2.558 5.714 5.714 0 3.156-2.558 5.714-5.714 5.714-3.156 0-5.714-2.558-5.714-5.714z"/></g></g></symbol><symbol viewBox="0 0 32 32" id="icon-close"><title>close</title><path d="M16.256 13.675l.014-.014.002.003 5.267-5.267 2.214 2.215-5.28 5.28 5.28 5.28-2.217 2.218-5.28-5.28-5.28 5.28L8.76 21.17l5.28-5.28-5.278-5.282 2.215-2.215 5.28 5.28zM5.164 26.985c5.88 5.88 15.416 5.88 21.296 0s5.88-15.417 0-21.297c-5.88-5.88-15.416-5.88-21.296 0s-5.88 15.416 0 21.296z"/></symbol><symbol viewBox="0 0 18 19" id="icon-comparison"><title>comparison</title><path d="M17.35 16.33c-1.98 0-3.338-.48-4.035-1.43-.844-1.15-.44-2.676-.437-2.69.048-.17.016-.357-.09-.5-.104-.145-.268-.23-.442-.23h-1.548l1.29-2.78c.033-.073.05-.153.053-.233.045-1.835.565-3.23 1.547-4.147 1.487-1.388 3.582-1.247 3.62-1.244.302.025.57-.21.596-.524.024-.314-.203-.59-.508-.615-.085-.008-1.756-.132-3.375.76C12.496 1.452 10.606.77 8.654.77c-2.08 0-4.092.78-5.67 2.193C1.09 4.665 0 7.12 0 9.7c0 2.653 1.134 5.15 3.11 6.855 1.553 1.337 3.522 2.074 5.544 2.074 1.897 0 3.746-.648 5.248-1.83.898.447 2.05.674 3.45.674.305 0 .553-.256.553-.57 0-.317-.248-.573-.554-.573zM1.11 9.7c0-2.098.826-4.102 2.28-5.566 1.13.91 1.73 2.36 1.778 4.333.002.08.02.16.054.232l1.29 2.78H4.96c-.173 0-.337.085-.442.228-.104.144-.137.33-.09.502.007.022.538 2-.92 3.184-1.53-1.472-2.4-3.524-2.4-5.693zm7.546 7.786c-1.524 0-3.013-.48-4.263-1.363 1.117-1.036 1.324-2.47 1.232-3.5h1.766c.19 0 .367-.1.47-.266.1-.166.112-.375.03-.552L6.27 8.315c-.075-2.173-.75-3.83-2.01-4.935 1.278-.95 2.815-1.465 4.394-1.465 1.586 0 3.124.516 4.4 1.462-.032.03-.067.056-.1.086-1.2 1.114-1.844 2.746-1.916 4.852l-1.618 3.49c-.082.177-.07.385.03.55.102.167.28.268.47.268h1.77c-.066.743-.015 1.926.734 2.956.144.197.31.378.49.545-1.25.88-2.736 1.36-4.26 1.36zm6.242-10.598c.696 0 1.26.582 1.26 1.3 0 .72-.564 1.3-1.26 1.3-.696 0-1.26-.582-1.26-1.3 0-.718.564-1.3 1.26-1.3zm-11.68 2.6c-.695 0-1.26-.582-1.26-1.3 0-.718.565-1.3 1.26-1.3.697 0 1.262.582 1.262 1.3 0 .72-.565 1.3-1.26 1.3z" fill-rule="evenodd"/></symbol><symbol viewBox="0 0 18 13" id="icon-credit-card"><title>Fill 1</title><path d="M15.837 0H2.15C.965 0 0 1.038 0 2.314v8.32c0 1.275.965 2.313 2.15 2.313h13.687c1.186 0 2.15-1.038 2.15-2.313v-8.32c0-1.276-.964-2.314-2.15-2.314zm.96 10.634c0 .57-.43 1.033-.96 1.033H2.15c-.53 0-.96-.463-.96-1.033V5.058h15.607v5.576zm0-7.402H1.19v-.918c0-.57.43-1.034.96-1.034h13.687c.53 0 .96.464.96 1.034v.918z" fill-rule="evenodd"/></symbol><symbol viewBox="0 0 159.334 194.999" id="icon-document"><title>document</title><path d="M148.603 22.073h-5.692v140.08c0 9.306-7.56 16.88-16.852 16.88H22.523v5.193c0 5.946 4.817 10.772 10.755 10.772H148.58c5.94 0 10.754-4.826 10.754-10.772V32.846c0-5.947-4.796-10.773-10.73-10.773zm-11.813 140.08V10.77c0-5.946-4.818-10.77-10.754-10.77h-76.82v3.563c.04.366.06.752.06 1.14V34.21c0 8.37-6.79 15.17-15.144 15.17H4.675c-.305 0-.63-.02-.935-.04H0V162.15c0 5.945 4.817 10.77 10.754 10.77h115.282c5.936.003 10.754-4.822 10.754-10.77zm-66.23-25.84H32.974c-2.805 0-5.083-2.282-5.083-5.093s2.278-5.09 5.083-5.09H70.58c2.804 0 5.082 2.28 5.082 5.09s-2.297 5.092-5.1 5.092zm37.608-25.985H32.973c-2.805 0-5.083-2.28-5.083-5.092s2.278-5.09 5.083-5.09h75.195c2.806 0 5.082 2.28 5.082 5.09s-2.276 5.092-5.082 5.092zm0-27.592H32.973c-2.805 0-5.083-2.28-5.083-5.09s2.278-5.092 5.083-5.092h75.195c2.806 0 5.082 2.282 5.082 5.09 0 2.81-2.276 5.092-5.082 5.092zM4.675 43.27h29.537c4.92-.04 8.904-4.03 8.945-8.958V4.702c0-2.728-2.236-4.54-4.555-4.54-1.117 0-2.234.408-3.17 1.344L1.462 35.534c-2.846 2.85-.833 7.737 3.213 7.737z"/></symbol><symbol viewBox="0 0 30 32" id="icon-edit"><title>edit</title><path d="M3.19 21.826L22.512 2.504c1.383-1.383 3.63-1.378 5.016.01l1.522 1.52c1.388 1.39 1.385 3.64.01 5.017L9.736 28.374 3.19 21.825zM1.667 24.27c.286-.94 1.09-1.13 1.767-.453l4.487 4.487c.69.69.495 1.478-.453 1.767l-5.05 1.538c-1.815.553-2.836-.48-2.286-2.287l1.538-5.048z"/></symbol><symbol viewBox="0 0 190 140.047" id="icon-envelope"><title>envelope</title><path d="M173.998 140.047H16.003C7.163 140.047 0 132.907 0 124.1V15.948C0 7.14 7.164 0 16.003 0h157.995C182.835 0 190 7.14 190 15.947V124.1c0 8.807-7.165 15.947-16.002 15.947zM19.57 119.997c2.232 2.632 6.18 2.96 8.817.737l31.554-26.58c2.64-2.224 2.97-6.156.74-8.785-2.232-2.63-6.178-2.96-8.816-.74L20.31 111.214c-2.638 2.223-2.97 6.156-.74 8.785zM165.9 20.134c-2.39-2.598-6.438-2.778-9.045-.4l-62.58 57.06-62.582-57.06c-2.607-2.377-6.656-2.198-9.043.4-2.386 2.6-2.206 6.635.402 9.013L89.81 90.018c1.225 1.116 2.767 1.66 4.306 1.665.052.002.104 0 .155 0 .053 0 .103.002.155 0 1.54-.004 3.08-.55 4.306-1.665l66.763-60.872c2.607-2.377 2.787-6.412.4-9.013zm2.483 91.08L136.828 84.63c-2.64-2.222-6.586-1.892-8.815.737-2.23 2.63-1.9 6.562.737 8.785l31.553 26.58c2.64 2.225 6.586 1.895 8.815-.734 2.232-2.63 1.902-6.562-.737-8.785z"/></symbol><symbol viewBox="0 0 32 32" id="icon-fav"><title>fav</title><path d="M32 12.408L20.944 10.8 16 .784 11.056 10.8 0 12.41l8 7.798-1.89 11.01L16 26.02l9.89 5.2L24 20.205l8-7.798z"/></symbol><symbol viewBox="0 0 130.285 195" id="icon-geopoint"><title>geopoint</title><path d="M65.142 195S0 100.896 0 65C0 29.103 29.165 0 65.142 0c35.98 0 65.143 29.102 65.143 65 0 35.898-65.143 130-65.143 130zm0-175.5c-25.184 0-45.6 20.37-45.6 45.5s20.416 45.5 45.6 45.5 45.6-20.37 45.6-45.5-20.416-45.5-45.6-45.5zm0 78c-17.988 0-32.57-14.55-32.57-32.5s14.582-32.5 32.57-32.5c17.99 0 32.57 14.55 32.57 32.5s-14.58 32.5-32.57 32.5z"/></symbol><symbol viewBox="0 0 190 195.805" id="icon-gift"><title>gift</title><path d="M91.345 195.805v-70.477H8.52v63.206c0 4.017 3.245 7.27 7.247 7.27h75.578zM0 93.208c0 4.015 3.245 7.268 7.246 7.268H8.52v14.552h82.825v-45.46h-84.1c-4 0-7.245 3.254-7.245 7.27v16.37zm34.796-80.36c-23.72 40.08 29.22 49.022 55.872 51.008-.06.19-.122.372-.184.56 0 0 2.735.03 7.165-.153 4.43.184 7.163.154 7.163.154-.06-.19-.12-.372-.183-.56 26.653-1.987 79.593-10.928 55.87-51.01 0 0-31.76-44.348-62.853 31.75-31.088-76.097-62.85-31.75-62.85-31.75zm66.82 56.72v45.46h81.5v-14.57c3.832-.19 6.884-3.357 6.884-7.25V76.84c0-4.014-3.245-7.268-7.246-7.268h-81.138zm0 55.76v70.477h74.253c4.002 0 7.246-3.254 7.246-7.27V125.33h-81.5zM58.7 30.803s8.45-21.013 34.027 26.9l-.066.193c-2.983-.597-41.038-8.615-33.96-27.093zm77.898 0c7.367 19.228-34.152 27.13-34.152 27.13 25.676-48.216 34.152-27.13 34.152-27.13z"/></symbol><symbol viewBox="0 0 18 18" id="icon-goal-radius"><title>Oval 122 + Shape 3 + Shape 2</title><g fill-rule="evenodd"><path d="M9 18c4.97 0 9-4.03 9-9s-4.03-9-9-9-9 4.03-9 9 4.03 9 9 9zM4.847 5.042c-.057-.197-.285-.316-.51-.266-.224.05-.36.25-.303.447l2.74 9.473c.048.167.22.277.406.277.035 0 .07-.003.104-.01.224-.05.36-.25.303-.447l-2.74-9.474zM13.97 7.71c-.448-1.445-.895-2.89-1.34-4.334-.05-.157-.135-.324-.454-.34-2.51-.16-4.16 2.03-6.673 1.872-.198-.022-.325.07-.277.225.447 1.445.89 2.89 1.34 4.334.073.232.255.32.453.34 2.51.16 4.16-2.03 6.672-1.87.198.02.325-.07.277-.227zm-1.972-4.13l.37 1.196c-.53.015-.995.11-1.49.27-.122-.398-.246-.796-.37-1.195.495-.16.962-.255 1.49-.27zM6.822 8.05l-.42-1.36c.555-.013 1.048-.12 1.564-.297l-.37-1.196C8.1 5 8.576 4.763 9.05 4.52c.124.398.248.796.37 1.195-.475.244-.95.48-1.454.678l.42 1.358c-.516.18-1.01.285-1.564.3zm1.94.915L8.385 7.75c.5-.194.972-.43 1.445-.67l.376 1.212c-.473.243-.945.477-1.445.673zm1.08-1.89l-.42-1.36c.475-.244.95-.476 1.457-.668l.42 1.36c-.507.19-.983.423-1.46.667zm1.84.54l-.374-1.212c.49-.16.955-.253 1.48-.268l.375 1.213c-.525.015-.99.108-1.48.268z"/></g></symbol><symbol viewBox="0 0 18 18" id="icon-headphones"><title>Shape</title><path d="M17.863 10.228l-1.085 2.858c-.13.343-.516.526-.878.43-.123.136-.268.245-.432.32-.266.118-.556.133-.815.043l-.026-.01h-.002l-.05-.017c-.596-.208-.876-.913-.626-1.57l.554-1.46c-.14-.476-.25-1.212-.068-2.177.047-.245.11-.482.178-.733.22-.83.45-1.686.037-2.844-.29-.81-.65-1.818-2.286-2.702-2.204-1.192-4.98-.72-6.25-.003-1.655.933-2.142 2.07-2.285 2.664-.332 1.383-.086 2.532.195 3.59.225.844.114 1.602-.033 2.118l.586 1.544c.133.348.123.725-.027 1.033-.123.256-.336.447-.598.538l-.07.025h-.004c-.26.09-.552.076-.82-.043-.16-.073-.306-.182-.43-.318-.156.04-.32.032-.47-.027.2.55.742 1.54 2.164 2.237 1.14.56 2.522.556 3.36.483.185-.503.687-.86 1.257-.86.735 0 1.334.574 1.334 1.28 0 .705-.6 1.278-1.335 1.278-.46 0-.877-.224-1.12-.585-.975.092-2.635.097-4.128-.652-1.678-.84-2.364-2.184-2.62-2.878-.056-.026-.108-.06-.15-.11l-.385-.475c-.024-.03-.042-.062-.064-.113-.053-.144-.237-.644-.338-1.03-.104-.396 0-.79.28-1.102.032-.227.134-.437.3-.6l-.05-.134c-.13-.344.043-.72.386-.87.01-.483.28-.896.712-1.046 0 0 .072-.026.045-.015l.016-.007.018-.007c.3-.103.62-.06.9.09-.26-.893-.624-2.485-.112-4.023.007-.02.014-.038.012-.028.14-.495.74-2.2 2.66-3.332.04-.024 4.118-2.365 8.244.238 1.387.875 2.11 2.51 2.32 3.343-.002 0 .014.072.013.083.455 1.576.058 2.91-.22 3.806.306-.216.684-.296 1.034-.175l.075.026c.26.092.472.283.597.538.076.156.113.33.117.51.34.15.513.526.383.87z" fill-rule="evenodd"/></symbol><symbol viewBox="0 0 20 18" id="icon-heart"><title>Shape</title><path d="M9.986 18l-1.398-1.37C3.395 12.13 0 9.098 0 5.38 0 2.348 2.397 0 5.492 0 7.19 0 8.888.783 9.986 2.054 11.086.784 12.782 0 14.48 0c3.096 0 5.492 2.348 5.492 5.38 0 3.718-3.395 6.75-8.588 11.25L9.986 18z" fill-rule="evenodd"/></symbol><symbol viewBox="0 0 24 24" id="icon-info-radius"><title>info-radius</title><path d="M12.984 9V6.984h-1.97V9h1.97zm0 8.016v-6h-1.97v6h1.97zm-.984-15q4.125 0 7.055 2.93T21.985 12t-2.93 7.056T12 21.986t-7.055-2.93T2.015 12t2.93-7.054T12 2.016z"/></symbol><symbol viewBox="0 0 190 190" id="icon-instagram-radius"><title>instagram-radius</title><path d="M136.546 98.664c0 6.828-1.735 13.13-5.202 18.9-3.47 5.77-8.185 10.338-14.146 13.696-5.962 3.36-12.466 5.04-19.51 5.04-10.68 0-19.81-3.67-27.397-11.015s-11.38-16.22-11.38-26.623c0-3.685.543-7.236 1.627-10.65H49.075v52.676c0 1.41.474 2.59 1.422 3.537.948.948 2.126 1.424 3.536 1.424h86.902c1.354 0 2.52-.477 3.496-1.425.976-.947 1.464-2.127 1.464-3.537V88.014H134.92c1.084 3.414 1.626 6.965 1.626 10.65zm3.74-49.59H126.14c-1.574 0-2.9.557-3.983 1.668-1.085 1.11-1.626 2.426-1.626 3.943v13.413c0 1.572.542 2.9 1.627 3.983 1.083 1.086 2.41 1.626 3.983 1.626h14.145c1.57 0 2.898-.54 3.982-1.625 1.084-1.082 1.627-2.41 1.627-3.982V54.684c0-1.517-.543-2.832-1.627-3.943-1.08-1.11-2.412-1.665-3.982-1.665zM97.687 121.67c6.938 0 12.857-2.37 17.764-7.113 4.904-4.74 7.355-10.474 7.355-17.193 0-6.718-2.45-12.45-7.355-17.193-4.905-4.74-10.825-7.11-17.764-7.11-6.882 0-12.776 2.37-17.68 7.11-4.907 4.744-7.358 10.476-7.358 17.194 0 6.72 2.45 12.453 7.357 17.193 4.903 4.743 10.798 7.112 17.68 7.112zM95 0C42.533 0 0 42.533 0 95s42.533 95 95 95 95-42.533 95-95S147.467 0 95 0zm65.04 144.025c0 4.39-1.573 8.156-4.716 11.3-3.145 3.142-6.91 4.715-11.3 4.715H51.187c-4.39 0-8.157-1.573-11.3-4.715-3.144-3.144-4.715-6.91-4.715-11.3V51.188c0-4.39 1.57-8.155 4.715-11.3 3.143-3.142 6.91-4.714 11.3-4.714h92.835c4.39 0 8.156 1.572 11.3 4.714 3.144 3.145 4.717 6.91 4.717 11.3v92.837z"/></symbol><symbol viewBox="0 0 190 190" id="icon-instagram"><title>instagram</title><path d="M166.25 165.94c-1.484 1.443-3.26 2.165-5.318 2.165H28.697c-2.145 0-3.94-.722-5.38-2.166-1.444-1.44-2.166-3.235-2.166-5.382V80.404h17.443c-1.65 5.194-2.475 10.597-2.475 16.204 0 15.834 5.772 29.338 17.318 40.512 11.545 11.175 25.44 16.76 41.687 16.76 10.72 0 20.613-2.555 29.688-7.668 9.07-5.11 16.245-12.06 21.524-20.843 5.275-8.784 7.916-18.37 7.916-28.762 0-5.606-.825-11.01-2.475-16.204h16.7v80.155c.002 2.145-.74 3.94-2.225 5.38zm-71.126-34.326c-10.474 0-19.442-3.606-26.905-10.823-7.465-7.214-11.195-15.935-11.195-26.16s3.73-18.946 11.194-26.163c7.462-7.216 16.43-10.824 26.904-10.824 10.554 0 19.562 3.608 27.026 10.824 7.463 7.217 11.195 15.938 11.195 26.162 0 10.226-3.73 18.946-11.195 26.16-7.462 7.218-16.472 10.824-27.026 10.824zm70.88-75.455c-1.652 1.65-3.672 2.473-6.063 2.473H138.42c-2.395 0-4.414-.823-6.062-2.474-1.65-1.65-2.474-3.67-2.474-6.062v-20.41c0-2.308.823-4.308 2.474-6 1.647-1.688 3.668-2.536 6.062-2.536h21.523c2.392 0 4.41.847 6.063 2.536 1.647 1.69 2.474 3.69 2.474 6v20.41c0 2.392-.827 4.412-2.474 6.06zm16.82-48.986C178.043 2.394 172.312 0 165.633 0H24.368c-6.68 0-12.412 2.393-17.194 7.174C2.39 11.958 0 17.69 0 24.37V165.63c0 6.68 2.39 12.41 7.174 17.193 4.782 4.78 10.514 7.175 17.194 7.175h141.264c6.68 0 12.41-2.395 17.193-7.175 4.78-4.783 7.175-10.515 7.175-17.193V24.37c0-6.68-2.395-12.412-7.175-17.196z"/></symbol><symbol viewBox="0 0 32 32" id="icon-learn"><title>learn</title><path d="M16 32c8.837 0 16-7.163 16-16S24.837 0 16 0 0 7.163 0 16s7.163 16 16 16zm-6.307-9.636v.122c.026.653.576 1.176 1.248 1.176h11.12v-1.198c0-.24.198-.434.442-.434s.443.195.443.434v1.63c0 .24-.198.435-.443.435h-11.63c-.022 0-.044-.004-.066-.007-1.116-.07-2.004-.977-2.004-2.086 0-.025.003-.05.004-.075-.014-1.287 0-11.08 0-12.145 0-.016-.003-.03-.003-.046 0-1.152.96-2.09 2.138-2.09h.004v10.073c0 .116.04.222.103.275.064.054.14.044.198-.022l1.558-1.8 1.475 1.796c.034.04.074.06.114.06.03 0 .06-.01.086-.032.065-.053.106-.16.106-.277V8.08h7.918c.245 0 .443.195.443.434v12.253c0 .24-.198.434-.443.434h-.007c-.034.007-.067.013-.102.013H10.94c-.664 0-1.21.51-1.247 1.154z"/></symbol><symbol viewBox="0 0 190 190" id="icon-lifevest"><title>lifevest</title><path d="M95 0C42.533 0 0 42.533 0 95s42.533 95 95 95 95-42.533 95-95S147.467 0 95 0zm0 11.875c11.27 0 22.016 2.248 31.816 6.312l-13.635 32.92C107.58 48.784 101.44 47.5 95 47.5c-6.44 0-12.58 1.284-18.18 3.607L70.424 35.67l-7.242-17.483c9.8-4.064 20.546-6.312 31.817-6.312zM51.107 113.182l-32.92 13.637c-4.064-9.804-6.312-20.548-6.312-31.818 0-11.27 2.248-22.016 6.312-31.817l17.483 7.242 15.437 6.394C48.785 82.42 47.5 88.56 47.5 95c0 6.44 1.284 12.58 3.607 18.182zM95 178.125c-11.27 0-22.016-2.248-31.817-6.312l4.25-10.26 9.386-22.66c5.6 2.323 11.74 3.607 18.18 3.607 6.44 0 12.58-1.284 18.182-3.607l13.637 32.92c-9.804 4.064-20.55 6.312-31.82 6.312zm0-47.5c-19.675 0-35.625-15.95-35.625-35.625S75.325 59.375 95 59.375 130.625 75.325 130.625 95 114.675 130.625 95 130.625zm43.893-17.443c2.323-5.602 3.607-11.74 3.607-18.182 0-6.44-1.284-12.58-3.607-18.18l22.66-9.387 10.26-4.25c4.065 9.8 6.312 20.545 6.312 31.817 0 11.27-2.248 22.016-6.312 31.816l-32.92-13.634z"/></symbol><symbol viewBox="0 0 32 32" id="icon-list-add"><title>list-add</title><path d="M24.218 13.79h-8.564c-.69 0-1.256.577-1.256 1.282v.178c0 .706.565 1.283 1.256 1.283h8.564c.687 0 1.253-.578 1.253-1.283l.003-.178c0-.706-.564-1.283-1.254-1.283zM24.218 18.363h-8.564c-.69 0-1.256.578-1.256 1.283v.178c0 .706.565 1.283 1.256 1.283h8.564c.687 0 1.253-.578 1.253-1.283l.003-.178c0-.706-.564-1.283-1.254-1.283zM24.218 22.935h-8.564c-.69 0-1.256.578-1.256 1.286v.18c0 .705.565 1.282 1.256 1.282h8.564c.687 0 1.253-.578 1.253-1.283l.003-.18c0-.708-.564-1.285-1.254-1.285z"/><path d="M25.457 7.01h-9.672C15.47 3.092 12.227 0 8.228 0 4.02 0 .608 3.412.608 7.62c0 3.997 3.093 7.24 7.01 7.557V25.6c0 3.528 2.936 6.4 6.544 6.4h11.294C29.064 32 32 29.128 32 25.6V13.41c0-3.53-2.936-6.4-6.544-6.4zM9.032 8.094h-.01v3.778H7.434V8.094h-.01v-.002H3.66V6.507h3.778v-.01h.002V2.73h1.585v3.778h3.78v1.586h-3.77zM28.952 25.6c0 1.85-1.568 3.352-3.496 3.352H14.162c-1.928 0-3.496-1.502-3.496-3.352V14.802c2.235-.76 3.986-2.51 4.747-4.745h10.043c1.928 0 3.496 1.504 3.496 3.352V25.6z"/></symbol><symbol viewBox="0 0 32 32" id="icon-list-remove"><title>list-remove</title><path d="M25.472 15.072c0-.706-.564-1.283-1.254-1.283h-8.564c-.69 0-1.256.577-1.256 1.282v.178c0 .706.565 1.283 1.256 1.283h8.564c.687 0 1.253-.578 1.253-1.283l.003-.178zM25.472 19.645c0-.706-.564-1.283-1.254-1.283h-8.564c-.69 0-1.256.578-1.256 1.283v.178c0 .706.565 1.283 1.256 1.283h8.564c.687 0 1.253-.578 1.253-1.283l.003-.178zM25.472 24.22c0-.71-.564-1.286-1.254-1.286h-8.564c-.69 0-1.256.578-1.256 1.286v.178c0 .706.565 1.283 1.256 1.283h8.564c.687 0 1.253-.577 1.253-1.282l.003-.178z"/><path d="M25.457 7.01h-9.672C15.47 3.092 12.227 0 8.228 0 4.02 0 .608 3.412.608 7.62c0 3.997 3.093 7.24 7.01 7.557V25.6c0 3.528 2.936 6.4 6.544 6.4h11.294C29.064 32 32 29.128 32 25.6V13.41c0-3.53-2.936-6.4-6.544-6.4zM7.427 8.094l-3.77-.002V6.507h9.144v1.586H7.428zM28.95 25.6c0 1.848-1.568 3.352-3.496 3.352H14.162c-1.928 0-3.496-1.504-3.496-3.352V14.802c2.235-.76 3.986-2.51 4.747-4.745h10.043c1.928 0 3.496 1.504 3.496 3.352V25.6z"/></symbol><symbol viewBox="-3.491 -2.758 23.083 25.66" id="icon-list"><title>list</title><path d="M13 19.75H4c-2.757 0-5-2.243-5-5v-10c0-2.757 2.243-5 5-5h9c2.757 0 5 2.243 5 5v10c0 2.757-2.243 5-5 5zm-9-18c-1.654 0-3 1.346-3 3v10c0 1.654 1.346 3 3 3h9c1.654 0 3-1.346 3-3v-10c0-1.654-1.346-3-3-3H4z"/><path d="M13.012 6.44c0-.55-.45-1-1-1H5.188c-.55 0-1 .45-1 1v.14c0 .55.45 1 1 1h6.823c.55 0 1-.45 1-1v-.14zM13.012 10.006c0-.55-.45-1-1-1H5.188c-.55 0-1 .45-1 1v.14c0 .55.45 1 1 1h6.823c.55 0 1-.45 1-1v-.14zM13.012 13.57c0-.55-.45-1-1-1H5.188c-.55 0-1 .45-1 1v.14c0 .55.45 1 1 1h6.823c.55 0 1-.45 1-1v-.14z"/></symbol><symbol viewBox="0 0 9 32" id="icon-menu-narrow"><title>menu-narrow</title><path d="M4.178 8.42c2.307 0 4.178-1.884 4.178-4.21S6.486 0 4.178 0C1.87 0 0 1.883 0 4.21s1.87 4.21 4.178 4.21zm0 11.79c2.307 0 4.178-1.884 4.178-4.21s-1.87-4.21-4.178-4.21C1.87 11.79 0 13.673 0 16s1.87 4.21 4.178 4.21zm0 11.79c2.307 0 4.178-1.885 4.178-4.21s-1.87-4.212-4.178-4.212C1.87 23.578 0 25.463 0 27.788S1.87 32 4.178 32z"/></symbol><symbol viewBox="0 0 32 32" id="icon-monitoring"><title>monitoring</title><path d="M32 16c0-8.837-7.163-16-16-16S0 7.163 0 16s7.163 16 16 16 16-7.163 16-16zM3.2 16C3.2 8.93 8.93 3.2 16 3.2S28.8 8.93 28.8 16 23.07 28.8 16 28.8 3.2 23.07 3.2 16z"/><path d="M8.678 20.653l2.028-1.895-1.073.02 3.164 2.757.166.112c.94.473 2.187.188 2.37-.84l1.86-12.475-1.585-.027 1.855 16.125c.17 1.21 1.848 1.486 2.56.6l3.382-4.504-.663.32 3.512.1c.354 0 .68-.1.938-.294l2.47-1.842c.67-.5.67-1.434 0-1.934-.526-.392-1.306-.392-1.83 0l-2.466 1.843.512-.16-3.27-.135c-.48 0-.914.182-1.187.522l-2.89 4.01 1.442.364L17.81 6.64c-.206-1.457-2.552-1.48-2.807-.05l-2.267 13.182 1.302-.478-2.857-2.39c-.56-.42-1.34-.42-1.863-.028L7.25 18.612l.514-.187H4.06c-.74 0-1.416.505-1.416 1.26s.677 1.262 1.417 1.262h3.704c.33 0 .656-.1.915-.294z"/></symbol><symbol viewBox="0 0 44 32" id="icon-nimble"><title>nimble</title><path d="M20.394 30.49c-.03 0-.057-.002-.086-.005-3.588-.445-4.592-3.605-4.633-3.74-.07-.228-.032-.477.102-.673l6.64-9.708-8.86-3.67c-.27-.11-.45-.378-.46-.68-.14-4.163 2.47-5.352 2.58-5.4.176-.076.376-.078.553-.005l8.127 3.385c.375.155.558.6.407.99s-.577.58-.947.424l-7.805-3.25c-.447.317-1.394 1.235-1.46 3.31l9.27 3.838c.21.087.366.268.43.494s.026.468-.106.658l-6.948 10.155c.29.616 1.096 1.906 2.865 2.29l6.96-10.076c.236-.342.693-.42 1.02-.173s.4.722.165 1.064l-7.224 10.457c-.14.198-.36.314-.593.314z"/><path d="M14.556 30.49c-.03 0-.058-.002-.088-.005-3.588-.445-4.592-3.605-4.633-3.74-.07-.228-.032-.477.102-.673l6.64-9.708-8.86-3.67c-.27-.11-.45-.378-.46-.68-.14-4.163 2.47-5.352 2.58-5.4.178-.076.376-.078.553-.005l2.33.97c.374.157.556.6.407.99-.15.39-.575.58-.95.425l-2.005-.835c-.447.318-1.394 1.236-1.46 3.31l9.27 3.838c.21.087.366.268.43.494s.026.468-.106.658l-6.948 10.155c.312.66 1.22 2.103 3.28 2.36.4.05.686.427.64.846-.045.385-.36.67-.725.67zM30.32 8.126c-.397 0-.723-.588-.73-1.004l-.073-5.218c-.666-.184-2.01-.498-3.572-.12l.023 5.353c0 .42-.324.987-.727.987h-.002c-.4 0-.728-.593-.73-1.012l-.026-5.84c0-.336.207-.696.512-.796 2.98-.97 5.42.024 5.522.067.27.116.448.372.453.677l.082 5.885c.006.42-.315 1.02-.718 1.02h-.013zM19.4 6.603c-.4 0-.727-.593-.73-1.01l-.026-4.317c0-.335.206-.696.512-.797 1.598-.52 3.04-.49 3.97-.344.397.062.672.434.612.85s-.422.69-.83.634c-.677-.105-1.675-.165-2.802.108l.023 3.857c.002.42-.324 1.02-.726 1.02 0-.003-.003-.003-.004-.003z"/><path d="M8.717 30.49c-.03 0-.058-.002-.088-.005-3.59-.445-4.593-3.605-4.634-3.74-.07-.228-.032-.477.102-.673l6.64-9.708-8.86-3.67c-.27-.11-.45-.378-.46-.68-.14-4.163 2.47-5.352 2.58-5.4.178-.076.376-.078.553-.005l2.33.97c.375.157.557.6.408.99-.15.39-.575.58-.95.425L4.334 8.16c-.447.318-1.394 1.236-1.46 3.31l9.27 3.838c.21.087.366.268.43.494s.026.468-.106.658L5.52 26.615c.31.66 1.22 2.103 3.28 2.36.4.05.685.427.638.846-.044.385-.36.67-.724.67zM13.562 6.603c-.4 0-.727-.593-.73-1.01l-.026-4.317c0-.335.206-.696.512-.797 1.598-.52 3.04-.49 3.97-.344.397.062.672.434.612.85s-.422.69-.83.634c-.677-.105-1.677-.165-2.802.108l.023 3.857c.004.42-.322 1.02-.724 1.02 0-.003-.003-.003-.004-.003zM35.065 30.49c-.234 0-.454-.116-.593-.317l-7.224-10.456c-.235-.34-.162-.818.165-1.064.328-.245.784-.168 1.02.172l6.96 10.075c1.765-.384 2.573-1.678 2.864-2.29L31.31 16.457c-.13-.19-.168-.433-.106-.658s.222-.408.43-.495l9.27-3.838c-.063-2.083-1.01-2.996-1.457-3.31l-7.806 3.25c-.37.157-.797-.035-.946-.426-.15-.39.032-.833.407-.988l8.128-3.386c.177-.073.374-.072.552.005.11.05 2.722 1.238 2.582 5.4-.01.303-.19.57-.46.682l-8.862 3.67 6.64 9.707c.135.194.173.444.103.673-.04.134-1.044 3.294-4.633 3.74-.03.005-.058.007-.086.007z"/></symbol><symbol viewBox="0 0 18 18" id="icon-nut"><title>Shape 6</title><path d="M9 11.937c-.828 0-1.535-.29-2.12-.874C6.292 10.48 6 9.777 6 8.953c0-.824.293-1.527.88-2.11C7.464 6.26 8.17 5.97 9 5.97c.828 0 1.535.29 2.12.873.587.583.88 1.286.88 2.11 0 .824-.293 1.527-.88 2.11-.585.583-1.292.874-2.12.874zm8.906-4.53c-.062-.08-.144-.13-.246-.145l-2.144-.326c-.118-.373-.278-.754-.48-1.142.14-.194.35-.468.632-.822.28-.354.48-.612.598-.775.062-.086.094-.175.094-.27 0-.107-.028-.193-.083-.255-.28-.396-.925-1.057-1.933-1.982-.094-.077-.192-.116-.293-.116-.116 0-.21.035-.28.105l-1.665 1.246c-.32-.163-.672-.307-1.054-.43L10.724.35c-.008-.1-.053-.185-.135-.25-.082-.067-.178-.1-.287-.1H7.7c-.227 0-.368.11-.423.326-.1.39-.215 1.112-.34 2.17-.367.115-.722.263-1.066.442L4.255 1.69c-.102-.077-.203-.116-.305-.116-.173 0-.542.278-1.108.833-.567.556-.95.974-1.154 1.254-.07.102-.106.19-.106.27 0 .092.04.185.117.28.523.628.94 1.164 1.253 1.607-.195.358-.348.715-.457 1.073l-2.18.326c-.086.016-.16.066-.222.15-.063.087-.094.176-.094.27v2.587c0 .1.03.193.094.274.062.082.144.13.246.146l2.144.315c.11.38.27.765.48 1.154-.14.194-.35.468-.632.822-.28.354-.48.612-.598.775-.062.085-.093.174-.093.267 0 .1.028.19.083.27.304.418.95 1.07 1.933 1.957.086.086.184.128.293.128.116 0 .214-.035.292-.105l1.653-1.247c.32.163.67.307 1.054.43l.327 2.146c.008.1.053.185.135.25.082.067.178.1.287.1h2.6c.227 0 .368-.11.423-.327.1-.39.214-1.112.34-2.17.367-.115.722-.263 1.066-.442l1.616 1.26c.11.07.21.104.305.104.172 0 .54-.276 1.102-.827.563-.552.95-.972 1.16-1.26.07-.077.106-.166.106-.268 0-.1-.04-.198-.117-.29-.562-.685-.98-1.22-1.253-1.61.156-.287.308-.64.457-1.06l2.168-.327c.094-.016.172-.066.234-.152.063-.085.094-.174.094-.268V7.682c0-.1-.03-.192-.094-.274z" fill-rule="evenodd"/></symbol><symbol viewBox="0 0 190 174.664" id="icon-nuts"><title>nuts</title><path d="M63.333 112.674c-6.994 0-12.963-2.48-17.912-7.438-4.946-4.96-7.42-10.943-7.42-17.953 0-7.008 2.474-12.994 7.42-17.953 4.95-4.96 10.92-7.438 17.913-7.438s12.963 2.48 17.91 7.438c4.95 4.96 7.423 10.945 7.423 17.953 0 7.01-2.474 12.993-7.422 17.952-4.948 4.96-10.918 7.44-17.91 7.44zm97.622 34.368c-2.473 2.48-5.46 3.72-8.955 3.72-3.497 0-6.482-1.24-8.956-3.72-2.476-2.48-3.71-5.47-3.71-8.977 0-3.438 1.252-6.412 3.76-8.926s5.477-3.772 8.906-3.772 6.398 1.257 8.906 3.77c2.507 2.515 3.76 5.488 3.76 8.927 0 3.507-1.236 6.497-3.71 8.977zm0-101.565c-2.473 2.48-5.46 3.72-8.955 3.72-3.497 0-6.482-1.24-8.956-3.72-2.476-2.48-3.71-5.47-3.71-8.976 0-3.436 1.252-6.412 3.76-8.925 2.508-2.512 5.477-3.77 8.906-3.77s6.398 1.258 8.906 3.77c2.507 2.514 3.76 5.49 3.76 8.926 0 3.507-1.236 6.497-3.71 8.977zm-34.98 30.846c-.463-.56-1.023-.908-1.684-1.04L109.25 73c-.727-2.247-1.848-4.958-3.365-8.132.99-1.454 2.475-3.437 4.453-5.952 1.98-2.51 3.365-4.297 4.156-5.355.462-.66.693-1.29.693-1.884 0-1.786-4.752-7.075-14.25-15.87-.662-.528-1.354-.794-2.078-.794-.794 0-1.453.233-1.98.695l-11.678 8.827c-2.706-1.39-5.18-2.413-7.422-3.074l-2.276-15.176c-.066-.66-.396-1.24-.99-1.736s-1.253-.744-1.978-.744H54.13c-1.52 0-2.508.794-2.97 2.38-.79 3.042-1.55 8.133-2.275 15.275-2.837.926-5.377 1.982-7.62 3.172l-11.38-8.926c-.66-.462-1.353-.695-2.078-.695-1.254 0-3.86 1.952-7.818 5.853-3.96 3.902-6.665 6.844-8.115 8.828-.463.53-.693 1.19-.693 1.984 0 .595.23 1.257.693 1.984 3.693 4.43 6.662 8.232 8.906 11.406-1.385 2.71-2.44 5.224-3.166 7.538l-15.34 2.38c-.592.067-1.122.414-1.582 1.04C.23 76.655 0 77.3 0 77.96v18.35c0 .73.23 1.373.692 1.935.46.562 1.023.878 1.683.942l15.042 2.38c.792 2.515 1.945 5.225 3.463 8.134-1.055 1.454-2.606 3.472-4.65 6.052-2.046 2.578-3.398 4.33-4.057 5.256-.463.662-.693 1.29-.693 1.885 0 1.785 4.75 7.077 14.25 15.87.66.53 1.35.794 2.08.794.855 0 1.516-.23 1.978-.695l11.677-8.826c2.704 1.39 5.178 2.414 7.42 3.074l2.277 15.176c.065.662.396 1.24.99 1.734.594.496 1.252.744 1.98.744h18.406c1.516 0 2.505-.794 2.968-2.38.79-3.108 1.55-8.23 2.276-15.374 2.638-.794 5.178-1.818 7.62-3.074l11.38 8.926c.657.465 1.35.695 2.077.695 1.253 0 3.842-1.968 7.77-5.902 3.925-3.934 6.645-6.894 8.163-8.877.46-.46.69-1.09.69-1.885 0-.66-.23-1.322-.69-1.982-3.695-4.43-6.665-8.232-8.906-11.405 1.387-2.71 2.44-5.223 3.166-7.538l15.34-2.38c.594-.066 1.12-.413 1.582-1.042.46-.628.692-1.272.692-1.935V78.257c0-.726-.23-1.37-.692-1.934zm49.28 51.726c-.856-1.918-1.848-3.638-2.968-5.158 3.363-7.473 5.046-12.035 5.046-13.688 0-.265-.133-.495-.396-.694-7.916-4.627-12.008-6.94-12.27-6.94l-.596.196c-2.704 2.713-5.737 6.414-9.103 11.108-1.32-.133-2.31-.2-2.97-.2-.66 0-1.648.067-2.97.2-.923-1.39-2.638-3.62-5.145-6.694-2.508-3.074-4.024-4.61-4.553-4.61-.134 0-1.123.528-2.97 1.585-1.847 1.06-3.794 2.183-5.84 3.373-2.044 1.19-3.2 1.852-3.462 1.982-.266.2-.396.432-.396.694 0 1.653 1.684 6.216 5.047 13.688-1.123 1.52-2.112 3.24-2.97 5.157-9.83.99-14.744 2.018-14.744 3.073v13.885c0 1.06 4.914 2.084 14.744 3.076.793 1.785 1.78 3.503 2.97 5.156-3.364 7.472-5.048 12.034-5.048 13.688 0 .262.132.495.396.692 8.047 4.694 12.138 7.043 12.27 7.043.527 0 2.046-1.556 4.554-4.662 2.507-3.107 4.222-5.353 5.146-6.743 1.32.132 2.31.198 2.97.198.658 0 1.647-.066 2.97-.198.922 1.39 2.637 3.636 5.145 6.744 2.508 3.107 4.023 4.663 4.554 4.663.13 0 4.222-2.35 12.27-7.043.265-.197.397-.43.397-.692 0-1.654-1.683-6.218-5.046-13.688 1.188-1.653 2.177-3.37 2.968-5.156 9.83-.992 14.745-2.017 14.745-3.076v-13.885c0-1.058-4.916-2.083-14.745-3.074zm0-101.568c-.856-1.916-1.848-3.635-2.968-5.157 3.363-7.472 5.046-12.034 5.046-13.688 0-.264-.133-.496-.396-.695C169.02 2.315 164.93 0 164.667 0l-.595.198c-2.705 2.712-5.738 6.415-9.104 11.108-1.32-.13-2.31-.198-2.97-.198-.66 0-1.648.066-2.97.198-.923-1.39-2.638-3.62-5.145-6.695C141.376 1.538 139.86 0 139.33 0c-.132 0-1.12.53-2.97 1.587-1.845 1.058-3.792 2.182-5.837 3.372s-3.2 1.85-3.463 1.982c-.266.2-.396.43-.396.695 0 1.653 1.684 6.216 5.047 13.688-1.12 1.522-2.11 3.24-2.968 5.157-9.828.993-14.742 2.02-14.742 3.076v13.886c0 1.06 4.914 2.083 14.744 3.075.793 1.785 1.78 3.504 2.97 5.157-3.364 7.473-5.048 12.036-5.048 13.688 0 .265.132.496.396.694 8.047 4.695 12.138 7.04 12.27 7.04.527 0 2.046-1.552 4.554-4.66 2.507-3.108 4.222-5.357 5.146-6.745 1.32.133 2.31.198 2.97.198.657 0 1.646-.065 2.968-.198.923 1.388 2.638 3.637 5.146 6.744 2.507 3.108 4.022 4.66 4.553 4.66.13 0 4.22-2.346 12.27-7.04.264-.2.396-.43.396-.695 0-1.652-1.683-6.215-5.046-13.688 1.188-1.652 2.177-3.372 2.968-5.158C185.084 45.526 190 44.5 190 43.443V29.558c0-1.057-4.916-2.083-14.745-3.076z"/></symbol><symbol viewBox="0 0 16 18" id="icon-open-envelope"><title>Shape 3</title><path d="M14.652 18H1.348C.603 18 0 17.403 0 16.668V8.613l6.713 5.236c.717.56 1.88.56 2.6 0L16 8.632v8.035c0 .735-.603 1.332-1.348 1.332zm-9.787-4.327c-.188-.22-.52-.247-.743-.06l-2.657 2.22c-.222.186-.25.515-.062.734.188.22.52.247.743.062l2.657-2.222c.222-.186.25-.515.062-.735zm9.56 2.16l-2.658-2.22c-.222-.187-.554-.16-.742.06-.188.22-.16.55.062.735l2.657 2.22c.222.186.555.16.743-.06.188-.22.16-.55-.063-.735zM5.586 7.29h4.85c.204 0 .37.164.37.365 0 .2-.166.363-.37.363h-4.85c-.203 0-.368-.163-.368-.363 0-.2.163-.364.367-.364zm0 3.393h4.85c.204 0 .37.163.37.364 0 .2-.166.363-.37.363h-4.85c-.203 0-.368-.163-.368-.363 0-.2.163-.364.367-.364zm0-1.696h4.85c.204 0 .37.163.37.364 0 .2-.166.364-.37.364h-4.85c-.203 0-.368-.163-.368-.363 0-.2.163-.363.367-.363zm9.938-1.178l-2.98 2.325V6.976c0-.468-.384-.848-.857-.848h-7.35c-.475 0-.86.38-.86.848v3.126l.002.04L.49 7.808c-.544-.426-.544-1.115 0-1.54l6.53-5.094c.546-.425 1.43-.425 1.976 0l6.53 5.093c.545.425.545 1.114 0 1.54z" fill-rule="evenodd"/></symbol><symbol viewBox="0 0 10 14" id="icon-pause"><title>Rectangle 86</title><path d="M0 2.876C0 1.84.832 1 1.875 1 2.91 1 3.75 1.833 3.75 2.876v9.248C3.75 13.16 2.918 14 1.875 14 .84 14 0 13.167 0 12.124V2.876zm6.25-.25C6.25 1.59 7.082.75 8.125.75 9.16.75 10 1.583 10 2.626v9.247c0 1.037-.832 1.877-1.875 1.877-1.036 0-1.875-.833-1.875-1.877V2.626z" fill-rule="evenodd"/></symbol><symbol viewBox="0 0 12 5" id="icon-pdf"><title>PDF</title><path d="M.463 5V.705h1.62c.285 0 .503.014.653.04.21.036.388.103.53.202.143.098.258.237.345.414.088.18.13.374.13.587 0 .366-.115.675-.347.928-.233.252-.653.38-1.26.38H1.03V5H.464zm.568-2.253h1.112c.367 0 .628-.068.782-.205.154-.137.23-.33.23-.577 0-.18-.044-.334-.135-.462-.092-.128-.21-.212-.36-.253-.096-.025-.272-.038-.53-.038h-1.1v1.535zM4.466 5V.705h1.48c.333 0 .588.02.764.062.245.056.455.16.63.307.225.192.395.436.507.734.112.298.17.638.17 1.02 0 .327-.04.616-.116.868-.075.252-.172.46-.292.626-.12.165-.25.295-.39.39-.142.094-.313.166-.513.215-.2.05-.43.073-.69.073h-1.55zm.568-.507h.917c.283 0 .506-.026.667-.08.16-.052.29-.126.385-.222.135-.133.24-.315.315-.542.075-.228.113-.503.113-.828 0-.45-.074-.794-.222-1.035-.147-.242-.326-.403-.537-.485-.15-.06-.397-.088-.734-.088h-.903v3.28zM8.827 5V.705h2.898v.507h-2.33v1.33h2.016v.507H9.397V5h-.57z" fill-rule="evenodd"/></symbol><symbol viewBox="0 0 18 18" id="icon-piechart"><title>community insights</title><g fill-rule="evenodd"><path d="M15.06 7.53C15.06 3.37 11.687 0 7.53 0 3.37 0 0 3.37 0 7.53c0 4.158 3.37 7.53 7.53 7.53V7.53"/><path d="M9.078 17.35c4.56 0 8.258-3.698 8.258-8.26H9.078"/></g></symbol><symbol viewBox="0 0 190 190" id="icon-play-video"><title>play-video</title><path d="M95 0C41.562 0 0 41.562 0 95s41.562 95 95 95 95-41.562 95-95S148.438 0 95 0zm0 166.25c-41.562 0-71.25-29.687-71.25-71.25S53.438 23.75 95 23.75 166.25 53.438 166.25 95c0 41.562-29.688 71.25-71.25 71.25zM71.25 142.5L130.625 95 71.25 47.5v95z"/></symbol><symbol viewBox="0 0 19 18" id="icon-plugin"><title>Fill 1 + Fill 3</title><g fill-rule="evenodd"><path d="M10.26 9.795l-1.296 1.29L7.382 9.51l1.295-1.29c.287-.287.287-.753 0-1.04-.287-.285-.754-.285-1.04 0L6.34 8.47l-.65-.648c-.172-.172-.452-.172-.624 0l-.94.937c-.172.17-.172.45 0 .62l.14.14-2.123 2.118c-.1.1-.145.238-.124.376l.326 2.204L.63 15.93c-.173.172-.173.45 0 .623L1.9 17.82c.172.17.45.17.624 0l1.716-1.713 2.21.326c.14.02.28-.025.378-.124L8.95 14.19l.14.14c.174.172.454.172.626 0l.94-.937c.172-.172.172-.45 0-.622l-.65-.65 1.294-1.29c.287-.287.287-.752 0-1.038-.287-.287-.754-.287-1.04 0zM18.358 1.408L17.088.142c-.172-.172-.452-.172-.624 0l-1.717 1.71-2.21-.325c-.14-.02-.28.025-.378.124L10.035 3.77l-.14-.14c-.172-.172-.452-.172-.625 0l-.938.937c-.173.172-.173.45 0 .623l4.965 4.95c.173.173.452.173.625 0l.94-.936c.172-.172.172-.45 0-.623l-.14-.14 2.122-2.118c.1-.098.145-.238.125-.376l-.33-2.204L18.36 2.03c.173-.17.173-.45 0-.622z"/></g></symbol><symbol viewBox="0 0 16 16" id="icon-question-radius"><title>close 3</title><path d="M0 8c0 4.418 3.582 8 8 8s8-3.582 8-8-3.582-8-8-8-8 3.582-8 8zm5-1.55c0-.372.12-.748.357-1.13.24-.38.586-.695 1.043-.945C6.857 4.125 7.39 4 8 4c.566 0 1.066.104 1.5.313.434.21.77.494 1.005.853.236.36.354.75.354 1.172 0 .332-.068.623-.203.873s-.295.467-.48.648c-.186.182-.52.488-1 .917-.132.12-.24.228-.32.32-.08.092-.138.176-.177.252-.04.076-.07.152-.09.228-.023.076-.055.21-.098.402-.074.406-.306.61-.697.61-.203 0-.374-.067-.513-.2-.138-.133-.208-.33-.208-.592 0-.328.05-.612.153-.853.1-.24.236-.45.404-.632.17-.182.395-.398.68-.648.25-.22.43-.384.543-.495.11-.11.205-.235.28-.372.077-.137.115-.285.115-.445 0-.313-.116-.577-.35-.79-.23-.216-.53-.324-.898-.324-.43 0-.746.11-.95.326-.202.216-.374.536-.515.958-.133.44-.385.662-.756.662-.22 0-.404-.078-.554-.232-.15-.154-.226-.32-.226-.5zm2.86 6.42c-.24 0-.447-.076-.625-.23-.177-.155-.266-.37-.266-.648 0-.246.085-.453.257-.62.17-.17.382-.253.632-.253.245 0 .452.083.62.25.168.17.252.376.252.622 0 .274-.087.488-.263.645-.177.156-.38.234-.61.234z" fill-rule="evenodd"/></symbol><symbol viewBox="0 0 35 32" id="icon-ragdoll-add"><title>ragdoll-add</title><path d="M28.663 6.965c0 3.12-2.456 5.647-5.486 5.647s-5.486-2.528-5.486-5.647c0-3.12 2.457-5.647 5.487-5.647s5.486 2.528 5.486 5.647zM24.183 32h-2.01V13.176h2.01l10.97 5.647-1.828 5.647-3.657-1.882V32h-5.486zM11.2 18.824l1.83 5.647 3.656-1.88V32h5.486V13.178l-10.97 5.647zM9.153 8.434h3.967V10.1H9.153v3.967H7.487V10.1l-3.967-.002V8.434h3.967v-.01h.002V4.467h1.663v3.967zM8.32 17.6c4.418 0 8-3.582 8-8s-3.582-8-8-8-8 3.582-8 8 3.582 8 8 8z"/></symbol><symbol viewBox="0 0 35 32" id="icon-ragdoll-remove"><title>ragdoll-remove</title><path d="M28.663 6.965c0 3.12-2.456 5.647-5.486 5.647s-5.486-2.528-5.486-5.647c0-3.12 2.457-5.647 5.487-5.647s5.486 2.528 5.486 5.647zM24.183 32h-2.01V13.176h2.01l10.97 5.647-1.828 5.647-3.657-1.882V32h-5.486zM11.2 18.824l1.83 5.647 3.656-1.88V32h5.486V13.178l-10.97 5.647zM8.32 17.6c4.418 0 8-3.582 8-8s-3.582-8-8-8-8 3.582-8 8 3.582 8 8 8zm-.843-7.502H3.52V8.434h9.6V10.1l-5.643-.002z"/></symbol><symbol viewBox="0 0 32 32" id="icon-reload"><title>reload</title><path d="M32 12H20l4.485-4.485C22.218 5.25 19.205 4 16 4S9.78 5.248 7.515 7.515C5.25 9.782 4 12.795 4 16s1.248 6.22 3.515 8.485C9.782 26.75 12.795 28 16 28s6.22-1.248 8.485-3.515c.19-.19.37-.384.546-.583l3.01 2.634C25.11 29.886 20.803 32 16 32 7.163 32 0 24.837 0 16S7.163 0 16 0c4.418 0 8.418 1.79 11.313 4.687L32 0v12z"/></symbol><symbol viewBox="0 0 46 32" id="icon-rep"><title>rep</title><path d="M23.11 10.667V5.324c0-3.917-2.668-5.386-5.96-3.27L4.182 10.39c-3.298 2.12-3.292 5.548 0 7.665L17.15 26.39c3.297 2.12 5.96.653 5.96-3.27V17.78H32c.694 0 2.038.3 3.36 1.18 2.313 1.542 3.75 4.42 3.75 9.487 0 1.964 1.593 3.556 3.557 3.556s3.556-1.59 3.556-3.555c0-7.376-2.562-12.5-6.917-15.403-2.677-1.785-5.333-2.375-7.306-2.375h-8.89z"/></symbol><symbol viewBox="0 0 19 20" id="icon-report"><title>reports</title><g fill-rule="evenodd"><g id="report-Shape"><path d="M9.564 6.793c0-.55-.45-1-1-1H5.877c-.55 0-1 .45-1 1v.197c0 .55.45 1 1 1h2.687c.55 0 1-.45 1-1v-.197zM11.096 9.824c0-.55-.45-1-1-1h-4.22c-.55 0-1 .45-1 1v.197c0 .55.45 1 1 1h4.22c.55 0 1-.45 1-1v-.196zM4.877 13.053c0 .55.45 1 1 1h7c.55 0 1-.45 1-1v-.197c0-.55-.45-1-1-1h-7c-.55 0-1 .45-1 1v.197z"/></g><path d="M12.84.427c-.026-.027-.054-.05-.08-.074l-.14-.12c-.16-.054-.307-.107-.477-.107H5.11C2.5.126.376 2.143.376 4.622v10.01c0 2.48 2.128 4.494 4.744 4.494h8.513c2.617 0 4.744-2.018 4.744-4.5V5.75c0-.218-.092-.41-.23-.567L12.842.427zm.252 1.966L15.86 4.85h-2.77V2.393h.002zm.54 14.93h-8.51c-1.572 0-2.85-1.207-2.85-2.692V4.62c0-1.485 1.273-2.695 2.837-2.695h6.087V5.75c0 .497.424.9.947.9h4.338v7.976c0 1.487-1.277 2.698-2.85 2.698z"/></g></symbol><symbol viewBox="0 0 190 190" id="icon-rocket"><title>Shape</title><path d="M152.768 48.358c-3.103 0-5.74-1.084-7.912-3.255-2.172-2.168-3.258-4.805-3.258-7.905 0-3.1 1.086-5.734 3.258-7.905 2.172-2.168 4.81-3.255 7.912-3.255 3.103 0 5.74 1.087 7.912 3.255 2.17 2.17 3.258 4.807 3.258 7.905 0 3.1-1.088 5.737-3.258 7.905-2.173 2.17-4.81 3.255-7.912 3.255zm36.07-47.254C188.06.367 187.13 0 186.044 0c-20.246 0-36.963 2.75-50.148 8.253-13.188 5.505-27.07 15.5-41.654 29.992-6.207 6.277-13.03 13.834-20.48 22.67L29.67 63.24c-1.242.156-2.25.774-3.026 1.86L.578 109.74c-.93 1.55-.738 3.06.582 4.532l7.446 7.44c.698.696 1.59 1.045 2.676 1.045.465 0 .814-.037 1.046-.116l32.114-9.88 32.695 32.665-9.89 32.086c-.39 1.397-.08 2.636.93 3.722l7.447 7.44c.853.696 1.745 1.046 2.676 1.046.698 0 1.318-.157 1.862-.465l44.68-26.04c1.085-.774 1.705-1.782 1.86-3.023l2.327-44.06c8.843-7.438 16.405-14.258 22.687-20.46 13.808-13.87 23.638-27.84 29.496-41.907C187.07 39.698 190 23.016 190 3.717c0-1.005-.39-1.878-1.163-2.613z" fill-rule="evenodd"/></symbol><symbol viewBox="0 0 64 32" id="icon-rt"><title>rt</title><path d="M11.076 3.936c1.732-2.165 4.565-2.165 6.297 0l7.925 9.906c1.732 2.165.878 3.936-1.892 3.936H5.038c-2.773 0-3.623-1.77-1.892-3.936l7.93-9.906z"/><path d="M10.667 28.444c0 1.966 1.593 3.556 3.556 3.556H32c1.967 0 3.557-1.59 3.557-3.556s-1.59-3.556-3.556-3.556H14.224l3.556 3.556V7.11c0-1.962-1.594-3.555-3.557-3.555s-3.556 1.593-3.556 3.556v21.334zM52.928 28.068c-1.732 2.162-4.565 2.162-6.297 0l-7.924-9.91c-1.735-2.164-.882-3.935 1.888-3.935h18.368c2.77 0 3.623 1.77 1.888 3.932l-7.922 9.913z"/><path d="M53.333 3.556c0-1.963-1.59-3.556-3.556-3.556H32c-1.964 0-3.557 1.593-3.557 3.556S30.036 7.112 32 7.112h17.777L46.22 3.556V24.89c0 1.965 1.59 3.555 3.557 3.555s3.556-1.59 3.556-3.556V3.555z"/></symbol><symbol viewBox="0 0 36 32" id="icon-running"><title>running</title><path d="M27.767 5.53l-1.772-2.24c-.645-.815-.507-2 .308-2.644s2-.507 2.644.308l5.91 7.47c.645.814.507 1.998-.308 2.643s-2 .507-2.645-.308L30.103 8.48l-2.846 2.196-2.3-2.98 2.81-2.168zM13.38 18.74l-1.07-7.62c-.146-1.03.572-1.982 1.6-2.127s1.982.573 2.127 1.602l1.07 7.622-2.125-1.602 5.872-.825c1.03-.145 1.98.573 2.126 1.602s-.573 1.98-1.602 2.126l-5.872.825c-1.03.145-1.98-.573-2.126-1.602z"/><path d="M29.325 19.3c.957-7.797-4.666-14.903-12.56-15.872S1.698 7.993.74 15.788C-.217 23.586 5.406 30.692 13.3 31.66s15.068-4.565 16.025-12.36zm-24.85-3.052c.704-5.722 5.99-9.8 11.83-9.083S26.29 13.12 25.59 18.84c-.703 5.723-5.99 9.802-11.83 9.084S3.774 21.97 4.476 16.248z"/></symbol><symbol viewBox="0 0 36 32" id="icon-scissors-add"><title>scissors-add</title><path d="M29.004 8.976c1.237-3.035-.67-4.775-1.46-5.34-.162-.116-.393-.06-.484.116l-4.985 9.596 2.327 4.478 4.6-8.85zM17.797 21.588c-.476-.507-1.044-.944-1.698-1.278-3.034-1.552-6.716-.375-8.29 2.642-1.576 3.024-.4 6.754 2.62 8.33 3.027 1.576 6.755.405 8.33-2.62l.01.008 1.816-3.5-2.324-4.477-.466.896zM13.26 28.99c-1.788 0-3.237-1.45-3.237-3.237s1.445-3.236 3.236-3.236c1.786 0 3.235 1.45 3.235 3.236s-1.45 3.237-3.236 3.237z"/><path d="M34.853 22.95c-1.104-2.115-3.243-3.325-5.468-3.325-.948 0-1.913.222-2.82.684-.654.335-1.225.774-1.698 1.277 0 0-3.69-7.11-6.414-12.35.005-.12.036-.23.036-.348C18.49 3.98 14.51 0 9.6 0 4.692 0 .71 3.98.71 8.89s3.98 8.888 8.89 8.888c2.8 0 5.266-1.32 6.896-3.344l7.397 14.23.01-.006c1.1 2.11 3.254 3.32 5.48 3.32.962 0 1.938-.22 2.852-.698 3.022-1.575 4.197-5.305 2.62-8.33zM14.933 9.443h-4.396v4.425H8.663V9.442H4.267v-1.85h4.396V3.2h1.874v4.393h4.396v1.85zM29.408 28.99c-1.787 0-3.236-1.45-3.236-3.237s1.45-3.236 3.236-3.236 3.237 1.45 3.237 3.236-1.45 3.237-3.237 3.237z"/></symbol><symbol viewBox="0 0 22 20" id="icon-scissors-remove"><title>from audience</title><g fill-rule="evenodd"><path d="M5.6 10.5c2.76 0 5-2.24 5-5s-2.24-5-5-5-5 2.24-5 5 2.24 5 5 5zm-.527-4.69H2.6V4.77h6v1.042H5.073z"/><path d="M17.416 7.05c.696-1.708-.378-2.687-.82-3.005-.092-.065-.223-.033-.275.065L13.52 9.508l1.308 2.52 2.59-4.98z" id="scissors-remove-Shape"/><path d="M6.968 19.595c1.702.886 3.8.227 4.685-1.473l.006.004 1.02-1.967-1.307-2.52-.262.503c-.267-.286-.586-.53-.954-.72-1.705-.872-3.777-.21-4.663 1.487-.886 1.702-.224 3.8 1.475 4.685zm1.59-4.93c1.005 0 1.82.816 1.82 1.82 0 1.005-.815 1.82-1.82 1.82-1.005 0-1.82-.815-1.82-1.82 0-1.004.814-1.82 1.82-1.82zM20.705 14.91c-.62-1.19-1.824-1.87-3.076-1.87-.534 0-1.076.124-1.587.384-.368.19-.69.435-.955.72 0 0-5.2-10.017-5.21-10.034-.05-.095-.18-.132-.274-.065-.446.318-1.52 1.297-.82 3.004l5.756 11.074.006-.004c.618 1.187 1.83 1.87 3.08 1.87.542 0 1.092-.127 1.604-.395 1.702-.886 2.363-2.983 1.475-4.685zm-3.063 3.396c-1.005 0-1.82-.816-1.82-1.82 0-1.005.815-1.82 1.82-1.82 1.005 0 1.82.815 1.82 1.82 0 1.004-.815 1.82-1.82 1.82z"/></g></symbol><symbol viewBox="0 0 16 16" id="icon-scissors"><title>tailored audience</title><g fill-rule="evenodd"><path d="M12.316 3.05c.696-1.708-.378-2.687-.82-3.005-.092-.065-.223-.033-.275.065L8.42 5.508l1.308 2.52 2.59-4.98z" id="scissors-Shape"/><path d="M1.868 15.595c1.702.886 3.8.227 4.685-1.473l.006.004 1.02-1.967-1.307-2.52-.262.503c-.267-.286-.586-.53-.954-.72C3.35 8.552 1.28 9.214.393 10.91c-.886 1.702-.224 3.8 1.475 4.685zm1.59-4.93c1.005 0 1.82.816 1.82 1.82 0 1.005-.815 1.82-1.82 1.82-1.004 0-1.82-.815-1.82-1.82 0-1.004.814-1.82 1.82-1.82zM15.605 10.91c-.62-1.19-1.824-1.87-3.076-1.87-.534 0-1.076.124-1.587.384-.368.19-.69.435-.955.72 0 0-5.2-10.017-5.21-10.034-.05-.095-.18-.132-.274-.065-.445.318-1.52 1.297-.82 3.004L9.44 14.123l.006-.004c.618 1.187 1.83 1.87 3.08 1.87.542 0 1.092-.127 1.604-.395 1.702-.886 2.363-2.983 1.475-4.685zm-3.063 3.396c-1.005 0-1.82-.816-1.82-1.82 0-1.005.815-1.82 1.82-1.82 1.005 0 1.82.815 1.82 1.82 0 1.004-.815 1.82-1.82 1.82z"/></g></symbol><symbol viewBox="0 0 190 190.001" id="icon-search"><title>search</title><path d="M80.385 131.537c-14.084 0-26.13-5.004-36.14-15.016-10.01-10.006-15.015-22.053-15.015-36.136 0-14.082 5.005-26.127 15.016-36.14C54.254 34.237 66.3 29.23 80.386 29.23c14.08 0 26.128 5.006 36.138 15.015 10.01 10.012 15.017 22.057 15.017 36.14 0 14.082-5.005 26.13-15.016 36.14-10.01 10.008-22.057 15.012-36.14 15.012zm105.39 33.57l-39.166-39.164c9.437-13.627 14.16-28.812 14.16-45.56 0-10.886-2.113-21.296-6.34-31.23-4.225-9.933-9.934-18.497-17.126-25.69-7.193-7.193-15.758-12.902-25.69-17.128C101.68 2.112 91.27 0 80.383 0S59.09 2.112 49.157 6.336c-9.936 4.226-18.498 9.935-25.692 17.128-7.193 7.193-12.902 15.758-17.127 25.69C2.112 59.09 0 69.5 0 80.384c0 10.887 2.112 21.296 6.337 31.23 4.225 9.934 9.934 18.497 17.127 25.69 7.194 7.193 15.757 12.9 25.692 17.127 9.934 4.227 20.342 6.34 31.23 6.34 16.744 0 31.93-4.72 45.56-14.16l39.164 39.05c2.74 2.893 6.166 4.34 10.274 4.34 3.958 0 7.384-1.447 10.277-4.34 2.895-2.893 4.34-6.318 4.34-10.275 0-4.037-1.41-7.462-4.225-10.278z"/></symbol><symbol viewBox="0 0 96 116" id="icon-socialbro"><title>logo</title><g fill-rule="evenodd"><path d="M47.985 95.26c-2.904 0-5.683-.763-7.795-2.104L11.983 75 2.56 81.047c-3.413 2.202-3.413 5.8 0 7.966l39.234 25.222c1.707 1.107 3.952 1.655 6.19 1.655 2.243 0 4.498-.548 6.202-1.655L93.42 89.013c3.413-2.166 3.413-5.764 0-7.966L83.996 75l-28.2 18.156c-2.124 1.34-4.898 2.105-7.812 2.105"/><path d="M93.42 54.06L83.996 48 68.382 58.048l-1.358.87-1.38.888-9.847 6.334c-2.124 1.363-4.898 2.117-7.812 2.117-2.904 0-5.683-.754-7.795-2.117l-9.868-6.334-1.366-.887-1.353-.872L11.983 48 2.56 54.06c-3.413 2.193-3.413 5.767 0 7.965l9.423 6.06 1.35.883 1.38.86 27.08 17.426c1.708 1.076 3.953 1.652 6.192 1.652 2.242 0 4.497-.576 6.2-1.652L81.26 69.83l1.38-.862 1.357-.884 9.422-6.06c3.413-2.197 3.413-5.77 0-7.964"/><path d="M93.42 26.86L54.185 1.65C52.482.554 50.226 0 47.986 0S43.5.554 41.793 1.648L2.56 26.86c-3.413 2.19-3.413 5.79 0 7.987l9.423 6.05 1.35.878 1.38.873 15.61 10.037 1.35.887 1.383.876 8.738 5.616c1.707 1.085 3.952 1.64 6.19 1.64 2.243 0 4.498-.555 6.202-1.64l8.733-5.616 1.376-.876 1.347-.887L81.26 42.648l1.38-.873 1.357-.877 9.422-6.05c3.413-2.2 3.413-5.797 0-7.987"/></g></symbol><symbol viewBox="0 0 16 17" id="icon-speaker-line"><title>mute</title><g id="speaker-line-Page-1" fill-rule="evenodd"><path d="M6.046 14.596c.462.26.952.458 1.46.585l4.41 1.108c.528.132.964-.206.964-.76v-3.745c1.32-.632 2.23-1.984 2.23-3.55 0-1.564-.91-2.915-2.23-3.547V.94c0-.45-.284-.757-.674-.786l-6.16 14.442zm-1.928-1.6c-.233-.276-.446-.567-.637-.872v.04H1.74C.78 12.164 0 11.38 0 10.42V6.05c0-.964.773-1.745 1.74-1.745h1.74v.04c.927-1.478 2.384-2.646 4.025-3.058l1.8-.45-5.187 12.158z" id="speaker-line-mute"/></g></symbol><symbol viewBox="0 0 20 17" id="icon-speaker"><title>un mute</title><g id="speaker-Page-1" fill-rule="evenodd"><path d="M12.88 11.783v3.746c0 .552-.436.89-.964.758l-4.41-1.107c-1.64-.41-3.1-1.578-4.025-3.056v.04H1.74C.78 12.164 0 11.38 0 10.42V6.05c0-.964.773-1.745 1.74-1.745h1.74v.04c.927-1.478 2.384-2.646 4.025-3.058L11.915.18c.533-.132.965.203.965.76v3.746c1.32.632 2.23 1.983 2.23 3.548s-.91 2.917-2.23 3.55zM17.167 2.495c.264.207.313.587.105.855l-1.187 1.528c-.206.265-.585.313-.85.104-.265-.207-.314-.587-.106-.855L16.315 2.6c.206-.266.585-.314.85-.105zm2.02 5.954c.007.336-.256.613-.594.62l-1.928.033c-.334.006-.61-.26-.616-.6-.006-.336.256-.613.594-.62l1.928-.033c.334-.006.61.26.616.6zm-1.88 6.05c-.26.21-.64.173-.853-.09L15.24 12.9c-.21-.26-.17-.644.09-.857.26-.212.64-.174.853.09l1.214 1.507c.21.26.17.643-.09.857z"/></g></symbol><symbol viewBox="0 0 90 72" id="icon-speech-bubble"><title>Shape + Group</title><g fill-rule="evenodd"><path d="M16.13.676H73.87c21.51 0 21.51 56.695 0 56.695H49.87L17.95 71.128c-1.7.73-3.363-1.054-2.594-2.687 1.776-4.44 2-5.005 4.198-11.07h-3.422c-21.51 0-21.51-56.694 0-56.694zm57.738 4H16.13c-16.116 0-16.116 48.698 0 48.698h6.267s.622.103.68.124c1.035.375 1.57 1.518 1.194 2.554-1.958 5.413-2.713 7.496-3.485 9.504L48.59 53.573c.264-.13.56-.2.873-.2h24.405c16.117 0 16.117-48.698 0-48.698z" id="speech-bubble-Shape"/><path d="M19.013 19.214c-1.104 0-2-.896-2-2s.896-2 2-2H70.99c1.103 0 1.997.897 1.997 2s-.895 2-1.998 2H19.012zM17.013 31.023c-1.104 0-2-.896-2-2s.896-2 2-2h55.973c1.104 0 2 .896 2 2s-.896 2-2 2H17.013z" id="speech-bubble-Shape"/><path d="M19.013 42.832c-1.104 0-2-.896-2-2s.896-2 2-2h33.983c1.104 0 2 .897 2 2s-.896 2-2 2H19.013z"/></g></symbol><symbol viewBox="0 0 18 18" id="icon-tag"><title>tag</title><path d="M2.137 2.387C3.432 1.092 5.425.935 5.425.935 6.5.72 8.002 1.18 8.79 1.968l8.19 8.19c.783.784.79 2.047.005 2.833l-4.243 4.244c-.78.78-2.046.78-2.833-.006l-8.19-8.19C.934 8.254.48 6.748.745 5.673c0 0 .33-2.224 1.39-3.286zm2.356 4.747c.703.703 1.867.68 2.6-.053.73-.73.755-1.894.052-2.597-.703-.703-1.866-.68-2.598.053-.733.732-.756 1.895-.054 2.598z" fill-rule="evenodd"/></symbol><symbol viewBox="0 0 19 14" id="icon-teams"><title>un sel 2</title><g id="teams-Page-1" fill-rule="evenodd"><g id="teams-Group"><g id="teams-Oval-12-+-Path-68" transform="translate(8.9 0)"><ellipse id="teams-Oval-12" cx="5.061" cy="3.047" rx="2.318" ry="2.471"/><path d="M5.486 14h2.32V9.882l1.544.824.773-2.47-4.637-2.47V14 5.765h-.85V14h.85zM0 8.235l.773 2.47 1.545-.823V14h2.318V5.765L0 8.235z" id="teams-Path-68"/></g></g><g transform="translate(.4)"><ellipse cx="5.061" cy="3.047" rx="2.318" ry="2.471"/><path d="M5.486 14h2.32V9.882l1.544.824.773-2.47-4.637-2.47V14 5.765h-.85V14h.85zM0 8.235l.773 2.47 1.545-.823V14h2.318V5.765L0 8.235z"/></g></g></symbol><symbol viewBox="0 0 53 32" id="icon-toggle"><title>toggle</title><path d="M46.126 1.2l-19.46 18.4L6.777 1.2.72 6.8l25.947 24 25.946-24-6.486-5.6z"/></symbol><symbol viewBox="0 0 18 18" id="icon-tools"><title>Fill 1</title><path d="M16.92 14.94l-5.815-5.683c-.054-.054-.112-.1-.173-.146l1.03-1.058c.053-.052.103-.107.15-.162 1.366.504 2.97.22 4.07-.853.8-.784 1.205-1.867 1.107-2.974-.01-.125-.097-.233-.217-.276-.12-.043-.257-.013-.348.076l-1.863 1.82-1.887-.465-.534-1.902 1.864-1.82c.09-.09.12-.222.077-.34-.043-.12-.154-.2-.282-.212-1.13-.095-2.24.3-3.042 1.083-1.097 1.073-1.39 2.64-.874 3.976-.055.047-.112.096-.166.15L8.5 7.572l-2.783-2.72c-.035-.033-.072-.063-.11-.09.033-.058.065-.115.094-.174.59.11 1.663-1.01 2.576-1.9L5.618.09C4.428 1.25 3.56 2.032 3.673 2.607c-.272.13-.514.288-.686.456l-.375.366c-.243.237-.39.533-.442.842-.036.04-.073.083-.11.128l-.14.172-.02.025-.125.173c-.08.104-.148.215-.216.324l-.076.12c-.005.007-.008.014-.01.022l-.058.102c-.068.125-.138.254-.2.396l-.01.023c-.07.164-.144.335-.195.517l-.024.078c-.02.065-.04.13-.06.206l-.052.25c-.037.157-.05.31-.062.447l-.008.09c-.018.142-.013.276-.008.394l.005.13c.002.02.002.042.003.063 0 .052.002.113.012.176l.033.2.018.115c.014.083.026.168.05.248l.137.462c.043.14.18.233.327.223.08-.005.15-.04.202-.09.048-.046.08-.107.09-.176l.07-.47c.006-.037.023-.09.04-.148.012-.04.024-.08.033-.116l.05-.175c.006-.024.017-.046.028-.07l.03-.067c.016-.037.03-.075.047-.113.03-.074.06-.145.105-.214.02-.033.037-.065.055-.097.047-.08.09-.158.143-.222.004-.002.007-.006.01-.01l.118-.16c.026-.03.054-.06.08-.087.02-.02.038-.04.06-.068.07-.082.152-.153.232-.223l.042-.038c.06-.053.126-.103.198-.156l.087-.063.104-.07c.064-.04.12-.078.183-.11l.14-.078.143-.07c.05-.023.098-.043.144-.06l.077-.033.072-.025c.03-.012.058-.022.093-.032l.038-.007c.042.066.09.13.15.187l2.753 2.69-5.877 5.518-.008.006c-.732.716-.85 1.762-.12 2.477.732.715 1.735.533 2.466-.182l.01-.01L8.65 11.46c.03.034.06.07.094.102l5.814 5.684c.65.636 1.708.636 2.36 0 .65-.637.65-1.67 0-2.306zM2.7 16.215c-.27.264-.707.264-.976 0-.27-.263-.27-.69 0-.953s.706-.263.975 0c.268.263.268.69 0 .953z" fill-rule="evenodd"/></symbol><symbol viewBox="0 0 13 16" id="icon-trash"><title>Shape</title><path d="M8.357 2V1c0-.552-.415-1-.928-1H5.57c-.512 0-.927.448-.927 1v1H0v1h13V2H8.357zM7.43 2H5.57V1h1.86v1zM.93 14c0 1.105.83 2 1.856 2h7.428c1.026 0 1.858-.895 1.858-2V4H.93v10zm7.427-8h1.857v8H8.357V6zM5.57 6h1.86v8H5.57V6zM2.787 6h1.857v8H2.786V6z" fill-rule="evenodd"/></symbol><symbol viewBox="0 0 96 96" id="icon-tweet-editor"><title>tweet-editor</title><path d="M38.153 71.095c0-.74-.153-1.444-.428-2.08h.587c1.402 0 2.566-1.163 2.566-2.598v-2.6H27.174c1.945-7.234 7.087-14.49 11.045-19.656 4.872-5.575 9.745-8.577 14.618-8.577 11.39 0 17.086-5.468 17.086-5.468-5.695-5.468-11.39-5.468-11.39-5.468 5.694-5.468 17.085 0 17.085 0 3.39-2.17 6.224-4.342 8.585-6.45-4.848-4.485-14.282-4.485-14.282-4.485 6.285-3.017 14.303-2.704 20.23-1.818C94.574 6.188 95.597 1.65 95.597 0 91.823.67 88.234 1.47 84.82 2.377 40.302 14.23 25.742 44.974 20.98 63.818H8.172v2.598c0 1.393 1.15 2.6 2.566 2.6h.59c-.278.636-.432 1.34-.432 2.078H10.4c-5.7 0-10.403 4.654-10.403 10.396 0 5.78 4.658 10.396 10.403 10.396h28.248c5.7 0 10.403-4.654 10.403-10.396 0-5.78-4.657-10.396-10.402-10.396h-.498z"/></symbol><symbol viewBox="0 0 190 190" id="icon-twitter-radius"><title>twitter-radius</title><path d="M95 0C42.533 0 0 42.533 0 95s42.533 95 95 95 95-42.533 95-95S147.467 0 95 0zm53.49 71.296c.083.765.127 1.912.127 3.442 0 7.14-1.04 14.298-3.126 21.477-2.086 7.182-5.273 14.067-9.566 20.65-4.296 6.587-9.42 12.41-15.373 17.465-5.954 5.057-13.097 9.095-21.432 12.107-8.335 3.02-17.265 4.525-26.79 4.525-14.8 0-28.493-3.992-41.078-11.98 2.04.254 4.165.382 6.377.382 12.33 0 23.43-3.824 33.297-11.472-5.784-.086-10.95-1.87-15.5-5.354-4.55-3.48-7.718-7.902-9.504-13.256 2.21.338 3.87.51 4.976.51 1.87 0 4.04-.34 6.507-1.02-6.21-1.188-11.44-4.27-15.692-9.24-4.253-4.972-6.378-10.644-6.378-17.017v-.255c4.507 2.125 8.76 3.23 12.757 3.315-7.74-5.182-11.61-12.62-11.61-22.308 0-4.757 1.232-9.26 3.7-13.51C46.898 58 55.064 64.586 64.676 69.513c9.61 4.93 19.9 7.69 30.873 8.285-.427-1.614-.638-3.655-.638-6.12 0-7.394 2.613-13.703 7.845-18.93 5.23-5.225 11.547-7.84 18.943-7.84 7.825 0 14.33 2.806 19.52 8.415 5.87-1.104 11.567-3.27 17.097-6.5-2.127 6.545-6.084 11.515-11.865 14.913 5.53-.765 10.673-2.21 15.437-4.334-3.575 5.438-8.04 10.07-13.397 13.892z"/></symbol><symbol viewBox="0 0 274 223" id="icon-twitter"><title>Fill 1</title><path d="M85.98 223c-31.675 0-61.158-9.285-85.98-25.2 4.388.52 8.853.784 13.38.784 26.278 0 50.463-8.967 69.66-24.01-24.545-.453-45.26-16.67-52.396-38.953 3.424.656 6.938 1.007 10.552 1.007 5.116 0 10.07-.685 14.778-1.967-25.66-5.152-44.993-27.822-44.993-54.998 0-.236 0-.47.005-.705 7.563 4.2 16.21 6.724 25.406 7.015C21.34 75.914 11.44 58.746 11.44 39.287c0-10.28 2.766-19.914 7.594-28.198 27.664 33.933 68.993 56.263 115.61 58.602-.957-4.105-1.454-8.386-1.454-12.782 0-30.975 25.114-56.088 56.09-56.088 16.133 0 30.71 6.812 40.942 17.713 12.776-2.516 24.78-7.184 35.617-13.61-4.188 13.096-13.08 24.088-24.662 31.03 11.346-1.356 22.156-4.37 32.215-8.832-7.52 11.248-17.03 21.127-27.988 29.035.108 2.405.162 4.824.162 7.256C245.564 137.534 189.148 223 85.98 223" fill-rule="evenodd"/></symbol><symbol viewBox="0 0 19 18" id="icon-txt"><title>txt</title><g fill-rule="evenodd"><path d="M3 3.995v10.01C3 15.105 3.9 16 5.007 16h8.986C15.107 16 16 15.108 16 14.005V3.995C16 2.895 15.1 2 13.993 2H5.007C3.893 2 3 2.892 3 3.995zm-2 0C1 1.79 2.787 0 5.007 0h8.986C16.206 0 18 1.792 18 3.995v10.01C18 16.21 16.213 18 13.993 18H5.007C2.794 18 1 16.208 1 14.005V3.995z"/><path d="M0 4.995C0 4.445.45 4 .995 4h17.01c.55 0 .995.456.995.995v8.01c0 .55-.45.995-.995.995H.995C.445 14 0 13.544 0 13.005v-8.01zm4.558 2.24h.132v-.72c0-.193.005-.345.015-.455.01-.11.04-.204.086-.283.048-.082.115-.15.203-.2.088-.05.186-.077.295-.077.152 0 .29.057.413.17.083.078.135.17.157.28.022.11.033.266.033.468v.818h.44c.17 0 .3.04.388.12.09.08.134.185.134.31 0 .162-.064.274-.19.34-.13.063-.31.096-.548.096H5.89v2.206c0 .187.006.33.02.432.013.102.048.184.105.247.057.063.15.094.28.094.07 0 .164-.01.285-.036.12-.025.213-.038.28-.038.098 0 .185.04.262.117.078.077.117.173.117.288 0 .194-.107.342-.318.444-.21.103-.514.154-.91.154-.374 0-.658-.063-.852-.19-.193-.125-.32-.3-.38-.522-.06-.222-.09-.52-.09-.892V8.102h-.158c-.173 0-.305-.04-.396-.123C4.046 7.895 4 7.79 4 7.666c0-.126.048-.23.143-.31.095-.08.233-.12.415-.12zm5.974 4.207l-.856-1.26-.878 1.26c-.127.176-.234.3-.322.376-.088.075-.2.112-.335.112-.15 0-.277-.046-.382-.14-.105-.094-.158-.2-.158-.322 0-.124.08-.302.242-.532l1.07-1.53-.948-1.277c-.165-.21-.247-.394-.247-.55 0-.12.05-.226.147-.316.098-.09.226-.134.385-.134.137 0 .252.04.343.117.09.078.196.2.318.368l.766 1.046.744-1.045c.124-.173.23-.297.322-.372.09-.075.204-.113.34-.113.155 0 .284.044.386.132.103.088.154.194.154.318 0 .09-.02.175-.063.257-.043.083-.107.18-.193.292l-.947 1.275 1.068 1.53c.167.24.25.42.25.54 0 .125-.05.232-.155.32-.104.09-.232.135-.385.135-.135 0-.25-.04-.344-.116-.093-.078-.2-.202-.322-.372zm1.926-4.206h.132v-.72c0-.194.005-.346.015-.456.01-.11.04-.204.086-.283.048-.082.115-.15.203-.2.088-.05.186-.077.295-.077.152 0 .29.057.413.17.083.078.135.17.157.28.022.11.033.266.033.468v.818h.44c.17 0 .3.04.388.12.09.08.134.185.134.31 0 .162-.064.274-.19.34-.13.063-.31.096-.548.096h-.224v2.206c0 .187.006.33.02.432.013.102.048.184.105.247.057.063.15.094.28.094.07 0 .164-.01.285-.036.12-.025.213-.038.28-.038.098 0 .185.04.262.117.078.077.117.173.117.288 0 .194-.107.342-.318.444-.21.103-.514.154-.91.154-.374 0-.658-.063-.852-.19-.193-.125-.32-.3-.38-.522-.06-.222-.09-.52-.09-.892V8.102h-.158c-.173 0-.305-.04-.396-.123-.09-.084-.136-.188-.136-.313 0-.126.048-.23.143-.31.095-.08.233-.12.415-.12z"/></g></symbol><symbol viewBox="0 0 14 18" id="icon-user"><title>Shape</title><path d="M7 8c2.2 0 4-1.8 4-4S9.2 0 7 0 3 1.8 3 4s1.8 4 4 4zm0 1c-2.363 0-7 1.896-7 5.833v2.917h14v-2.917C14 10.896 9.363 9 7 9z" fill-rule="evenodd"/></symbol><symbol viewBox="0 0 17 17" id="icon-usermail"><title>email &gt; profiles</title><path d="M15.568 16.605H1.432C.642 16.605 0 15.98 0 15.207V6.75l7.132 5.5c.763.586 2 .586 2.76 0L17 6.77v8.437c0 .772-.64 1.398-1.432 1.398zm-10.4-4.543c-.2-.23-.552-.26-.788-.064L1.557 14.33c-.236.195-.266.54-.066.772s.554.26.79.064l2.823-2.332c.236-.195.266-.54.066-.772zm10.158 2.268l-2.823-2.332c-.236-.195-.59-.166-.79.064s-.17.576.066.77l2.823 2.333c.236.195.59.166.79-.064.2-.23.17-.575-.067-.77z"/><path d="M16.086 5.49L9.29 1.1c-.47-.303-1.224-.302-1.69 0L.804 5.49c-.47.304-.487.82-.046 1.157l4.224 3.228c.348-1.16 1.297-2.368 3.55-2.368 2.187 0 3.138 1.138 3.51 2.266l4.09-3.125c.444-.34.42-.856-.046-1.157zm-7.54 1.77c-1.25 0-2.26-1.012-2.26-2.26s1.01-2.26 2.26-2.26c1.246 0 2.258 1.012 2.258 2.26s-1.012 2.26-2.26 2.26z"/></symbol><symbol viewBox="0 0 57 71" id="icon-webcam"><title>Group</title><g transform="translate(0 -1)" fill-rule="evenodd"><path d="M55.502 64.115l-11.656-11.43c-4.39 2.604-9.508 4.105-14.974 4.105-5.465 0-10.586-1.5-14.975-4.108L2.105 64.247C.447 65.874.29 68.49 1.742 70.305c1.454 1.812 4.042 2.23 5.99.967 2.9-1.88 12.227-6.758 20.458-6.758 11.184 0 21.72 6.694 21.825 6.762.756.488 1.608.724 2.452.724h.123c2.445-.062 4.41-2.063 4.41-4.524 0-1.333-.578-2.533-1.498-3.36z" id="webcam-Shape"/><circle cx="28.872" cy="27.373" r="7.599"/><path d="M28.872.985C14.268.985 2.364 12 1.792 27h16.204c.548-6 5.216-9.843 10.876-9.843C34.532 17.157 39.2 21 39.747 27h16.205C55.382 12 43.475.985 28.872.985zm0 9.447c-1.47 0-2.66-1.192-2.66-2.662s1.19-2.662 2.66-2.662c1.47 0 2.662 1.192 2.662 2.662s-1.192 2.662-2.663 2.662z" id="webcam-Shape"/><path d="M28.872 38.304c-5.66 0-10.328-4.325-10.876-9.843H1.793c.572 14.465 12.475 26.016 27.08 26.016 14.602 0 26.508-11.55 27.08-26.015H39.745c-.547 5.52-5.215 9.844-10.874 9.844z"/></g></symbol><symbol viewBox="0 0 11 6" id="icon-xls"><title>XLS</title><path d="M.026 5l1.661-2.238L.224.705H.9l.78 1.102c.16.228.276.404.344.527.096-.156.21-.32.34-.49L3.23.705h.617L2.337 2.73 3.965 5H3.26L2.18 3.468c-.06-.088-.123-.184-.188-.287-.096.157-.164.264-.205.323L.71 5H.025zM4.44 5V.705h.57v3.788h2.115V5H4.44zM7.61 3.62l.537-.047c.025.215.084.39.177.53.093.137.237.248.432.333.195.085.415.127.66.127.216 0 .407-.032.573-.096.166-.065.29-.153.37-.265.082-.113.122-.235.122-.368 0-.135-.04-.252-.118-.353-.078-.1-.207-.184-.386-.252-.116-.045-.37-.115-.765-.21-.394-.095-.67-.184-.828-.268-.205-.107-.358-.24-.46-.4-.1-.16-.15-.337-.15-.535 0-.216.062-.42.185-.607.123-.19.303-.332.54-.43.235-.097.498-.146.787-.146.32 0 .6.05.842.154.244.102.43.253.562.452.13.2.2.425.21.677l-.544.04c-.03-.27-.13-.476-.298-.614-.17-.138-.418-.207-.748-.207-.344 0-.595.063-.752.19-.157.125-.236.277-.236.454 0 .155.056.282.167.38.11.1.395.203.857.307.462.105.78.196.95.274.25.116.435.262.555.438.118.177.177.38.177.61 0 .23-.065.445-.196.647-.13.202-.318.36-.563.472-.245.112-.52.168-.828.168-.39 0-.715-.056-.978-.17-.262-.113-.468-.283-.618-.51-.15-.228-.228-.486-.236-.773z" fill-rule="evenodd"/></symbol></svg>