<svg xmlns="http://www.w3.org/2000/svg"><symbol viewBox="0 0 96 116" id="icon-socialbro"><title>logo</title><g fill-rule="evenodd"><path d="M47.985 95.26c-2.904 0-5.683-.763-7.795-2.104L11.983 75 2.56 81.047c-3.413 2.202-3.413 5.8 0 7.966l39.234 25.222c1.707 1.107 3.952 1.655 6.19 1.655 2.243 0 4.498-.548 6.202-1.655L93.42 89.013c3.413-2.166 3.413-5.764 0-7.966L83.996 75l-28.2 18.156c-2.124 1.34-4.898 2.105-7.812 2.105"/><path d="M93.42 54.06L83.996 48 68.382 58.048l-1.358.87-1.38.888-9.847 6.334c-2.124 1.363-4.898 2.117-7.812 2.117-2.904 0-5.683-.754-7.795-2.117l-9.868-6.334-1.366-.887-1.353-.872L11.983 48 2.56 54.06c-3.413 2.193-3.413 5.767 0 7.965l9.423 6.06 1.35.883 1.38.86 27.08 17.426c1.708 1.076 3.953 1.652 6.192 1.652 2.242 0 4.497-.576 6.2-1.652L81.26 69.83l1.38-.862 1.357-.884 9.422-6.06c3.413-2.197 3.413-5.77 0-7.964"/><path d="M93.42 26.86L54.185 1.65C52.482.554 50.226 0 47.986 0S43.5.554 41.793 1.648L2.56 26.86c-3.413 2.19-3.413 5.79 0 7.987l9.423 6.05 1.35.878 1.38.873 15.61 10.037 1.35.887 1.383.876 8.738 5.616c1.707 1.085 3.952 1.64 6.19 1.64 2.243 0 4.498-.555 6.202-1.64l8.733-5.616 1.376-.876 1.347-.887L81.26 42.648l1.38-.873 1.357-.877 9.422-6.05c3.413-2.2 3.413-5.797 0-7.987"/></g></symbol><symbol viewBox="0 0 13 16" id="icon-trash"><title>Shape</title><path d="M8.357 2V1c0-.552-.415-1-.928-1H5.57c-.512 0-.927.448-.927 1v1H0v1h13V2H8.357zM7.43 2H5.57V1h1.86v1zM.93 14c0 1.105.83 2 1.856 2h7.428c1.026 0 1.858-.895 1.858-2V4H.93v10zm7.427-8h1.857v8H8.357V6zM5.57 6h1.86v8H5.57V6zM2.787 6h1.857v8H2.786V6z" fill-rule="evenodd"/></symbol><symbol viewBox="0 0 8 5" id="icon-triangle-down"><title>Triangle 2</title><path d="M.225.3h7l-3.5 4-3.5-4z" fill-rule="evenodd"/></symbol><symbol viewBox="0 0 274 223" id="icon-twitter"><title>Fill 1</title><path d="M85.98 223c-31.675 0-61.158-9.285-85.98-25.2 4.388.52 8.853.784 13.38.784 26.278 0 50.463-8.967 69.66-24.01-24.545-.453-45.26-16.67-52.396-38.953 3.424.656 6.938 1.007 10.552 1.007 5.116 0 10.07-.685 14.778-1.967-25.66-5.152-44.993-27.822-44.993-54.998 0-.236 0-.47.005-.705 7.563 4.2 16.21 6.724 25.406 7.015C21.34 75.914 11.44 58.746 11.44 39.287c0-10.28 2.766-19.914 7.594-28.198 27.664 33.933 68.993 56.263 115.61 58.602-.957-4.105-1.454-8.386-1.454-12.782 0-30.975 25.114-56.088 56.09-56.088 16.133 0 30.71 6.812 40.942 17.713 12.776-2.516 24.78-7.184 35.617-13.61-4.188 13.096-13.08 24.088-24.662 31.03 11.346-1.356 22.156-4.37 32.215-8.832-7.52 11.248-17.03 21.127-27.988 29.035.108 2.405.162 4.824.162 7.256C245.564 137.534 189.148 223 85.98 223" fill-rule="evenodd"/></symbol></svg>